<svg xmlns="http://www.w3.org/2000/svg" viewBox="0 0 150 138"><defs><style>.cls-1{isolation:isolate;}.cls-2,.cls-6{fill:#fff;}.cls-3{fill:#e83d32;}.cls-4{fill:#231f20;opacity:0.3;mix-blend-mode:multiply;}.cls-5{fill:#258cc0;}.cls-6{font-size:40.58px;}.cls-6,.cls-7{font-family:MijaW03-Bold, MijaW03-Bold;}.cls-7{font-size:30.32px;letter-spacing:-0.02em;}.cls-14,.cls-7{fill:#3a3a3a;}.cls-8{letter-spacing:-0.01em;}.cls-9{fill:#fbb040;}.cls-10{fill:#f1f2f2;}.cls-11{fill:#f26522;}.cls-12{fill:#f15a29;}.cls-13{fill:#808285;}</style></defs><title>Artboard 1 copy</title><g class="cls-1"><g id="Layer_1" data-name="Layer 1"><polygon class="cls-2" points="46.4 86.96 25.49 79.56 19.29 54.79 17.45 46.9 8.34 32.51 12.63 28.55 26.55 30.34 42.09 36.18 59.83 20.15 68.82 12.04 69.66 32.69 80.03 47.98 78.4 64.47 64.85 82.44 46.4 86.96"/><path class="cls-3" d="M92.59,55.29a19.11,19.11,0,0,0-10.92-11s3.25-.65,4.31-.16a17.57,17.57,0,0,0-9.43-4.3l-3.41-9.73,4.44.51s-.57-1.58-5-3c1.83-6-1.59-15.78-1.59-15.78C57.36,13,53.9,20.85,53.15,23.25a63,63,0,0,0-11.79,3.9,13.72,13.72,0,0,1,5.47-4.21,19.17,19.17,0,0,0-14.27,7.74s-14.77-6.41-26.48-.24c0,0,.09,6.48,11.38,20.3,0,0-7.49,7.43-8.24,14.67,0,0,3.52-7.08,6.08-9,0,0-8.87,14.44-2.25,22.88,0,0-1.08-5.88.38-7.92a29.78,29.78,0,0,0,2.43,10.14l-.31-.13a6.15,6.15,0,0,1,.82.8l.06.08a13.54,13.54,0,0,1,2.44.42c-.64-1.7-1.14-3.56-.81-4.77a51.57,51.57,0,0,0,2.74,5.44c.32.13.64.26.95.42,1.9,1,3.71,2,5.5,3.16l2.91.26c4.68,1.14,7.77,2.2,12.87,2.58,4.67.35,9.26.81,13.89,1.43,2.23.29,3.79-.42,6.22-.87,3.32-.61,5.21-2.21.09.79a20.34,20.34,0,0,1,4.26-1.88l0,0h0l.87-.41a11.62,11.62,0,0,0,2.15-1.41,21.38,21.38,0,0,0,6.25-8.69s-.32,5-.95,5.8c0,0,5.65-5.09,6.25-10.74a49.29,49.29,0,0,1-.34,6s6-7,6.82-15.34a14.45,14.45,0,0,1,.19,3.45s6.92-4.71.49-14.2A4.78,4.78,0,0,1,92.59,55.29Zm-73-10.83c-5-3-8.41-11.31-8.41-11.31C17,30,26.7,34.65,26.7,34.65,22.42,38.38,19.55,44.46,19.55,44.46ZM56.88,62.91C51.24,64.51,44.94,61.6,43,54.79s-.18-18,5.46-19.56,13,7,14.94,13.76S62.51,61.3,56.88,62.91ZM68.34,29.19s-7.62-4.38-10.43-5c-1.22-.26,2.51-6.61,10-8.19C67.94,16,71.22,25.12,68.34,29.19Z"/><path class="cls-3" d="M13.13,71.63s1.48,14.69,9.34,20.23c0,0-3-5.84-3.42-8.64,0,0,4.23,11.22,21.57,12.41a20.48,20.48,0,0,1-8.51-5.46s23,9.13,38-2.5l-32-4.94S22.66,70.65,22.32,70.65,13.13,71.63,13.13,71.63Z"/><path class="cls-2" d="M44.62,79.08c6.91,2.35,15,1.27,24.09-3.21a.4.4,0,0,0,.18-.52.39.39,0,0,0-.52-.17C58.65,80,50.14,80.8,43.06,77.63c-11-4.92-14.76-18-14.8-18.09a.39.39,0,0,0-.48-.27.38.38,0,0,0-.26.47c0,.14,3.89,13.53,15.23,18.6C43.36,78.61,44,78.86,44.62,79.08Z"/><path class="cls-2" d="M23.39,61.3s1.27-10.88,8.45-3.44c0,0-6.15-5.06-8.38,5.12"/><path class="cls-2" d="M67.1,57.86c-4.36,2.5,6.68,4.31,6.68,4.31A20.46,20.46,0,0,0,76,55.65C76.33,52.68,71.46,55.36,67.1,57.86Z"/><ellipse class="cls-3" cx="51.81" cy="55.47" rx="1.59" ry="3.75" transform="translate(-4.97 5.1) rotate(-5.37)"/><ellipse class="cls-2" cx="67.89" cy="51.37" rx="1.59" ry="3.75" transform="translate(-4.51 6.58) rotate(-5.37)"/><polygon class="cls-4" points="38.19 133.42 122.81 142.5 124.07 133.45 38.19 133.42"/><rect class="cls-5" x="12.24" y="83.59" width="120.85" height="47.06" rx="3.68" ry="3.68"/>

<text class="cls-6" transform="translate(36.58 119.82)">838</text>

<path class="cls-9" d="M115.24,65.2c-3,2.55-7.39.45-9.59-2.16-1-1.14-1.69-2.85-2.84-3.73-1.61-1.31-3.18.35-2.5,2.1a8.42,8.42,0,0,0,3.7,3.88c-1.41-1-3.75-1.29-5.19-.17-2,1.52-.32,3.51,1.35,4.29a9,9,0,0,0,4.68.63c-1.65.27-3.56.58-4.23,2.36s.71,3.19,2.29,4a6.24,6.24,0,0,0,3,.58,9.27,9.27,0,0,0,5.48-2.21,12.49,12.49,0,0,0,3.45-3.82c.64-1.37,1.25-3.79.43-5.16"/><path class="cls-10" d="M138,79.32s-9.32,1.93-8.46-15.92S107,54.61,108.65,67.14,124.91,90.09,138,79.32Z"/><path class="cls-9" d="M137,79.37c-2.42-.12-8.08-1.88-7.4-16s-13.64-11.43-19-3.59a4.45,4.45,0,0,1,.55-.33c1.64-.78,2.12,1,2.27,2.22a4.05,4.05,0,0,1,1.42-2,5.74,5.74,0,0,1,4.86-1.43,4,4,0,0,1,2.48,1.86c.91,1.7.89,4.05.81,5.93a46.73,46.73,0,0,0,0,8.85,11.76,11.76,0,0,0,2.24,5.67,6.07,6.07,0,0,0,3.25,1.85c2.11.41,4.3-.57,6.12-1.53A17.42,17.42,0,0,0,137,79.37Z"/><path class="cls-9" d="M136.58,79.74a5.56,5.56,0,0,0-.79-1.67,8.35,8.35,0,0,1-.88-1.77,1.91,1.91,0,0,1,.08-1.65c.37-.49.82,0,1,.39a5.11,5.11,0,0,1,.41,1.68c.06.57,0,1.16.09,1.73a4.87,4.87,0,0,1,.33-1.84c.08-.27.26-.81.59-.86.68-.11.32,1.3.25,1.56-.16.64-.31,1.27-.44,1.92a9.85,9.85,0,0,0,.67-.89c.18-.23.36-.57.67-.66A.31.31,0,0,1,139,78c0,.51-.39.89-.76,1.17a9,9,0,0,1-1.44,1"/><polygon class="cls-11" points="112.16 67.27 116.09 67.23 114.19 70.99 112.16 67.27"/><path class="cls-12" d="M130.91,74.47s-5.2-1-6-7.89l5.36,5.6A10,10,0,0,0,130.91,74.47Z"/><path class="cls-9" d="M124.86,66.23c3.79,1.1,6.93-2.6,7.88-5.89.42-1.43.38-3.29,1.08-4.55.93-1.86,3.05-1,3.13.89a8.36,8.36,0,0,1-1.8,5.06c.9-1.47,2.9-2.71,4.67-2.27,2.47.56,1.73,3.07.52,4.46a9,9,0,0,1-4,2.49c1.61-.43,3.48-.92,4.82.43s.65,3.2-.48,4.56a6.17,6.17,0,0,1-2.46,1.72,9.17,9.17,0,0,1-5.9.22,12.37,12.37,0,0,1-4.7-2.08c-1.15-1-2.92-3.44-2.73-5"/><path class="cls-13" d="M112.9,65.69a.27.27,0,0,1-.27-.18c-.24-.6-.81-1.55-1.31-1.56h0c-.32,0-.68.43-1,1.21a.3.3,0,0,1-.38.15.29.29,0,0,1-.16-.38c.45-1.05,1-1.56,1.55-1.56h0c1.06,0,1.77,1.73,1.85,1.93a.28.28,0,0,1-.17.37A.18.18,0,0,1,112.9,65.69Z"/><path class="cls-13" d="M115.49,65.58h-.07a.3.3,0,0,1-.21-.36c.3-1.11.73-1.68,1.33-1.76,1-.14,2,1.46,2.09,1.65a.29.29,0,0,1-.5.28c-.32-.56-1-1.42-1.52-1.36-.32,0-.62.52-.84,1.34A.3.3,0,0,1,115.49,65.58Z"/><circle class="cls-10" cx="138.02" cy="24.15" r="20.31"/><path class="cls-10" d="M139.74,36.81c-.1.77-12.7,13.72-12.7,13.72l4-16.12Z"/><path class="cls-14" d="M144.57,18.87c.16-.81-.08-1-.88-.74-2.18.72-4.39,1.37-6.59,2a1.2,1.2,0,0,0-1,1.05c-.47,2.69-1,5.38-1.49,8.07a5.12,5.12,0,0,1-4.53,4.6A4.2,4.2,0,0,1,126,31.78a3,3,0,0,1,1.9-4.3,4.66,4.66,0,0,1,4.88,1.45c.16.18.21.58.55.46s.28-.42.29-.69c.12-2.23.26-4.47.37-6.7.07-1.56.14-3.12.17-4.68,0-.57.21-.89.78-1l11.45-1.64c.73-.1,1.46-.19,2.19-.31.54-.08.79.1.69.67l-.06.35c-.28,1.72-.28,1.74-2,1.88a.67.67,0,0,0-.74.67c-.46,2.93-1,5.86-1.41,8.8-.5,3.36-4,5.39-6.81,4a3.35,3.35,0,0,1-1.94-3.93,3.4,3.4,0,0,1,3.61-2.11,4.46,4.46,0,0,1,3.32,1.61c.14.17.23.47.54.37s.26-.36.28-.6C144.22,23.66,144.4,21.25,144.57,18.87Z"/></g></g></svg>