<svg xmlns="http://www.w3.org/2000/svg" xmlns:xlink="http://www.w3.org/1999/xlink" viewBox="0 0 450 480"><defs><style>.cls-1{isolation:isolate;}.cls-2{opacity:0.7;fill:url(#radial-gradient);}.cls-2,.cls-3{mix-blend-mode:multiply;}.cls-3{opacity:0.3;fill:url(#radial-gradient-2);}.cls-4{fill:url(#linear-gradient);}</style><radialGradient id="radial-gradient" cx="730.33" cy="-55938.89" r="93.76" gradientTransform="translate(-402.72 6974.5) scale(0.73 0.12)" gradientUnits="userSpaceOnUse"><stop offset="0" stop-color="#404041"/><stop offset="1" stop-color="#231f20" stop-opacity="0"/></radialGradient><radialGradient id="radial-gradient-2" cx="1010.6" cy="-55938.89" r="93.76" xlink:href="#radial-gradient"/><linearGradient id="linear-gradient" x1="231.55" y1="402.3" x2="154.96" y2="75.5" gradientUnits="userSpaceOnUse"><stop offset="0" stop-color="#e93722"/><stop offset="1" stop-color="#f86f25"/></linearGradient></defs><title>Artboard 1</title><g class="cls-1"><g id="Layer_1" data-name="Layer 1"><ellipse class="cls-2" cx="126.98" cy="410.17" rx="68" ry="11"/><ellipse class="cls-3" cx="330.26" cy="410.17" rx="68" ry="11"/><path class="cls-4" d="M168.12,313.11q-9,1.74-11.94,5.25a15.21,15.21,0,0,0-3.57,8l-8,59.26a77.75,77.75,0,0,1-2.08,10.67,21.32,21.32,0,0,1-4.71,8.49,26.61,26.61,0,0,1-9.26,6.45,77.91,77.91,0,0,1-16.22,4.62q-16.5,3.21-24-.22t-9.25-12.38a30.6,30.6,0,0,1-.58-5.51,66.52,66.52,0,0,1,.37-6.92q.39-4.23,1.38-10.54t2.91-16.46q4.37-25.29,9.78-59.11t10.81-66.4q5.4-32.59,9.78-59.11t6.13-37.62q2.73-18.61,5.72-30.94t8.11-19.91a33.86,33.86,0,0,1,13.38-11.65q8.26-4,21.92-6.71,12.72-2.47,21.52-1.25a33.74,33.74,0,0,1,16,6.68A63.06,63.06,0,0,1,220,93q6.53,9.73,14.65,23.8,33.29,58.07,62.6,104.45t49.19,78.21q12.22,20.12,17.86,30.27T371.1,346a24.38,24.38,0,0,1,.34,6.78,12.62,12.62,0,0,1-3.29,7,26.84,26.84,0,0,1-9,6.4q-6,2.89-16.88,5a96.9,96.9,0,0,1-17,2.07,37.08,37.08,0,0,1-11-1.28,18.26,18.26,0,0,1-7.41-4.18,42.9,42.9,0,0,1-5.71-6.71q-2.71-3.87-7.28-11.05T284.6,335q-4.72-7.88-9.66-15.73t-8.11-14.07q-3.74-6.61-7.63-7.81t-14.74.91Zm61-58.32q6.59-1.28,5.41-7.41-.82-4.24-6-13.26T212,206.79L190.36,170.9q-4.48-7.93-9.19-7a5.91,5.91,0,0,0-4.25,3.27,16.11,16.11,0,0,0-1.64,6.68q-1.27,8.57-2.44,16.37t-3.14,22.86q-1.88,15.53-3.1,24.32t-1.72,13.78q-.5,5-.6,7a15.71,15.71,0,0,0,.26,3.86q1,5.19,8.07,3.81Z"/></g></g></svg>