<svg xmlns="http://www.w3.org/2000/svg" viewBox="0 0 310 400" width="310" height="400"><defs><style>.cls-10{fill:#fff}.cls-13{fill:#25a9e0}.cls-14{fill:#915a46}.cls-15{fill:#143570}.cls-16{fill:#e73c31}.cls-17{fill:#1d4daf}.cls-18{fill:#fbd10d}.cls-24{fill:none;stroke-miterlimit:10}.cls-22{fill:#fcee21}.cls-24{stroke:#143570;stroke-width:1.27px}</style></defs><g style="isolation:isolate"><g id="Layer_1" data-name="Layer 1"><path d="M294.4 205.18l2.93-.4c-2.79-41.35-18.24-80-52.15-106-26.06-20-59-29.87-91.69-29.87-33.75 0-67.71 10.58-94.16 31.85-29.72 23.9-44.47 57.67-48.78 94.21a17.38 17.38 0 0 1 4.41-.4c.88 0 1.77.05 2.66.13 4.38-34.9 18.66-66.92 47.43-89.51 25-19.61 56.85-29.36 88.44-29.36s63.46 9.75 88.43 29.36c32.05 25.17 46.17 62 48.53 101.5a22.86 22.86 0 0 1 3.95-1.51z" fill="red"/><path d="M286 207.68h1.1c.5 0 1 0 1.48.06a21.23 21.23 0 0 1 2-1.1c-2.38-39.49-16.51-76.37-48.57-101.54-25-19.63-56.9-29.39-88.51-29.39S90 85.47 65 105.1c-28.79 22.61-43.13 54.66-47.48 89.55a16.69 16.69 0 0 1 3.7.69c.14 0 1.71.69 3.1 1.28 3.92-33 17.07-63.37 44-85.06C92.16 92.27 123 82.72 153.49 82.72c29.55 0 59.17 8.92 82.76 27 31.47 24 45.2 59.71 47.4 98.08a16.78 16.78 0 0 1 2.35-.12z" fill="#ff7f00"/><path d="M277.54 209.57a16.5 16.5 0 0 1 6.23-1.84c-2.2-38.4-15.95-74.08-47.44-98.16-23.61-18-53.27-27-82.84-27-30.57 0-61.38 9.56-85.32 28.87-26.91 21.7-40.07 52.1-44 85.1 1.14.49 2.21.94 2.32 1s3.32 2.53 4.25 3.27c3.4-34.16 16.89-65.54 45.61-86.75 22.15-16.36 49.7-24.55 77.13-24.55s55 8.15 77.13 24.55c31.13 23.12 44.44 58.06 46.27 95.7z" fill="#ff0"/><path d="M271.5 213.1a16.17 16.17 0 0 1 5.51-3.34c-1.84-37.67-15.16-72.62-46.32-95.76-22.11-16.42-49.79-24.57-77.2-24.57s-55 8.19-77.21 24.57c-28.72 21.21-42.23 52.6-45.65 86.76a3.22 3.22 0 0 1 .36.29 13 13 0 0 1 3.7 5H37.22c5.16-62.8 50.84-109.79 116.27-109.64 67.85.14 114.46 50.1 116.68 116.68z" fill="#00bc3f"/><path d="M153.49 96.08c-65.63 0-111.5 46.83-116.64 110a23.49 23.49 0 0 1 6.2.86c.25.07.47.15.71.23 4.69-59.68 47.7-104.07 109.73-104.07 64.07 0 107.85 47.34 110.06 110h7c-2.2-66.7-49.02-117.02-117.06-117.02z" fill="#0068ff"/><path d="M256.42 208.28a17.12 17.12 0 0 1 3 2.56 18 18 0 0 1 1.36 1.41c.25.28.48.56.71.85h2.19c-2.21-62.76-46-110.16-110.18-110.16-62.09 0-105.14 44.43-109.85 104.16l.72.24a17.12 17.12 0 0 1 3.45-.21 16.53 16.53 0 0 1 2.83.13c4.6-55.87 44.64-97.25 102.85-97.37 58.55-.12 98.73 42.11 102.92 98.39z" fill="#7a00e5"/><path d="M252.33 206.29a16.16 16.16 0 0 1 4.3 2.14c-4.14-56.44-44.41-98.86-103.14-98.74-58.32.12-98.44 41.58-103.06 97.54a16.42 16.42 0 0 1 5.86 1.77c.33.11.66.23 1 .36 3.72-53.06 41.19-92.67 96.22-92.67 53.52 0 90.43 37.47 95.83 88.35a17.31 17.31 0 0 1 2.99 1.25z" fill="#d300c9"/><g opacity=".72"><path class="cls-10" d="M294.4 205.18l2.93-.4c-2.79-41.35-18.24-80-52.15-106-26.06-20-59-29.87-91.69-29.87-33.75 0-67.71 10.58-94.16 31.85-29.72 23.9-44.47 57.67-48.78 94.21a17.38 17.38 0 0 1 4.41-.4c.88 0 1.77.05 2.66.13 4.38-34.9 18.66-66.92 47.43-89.51 25-19.61 56.85-29.36 88.44-29.36s63.46 9.75 88.43 29.36c32.05 25.17 46.17 62 48.53 101.5a22.86 22.86 0 0 1 3.95-1.51z"/><path class="cls-10" d="M286 207.68h1.1c.5 0 1 0 1.48.06a21.23 21.23 0 0 1 2-1.1c-2.38-39.49-16.51-76.37-48.57-101.54-25-19.63-56.9-29.39-88.51-29.39S90 85.47 65 105.1c-28.79 22.61-43.13 54.66-47.48 89.55a16.69 16.69 0 0 1 3.7.69c.14 0 1.71.69 3.1 1.28 3.92-33 17.07-63.37 44-85.06C92.16 92.27 123 82.72 153.49 82.72c29.55 0 59.17 8.92 82.76 27 31.47 24 45.2 59.71 47.4 98.08a16.78 16.78 0 0 1 2.35-.12z"/><path class="cls-10" d="M277.54 209.57a16.5 16.5 0 0 1 6.23-1.84c-2.2-38.4-15.95-74.08-47.44-98.16-23.61-18-53.27-27-82.84-27-30.57 0-61.38 9.56-85.32 28.87-26.91 21.7-40.07 52.1-44 85.1 1.14.49 2.21.94 2.32 1s3.32 2.53 4.25 3.27c3.4-34.16 16.89-65.54 45.61-86.75 22.15-16.36 49.7-24.55 77.13-24.55s55 8.15 77.13 24.55c31.13 23.12 44.44 58.06 46.27 95.7z"/><path class="cls-10" d="M271.5 213.1a16.17 16.17 0 0 1 5.51-3.34c-1.84-37.67-15.16-72.62-46.32-95.76-22.11-16.42-49.79-24.57-77.2-24.57s-55 8.19-77.21 24.57c-28.72 21.21-42.23 52.6-45.65 86.76a3.22 3.22 0 0 1 .36.29 13 13 0 0 1 3.7 5H37.22c5.16-62.8 50.84-109.79 116.27-109.64 67.85.14 114.46 50.1 116.68 116.68z"/><path class="cls-10" d="M153.49 96.08c-65.63 0-111.5 46.83-116.64 110a23.49 23.49 0 0 1 6.2.86c.25.07.47.15.71.23 4.69-59.68 47.7-104.07 109.73-104.07 64.07 0 107.85 47.34 110.06 110h7c-2.2-66.7-49.02-117.02-117.06-117.02z"/><path class="cls-10" d="M256.42 208.28a17.12 17.12 0 0 1 3 2.56 18 18 0 0 1 1.36 1.41c.25.28.48.56.71.85h2.19c-2.21-62.76-46-110.16-110.18-110.16-62.09 0-105.14 44.43-109.85 104.16l.72.24a17.12 17.12 0 0 1 3.45-.21 16.53 16.53 0 0 1 2.83.13c4.6-55.87 44.64-97.25 102.85-97.37 58.55-.12 98.73 42.11 102.92 98.39z"/><path class="cls-10" d="M252.33 206.29a16.16 16.16 0 0 1 4.3 2.14c-4.14-56.44-44.41-98.86-103.14-98.74-58.32.12-98.44 41.58-103.06 97.54a16.42 16.42 0 0 1 5.86 1.77c.33.11.66.23 1 .36 3.72-53.06 41.19-92.67 96.22-92.67 53.52 0 90.43 37.47 95.83 88.35a17.31 17.31 0 0 1 2.99 1.25z"/></g><path d="M13.34 405.41C7.6 399 5.07 389.26 8.79 381.5s14.55-11.77 21.65-6.91a8.29 8.29 0 0 1 .91-11.11 8.3 8.3 0 0 1 11.13.58c-7.9-6.78-12.64-17.31-11.79-27.69s7.54-20.24 17.13-24.29 21.69-1.74 28.67 6c-5.5-9.73.1-23.48 10.41-27.79s23.13.37 29.46 9.57c-1.88-11.16 5.19-22.72 15.34-27.75s22.56-4.15 32.86.57c9.77 4.47 18.63 14 17.13 24.68 1.23-7.92 7.59-14.47 15.12-17.21s16-2.08 23.58.47c10.55 3.55 20.28 11.36 23.27 22.08 1.71 6.11-.31 14.46-6.57 15.51A12.64 12.64 0 0 1 258.74 329c0-3.18 3-5.79 6.1-6.31s6.33.61 9.13 2.11c4.77 2.54 9 6.34 11.28 11.24 3.5 7.59 1.63 17-3.53 23.57s-13.16 10.5-21.38 12a32.69 32.69 0 0 1 42.39 38" fill="#acd866"/><path d="M224.57 381.51c0 1.32-32.59 2.39-72.78 2.39S79 382.83 79 381.51s32.58-2.4 72.77-2.4 72.8 1.07 72.8 2.4z" style="mix-blend-mode:multiply" fill="#231f20" opacity=".15"/><path class="cls-13" d="M137.79 185.6h7.93v184.34h-7.93zM162.15 185.6h7.93v184.34h-7.93z"/><path class="cls-14" d="M138.23 369.18s-6.3 9.49-20.93 9.12l-.47 3s18.71 1.93 24.58-6.91l-.55 6.84 6.26.58-1.65-13.5zM169.38 369.52s6.62 9.27 21.24 8.39l.56 3s-18.62 2.57-24.79-6.06l.78 6.82-6.25.46 1.2-13.22z"/><path class="cls-14" d="M169.61 369.37l4.66-35.51H160l2.15 36.07 7.46-.56zM145.29 369.37l4.66-35.51h-14.27l2.15 36.07 7.46-.56z"/><path class="cls-15" d="M254 215.87s3.55 32.2-8.38 36.75l-8.14-25.05 2.06-11.7z"/><path class="cls-16" d="M184.27 207.76c9 4.07 19.58 6.11 28.07 7.76l1.85.36c16.94 3.31 34.71 6.07 49.39.41l-2.42-6.29c-13 5-29.7 2.38-45.67-.74l-1.86-.36c-12-2.33-28.56-5.53-36.89-14.08l-4.83 4.7a40 40 0 0 0 12.36 8.24z"/><path class="cls-16" d="M263.37 215.44c-5.25-.12-23.49-12.49-15.84-16.77 6-3.1 14.42 9.55 17.18 13.47l.55-.4a43.59 43.59 0 0 1 7.43-5.8c4.23-2.51 26.11-12.4 30.31-7.16 6 6.83-23.52 13.24-28.29 14.29 7.78-1.51 22.11 1.55 25.23 9.75-5.69 7.07-22.42-5.53-27.64-9.38 2.63 3 12.18 13 4 13.65-4.26.35-7.85-5-9.87-8.08"/><path class="cls-17" d="M245.06 211.44l.56 41.18-61.35-44.86.13-8.56s35.6 13.35 60.66 12.24z"/><path class="cls-15" d="M55.78 208.29s-3.55 32.21 8.38 36.76L72.3 220l-2.06-11.71z"/><path class="cls-16" d="M125.51 200.19c-9 4.06-19.58 6.11-28.08 7.76l-1.84.36c-16.94 3.31-34.71 6.06-49.4.41l2.43-6.29c13 5 29.7 2.38 45.67-.74l1.86-.36c12-2.34 28.56-5.54 36.88-14.09l4.84 4.71a40 40 0 0 1-12.36 8.24z"/><path class="cls-16" d="M46.41 207.87c5.25-.12 23.49-12.49 15.83-16.78-6-3.09-14.41 9.56-17.17 13.47l-.56-.39a43.13 43.13 0 0 0-7.42-5.8C32.86 195.86 11 186 6.78 191.21.79 198 30.3 204.45 35.07 205.5 27.29 204 13 207 9.84 215.24c5.69 7.08 22.42-5.53 27.63-9.37-2.62 3-12.17 13-3.95 13.65 4.26.35 7.85-5 9.87-8.09"/><path class="cls-17" d="M64.72 203.87l-.56 41.18 61.35-44.86-.13-8.57S89.76 205 64.72 203.87z"/><path class="cls-17" d="M182.39 171.11l33.05 146.31S90 311.74 91.51 312.26 131.14 167 131.14 167z"/><path class="cls-18" d="M124.73 313.32l-10.28-3.63.27-10.9-6.62 8.66-10.29-3.63 6 8.78c5.55.21 12.62.5 20.51.83z"/><path class="cls-10" d="M147.57 197.67l-9.61 116.03 6.61-.6 7.21-114.83-4.21-.6z"/><path class="cls-15" d="M204.81 259.74l-100.41-6.13-3.77 25.92 104.65 1.42-.47-21.21z"/><path stroke="#fbd10d" stroke-width="11.36" fill="none" stroke-miterlimit="10" d="M160.22 283.31l.47-31.54-38.13-2.82v33.42l37.66.94z"/><path class="cls-15" d="M279 159.3S120.42 124.72 36.79 66.38z"/><path class="cls-10" d="M138.19 87a17.34 17.34 0 0 0 9.35-6.25 110.2 110.2 0 0 1 14 8.72 13.28 13.28 0 0 0 7 2.56l1.46 1.22 3.79-1.6a14.21 14.21 0 0 0 6.44 7.15c7.3 7.69 16.09 13.6 25.54 18.79a18.5 18.5 0 0 0 8.93 2.29l-1.2 6.18-9.71 46.27-38.19 15.18-34.46-7.06-26.35-32.29-4.19-30.39 18-28.86A18.08 18.08 0 0 0 138.19 87z"/><path class="cls-16" d="M103.9 85.39s.44-1.36 3.27-3.17q1.76 1.08 3.54 2.13zM84.1 129c-11.23 18 1.9 26.22 1.9 26.22-.49-1.08.11-6.4.11-6.4 2.14 15.35 13.71 27.9 13.71 27.9-.63-1.86-1.07-11.11-1.07-11.11 1.51 10.41 12.33 19.44 12.33 19.44-1.23-1.52-2.17-10.68-2.17-10.68 0 4.09 6.37 10.48 9.09 13.32a55.68 55.68 0 0 0 12.5 9.8c9 5.19 20.89 8.1 31.26 7 8.6-.87 21.93-3.47 28.44-9.9a37.8 37.8 0 0 1-13.31 8.5c32-3.44 39-24.5 39-24.5-.61 5.22-5.7 16.25-5.7 16.25 13.14-10 15.53-34.27 15.8-37.69 2.08 4.29.72 13.75.72 13.75 11.66-16.1-5.78-42.18-5.78-42.18 4.88 3.37 11.9 16.22 11.9 16.22-1.58-11-11.62-21.9-15.11-25.39a18.27 18.27 0 0 1-12-2c-9.45-5.19-18.24-11.1-25.54-18.79a14.27 14.27 0 0 1-6.49-7.27 14.27 14.27 0 0 1-12.21-2.09 110.2 110.2 0 0 0-14-8.72 17.34 17.34 0 0 1-9.29 6.32 18 18 0 0 1-20.11 1.66c-2.09-1.21-4.18-2.41-6.25-3.62l-5.37 17.37A32.67 32.67 0 0 0 89.31 111c1.94-1 8 0 8 0-15.84 7.26-19.43 21.19-19.43 21.19A8.9 8.9 0 0 1 84.1 129zm85.5-1.23c-3.1 12.73-14.16 21-24.69 18.42s-16.57-15-13.47-27.71 16.13-29.09 26.66-26.52 14.6 23.04 11.5 35.78zm56.21 29h-.31v-.43a3.52 3.52 0 0 1 .31.42zm-100.57-21.63c8.25 4.31-12 8.45-12 8.45s-3.92-6.46-4.66-11.92 8.42-.85 16.66 3.47z"/><path class="cls-10" d="M164.81 179.87c-12.78 3.19-27.19 0-42.89-9.41a.69.69 0 0 1-.24-1 .7.7 0 0 1 1-.24c16.77 10.09 32 12.86 45.2 8.24 20.56-7.2 29.29-30.13 29.38-30.36a.7.7 0 1 1 1.31.49c-.09.23-9.05 23.77-30.23 31.18-1.19.45-2.34.8-3.53 1.1z"/><path class="cls-10" d="M205.73 151.07s-.65-19.8-14.71-7.48c0 0 11.84-8.19 14.32 10.49"/><path d="M148.65 132s-15.12 15.81-12.83-6.41" stroke="#e73c31" stroke-width="1.61" fill="none" stroke-miterlimit="10"/><path d="M128.49 121.49s-13.26 15.8-11.25-6.42" stroke="#fff" stroke-width="1.51" fill="none" stroke-miterlimit="10"/><path class="cls-17" d="M218.43 109c1.63-4 3.4-8.23 4.95-12.35 1.19-3.16 4.5-8.88.66-11.48-2.91-2-7.27-1.28-10.58-1.63A65 65 0 0 0 221.85 66c5.84 4.72 16.31-.55 16-8.05a381.8 381.8 0 0 0 25.76 55c6.76-10 4.18-23.48.7-35.08a330.25 330.25 0 0 0-17-44.5C241.38 20.59 232 6.48 217.9 6.08c-7.51-.22-14.49 3.69-20.72 7.9a170.37 170.37 0 0 0-40.73 39.28c2.21-2.94 2.63-24.69-3.45-22.3-3.24 1.28-5.89 4.59-7.8 7.35a174.79 174.79 0 0 0-18.52 34.48l-4.17-1.59s-31.64-6.56-85.72-4.82c0 0 220 84.44 242.21 92.92 0 0-29.66-30.73-60.57-50.3z"/><path class="cls-22" d="M187.94 51.58l1.4 12.77 12.59 2.6-11.71 5.29 1.4 12.77-8.64-9.5-11.71 5.28 6.36-11.16-8.64-9.5 12.58 2.6 6.37-11.15zM255.22 66.13l2.33 12.64 4.59-9.6q-3.43-10.37-7.54-20.48l-3.15-3 2.33 12.63-11.3 6.12z"/><path d="M191.25 39.69l24.63-18.09-7.4-13.4a57.14 57.14 0 0 0-10.64 5.92 164.27 164.27 0 0 0-16.75 13z" fill="#78a2ea"/><path class="cls-24" d="M180.77 35.86l7.87-5.99M194.47 33.73l3.46 5.69M201.76 28.95l4.17 3.84M208.98 24.48l2.71 4.54M211.77 17.43l4.73-3.65M208.94 11.88l4.93-2.96"/><path class="cls-15" d="M126.68 72.79s57.75 12.12 91.75 36.21c0 0-92.08-36.53-91.75-36.21z"/><path class="cls-18" d="M182.69 211.63l-.21 8.41 7.93 2.8-8.06 2.4-.21 8.41-4.77-6.93-8.07 2.4 5.12-6.68-4.78-6.93 7.94 2.8 5.11-6.68zM125.48 262.44l11.18.31-.31 4.97-11.49-1.24.62-4.04z"/><path d="M52.38 238.86c15.25 47.29 14 99.93 37.45 143.74 4.68-13.42-1-27.94-5.4-41.46-14.57-44.93-15-93.82-32.38-137.73-2.22-5.6-4.76-11.6-3.35-17.45.64-2.67 2.06-5.07 3.14-7.59 4.11-9.67 2.62-21.66-4.25-29.61s-19-11.11-28.63-6.91-15.63 15.74-12.9 25.89c1.16 4.36 3.93 8.44 8 10.39s9.46 1.3 12.41-2.11c3.94-4.56 11.37-11.68 15.78-2.36 2.16 4.56-2 9.85-2.7 14.33-2.55 16.58 7.86 35.46 12.83 50.87z" fill="#925946"/><path d="M42.25 173.66c1.91 4-1.1 8.61-2.31 12.7a12.51 12.51 0 0 0 3-5.68c1.6-6 .21-13.12-4.79-16.77a7.9 7.9 0 0 0-3.21-1.47 8.08 8.08 0 0 0-3.52.25c-5.86 1.57-10.54 7.19-16.6 6.92-3.79-.17-6.82-2.56-9.35-5.54a19.14 19.14 0 0 0 .61 3.67c1.16 4.36 3.93 8.44 8 10.39s9.46 1.3 12.41-2.11c3.92-4.56 11.35-11.68 15.76-2.36z" fill="#663f30"/><path d="M27.93 156.85a8.77 8.77 0 0 1-5.22 3.2 4.44 4.44 0 0 1-3.19-.65 4.39 4.39 0 0 1-1.77-2.74 7.29 7.29 0 0 1 1.59-6 10.55 10.55 0 0 1 5.11-3.39 15 15 0 0 1 6.05-.42 31.75 31.75 0 0 1 5.82 1.35 19.28 19.28 0 0 1 5.43 2.61 11.12 11.12 0 0 1 3.76 4.82 17.55 17.55 0 0 1 1.2 5.91 48.56 48.56 0 0 1-.15 5.92l-.87 11.7c-.28 3.9-.68 7.79-.72 11.67a44.33 44.33 0 0 0 1.12 11.59 37.2 37.2 0 0 1-1.88-11.58c-.06-3.94.21-7.85.47-11.75l.79-11.7c.24-3.85.4-7.83-1-11.31a10 10 0 0 0-3.47-4.25 18.41 18.41 0 0 0-5-2.44c-3.64-1.17-7.56-2-11.15-.94a9.47 9.47 0 0 0-4.54 3 6.15 6.15 0 0 0-1.42 5 3.32 3.32 0 0 0 1.3 2.09 3.36 3.36 0 0 0 2.42.49 7.77 7.77 0 0 0 4.59-2.77z" fill="#efb9ab"/></g></g></svg>