<?xml version="1.0" encoding="utf-8"?>
<svg version="1.1" xmlns="http://www.w3.org/2000/svg" xmlns:xlink="http://www.w3.org/1999/xlink" x="0" y="0"
	 viewBox="0 0 2000 350" width="2000" height="350" xml:space="preserve">
<g style="opacity:0.5;">
	<g>
		<path style="fill:#D1CB9A;" d="M1298.6,135.3h-76.9c-1.7,0-3,1.3-3,3c0-1.7-1.3-3-3-3h-76.9c-1.7,0-3,1.3-3,3v94.4
			c0,1.7,1.3,3,3,3h73.3c0.7,1.9,3.5,3.3,6.8,3.3c3.3,0,6.1-1.4,6.8-3.3h72.9c1.7,0,3-1.3,3-3v-94.4
			C1301.6,136.6,1300.2,135.3,1298.6,135.3z"/>
		<path style="fill:#D1CB9A;" d="M1218.8,240.3c-3.4,0-6.3-1.3-7.6-3.3h-72.5c-2.4,0-4.3-1.9-4.3-4.3v-94.4c0-2.4,1.9-4.3,4.3-4.3
			h76.9c1.2,0,2.2,0.5,3,1.2c0.8-0.8,1.8-1.2,3-1.2h76.9c2.4,0,4.3,1.9,4.3,4.3v94.4c0,2.4-1.9,4.3-4.3,4.3h-72.2
			C1225.1,239,1222.2,240.3,1218.8,240.3z M1138.7,136.6c-0.9,0-1.7,0.8-1.7,1.7v94.4c0,0.9,0.8,1.7,1.7,1.7h74.2l0.3,0.8
			c0.5,1.2,2.6,2.5,5.6,2.5c3,0,5.1-1.3,5.6-2.5l0.3-0.8h73.8c0.9,0,1.7-0.8,1.7-1.7v-94.4c0-0.9-0.8-1.7-1.7-1.7h-76.9
			c-0.9,0-1.7,0.8-1.7,1.7h-2.6c0-0.9-0.8-1.7-1.7-1.7H1138.7z"/>
	</g>
	<g>
		<defs>
			<path id="SVGID_1_" d="M1295.1,132.4h-73.6c-1.6,0-2.9,1.3-2.9,2.9c0-1.6-1.3-2.9-2.9-2.9h-73.6c-1.6,0-2.9,1.3-2.9,2.9v94.1
				c0,1.6,1.3,2.9,2.9,2.9h70.2c0.7,1.8,3.3,3.2,6.5,3.2c3.2,0,5.8-1.4,6.5-3.2h69.8c1.6,0,2.9-1.3,2.9-2.9v-94.1
				C1298,133.7,1296.7,132.4,1295.1,132.4z"/>
		</defs>
		<use xlink:href="#SVGID_1_"  style="overflow:visible;fill:#FFF9ED;"/>
		<clipPath id="SVGID_2_">
			<use xlink:href="#SVGID_1_"  style="overflow:visible;"/>
		</clipPath>
		<g style="clip-path:url(#SVGID_2_);">
			<rect x="1179.6" y="130.8" style="fill:#F1EEE0;" width="39.2" height="108.5"/>
		</g>
	</g>
	<g>
		<g>
			<path style="fill:#C0BAB2;" d="M1281.7,207.8h-46.8c-1.1,0-1.9-0.9-1.9-1.9c0-1.1,0.9-1.9,1.9-1.9h46.8c1.1,0,2,0.9,2,1.9
				C1283.6,206.9,1282.8,207.8,1281.7,207.8z"/>
		</g>
		<g>
			<path style="fill:#C0BAB2;" d="M1281.7,219.1h-46.8c-1.1,0-1.9-0.9-1.9-1.9c0-1.1,0.9-1.9,1.9-1.9h46.8c1.1,0,2,0.9,2,1.9
				C1283.6,218.3,1282.8,219.1,1281.7,219.1z"/>
		</g>
	</g>
	<g>
		<g>
			<path style="fill:#C0BAB2;" d="M1281.6,174.2h-46.8c-1.1,0-1.9-0.9-1.9-1.9c0-1.1,0.9-2,1.9-2h46.8c1.1,0,1.9,0.9,1.9,2
				C1283.6,173.4,1282.7,174.2,1281.6,174.2z"/>
		</g>
		<g>
			<path style="fill:#C0BAB2;" d="M1281.6,185.6h-46.8c-1.1,0-1.9-0.9-1.9-1.9c0-1.1,0.9-1.9,1.9-1.9h46.8c1.1,0,1.9,0.9,1.9,1.9
				C1283.6,184.7,1282.7,185.6,1281.6,185.6z"/>
		</g>
		<g>
			<path style="fill:#C0BAB2;" d="M1281.6,196.9h-46.8c-1.1,0-1.9-0.9-1.9-1.9c0-1.1,0.9-1.9,1.9-1.9h46.8c1.1,0,1.9,0.9,1.9,1.9
				C1283.6,196.1,1282.7,196.9,1281.6,196.9z"/>
		</g>
	</g>
</g>
<g style="opacity:0.2;">
	<g>
		<g>
			<path style="fill:#D1CB9A;" d="M1389.6,121.3l-6.2,0c0.1,12.1-5.9,21.9-21.5,22c-15.6,0.1-21.7-6.9-21.8-21.7l-6.2,0
				c0.2,18.9,8,28,28,27.8C1382.1,149.4,1389.7,136.8,1389.6,121.3z"/>
		</g>
		<g>
			<path style="fill:#C0BAB2;" d="M1362,143.3c15.6-0.1,21.6-9.9,21.5-22l-43.3,0.3C1340.3,136.4,1346.4,143.4,1362,143.3z"/>
		</g>
		<g>
			<path style="fill:#FFFFFF;" d="M1361.8,127.6c4.4,0,6-2.8,6-6.1l-12.1,0.1C1355.8,125.6,1357.5,127.6,1361.8,127.6z"/>
		</g>
	</g>
	<g>
		<g>
			<path style="fill:#D1CB9A;" d="M1389.6,122.7l-6.2,0c0.1-12-5.8-21.9-21.4-21.9c-15.6-0.1-21.7,7-21.9,21.7l-6.2,0
				c0.2-18.9,8.1-28,28.2-27.9C1382.2,94.6,1389.8,107.2,1389.6,122.7z"/>
		</g>
		<g>
			<path style="fill:#C0BAB2;" d="M1362,100.8c15.6,0.1,21.5,9.9,21.4,21.9l-43.3-0.2C1340.3,107.8,1346.4,100.7,1362,100.8z"/>
		</g>
		<g>
			<path style="fill:#FFFFFF;" d="M1361.9,116.5c4.3,0,6,2.8,6,6.1l-12.1-0.1C1355.8,118.4,1357.5,116.5,1361.9,116.5z"/>
		</g>
	</g>
	<g>
		<path style="fill:#FFFFFF;" d="M1349.4,126.1c-0.5,0-2.2,1.7-2.2,3c0,1.3,1,2,2.1,2c1.1,0,2-0.8,2-2.1
			C1351.3,127.6,1350.1,126,1349.4,126.1z"/>
	</g>
	<g>
		<path style="fill:#FFFFFF;" d="M1372.7,111.6c-0.5,0-2.2,1.7-2.2,3c0,1.3,1,2,2.1,2c1.1,0,2-0.8,2-2.1
			C1374.5,113.1,1373.3,111.5,1372.7,111.6z"/>
	</g>
	<g>
		<path style="fill:#FFFFFF;" d="M1368,131c-0.5,0-2.2,1.7-2.2,3c0,1.3,1,2,2.1,2c1.1,0,2-0.8,2-2.1
			C1369.8,132.6,1368.6,131,1368,131z"/>
	</g>
	<g>
		<path style="fill:#FFFFFF;" d="M1379.3,122c-0.5,0-2.2,1.7-2.2,3c0,1.3,1,2,2.1,2c1.1,0,2-0.8,2-2.1
			C1381.1,123.6,1379.9,122,1379.3,122z"/>
	</g>
	<g>
		<path style="fill:#FFFFFF;" d="M1350.2,110c-0.5,0-2.2,1.7-2.2,3c0,1.3,1,2,2.1,2c1.1,0,2-0.8,2-2.1
			C1352,111.6,1350.8,110,1350.2,110z"/>
	</g>
	<g>
		<path style="fill:#FFFFFF;" d="M1365.9,105.7c-0.5,0-2.2,1.7-2.2,3s1,2,2.1,2c1.1,0,2-0.8,2-2.1
			C1367.8,107.2,1366.6,105.6,1365.9,105.7z"/>
	</g>
	<g>
		<path style="fill:#FFFFFF;" d="M1355.9,133.5c-0.5,0-2.2,1.7-2.2,3c0,1.3,1,2,2.1,2c1.1,0,2-0.8,2-2.1
			C1357.8,135.1,1356.5,133.5,1355.9,133.5z"/>
	</g>
</g>
<g style="opacity:0.3;">
	<g>
		<g>
			<path style="fill:#E7E9EE;" d="M1386.7,281.6c0,3.6-3,6.6-6.6,6.6l-36.7,0c-3.6,0-6.6-3-6.6-6.6l0.1-82.9c0-3.6,2.9-6.6,6.6-6.6
				l36.7,0c3.6,0,6.6,3,6.6,6.6L1386.7,281.6z"/>
		</g>
		<g>
			<path style="fill:#FFFFFF;" d="M1336.9,251.2l0.1-52.6c0-3.6,2.9-6.6,6.6-6.6l36.7,0c3.6,0,6.6,3,6.6,6.6l0,5.5"/>
		</g>
		<g>
			<polygon style="fill:#D1CB9A;" points="1383.3,272.8 1340.2,272.7 1340.3,207.4 1383.4,207.4 			"/>
		</g>
		<g style="opacity:0.1;">
			<polyline style="fill:#685990;" points="1340.2,247.4 1340.3,207.4 1383.4,207.4 			"/>
		</g>
	</g>
</g>
<g style="opacity:0.3;">
	<g>
		<g>
			<g>
				<g>
					<defs>
						<path id="SVGID_3_" d="M1607.6,190.7c0,3.2-2.6,5.8-5.8,5.8H1423c-3.2,0-5.8-2.6-5.8-5.8V71.9c0-3.2,2.6-5.8,5.8-5.8h178.8
							c3.2,0,5.8,2.6,5.8,5.8V190.7z"/>
					</defs>
					<use xlink:href="#SVGID_3_"  style="overflow:visible;fill:#E7E9EE;"/>
					<clipPath id="SVGID_4_">
						<use xlink:href="#SVGID_3_"  style="overflow:visible;"/>
					</clipPath>
					<g style="clip-path:url(#SVGID_4_);">
						<rect x="1410.6" y="65.1" style="fill:#FFFFFF;" width="203.6" height="115.4"/>
					</g>
					<g style="clip-path:url(#SVGID_4_);">
						<polyline style="fill:#FFFFFF;" points="1410.6,180.4 1410.6,65.1 1614.2,65.1 						"/>
					</g>
				</g>
				<g>
					<path style="fill:#D7DAE1;" d="M1554.5,219.6c0,0.5-0.4,0.9-0.9,0.9h-82.2c-0.5,0-0.9-0.4-0.9-0.9v0c0-0.5,0.4-0.9,0.9-0.9
						h82.2C1554,218.6,1554.5,219.1,1554.5,219.6L1554.5,219.6z"/>
				</g>
				<g>
					<rect x="1425" y="73.2" style="fill:#D1CB9A;" width="174.8" height="99"/>
				</g>
				<g>
					<defs>
						<path id="SVGID_5_" d="M1537.4,218.3c0,0.3-0.2,0.5-0.5,0.5h-49c-0.3,0-0.5-0.2-0.5-0.5l5.8-21.3c0-0.3,0.2-0.5,0.5-0.5h37.4
							c0.3,0,0.5,0.2,0.5,0.5L1537.4,218.3z"/>
					</defs>
					<use xlink:href="#SVGID_5_"  style="overflow:visible;fill:#E7E9EE;"/>
					<clipPath id="SVGID_6_">
						<use xlink:href="#SVGID_5_"  style="overflow:visible;"/>
					</clipPath>
					<g style="clip-path:url(#SVGID_6_);">
						<rect x="1490.5" y="194.4" style="fill:#D7DAE1;" width="43.9" height="7.4"/>
					</g>
				</g>
			</g>
			<g style="opacity:0.1;">
				<polygon style="fill:#685990;" points="1425,73.2 1425,172.3 1599.8,73.2 				"/>
			</g>
		</g>
	</g>
</g>
<g style="opacity:0.5;">
	<g>
		<path style="fill:#D1CB9A;" d="M1813.6,135.3h-76.9c-1.7,0-3,1.3-3,3c0-1.7-1.3-3-3-3h-76.9c-1.7,0-3,1.3-3,3v94.4
			c0,1.7,1.3,3,3,3h73.3c0.7,1.9,3.5,3.3,6.8,3.3c3.3,0,6.1-1.4,6.8-3.3h72.9c1.7,0,3-1.3,3-3v-94.4
			C1816.6,136.6,1815.2,135.3,1813.6,135.3z"/>
		<path style="fill:#D1CB9A;" d="M1733.8,240.3c-3.4,0-6.3-1.3-7.6-3.3h-72.5c-2.4,0-4.3-1.9-4.3-4.3v-94.4c0-2.4,1.9-4.3,4.3-4.3
			h76.9c1.2,0,2.2,0.5,3,1.2c0.8-0.8,1.8-1.2,3-1.2h76.9c2.4,0,4.3,1.9,4.3,4.3v94.4c0,2.4-1.9,4.3-4.3,4.3h-72.2
			C1740.1,239,1737.2,240.3,1733.8,240.3z M1653.7,136.6c-0.9,0-1.7,0.8-1.7,1.7v94.4c0,0.9,0.8,1.7,1.7,1.7h74.2l0.3,0.8
			c0.5,1.2,2.6,2.5,5.6,2.5c3,0,5.1-1.3,5.6-2.5l0.3-0.8h73.8c0.9,0,1.7-0.8,1.7-1.7v-94.4c0-0.9-0.8-1.7-1.7-1.7h-76.9
			c-0.9,0-1.7,0.8-1.7,1.7h-2.6c0-0.9-0.8-1.7-1.7-1.7H1653.7z"/>
	</g>
	<g>
		<defs>
			<path id="SVGID_7_" d="M1810.1,132.4h-73.6c-1.6,0-2.9,1.3-2.9,2.9c0-1.6-1.3-2.9-2.9-2.9h-73.6c-1.6,0-2.9,1.3-2.9,2.9v94.1
				c0,1.6,1.3,2.9,2.9,2.9h70.2c0.7,1.8,3.3,3.2,6.5,3.2c3.2,0,5.8-1.4,6.5-3.2h69.8c1.6,0,2.9-1.3,2.9-2.9v-94.1
				C1813,133.7,1811.7,132.4,1810.1,132.4z"/>
		</defs>
		<use xlink:href="#SVGID_7_"  style="overflow:visible;fill:#FFF9ED;"/>
		<clipPath id="SVGID_8_">
			<use xlink:href="#SVGID_7_"  style="overflow:visible;"/>
		</clipPath>
		<g style="clip-path:url(#SVGID_8_);">
			<rect x="1694.6" y="130.8" style="fill:#F1EEE0;" width="39.2" height="108.5"/>
		</g>
	</g>
	<g>
		<g>
			<path style="fill:#C0BAB2;" d="M1796.7,207.8h-46.8c-1.1,0-1.9-0.9-1.9-1.9c0-1.1,0.9-1.9,1.9-1.9h46.8c1.1,0,2,0.9,2,1.9
				C1798.6,206.9,1797.8,207.8,1796.7,207.8z"/>
		</g>
		<g>
			<path style="fill:#C0BAB2;" d="M1796.7,219.1h-46.8c-1.1,0-1.9-0.9-1.9-1.9c0-1.1,0.9-1.9,1.9-1.9h46.8c1.1,0,2,0.9,2,1.9
				C1798.6,218.3,1797.8,219.1,1796.7,219.1z"/>
		</g>
	</g>
	<g>
		<g>
			<path style="fill:#C0BAB2;" d="M1796.6,174.2h-46.8c-1.1,0-1.9-0.9-1.9-1.9c0-1.1,0.9-2,1.9-2h46.8c1.1,0,1.9,0.9,1.9,2
				C1798.6,173.4,1797.7,174.2,1796.6,174.2z"/>
		</g>
		<g>
			<path style="fill:#C0BAB2;" d="M1796.6,185.6h-46.8c-1.1,0-1.9-0.9-1.9-1.9c0-1.1,0.9-1.9,1.9-1.9h46.8c1.1,0,1.9,0.9,1.9,1.9
				C1798.6,184.7,1797.7,185.6,1796.6,185.6z"/>
		</g>
		<g>
			<path style="fill:#C0BAB2;" d="M1796.6,196.9h-46.8c-1.1,0-1.9-0.9-1.9-1.9c0-1.1,0.9-1.9,1.9-1.9h46.8c1.1,0,1.9,0.9,1.9,1.9
				C1798.6,196.1,1797.7,196.9,1796.6,196.9z"/>
		</g>
	</g>
</g>
<g style="opacity:0.2;">
	<g>
		<g>
			<path style="fill:#D1CB9A;" d="M1904.6,121.3l-6.2,0c0.1,12.1-5.9,21.9-21.5,22c-15.6,0.1-21.7-6.9-21.8-21.7l-6.2,0
				c0.2,18.9,8,28,28,27.8C1897.1,149.4,1904.7,136.8,1904.6,121.3z"/>
		</g>
		<g>
			<path style="fill:#C0BAB2;" d="M1877,143.3c15.6-0.1,21.6-9.9,21.5-22l-43.3,0.3C1855.2,136.4,1861.4,143.4,1877,143.3z"/>
		</g>
		<g>
			<path style="fill:#FFFFFF;" d="M1876.8,127.6c4.4,0,6-2.8,6-6.1l-12.1,0.1C1870.8,125.6,1872.5,127.6,1876.8,127.6z"/>
		</g>
	</g>
	<g>
		<g>
			<path style="fill:#D1CB9A;" d="M1904.6,122.7l-6.2,0c0.1-12-5.8-21.9-21.4-21.9c-15.6-0.1-21.7,7-21.9,21.7l-6.2,0
				c0.2-18.9,8.1-28,28.2-27.9C1897.2,94.6,1904.8,107.2,1904.6,122.7z"/>
		</g>
		<g>
			<path style="fill:#C0BAB2;" d="M1877,100.8c15.6,0.1,21.5,9.9,21.4,21.9l-43.3-0.2C1855.3,107.8,1861.4,100.7,1877,100.8z"/>
		</g>
		<g>
			<path style="fill:#FFFFFF;" d="M1876.9,116.5c4.3,0,6,2.8,6,6.1l-12.1-0.1C1870.8,118.4,1872.5,116.5,1876.9,116.5z"/>
		</g>
	</g>
	<g>
		<path style="fill:#FFFFFF;" d="M1864.4,126.1c-0.5,0-2.2,1.7-2.2,3c0,1.3,1,2,2.1,2c1.1,0,2-0.8,2-2.1
			C1866.3,127.6,1865.1,126,1864.4,126.1z"/>
	</g>
	<g>
		<path style="fill:#FFFFFF;" d="M1887.7,111.6c-0.5,0-2.2,1.7-2.2,3c0,1.3,1,2,2.1,2c1.1,0,2-0.8,2-2.1
			C1889.5,113.1,1888.3,111.5,1887.7,111.6z"/>
	</g>
	<g>
		<path style="fill:#FFFFFF;" d="M1883,131c-0.5,0-2.2,1.7-2.2,3c0,1.3,1,2,2.1,2c1.1,0,2-0.8,2-2.1
			C1884.8,132.6,1883.6,131,1883,131z"/>
	</g>
	<g>
		<path style="fill:#FFFFFF;" d="M1894.3,122c-0.5,0-2.2,1.7-2.2,3c0,1.3,1,2,2.1,2c1.1,0,2-0.8,2-2.1
			C1896.1,123.6,1894.9,122,1894.3,122z"/>
	</g>
	<g>
		<path style="fill:#FFFFFF;" d="M1865.2,110c-0.5,0-2.2,1.7-2.2,3c0,1.3,1,2,2.1,2c1.1,0,2-0.8,2-2.1
			C1867,111.6,1865.8,110,1865.2,110z"/>
	</g>
	<g>
		<path style="fill:#FFFFFF;" d="M1880.9,105.7c-0.5,0-2.2,1.7-2.2,3s1,2,2.1,2c1.1,0,2-0.8,2-2.1
			C1882.8,107.2,1881.6,105.6,1880.9,105.7z"/>
	</g>
	<g>
		<path style="fill:#FFFFFF;" d="M1870.9,133.5c-0.5,0-2.2,1.7-2.2,3c0,1.3,1,2,2.1,2c1.1,0,2-0.8,2-2.1
			C1872.8,135.1,1871.5,133.5,1870.9,133.5z"/>
	</g>
</g>
<g style="opacity:0.3;">
	<g>
		<g>
			<path style="fill:#E7E9EE;" d="M1901.7,281.6c0,3.6-3,6.6-6.6,6.6l-36.7,0c-3.6,0-6.6-3-6.6-6.6l0.1-82.9c0-3.6,2.9-6.6,6.6-6.6
				l36.7,0c3.6,0,6.6,3,6.6,6.6L1901.7,281.6z"/>
		</g>
		<g>
			<path style="fill:#FFFFFF;" d="M1851.8,251.2l0.1-52.6c0-3.6,2.9-6.6,6.6-6.6l36.7,0c3.6,0,6.6,3,6.6,6.6l0,5.5"/>
		</g>
		<g>
			<polygon style="fill:#D1CB9A;" points="1898.3,272.8 1855.2,272.7 1855.3,207.4 1898.4,207.4 			"/>
		</g>
		<g style="opacity:0.1;">
			<polyline style="fill:#685990;" points="1855.2,247.4 1855.3,207.4 1898.4,207.4 			"/>
		</g>
	</g>
</g>
<g style="opacity:0.3;">
	<g>
		<g>
			<g>
				<g>
					<defs>
						<path id="SVGID_9_" d="M2000,196.5h-62c-3.2,0-5.8-2.6-5.8-5.8V71.9c0-3.2,2.6-5.8,5.8-5.8h62V196.5z"/>
					</defs>
					<use xlink:href="#SVGID_9_"  style="overflow:visible;fill:#E7E9EE;"/>
					<clipPath id="SVGID_10_">
						<use xlink:href="#SVGID_9_"  style="overflow:visible;"/>
					</clipPath>
					<g style="clip-path:url(#SVGID_10_);">
						<polygon style="fill:#FFFFFF;" points="2129.2,180.4 2000,180.4 1925.6,180.4 1925.6,65.1 2129.2,65.1 						"/>
					</g>
					<g style="clip-path:url(#SVGID_10_);">
						<polyline style="fill:#FFFFFF;" points="1925.6,180.4 1925.6,65.1 2129.2,65.1 						"/>
					</g>
				</g>
				<g>
					<path style="fill:#D7DAE1;" d="M2000,220.5h-13.7c-0.5,0-0.9-0.4-0.9-0.9v0c0-0.5,0.4-0.9,0.9-0.9h13.7V220.5z"/>
				</g>
				<g>
					<polygon style="fill:#D1CB9A;" points="2000,172.3 1960.6,172.3 1940,172.3 1940,73.2 2000,73.2 					"/>
				</g>
			</g>
			<g style="opacity:0.1;">
				<polygon style="fill:#685990;" points="1940,73.2 1940,172.3 2000,138.3 2000,73.2 				"/>
			</g>
		</g>
	</g>
</g>
<g style="opacity:0.5;">
	<g>
		<path style="fill:#D1CB9A;" d="M610.2,135.3h-76.9c-1.7,0-3,1.3-3,3c0-1.7-1.3-3-3-3h-76.9c-1.7,0-3,1.3-3,3v94.4c0,1.7,1.3,3,3,3
			h73.3c0.7,1.9,3.5,3.3,6.8,3.3c3.3,0,6.1-1.4,6.8-3.3h72.9c1.7,0,3-1.3,3-3v-94.4C613.2,136.6,611.8,135.3,610.2,135.3z"/>
		<path style="fill:#D1CB9A;" d="M530.4,240.3c-3.4,0-6.3-1.3-7.6-3.3h-72.5c-2.4,0-4.3-1.9-4.3-4.3v-94.4c0-2.4,1.9-4.3,4.3-4.3
			h76.9c1.2,0,2.2,0.5,3,1.2c0.8-0.8,1.8-1.2,3-1.2h76.9c2.4,0,4.3,1.9,4.3,4.3v94.4c0,2.4-1.9,4.3-4.3,4.3H538
			C536.7,239,533.8,240.3,530.4,240.3z M450.3,136.6c-0.9,0-1.7,0.8-1.7,1.7v94.4c0,0.9,0.8,1.7,1.7,1.7h74.2l0.3,0.8
			c0.5,1.2,2.6,2.5,5.6,2.5c3,0,5.1-1.3,5.6-2.5l0.3-0.8h73.8c0.9,0,1.7-0.8,1.7-1.7v-94.4c0-0.9-0.8-1.7-1.7-1.7h-76.9
			c-0.9,0-1.7,0.8-1.7,1.7h-2.6c0-0.9-0.8-1.7-1.7-1.7H450.3z"/>
	</g>
	<g>
		<defs>
			<path id="SVGID_11_" d="M606.7,132.4h-73.6c-1.6,0-2.9,1.3-2.9,2.9c0-1.6-1.3-2.9-2.9-2.9h-73.6c-1.6,0-2.9,1.3-2.9,2.9v94.1
				c0,1.6,1.3,2.9,2.9,2.9h70.2c0.7,1.8,3.3,3.2,6.5,3.2c3.2,0,5.8-1.4,6.5-3.2h69.8c1.6,0,2.9-1.3,2.9-2.9v-94.1
				C609.6,133.7,608.3,132.4,606.7,132.4z"/>
		</defs>
		<use xlink:href="#SVGID_11_"  style="overflow:visible;fill:#FFF9ED;"/>
		<clipPath id="SVGID_12_">
			<use xlink:href="#SVGID_11_"  style="overflow:visible;"/>
		</clipPath>
		<g style="clip-path:url(#SVGID_12_);">
			<rect x="491.2" y="130.8" style="fill:#F1EEE0;" width="39.2" height="108.5"/>
		</g>
	</g>
	<g>
		<g>
			<path style="fill:#C0BAB2;" d="M593.3,207.8h-46.8c-1.1,0-1.9-0.9-1.9-1.9c0-1.1,0.9-1.9,1.9-1.9h46.8c1.1,0,2,0.9,2,1.9
				C595.2,206.9,594.4,207.8,593.3,207.8z"/>
		</g>
		<g>
			<path style="fill:#C0BAB2;" d="M593.3,219.1h-46.8c-1.1,0-1.9-0.9-1.9-1.9c0-1.1,0.9-1.9,1.9-1.9h46.8c1.1,0,2,0.9,2,1.9
				C595.2,218.3,594.4,219.1,593.3,219.1z"/>
		</g>
	</g>
	<g>
		<g>
			<path style="fill:#C0BAB2;" d="M593.2,174.2h-46.8c-1.1,0-1.9-0.9-1.9-1.9c0-1.1,0.9-2,1.9-2h46.8c1.1,0,1.9,0.9,1.9,2
				C595.2,173.4,594.3,174.2,593.2,174.2z"/>
		</g>
		<g>
			<path style="fill:#C0BAB2;" d="M593.2,185.6h-46.8c-1.1,0-1.9-0.9-1.9-1.9c0-1.1,0.9-1.9,1.9-1.9h46.8c1.1,0,1.9,0.9,1.9,1.9
				C595.2,184.7,594.3,185.6,593.2,185.6z"/>
		</g>
		<g>
			<path style="fill:#C0BAB2;" d="M593.2,196.9h-46.8c-1.1,0-1.9-0.9-1.9-1.9c0-1.1,0.9-1.9,1.9-1.9h46.8c1.1,0,1.9,0.9,1.9,1.9
				C595.2,196.1,594.3,196.9,593.2,196.9z"/>
		</g>
	</g>
</g>
<g style="opacity:0.2;">
	<g>
		<g>
			<path style="fill:#D1CB9A;" d="M701.2,121.3l-6.2,0c0.1,12.1-5.9,21.9-21.5,22c-15.6,0.1-21.7-6.9-21.8-21.7l-6.2,0
				c0.2,18.9,8,28,28,27.8C693.7,149.4,701.3,136.8,701.2,121.3z"/>
		</g>
		<g>
			<path style="fill:#C0BAB2;" d="M673.6,143.3c15.6-0.1,21.6-9.9,21.5-22l-43.3,0.3C651.9,136.4,658,143.4,673.6,143.3z"/>
		</g>
		<g>
			<path style="fill:#FFFFFF;" d="M673.4,127.6c4.4,0,6-2.8,6-6.1l-12.1,0.1C667.4,125.6,669.1,127.6,673.4,127.6z"/>
		</g>
	</g>
	<g>
		<g>
			<path style="fill:#D1CB9A;" d="M701.2,122.7l-6.2,0c0.1-12-5.8-21.9-21.4-21.9c-15.6-0.1-21.7,7-21.9,21.7l-6.2,0
				c0.2-18.9,8.1-28,28.2-27.9C693.8,94.6,701.4,107.2,701.2,122.7z"/>
		</g>
		<g>
			<path style="fill:#C0BAB2;" d="M673.6,100.8c15.6,0.1,21.5,9.9,21.4,21.9l-43.3-0.2C651.9,107.8,658,100.7,673.6,100.8z"/>
		</g>
		<g>
			<path style="fill:#FFFFFF;" d="M673.5,116.5c4.3,0,6,2.8,6,6.1l-12.1-0.1C667.4,118.4,669.1,116.5,673.5,116.5z"/>
		</g>
	</g>
	<g>
		<path style="fill:#FFFFFF;" d="M661,126.1c-0.5,0-2.2,1.7-2.2,3c0,1.3,1,2,2.1,2c1.1,0,2-0.8,2-2.1
			C662.9,127.6,661.7,126,661,126.1z"/>
	</g>
	<g>
		<path style="fill:#FFFFFF;" d="M684.3,111.6c-0.5,0-2.2,1.7-2.2,3c0,1.3,1,2,2.1,2c1.1,0,2-0.8,2-2.1
			C686.1,113.1,684.9,111.5,684.3,111.6z"/>
	</g>
	<g>
		<path style="fill:#FFFFFF;" d="M679.6,131c-0.5,0-2.2,1.7-2.2,3c0,1.3,1,2,2.1,2c1.1,0,2-0.8,2-2.1
			C681.4,132.6,680.2,131,679.6,131z"/>
	</g>
	<g>
		<path style="fill:#FFFFFF;" d="M690.9,122c-0.5,0-2.2,1.7-2.2,3c0,1.3,1,2,2.1,2c1.1,0,2-0.8,2-2.1
			C692.7,123.6,691.5,122,690.9,122z"/>
	</g>
	<g>
		<path style="fill:#FFFFFF;" d="M661.8,110c-0.5,0-2.2,1.7-2.2,3c0,1.3,1,2,2.1,2c1.1,0,2-0.8,2-2.1
			C663.6,111.6,662.4,110,661.8,110z"/>
	</g>
	<g>
		<path style="fill:#FFFFFF;" d="M677.5,105.7c-0.5,0-2.2,1.7-2.2,3s1,2,2.1,2c1.1,0,2-0.8,2-2.1
			C679.4,107.2,678.2,105.6,677.5,105.7z"/>
	</g>
	<g>
		<path style="fill:#FFFFFF;" d="M667.5,133.5c-0.5,0-2.2,1.7-2.2,3c0,1.3,1,2,2.1,2c1.1,0,2-0.8,2-2.1
			C669.4,135.1,668.1,133.5,667.5,133.5z"/>
	</g>
</g>
<g style="opacity:0.3;">
	<g>
		<g>
			<path style="fill:#E7E9EE;" d="M698.3,281.6c0,3.6-3,6.6-6.6,6.6l-36.7,0c-3.6,0-6.6-3-6.6-6.6l0.1-82.9c0-3.6,2.9-6.6,6.6-6.6
				l36.7,0c3.6,0,6.6,3,6.6,6.6L698.3,281.6z"/>
		</g>
		<g>
			<path style="fill:#FFFFFF;" d="M648.5,251.2l0.1-52.6c0-3.6,2.9-6.6,6.6-6.6l36.7,0c3.6,0,6.6,3,6.6,6.6l0,5.5"/>
		</g>
		<g>
			<polygon style="fill:#D1CB9A;" points="694.9,272.8 651.8,272.7 651.9,207.4 695,207.4 			"/>
		</g>
		<g style="opacity:0.1;">
			<polyline style="fill:#685990;" points="651.8,247.4 651.9,207.4 695,207.4 			"/>
		</g>
	</g>
</g>
<g style="opacity:0.3;">
	<g>
		<g>
			<g>
				<g>
					<defs>
						<path id="SVGID_13_" d="M919.2,190.7c0,3.2-2.6,5.8-5.8,5.8H734.6c-3.2,0-5.8-2.6-5.8-5.8V71.9c0-3.2,2.6-5.8,5.8-5.8h178.8
							c3.2,0,5.8,2.6,5.8,5.8V190.7z"/>
					</defs>
					<use xlink:href="#SVGID_13_"  style="overflow:visible;fill:#E7E9EE;"/>
					<clipPath id="SVGID_14_">
						<use xlink:href="#SVGID_13_"  style="overflow:visible;"/>
					</clipPath>
					<g style="clip-path:url(#SVGID_14_);">
						<rect x="722.2" y="65.1" style="fill:#FFFFFF;" width="203.6" height="115.4"/>
					</g>
					<g style="clip-path:url(#SVGID_14_);">
						<polyline style="fill:#FFFFFF;" points="722.2,180.4 722.2,65.1 925.8,65.1 						"/>
					</g>
				</g>
				<g>
					<path style="fill:#D7DAE1;" d="M866.1,219.6c0,0.5-0.4,0.9-0.9,0.9h-82.2c-0.5,0-0.9-0.4-0.9-0.9v0c0-0.5,0.4-0.9,0.9-0.9h82.2
						C865.6,218.6,866.1,219.1,866.1,219.6L866.1,219.6z"/>
				</g>
				<g>
					<rect x="736.6" y="73.2" style="fill:#D1CB9A;" width="174.8" height="99"/>
				</g>
				<g>
					<defs>
						<path id="SVGID_15_" d="M849,218.3c0,0.3-0.2,0.5-0.5,0.5h-49c-0.3,0-0.5-0.2-0.5-0.5l5.8-21.3c0-0.3,0.2-0.5,0.5-0.5h37.4
							c0.3,0,0.5,0.2,0.5,0.5L849,218.3z"/>
					</defs>
					<use xlink:href="#SVGID_15_"  style="overflow:visible;fill:#E7E9EE;"/>
					<clipPath id="SVGID_16_">
						<use xlink:href="#SVGID_15_"  style="overflow:visible;"/>
					</clipPath>
					<g style="clip-path:url(#SVGID_16_);">
						<rect x="802.1" y="194.4" style="fill:#D7DAE1;" width="43.9" height="7.4"/>
					</g>
				</g>
			</g>
			<g style="opacity:0.1;">
				<polygon style="fill:#685990;" points="736.6,73.2 736.6,172.3 911.4,73.2 				"/>
			</g>
		</g>
	</g>
</g>
<g style="opacity:0.5;">
	<g>
		<path style="fill:#D1CB9A;" d="M113.7,135.3H36.8c-1.7,0-3,1.3-3,3c0-1.7-1.3-3-3-3H0l0,100.5h27.1c0.7,1.9,3.5,3.3,6.8,3.3
			c3.3,0,6.1-1.4,6.8-3.3h72.9c1.7,0,3-1.3,3-3v-94.4C116.7,136.6,115.3,135.3,113.7,135.3z"/>
		<path style="fill:#D1CB9A;" d="M33.9,240.3c-3.4,0-6.3-1.3-7.6-3.3H0l0-103h30.7c1.2,0,2.2,0.5,3,1.2c0.8-0.8,1.8-1.2,3-1.2h76.9
			c2.4,0,4.3,1.9,4.3,4.3v94.4c0,2.4-1.9,4.3-4.3,4.3H41.5C40.2,239,37.3,240.3,33.9,240.3z M0,234.4h28l0.3,0.8
			c0.5,1.2,2.6,2.5,5.6,2.5c3,0,5.1-1.3,5.6-2.5l0.3-0.8h73.8c0.9,0,1.7-0.8,1.7-1.7v-94.4c0-0.9-0.8-1.7-1.7-1.7H36.8
			c-0.9,0-1.7,0.8-1.7,1.7h-2.6c0-0.9-0.8-1.7-1.7-1.7H0L0,234.4z"/>
	</g>
	<g>
		<defs>
			<path id="SVGID_17_" d="M110.2,132.4H36.6c-1.6,0-2.9,1.3-2.9,2.9c0-1.6-1.3-2.9-2.9-2.9H0l0,99.9h27.4c0.7,1.8,3.3,3.2,6.5,3.2
				c3.2,0,5.8-1.4,6.5-3.2h69.8c1.6,0,2.9-1.3,2.9-2.9v-94.1C113.1,133.7,111.8,132.4,110.2,132.4z"/>
		</defs>
		<use xlink:href="#SVGID_17_"  style="overflow:visible;fill:#FFF9ED;"/>
		<clipPath id="SVGID_18_">
			<use xlink:href="#SVGID_17_"  style="overflow:visible;"/>
		</clipPath>
		<g style="clip-path:url(#SVGID_18_);">
			<rect x="-5.3" y="130.8" style="fill:#F1EEE0;" width="39.2" height="108.5"/>
		</g>
	</g>
	<g>
		<g>
			<path style="fill:#C0BAB2;" d="M96.8,207.8H50.1c-1.1,0-1.9-0.9-1.9-1.9c0-1.1,0.9-1.9,1.9-1.9h46.8c1.1,0,2,0.9,2,1.9
				C98.8,206.9,97.9,207.8,96.8,207.8z"/>
		</g>
		<g>
			<path style="fill:#C0BAB2;" d="M96.8,219.1H50.1c-1.1,0-1.9-0.9-1.9-1.9c0-1.1,0.9-1.9,1.9-1.9h46.8c1.1,0,2,0.9,2,1.9
				C98.8,218.3,97.9,219.1,96.8,219.1z"/>
		</g>
	</g>
	<g>
		<g>
			<path style="fill:#C0BAB2;" d="M96.7,174.2H50c-1.1,0-1.9-0.9-1.9-1.9c0-1.1,0.9-2,1.9-2h46.8c1.1,0,1.9,0.9,1.9,2
				C98.7,173.4,97.8,174.2,96.7,174.2z"/>
		</g>
		<g>
			<path style="fill:#C0BAB2;" d="M96.7,185.6H50c-1.1,0-1.9-0.9-1.9-1.9c0-1.1,0.9-1.9,1.9-1.9h46.8c1.1,0,1.9,0.9,1.9,1.9
				C98.7,184.7,97.8,185.6,96.7,185.6z"/>
		</g>
		<g>
			<path style="fill:#C0BAB2;" d="M96.7,196.9H50c-1.1,0-1.9-0.9-1.9-1.9c0-1.1,0.9-1.9,1.9-1.9h46.8c1.1,0,1.9,0.9,1.9,1.9
				C98.7,196.1,97.8,196.9,96.7,196.9z"/>
		</g>
	</g>
</g>
<g style="opacity:0.2;">
	<g>
		<g>
			<path style="fill:#D1CB9A;" d="M204.8,121.3l-6.2,0c0.1,12.1-5.9,21.9-21.5,22c-15.6,0.1-21.7-6.9-21.8-21.7l-6.2,0
				c0.2,18.9,8,28,28,27.8C197.2,149.4,204.9,136.8,204.8,121.3z"/>
		</g>
		<g>
			<path style="fill:#C0BAB2;" d="M177.1,143.3c15.6-0.1,21.6-9.9,21.5-22l-43.3,0.3C155.4,136.4,161.5,143.4,177.1,143.3z"/>
		</g>
		<g>
			<path style="fill:#FFFFFF;" d="M177,127.6c4.4,0,6-2.8,6-6.1l-12.1,0.1C170.9,125.6,172.6,127.6,177,127.6z"/>
		</g>
	</g>
	<g>
		<g>
			<path style="fill:#D1CB9A;" d="M204.7,122.7l-6.2,0c0.1-12-5.8-21.9-21.4-21.9c-15.6-0.1-21.7,7-21.9,21.7l-6.2,0
				c0.2-18.9,8.1-28,28.2-27.9C197.3,94.6,204.9,107.2,204.7,122.7z"/>
		</g>
		<g>
			<path style="fill:#C0BAB2;" d="M177.2,100.8c15.6,0.1,21.5,9.9,21.4,21.9l-43.3-0.2C155.4,107.8,161.6,100.7,177.2,100.8z"/>
		</g>
		<g>
			<path style="fill:#FFFFFF;" d="M177,116.5c4.3,0,6,2.8,6,6.1l-12.1-0.1C170.9,118.4,172.6,116.5,177,116.5z"/>
		</g>
	</g>
	<g>
		<path style="fill:#FFFFFF;" d="M164.5,126.1c-0.5,0-2.2,1.7-2.2,3c0,1.3,1,2,2.1,2c1.1,0,2-0.8,2-2.1
			C166.4,127.6,165.2,126,164.5,126.1z"/>
	</g>
	<g>
		<path style="fill:#FFFFFF;" d="M187.8,111.6c-0.5,0-2.2,1.7-2.2,3c0,1.3,1,2,2.1,2c1.1,0,2-0.8,2-2.1
			C189.6,113.1,188.4,111.5,187.8,111.6z"/>
	</g>
	<g>
		<path style="fill:#FFFFFF;" d="M183.1,131c-0.5,0-2.2,1.7-2.2,3c0,1.3,1,2,2.1,2c1.1,0,2-0.8,2-2.1
			C184.9,132.6,183.7,131,183.1,131z"/>
	</g>
	<g>
		<path style="fill:#FFFFFF;" d="M194.4,122c-0.5,0-2.2,1.7-2.2,3c0,1.3,1,2,2.1,2c1.1,0,2-0.8,2-2.1C196.2,123.6,195,122,194.4,122
			z"/>
	</g>
	<g>
		<path style="fill:#FFFFFF;" d="M165.3,110c-0.5,0-2.2,1.7-2.2,3c0,1.3,1,2,2.1,2c1.1,0,2-0.8,2-2.1
			C167.1,111.6,165.9,110,165.3,110z"/>
	</g>
	<g>
		<path style="fill:#FFFFFF;" d="M181.1,105.7c-0.5,0-2.2,1.7-2.2,3c0,1.3,1,2,2.1,2c1.1,0,2-0.8,2-2.1
			C182.9,107.2,181.7,105.6,181.1,105.7z"/>
	</g>
	<g>
		<path style="fill:#FFFFFF;" d="M171,133.5c-0.5,0-2.2,1.7-2.2,3c0,1.3,1,2,2.1,2c1.1,0,2-0.8,2-2.1
			C172.9,135.1,171.7,133.5,171,133.5z"/>
	</g>
</g>
<g style="opacity:0.3;">
	<g>
		<g>
			<path style="fill:#E7E9EE;" d="M201.8,281.6c0,3.6-3,6.6-6.6,6.6l-36.7,0c-3.6,0-6.6-3-6.6-6.6l0.1-82.9c0-3.6,2.9-6.6,6.6-6.6
				l36.7,0c3.6,0,6.6,3,6.6,6.6L201.8,281.6z"/>
		</g>
		<g>
			<path style="fill:#FFFFFF;" d="M152,251.2l0.1-52.6c0-3.6,2.9-6.6,6.6-6.6l36.7,0c3.6,0,6.6,3,6.6,6.6l0,5.5"/>
		</g>
		<g>
			<polygon style="fill:#D1CB9A;" points="198.4,272.8 155.3,272.7 155.4,207.4 198.5,207.4 			"/>
		</g>
		<g style="opacity:0.1;">
			<polyline style="fill:#685990;" points="155.4,247.4 155.4,207.4 198.5,207.4 			"/>
		</g>
	</g>
</g>
<g style="opacity:0.3;">
	<g>
		<g>
			<g>
				<g>
					<defs>
						<path id="SVGID_19_" d="M422.7,190.7c0,3.2-2.6,5.8-5.8,5.8H238.1c-3.2,0-5.8-2.6-5.8-5.8V71.9c0-3.2,2.6-5.8,5.8-5.8H417
							c3.2,0,5.8,2.6,5.8,5.8V190.7z"/>
					</defs>
					<use xlink:href="#SVGID_19_"  style="overflow:visible;fill:#E7E9EE;"/>
					<clipPath id="SVGID_20_">
						<use xlink:href="#SVGID_19_"  style="overflow:visible;"/>
					</clipPath>
					<g style="clip-path:url(#SVGID_20_);">
						<rect x="225.7" y="65.1" style="fill:#FFFFFF;" width="203.6" height="115.4"/>
					</g>
					<g style="clip-path:url(#SVGID_20_);">
						<polyline style="fill:#FFFFFF;" points="225.7,180.4 225.7,65.1 429.4,65.1 						"/>
					</g>
				</g>
				<g>
					<path style="fill:#D7DAE1;" d="M369.6,219.6c0,0.5-0.4,0.9-0.9,0.9h-82.2c-0.5,0-0.9-0.4-0.9-0.9v0c0-0.5,0.4-0.9,0.9-0.9h82.2
						C369.2,218.6,369.6,219.1,369.6,219.6L369.6,219.6z"/>
				</g>
				<g>
					<rect x="240.2" y="73.2" style="fill:#D1CB9A;" width="174.8" height="99"/>
				</g>
				<g>
					<defs>
						<path id="SVGID_21_" d="M352.6,218.3c0,0.3-0.2,0.5-0.5,0.5h-49c-0.3,0-0.5-0.2-0.5-0.5l5.8-21.3c0-0.3,0.2-0.5,0.5-0.5h37.4
							c0.3,0,0.5,0.2,0.5,0.5L352.6,218.3z"/>
					</defs>
					<use xlink:href="#SVGID_21_"  style="overflow:visible;fill:#E7E9EE;"/>
					<clipPath id="SVGID_22_">
						<use xlink:href="#SVGID_21_"  style="overflow:visible;"/>
					</clipPath>
					<g style="clip-path:url(#SVGID_22_);">
						<rect x="305.6" y="194.4" style="fill:#D7DAE1;" width="43.9" height="7.4"/>
					</g>
				</g>
			</g>
			<g style="opacity:0.1;">
				<polygon style="fill:#685990;" points="240.2,73.2 240.2,172.3 414.9,73.2 				"/>
			</g>
		</g>
	</g>
</g>
<path style="fill:#E7D9B3;" d="M1161.5,216.3c0,14.9-12,26.9-26.9,26.9c-14.9,0-26.9-12.1-26.9-26.9c0-14.9,12-26.9,26.9-26.9
	C1149.5,189.4,1161.5,201.5,1161.5,216.3z"/>
<circle style="opacity:0.6;fill:#FFDBC6;" cx="947.1" cy="248.5" r="39.6"/>
<g>
</g>
<g>
</g>
<g>
</g>
<g>
</g>
<g>
</g>
<g>
</g>
</svg>
