<?xml version="1.0" encoding="utf-8"?>
<svg version="1.1" xmlns="http://www.w3.org/2000/svg" xmlns:xlink="http://www.w3.org/1999/xlink" x="0" y="0"
	 viewBox="0 0 1200 700" width="1200" height="700" xml:space="preserve">
<path style="opacity:0.5;fill:#9DC9EA;" d="M402.3,100.1c0-11.6-9.4-20.9-20.9-20.9c-6.5,0-12.4,3-16.2,7.7V50.2
	c0-11.6-9.4-20.9-20.9-20.9c-11.6,0-20.9,9.4-20.9,20.9v4.9c-3-1.7-6.5-2.7-10.2-2.7c-11.6,0-20.9,9.4-20.9,20.9v9.4
	c-3.3-2.2-7.4-3.6-11.7-3.6c-8.2,0-15.2,4.7-18.7,11.5c-3.5-6.8-10.5-11.5-18.7-11.5c-4.3,0-8.3,1.3-11.7,3.6v-9.4
	c0-11.6-9.4-20.9-20.9-20.9c-3.7,0-7.2,1-10.2,2.7v-4.9c0-11.6-9.4-20.9-20.9-20.9c-11.6,0-20.9,9.4-20.9,20.9v36.7
	c-3.8-4.7-9.7-7.7-16.2-7.7c-11.6,0-20.9,9.4-20.9,20.9c0,11.2,8.8,20.3,19.9,20.9V142h2.2v-21c7.6-0.4,14.2-4.8,17.5-11.2
	c3.3,6.4,9.9,10.8,17.5,11.2v21h2.2v-21c3.4-0.2,6.6-1.2,9.4-2.8c1.4,9.8,9.6,17.4,19.6,17.9v5.9h2.2v-5.9
	c10.3-0.5,18.7-8.5,19.8-18.7c3.1,2.1,6.8,3.4,10.7,3.6v21h2.2v-21c7.7-0.4,14.3-4.9,17.6-11.4c3.3,6.5,9.9,11,17.6,11.4v21h2.2v-21
	c4-0.2,7.6-1.5,10.7-3.6c1,10.2,9.4,18.2,19.8,18.7v5.9h2.2v-5.9c10.1-0.5,18.2-8.1,19.6-17.9c2.8,1.6,6,2.6,9.4,2.8v21h2.2v-21
	c7.6-0.4,14.2-4.8,17.5-11.2c3.3,6.4,9.9,10.8,17.5,11.2v21h2.2V121C393.5,120.4,402.3,111.3,402.3,100.1z"/>
<path style="fill:#9DC9EA;" d="M1143.8,561.4v32.5h-43.2v-71.5h-62.5v39H984v20.2h-43.4v-59.2h-62.5v39H824V699h376V561.4H1143.8z
	 M848.1,639h-8.8v-8.8h8.8V639z M848.1,620.6h-8.8v-8.8h8.8V620.6z M848.1,602.4h-8.8v-8.8h8.8V602.4z M848.1,584.3h-8.8v-8.8h8.8
	V584.3z M867.8,639H859v-8.8h8.8V639z M867.8,620.6H859v-8.8h8.8V620.6z M867.8,602.4H859v-8.8h8.8V602.4z M867.8,584.3H859v-8.8
	h8.8V584.3z M904.2,655.5h-8.8v-8.8h8.8V655.5z M904.2,637.3h-8.8v-8.8h8.8V637.3z M904.2,619.3h-8.8v-8.8h8.8V619.3z M904.2,601.2
	h-8.8v-8.8h8.8V601.2z M904.2,582.8h-8.8V574h8.8V582.8z M904.2,564.6h-8.8v-8.8h8.8V564.6z M904.2,546.5h-8.8v-8.8h8.8V546.5z
	 M923.9,655.5h-8.8v-8.8h8.8V655.5z M923.9,637.3h-8.8v-8.8h8.8V637.3z M923.9,619.3h-8.8v-8.8h8.8V619.3z M923.9,601.2h-8.8v-8.8
	h8.8V601.2z M923.9,582.8h-8.8V574h8.8V582.8z M923.9,564.6h-8.8v-8.8h8.8V564.6z M923.9,546.5h-8.8v-8.8h8.8V546.5z M956.5,657.3
	h-8.8v-8.8h8.8V657.3z M956.5,639.1h-8.8v-8.8h8.8V639.1z M956.5,620.8h-8.8V612h8.8V620.8z M956.5,602.7h-8.8v-8.8h8.8V602.7z
	 M976.2,657.3h-8.8v-8.8h8.8V657.3z M976.2,639.1h-8.8v-8.8h8.8V639.1z M976.2,620.8h-8.8V612h8.8V620.8z M976.2,602.7h-8.8v-8.8
	h8.8V602.7z M1008.1,639h-8.8v-8.8h8.8V639z M1008.1,620.6h-8.8v-8.8h8.8V620.6z M1008.1,602.4h-8.8v-8.8h8.8V602.4z M1008.1,584.3
	h-8.8v-8.8h8.8V584.3z M1027.8,639h-8.8v-8.8h8.8V639z M1027.8,620.6h-8.8v-8.8h8.8V620.6z M1027.8,602.4h-8.8v-8.8h8.8V602.4z
	 M1027.8,584.3h-8.8v-8.8h8.8V584.3z M1064.2,601.2h-8.8v-8.8h8.8V601.2z M1064.2,582.8h-8.8V574h8.8V582.8z M1064.2,564.6h-8.8
	v-8.8h8.8V564.6z M1064.2,546.5h-8.8v-8.8h8.8V546.5z M1084,601.2h-8.8v-8.8h8.8V601.2z M1084,582.8h-8.8V574h8.8V582.8z
	 M1084,564.6h-8.8v-8.8h8.8V564.6z M1084,546.5h-8.8v-8.8h8.8V546.5z M1116.5,657.3h-8.8v-8.8h8.8V657.3z M1116.5,639.1h-8.8v-8.8
	h8.8V639.1z M1116.5,620.8h-8.8V612h8.8V620.8z M1136.3,657.3h-8.8v-8.8h8.8V657.3z M1136.3,639.1h-8.8v-8.8h8.8V639.1z
	 M1136.3,620.8h-8.8V612h8.8V620.8z M1166.5,639.1h-8.8v-8.8h8.8V639.1z M1166.5,620.8h-8.8V612h8.8V620.8z M1166.5,602.6h-8.8v-8.8
	h8.8V602.6z M1166.5,584.4h-8.8v-8.8h8.8V584.4z M1186.2,639.1h-8.8v-8.8h8.8V639.1z M1186.2,620.8h-8.8V612h8.8V620.8z
	 M1186.2,602.6h-8.8v-8.8h8.8V602.6z M1186.2,584.4h-8.8v-8.8h8.8V584.4z"/>
<path style="fill:#9DC9EA;" d="M179.6,552H167c0.8,0,1.7-0.7,1.9-1.5l1.2-4.4c0.2-0.8,0.3-2.2,0.2-3l-3.8-23.8
	c-0.1-0.8-0.2-2.2-0.1-3l1.5-12.5c0.1-0.8-0.4-2-1-2.5l-0.8-0.6c-0.7-0.5-1.2-1.6-1.2-2.5v-12.2c0-0.8-0.7-1.5-1.5-1.5h-2.6h-3.1
	H155c-0.8,0-1.5,0.7-1.5,1.5v12.2c0,0.8-0.5,2-1.2,2.5l-0.8,0.6c-0.7,0.5-1.1,1.6-1,2.5l1.5,12.5c0.1,0.8,0.1,2.2-0.1,3l-3.8,23.8
	c-0.1,0.8-0.1,2.2,0.2,3l1.2,4.4c0.2,0.8,1.1,1.5,1.9,1.5h-23.8c0.8,0,1.7-0.7,1.9-1.5l1.2-4.4c0.2-0.8,0.3-2.2,0.2-3l-3.8-23.8
	c-0.1-0.8-0.2-2.2-0.1-3l1.5-12.5c0.1-0.8-0.4-2-1-2.5l-0.8-0.6c-0.7-0.5-1.2-1.6-1.2-2.5v-12.2c0-0.8-0.7-1.5-1.5-1.5h-2.7h-3.1
	h-2.6c-0.8,0-1.5,0.7-1.5,1.5v12.2c0,0.8-0.5,2-1.2,2.5l-0.8,0.6c-0.7,0.5-1.1,1.6-1,2.5l1.5,12.5c0.1,0.8,0.1,2.2-0.1,3l-3.8,23.8
	c-0.1,0.8-0.1,2.2,0.2,3l1.2,4.4c0.2,0.8,1.1,1.5,1.9,1.5H89.2c0.5-0.3,0.9-0.7,1.1-1.2l1.2-4.4c0.2-0.6,0.3-1.5,0.2-2.3
	c0-0.3,0-0.6-0.1-0.9l-3.8-23.8c-0.1-0.8-0.2-2.2-0.1-3l1.5-12.5c0.1-0.8-0.4-2-1-2.5l-0.8-0.6c-0.7-0.5-1.2-1.6-1.2-2.5v-12.2
	c0-0.8-0.7-1.5-1.5-1.5h-2.2v-26.5h2.2v-14h-2.4c6.1-0.9,10.8-6.1,10.8-12.5v-12.1v-28.8v-12.1c0-7-5.7-12.6-12.6-12.6
	c-7,0-12.6,5.7-12.6,12.6v1.9v49.2v1.9c0,6.4,4.7,11.6,10.8,12.5h-2.4v14h2.2v26.5h-2.2c-0.8,0-1.5,0.7-1.5,1.5v12.2
	c0,0.8-0.5,2-1.2,2.5l-0.8,0.6c-0.7,0.5-1.1,1.6-1,2.5l1.5,12.5c0.1,0.8,0.1,2.2-0.1,3l-3.8,23.8c0,0.3-0.1,0.6-0.1,0.9
	c0,0.8,0.1,1.7,0.2,2.3l1.2,4.4c0.1,0.5,0.6,1,1.1,1.2H49.1c0.8,0,1.7-0.7,1.9-1.5l1.2-4.4c0.2-0.8,0.3-2.2,0.2-3l-3.8-23.8
	c-0.1-0.8-0.2-2.2-0.1-3l1.5-12.5c0.1-0.8-0.4-2-1-2.5l-0.8-0.6c-0.7-0.5-1.2-1.6-1.2-2.5v-12.2c0-0.8-0.7-1.5-1.5-1.5h-2.3v-26.5
	h2.3v-14h-2.4c6.1-0.9,10.8-6.1,10.8-12.5v-12.1v-28.8v-12.1c0-7-5.7-12.6-12.6-12.6c-7,0-12.6,5.7-12.6,12.6v1.9v49.2v1.9
	c0,6.4,4.7,11.6,10.8,12.5h-2.4v14h2.3v26.5h-2.3c-0.8,0-1.5,0.7-1.5,1.5v12.2c0,0.8-0.5,2-1.2,2.5l-0.8,0.6
	c-0.7,0.5-1.1,1.6-1,2.5l1.5,12.5c0.1,0.8,0.1,2.2-0.1,3l-3.8,23.8c-0.1,0.8-0.1,2.2,0.2,3l1.2,4.4c0.2,0.8,1.1,1.5,1.9,1.5H9.8
	c0.8,0,1.7-0.7,1.9-1.5l1.2-4.4c0.2-0.8,0.3-2.2,0.2-3l-3.8-23.8c-0.1-0.8-0.2-2.2-0.1-3l1.5-12.5c0.1-0.8-0.4-2-1-2.5l-0.8-0.6
	c-0.7-0.5-1.2-1.6-1.2-2.5v-12.2c0-0.8-0.7-1.5-1.5-1.5H3.6H0.5H0v117.2h178.5v-32.9h1.1c4.6,0,8.4-3.8,8.4-8.4
	C188,555.8,184.3,552,179.6,552z"/>
<path style="opacity:0.5;fill:#9DC9EA;" d="M1094.7,165l-26.7-0.1c-3.6,0-6.5,2.9-6.5,6.5c0,3.6,2.9,6.5,6.5,6.5l26.7,0.1
	c3.6,0,6.5-2.9,6.5-6.5C1101.2,168,1098.3,165,1094.7,165z"/>
<path style="opacity:0.5;fill:#9DC9EA;" d="M1169.4,167.8c-1.4,0-2.5-1.1-2.5-2.5c0-1.4,1.1-2.5,2.5-2.5l12.3,0c2.8,0,5.1-2.2,5.1-5
	c0-0.6-0.1-1.1-0.3-1.6l1.7,0l-43-95.8c-7.3-16.2-19.8-16.5-27.8-0.6l-9.3,18.4c-8,15.8-21,15.8-29-0.1l-29.8-59.9
	c-7.9-15.9-20.6-15.7-28.1,0.3l-9.7,20.6c-7.5,16.1-20.5,21.1-28.9,11.1c-8.4-10-21.8-5.2-29.8,10.7l-17.1,33.7
	c-8,15.8-21.1,15.8-29-0.1l-6.1-12.2c-7.9-15.9-20.9-15.9-29-0.1l-37.2,73.5l-26.4-0.1c-2.4,0-4.4,2-4.4,4.4c0,2.4,2,4.4,4.4,4.4
	l1.7,0c1.2,0,2.2,1,2.2,2.2c0,1.2-1,2.2-2.2,2.2l-15.4,0c-2.4,0-4.4,2-4.4,4.4c0,2.4,2,4.4,4.4,4.4l32.5,0.1c2,0,3.7,1.7,3.7,3.7
	c0,2-1.7,3.7-3.7,3.7l-1.8,0c-4.1,0-7.4,3.3-7.4,7.4c0,4.1,3.3,7.4,7.4,7.4l107.1,0.3c4.1,0,7.4-3.3,7.4-7.4c0-4.1-3.3-7.4-7.4-7.4
	l-59.9-0.2c-2,0-3.7-1.7-3.7-3.7c0-2,1.7-3.7,3.7-3.7l0.2,0c2.4,0,4.4-2,4.4-4.4c0-2.4-2-4.4-4.4-4.4l-31.2-0.1
	c-1.2,0-2.2-1-2.2-2.2c0-1.2,1-2.2,2.2-2.2l1.7,0c2.4,0,4.4-2,4.4-4.4c0-2.1-1.4-3.8-3.3-4.3l282.6,0.1c-0.1,0.5-0.2,0.9-0.2,1.4
	c0,2.8,2.2,5.1,5,5.1l1.9,0c1.4,0,2.5,1.1,2.5,2.5c0,1.4-1.1,2.5-2.5,2.5l-11.9,0c-2.8,0-5.1,2.2-5.1,5c0,2.8,2.2,5.1,5,5.1
	l78.5,0.3v-10.1L1169.4,167.8z"/>
</svg>
