<?xml version="1.0" encoding="utf-8"?>
<svg version="1.1" xmlns="http://www.w3.org/2000/svg" xmlns:xlink="http://www.w3.org/1999/xlink" x="0" y="0"
	 viewBox="0 0 2000 350" width="2000" height="350" xml:space="preserve">
<path style="opacity:0.5;fill:#AED4C8;" d="M895.1,76.3h-73.9V119h-56.8V24.9h-82.3v51.4h-71.3v47.5h-57.1v-78h-82.3v51.4H400V119
	H343V24.9h-82.3v51.4h-71.3h-73.9V119H42.5V76.3H0v236.5h42.2h0.2h72.9h0.8h73.2h71.3h2.6h62.8H343H400h210.7h71.3h2.6h62.8h16.8
	h56.8h0.2h58.2h73.9V97.2h-58.5V76.3z M24.3,178.7H12.7v-11.6h11.6V178.7z M24.3,154.5H12.7v-11.6h11.6V154.5z M24.3,130.6H12.7V119
	h11.6V130.6z M24.3,106.7H12.7V95.1h11.6V106.7z M64,202.6H52.5V191H64V202.6z M64,178.7H52.5v-11.6H64V178.7z M64,154.5H52.5v-11.6
	H64V154.5z M90,202.6H78.4V191H90V202.6z M90,178.7H78.4v-11.6H90V178.7z M90,154.5H78.4v-11.6H90V154.5z M147.2,178.4h-11.6v-11.6
	h11.6V178.4z M147.2,154.3h-11.6v-11.6h11.6V154.3z M147.2,130.4h-11.6v-11.6h11.6V130.4z M147.2,106.4h-11.6V94.8h11.6V106.4z
	 M173.1,178.4h-11.6v-11.6h11.6V178.4z M173.1,154.3h-11.6v-11.6h11.6V154.3z M173.1,130.4h-11.6v-11.6h11.6V130.4z M173.1,106.4
	h-11.6V94.8h11.6V106.4z M221.1,178.4h-11.6v-11.6h11.6V178.4z M221.1,154.3h-11.6v-11.6h11.6V154.3z M221.1,130.4h-11.6v-11.6h11.6
	V130.4z M221.1,106.4h-11.6V94.8h11.6V106.4z M247.1,178.4h-11.6v-11.6h11.6V178.4z M247.1,154.3h-11.6v-11.6h11.6V154.3z
	 M247.1,130.4h-11.6v-11.6h11.6V130.4z M247.1,106.4h-11.6V94.8h11.6V106.4z M295,128.7h-11.6v-11.6H295V128.7z M295,104.5h-11.6V93
	H295V104.5z M295,80.6h-11.6V69H295V80.6z M295,56.7h-11.6V45.1H295V56.7z M321,128.7h-11.6v-11.6H321V128.7z M321,104.5h-11.6V93
	H321V104.5z M321,80.6h-11.6V69H321V80.6z M321,56.7h-11.6V45.1H321V56.7z M363.9,202.6h-11.6V191h11.6V202.6z M363.9,178.7h-11.6
	v-11.6h11.6V178.7z M363.9,154.5h-11.6v-11.6h11.6V154.5z M389.8,202.6h-11.6V191h11.6V202.6z M389.8,178.7h-11.6v-11.6h11.6V178.7z
	 M389.8,154.5h-11.6v-11.6h11.6V154.5z M431.8,199.3h-11.6v-11.6h11.6V199.3z M431.8,175.2h-11.6v-11.6h11.6V175.2z M431.8,151.2
	h-11.6v-11.6h11.6V151.2z M431.8,127.3h-11.6v-11.6h11.6V127.3z M457.8,199.3h-11.6v-11.6h11.6V199.3z M457.8,175.2h-11.6v-11.6
	h11.6V175.2z M457.8,151.2h-11.6v-11.6h11.6V151.2z M457.8,127.3h-11.6v-11.6h11.6V127.3z M505.7,221.1h-11.6v-11.6h11.6V221.1z
	 M505.7,197.2h-11.6v-11.6h11.6V197.2z M505.7,173.5h-11.6v-11.6h11.6V173.5z M505.7,149.6h-11.6V138h11.6V149.6z M505.7,125.4
	h-11.6v-11.6h11.6V125.4z M505.7,101.5h-11.6V89.9h11.6V101.5z M505.7,77.5h-11.6V66h11.6V77.5z M531.6,221.1h-11.6v-11.6h11.6
	V221.1z M531.6,197.2h-11.6v-11.6h11.6V197.2z M531.6,173.5h-11.6v-11.6h11.6V173.5z M531.6,149.6h-11.6V138h11.6V149.6z
	 M531.6,125.4h-11.6v-11.6h11.6V125.4z M531.6,101.5h-11.6V89.9h11.6V101.5z M531.6,77.5h-11.6V66h11.6V77.5z M574.5,223.5H563
	v-11.6h11.6V223.5z M574.5,199.5H563V188h11.6V199.5z M574.5,175.4H563v-11.6h11.6V175.4z M574.5,151.6H563V140h11.6V151.6z
	 M600.5,223.5h-11.6v-11.6h11.6V223.5z M600.5,199.5h-11.6V188h11.6V199.5z M600.5,175.4h-11.6v-11.6h11.6V175.4z M600.5,151.6
	h-11.6V140h11.6V151.6z M642.5,178.4h-11.6v-11.6h11.6V178.4z M642.5,154.3h-11.6v-11.6h11.6V154.3z M642.5,130.4h-11.6v-11.6h11.6
	V130.4z M642.5,106.4h-11.6V94.8h11.6V106.4z M668.5,178.4h-11.6v-11.6h11.6V178.4z M668.5,154.3h-11.6v-11.6h11.6V154.3z
	 M668.5,130.4h-11.6v-11.6h11.6V130.4z M668.5,106.4h-11.6V94.8h11.6V106.4z M716.4,128.7h-11.6v-11.6h11.6V128.7z M716.4,104.5
	h-11.6V93h11.6V104.5z M716.4,80.6h-11.6V69h11.6V80.6z M716.4,56.7h-11.6V45.1h11.6V56.7z M742.3,128.7h-11.6v-11.6h11.6V128.7z
	 M742.3,104.5h-11.6V93h11.6V104.5z M742.3,80.6h-11.6V69h11.6V80.6z M742.3,56.7h-11.6V45.1h11.6V56.7z M785.2,202.6h-11.6V191
	h11.6V202.6z M785.2,178.7h-11.6v-11.6h11.6V178.7z M785.2,154.5h-11.6v-11.6h11.6V154.5z M811.2,202.6h-11.6V191h11.6V202.6z
	 M811.2,178.7h-11.6v-11.6h11.6V178.7z M811.2,154.5h-11.6v-11.6h11.6V154.5z M850.9,178.7h-11.6v-11.6h11.6V178.7z M850.9,154.5
	h-11.6v-11.6h11.6V154.5z M850.9,130.6h-11.6V119h11.6V130.6z M850.9,106.7h-11.6V95.1h11.6V106.7z M876.9,178.7h-11.6v-11.6h11.6
	V178.7z M876.9,154.5h-11.6v-11.6h11.6V154.5z M876.9,130.6h-11.6V119h11.6V130.6z M876.9,106.7h-11.6V95.1h11.6V106.7z
	 M925.8,115.7h11.6v11.6h-11.6V115.7z M925.8,139.6h11.6v11.6h-11.6V139.6z M925.8,163.6h11.6v11.6h-11.6V163.6z M925.8,187.7h11.6
	v11.6h-11.6V187.7z M899.8,115.7h11.6v11.6h-11.6V115.7z M899.8,139.6h11.6v11.6h-11.6V139.6z M899.8,163.6h11.6v11.6h-11.6V163.6z
	 M899.8,187.7h11.6v11.6h-11.6V187.7z"/>
<path style="opacity:0.5;fill:#AED4C8;" d="M1970.5,119V76.3h-73.9v20.9h-58.5v215.6h73.9h58.2h0.2h29.5V119H1970.5z M1865.9,199.3
	h-11.6v-11.6h11.6V199.3z M1865.9,175.2h-11.6v-11.6h11.6V175.2z M1865.9,151.2h-11.6v-11.6h11.6V151.2z M1865.9,127.3h-11.6v-11.6
	h11.6V127.3z M1891.9,199.3h-11.6v-11.6h11.6V199.3z M1891.9,175.2h-11.6v-11.6h11.6V175.2z M1891.9,151.2h-11.6v-11.6h11.6V151.2z
	 M1891.9,127.3h-11.6v-11.6h11.6V127.3z M1926.4,178.7h-11.6v-11.6h11.6V178.7z M1926.4,154.5h-11.6v-11.6h11.6V154.5z
	 M1926.4,130.6h-11.6V119h11.6V130.6z M1926.4,106.7h-11.6V95.1h11.6V106.7z M1952.3,178.7h-11.6v-11.6h11.6V178.7z M1952.3,154.5
	h-11.6v-11.6h11.6V154.5z M1952.3,130.6h-11.6V119h11.6V130.6z M1952.3,106.7h-11.6V95.1h11.6V106.7z M1992.1,202.6h-11.6V191h11.6
	V202.6z M1992.1,178.7h-11.6v-11.6h11.6V178.7z M1992.1,154.5h-11.6v-11.6h11.6V154.5z"/>
<path style="opacity:0.5;fill:#AED4C8;" d="M1692.8,76.3V24.9h-82.3V119h-57.1V97.2h-71.3V45.8h-82.3v78h-57.1V76.3h-71.3V24.9
	h-82.3V119h-56.8V76.3h-73.9v20.9h-58.5v215.6h73.9h58.2h0.2h56.8h16.8h62.8h2.6h71.3h210.7h57.1h16.8h62.8h2.6h71.3h73.9V76.3
	h-73.9H1692.8z M1027.7,199.3h-11.6v-11.6h11.6V199.3z M1027.7,175.2h-11.6v-11.6h11.6V175.2z M1027.7,151.2h-11.6v-11.6h11.6V151.2
	z M1027.7,127.3h-11.6v-11.6h11.6V127.3z M1053.7,199.3h-11.6v-11.6h11.6V199.3z M1053.7,175.2h-11.6v-11.6h11.6V175.2z
	 M1053.7,151.2h-11.6v-11.6h11.6V151.2z M1053.7,127.3h-11.6v-11.6h11.6V127.3z M1088.2,178.7h-11.6v-11.6h11.6V178.7z
	 M1088.2,154.5h-11.6v-11.6h11.6V154.5z M1088.2,130.6h-11.6V119h11.6V130.6z M1088.2,106.7h-11.6V95.1h11.6V106.7z M1114.1,178.7
	h-11.6v-11.6h11.6V178.7z M1114.1,154.5h-11.6v-11.6h11.6V154.5z M1114.1,130.6h-11.6V119h11.6V130.6z M1114.1,106.7h-11.6V95.1
	h11.6V106.7z M1153.9,202.6h-11.6V191h11.6V202.6z M1153.9,178.7h-11.6v-11.6h11.6V178.7z M1153.9,154.5h-11.6v-11.6h11.6V154.5z
	 M1179.8,202.6h-11.6V191h11.6V202.6z M1179.8,178.7h-11.6v-11.6h11.6V178.7z M1179.8,154.5h-11.6v-11.6h11.6V154.5z M1222.7,128.7
	h-11.6v-11.6h11.6V128.7z M1222.7,104.5h-11.6V93h11.6V104.5z M1222.7,80.6h-11.6V69h11.6V80.6z M1222.7,56.7h-11.6V45.1h11.6V56.7z
	 M1248.7,128.7h-11.6v-11.6h11.6V128.7z M1248.7,104.5h-11.6V93h11.6V104.5z M1248.7,80.6h-11.6V69h11.6V80.6z M1248.7,56.7h-11.6
	V45.1h11.6V56.7z M1296.6,178.4H1285v-11.6h11.6V178.4z M1296.6,154.3H1285v-11.6h11.6V154.3z M1296.6,130.4H1285v-11.6h11.6V130.4z
	 M1296.6,106.4H1285V94.8h11.6V106.4z M1322.6,178.4H1311v-11.6h11.6V178.4z M1322.6,154.3H1311v-11.6h11.6V154.3z M1322.6,130.4
	H1311v-11.6h11.6V130.4z M1322.6,106.4H1311V94.8h11.6V106.4z M1364.6,223.5H1353v-11.6h11.6V223.5z M1364.6,199.5H1353V188h11.6
	V199.5z M1364.6,175.4H1353v-11.6h11.6V175.4z M1364.6,151.6H1353V140h11.6V151.6z M1390.5,223.5H1379v-11.6h11.6V223.5z
	 M1390.5,199.5H1379V188h11.6V199.5z M1390.5,175.4H1379v-11.6h11.6V175.4z M1390.5,151.6H1379V140h11.6V151.6z M1433.4,221.1h-11.6
	v-11.6h11.6V221.1z M1433.4,197.2h-11.6v-11.6h11.6V197.2z M1433.4,173.5h-11.6v-11.6h11.6V173.5z M1433.4,149.6h-11.6V138h11.6
	V149.6z M1433.4,125.4h-11.6v-11.6h11.6V125.4z M1433.4,101.5h-11.6V89.9h11.6V101.5z M1433.4,77.5h-11.6V66h11.6V77.5z
	 M1459.4,221.1h-11.6v-11.6h11.6V221.1z M1459.4,197.2h-11.6v-11.6h11.6V197.2z M1459.4,173.5h-11.6v-11.6h11.6V173.5z
	 M1459.4,149.6h-11.6V138h11.6V149.6z M1459.4,125.4h-11.6v-11.6h11.6V125.4z M1459.4,101.5h-11.6V89.9h11.6V101.5z M1459.4,77.5
	h-11.6V66h11.6V77.5z M1507.3,199.3h-11.6v-11.6h11.6V199.3z M1507.3,175.2h-11.6v-11.6h11.6V175.2z M1507.3,151.2h-11.6v-11.6h11.6
	V151.2z M1507.3,127.3h-11.6v-11.6h11.6V127.3z M1533.3,199.3h-11.6v-11.6h11.6V199.3z M1533.3,175.2h-11.6v-11.6h11.6V175.2z
	 M1533.3,151.2h-11.6v-11.6h11.6V151.2z M1533.3,127.3h-11.6v-11.6h11.6V127.3z M1575.3,202.6h-11.6V191h11.6V202.6z M1575.3,178.7
	h-11.6v-11.6h11.6V178.7z M1575.3,154.5h-11.6v-11.6h11.6V154.5z M1601.2,202.6h-11.6V191h11.6V202.6z M1601.2,178.7h-11.6v-11.6
	h11.6V178.7z M1601.2,154.5h-11.6v-11.6h11.6V154.5z M1644.1,128.7h-11.6v-11.6h11.6V128.7z M1644.1,104.5h-11.6V93h11.6V104.5z
	 M1644.1,80.6h-11.6V69h11.6V80.6z M1644.1,56.7h-11.6V45.1h11.6V56.7z M1670.1,128.7h-11.6v-11.6h11.6V128.7z M1670.1,104.5h-11.6
	V93h11.6V104.5z M1670.1,80.6h-11.6V69h11.6V80.6z M1670.1,56.7h-11.6V45.1h11.6V56.7z M1718,178.4h-11.6v-11.6h11.6V178.4z
	 M1718,154.3h-11.6v-11.6h11.6V154.3z M1718,130.4h-11.6v-11.6h11.6V130.4z M1718,106.4h-11.6V94.8h11.6V106.4z M1744,178.4h-11.6
	v-11.6h11.6V178.4z M1744,154.3h-11.6v-11.6h11.6V154.3z M1744,130.4h-11.6v-11.6h11.6V130.4z M1744,106.4h-11.6V94.8h11.6V106.4z
	 M1806.3,94.8h11.6v11.6h-11.6V94.8z M1806.3,118.8h11.6v11.6h-11.6V118.8z M1806.3,142.7h11.6v11.6h-11.6V142.7z M1806.3,166.9
	h11.6v11.6h-11.6V166.9z M1780.4,94.8h11.6v11.6h-11.6V94.8z M1780.4,118.8h11.6v11.6h-11.6V118.8z M1780.4,142.7h11.6v11.6h-11.6
	V142.7z M1780.4,166.9h11.6v11.6h-11.6V166.9z"/>
</svg>
