<?xml version="1.0" encoding="utf-8"?>
<svg version="1.1" xmlns="http://www.w3.org/2000/svg" xmlns:xlink="http://www.w3.org/1999/xlink" x="0" y="0"
	 viewBox="0 0 2000 350" width="2000" height="350" xml:space="preserve">
<g style="opacity:0.4;">
	<path fill="#BED8EA" d="M664.9,243.9h-69.2c-2.4,0-4.3-1.9-4.3-4.3s1.9-4.3,4.3-4.3h0.2c2.8,0,5.1-2.3,5.1-5.1
		c0-2.8-2.3-5.1-5.1-5.1h-36.1c-1.4,0-2.5-1.1-2.5-2.5c0-1.4,1.1-2.5,2.5-2.5h1.9c2.8,0,5.1-2.3,5.1-5.1s-2.3-5.1-5.1-5.1h-40.2
		c-2.8,0-5.1,2.3-5.1,5.1s2.3,5.1,5.1,5.1h1.9c1.4,0,2.5,1.1,2.5,2.5c0,1.4-1.1,2.5-2.5,2.5h-17.8c-2.8,0-5.1,2.3-5.1,5.1
		c0,2.8,2.3,5.1,5.1,5.1h37.5c2.4,0,4.3,1.9,4.3,4.3s-1.9,4.3-4.3,4.3h-2.1c-4.7,0-8.6,3.8-8.6,8.6s3.8,8.6,8.6,8.6h123.7
		c4.7,0,8.6-3.8,8.6-8.6S669.6,243.9,664.9,243.9z"/>
	<path fill="#BED8EA" d="M726.7,243.9h-35.3c-4.7,0-8.6,3.8-8.6,8.6s3.8,8.6,8.6,8.6h35.3c4.7,0,8.6-3.8,8.6-8.6
		S731.5,243.9,726.7,243.9z"/>
</g>
<g style="opacity:0.4;">
	<path fill="#BED8EA" d="M227,267.9h-69.2c-2.4,0-4.3-1.9-4.3-4.3c0-2.4,1.9-4.3,4.3-4.3h0.2c2.8,0,5.1-2.3,5.1-5.1
		c0-2.8-2.3-5.1-5.1-5.1H122c-1.4,0-2.5-1.1-2.5-2.5c0-1.4,1.1-2.5,2.5-2.5h1.9c2.8,0,5.1-2.3,5.1-5.1s-2.3-5.1-5.1-5.1H83.7
		c-2.8,0-5.1,2.3-5.1,5.1s2.3,5.1,5.1,5.1h1.9c1.4,0,2.5,1.1,2.5,2.5c0,1.4-1.1,2.5-2.5,2.5H67.9c-2.8,0-5.1,2.3-5.1,5.1
		c0,2.8,2.3,5.1,5.1,5.1h37.5c2.4,0,4.3,1.9,4.3,4.3c0,2.4-1.9,4.3-4.3,4.3h-2.1c-4.7,0-8.6,3.8-8.6,8.6c0,4.7,3.8,8.6,8.6,8.6H227
		c4.7,0,8.6-3.8,8.6-8.6C235.5,271.7,231.7,267.9,227,267.9z"/>
	<path fill="#BED8EA" d="M288.8,267.9h-35.3c-4.7,0-8.6,3.8-8.6,8.6c0,4.7,3.8,8.6,8.6,8.6h35.3c4.7,0,8.6-3.8,8.6-8.6
		C297.4,271.7,293.5,267.9,288.8,267.9z"/>
</g>
<path style="opacity:0.4;fill:#BED8EA;" d="M1463.6,308.8h-94.5c-2.6,0-4.7-2.1-4.7-4.7c0-2.6,2.1-4.7,4.7-4.7h3.6
	c5.2,0,9.4-4.2,9.4-9.4c0-5.2-4.2-9.4-9.4-9.4h-74.3c-5.2,0-9.4,4.2-9.4,9.4c0,5.2,4.2,9.4,9.4,9.4h3.6c2.6,0,4.7,2.1,4.7,4.7
	c0,2.6-2.1,4.7-4.7,4.7h-22.2c-5.2,0-9.4,4.2-9.4,9.4c0,5.2,4.2,9.4,9.4,9.4h183.8c5.2,0,9.4-4.2,9.4-9.4
	C1473,313,1468.8,308.8,1463.6,308.8z"/>
<g>
	<path fill="#BEE1C6" d="M395.1,110.4c-8.5-14.3-21-17.7-31.5-10.3l-19.5-38.9c-9.8-19.6-25.9-19.6-35.7,0l-31.3,62.4
		c-11.2-13.3-26.9-11.5-36.9,5.3l-82.4,139h205.5l-30.8-52h125.3L395.1,110.4z"/>
	<path fill="#BEE1C6" d="M1636.8,104.9c-12.2-24.2-32.1-24.2-44.2,0l-32,63.8l-61.4-122.3c-12.2-24.2-32.1-24.2-44.2,0
		l-32.7,65.1c-10.8-2.7-22.2,2.9-30.5,16.8l-38.3,64.5l-27.5-54.9c-12.2-24.2-32.1-24.2-44.2,0l-17.2,34.3l-38.8-77.3
		c-12.2-24.2-32.1-24.2-44.2,0l-32,63.8l-61.4-122.3c-12.2-24.2-32.1-24.2-44.2,0l-30.7,61.2c-11.4-4-23.7,1.4-32.4,16.2l-39.5,66.6
		L915,127.8c-12.2-24.2-32.1-24.2-44.2,0l-6,12l-31.7-53.4c-8.5-14.3-21-17.7-31.5-10.3l-19.5-38.9c-9.8-19.6-25.9-19.6-35.7,0
		L715,99.7c-11.2-13.3-26.9-11.5-36.9,5.3l-50.5,85.1l-44.4-74.8c-8.1-13.6-21.3-13.6-29.4,0l-10.6,17.9l-10.6-17.9
		c-8.1-13.6-21.3-13.6-29.4,0l-45.4,76.5h50.6l0,0h118.2l-30.9,52.1h205.5l-30.8-52h68.2l-18.7,37.2h92.4l-9,15.2h205.3l-28.2-47.6
		h88.3l-0.3-0.6h84.1l-21.6,43h95.1l-11.7,19.7h205.3l-30.9-52.1h91l-0.3-0.6h108.2L1636.8,104.9z"/>
	<path fill="#BEE1C6" d="M1873.7,191.8l-45.4-76.5c-8.1-13.6-21.3-13.6-29.4,0l-10.6,17.9l-10.6-17.9
		c-8.1-13.6-21.3-13.6-29.4,0l-45.4,76.5h50.6l0,0H1873.7z"/>
</g>
</svg>
