<?xml version="1.0" encoding="utf-8"?>
<svg version="1.1" xmlns="http://www.w3.org/2000/svg" xmlns:xlink="http://www.w3.org/1999/xlink" x="0" y="0"
	 viewBox="0 0 2000 350" width="2000" height="350" xml:space="preserve">
<g style="opacity:0.5;">
	<polygon style="fill:#ACB2D6;" points="695.8,133.8 631.3,133.8 631.3,157.8 584.7,157.8 584.7,109.1 503.1,109.1 503.1,66.8
		439,66.8 439,122.5 357.8,122.5 357.8,96 275.1,96 275.1,311.1 357.8,311.1 357.8,336.6 439,336.6 503.1,336.6 503.1,302.1
		584.7,302.1 631.3,302.1 631.3,336.6 695.8,336.6 704.6,336.6 771.8,336.6 771.8,72.8 695.8,72.8 	"/>
	<polygon style="fill:#ACB2D6;" points="199.1,108.2 111.1,108.2 111.1,78.4 28.7,78.4 28.7,102.6 0,102.6 0,310.5 28.7,310.5
		30.1,310.5 111.1,310.5 111.1,311.1 199.1,311.1 207.9,311.1 275.1,311.1 275.1,47.3 199.1,47.3 	"/>
	<polygon style="fill:#ACB2D6;" points="1970.1,130.9 1970.1,104.4 1888.9,104.4 1888.9,70 1806.6,70 1806.6,94.2 1696.8,94.2
		1696.8,155.7 1615.6,155.7 1615.6,121.1 1533.9,121.1 1533.9,155.7 1458.6,155.7 1458.6,86.6 1399.9,86.6 1399.9,54.4 1306.2,54.4
		1306.2,13.4 1208.7,13.4 1208.7,143.6 1120,143.6 1120,110.3 1042.3,110.3 1042.3,54.4 959.9,54.4 959.9,121.2 896.8,121.2
		896.8,157.8 854.5,157.8 854.5,121.6 771.8,121.6 771.8,336.6 854.5,336.6 854.5,302.1 896.8,302.1 959.9,302.1 960.9,302.1
		961.3,302.1 1037.3,302.1 1042.3,302.1 1075.4,302.1 1075.4,336.6 1208.7,336.6 1208.7,302.1 1305.8,302.1 1306.2,302.1
		1399.9,302.1 1399.9,336.6 1533.9,336.6 1556.9,336.6 1615.6,336.6 1696.8,336.6 1696.8,302.1 1806.6,302.1 1808,302.1
		1887.4,302.1 1887.4,319.5 1970.1,319.5 1970.1,345 2000,345 2000,130.9 	"/>
</g>
</svg>
