<?xml version="1.0" encoding="utf-8"?>
<svg version="1.1" xmlns="http://www.w3.org/2000/svg" xmlns:xlink="http://www.w3.org/1999/xlink" x="0" y="0"
	 viewBox="0 0 1200 700" width="1200" height="700" xml:space="preserve">
<g style="opacity:0.3;">
	<path style="fill:#D1CB99;" d="M183.9,540.1c-14.7-11.1-41.1-8.1-42.3,17.8c-1.3,25.8-2.5,33.7-3,36.3c0,0,20.8-5.4,39.9-15.3
		C197.4,569,198.6,551.2,183.9,540.1z"/>
	<path style="fill:#EE4632;" d="M39.2,513.1c-13,1.2-11,23.5,2,22.3C54.2,534.2,52.2,511.9,39.2,513.1z"/>
	<path style="fill:#D1CB99;" d="M182,446.4c0,0-5.4-13.5-19.8-20.9c0,0-7.5-4-10.3,3c-2.8,6.9,0.4,27.4,18.2,30
		C188.2,461.2,182,446.4,182,446.4z"/>
	<path style="fill:#D1CB99;" d="M258,478.6c0,0-22.7,1.3-41.1,19c0,0-9.7,9.2-0.7,16.8c8.9,7.6,40.9,13.1,53.8-12.1
		C283.1,476.8,258,478.6,258,478.6z"/>
	<path style="fill:#D1CB99;" d="M12.3,596.9c0.5-15.5-11.3-8.8-11.3-8.8s-0.4,0.2-1,0.6v24.9C6.1,611.2,12,605.9,12.3,596.9z"/>
	<path style="fill:#D1CB99;" d="M18.3,520.7c7.4-10.2-3.5-11.1-3.5-11.1s-7-0.7-14.7,2.9v13.1C5.5,527.5,13.3,527.5,18.3,520.7z"/>
	<path style="fill:#F79721;" d="M265.8,435.8c16.8,8.7,22.4-0.7,23.9-4.7c1.5-4.1,4.5-13.2-13.4-21c-14.4-6.3-37.2-1.4-37.2-1.4
		C245.4,418.9,248.9,427.1,265.8,435.8z"/>
	<path style="fill:#D1CB99;" d="M196.3,666.4c-21-0.4-29,17.4-33.4,33.6h51.3C218.3,684.8,216.1,666.8,196.3,666.4z"/>
	<path style="fill:#D1CB99;" d="M94,564.5c-17-5.7-43.2-0.3-39.8,16.4c3.4,16.7,19.2,17.7,38.7,15.5c19.5-2.2,33.3-11.5,33.3-11.5
		C118.9,578,106.9,568.8,94,564.5z"/>
	<path style="fill:#F79721;" d="M277.3,462.2c-0.4-4.5-4.4-7.9-9-7.5c-4.5,0.4-7.9,4.4-7.5,9c0.4,4.5,4.4,7.9,9,7.5
		C274.4,470.8,277.8,466.8,277.3,462.2z"/>
	<path style="fill:#F79721;" d="M54.5,452.5c5.5-3.2,9.4-9.1,2-21.6c-7.4-12.5-21.7-17.5-21.7-17.5c-2.7,7.1-4.4,16.1-1.5,27
		C37.7,456.7,49,455.7,54.5,452.5z"/>
	<path style="fill:#D1CB99;" d="M7.4,563.7c2.7,9.7,18.1,21.9,30.1,29.8c3.4,2.3,6.6,4.6,9.4,2.8c3.3-2.1,1.5-10.1,1.5-10.1
		c-2.3-10-6.6-23.6-14.4-35.3C19.6,529.2,3.4,549.5,7.4,563.7z"/>
	<path style="fill:#D1CB99;" d="M280.6,546.8c-18.3,3.5-18.9,12.5-25.7,40c-6.7,27.5-16.7,40.3-16.7,40.3c9.4-2.1,28.1-6,53.8-27.9
		C325.4,570.5,298.9,543.2,280.6,546.8z"/>
	<path style="fill:#EE4632;" d="M180,649c36.1-4.7,14.3-69.7,14.3-69.7S145.4,653.5,180,649z"/>
	<path style="fill:#EE4632;" d="M28.9,455.3c-11.5-5.8-21.2-1.2-28.9,7.1v31.9C21.6,483.2,49,465.4,28.9,455.3z"/>
	<path style="fill:#D1CB99;" d="M275.2,530.1c0,0-88.4-9.5-68.5,19.2C227.3,579.3,275.2,530.1,275.2,530.1z"/>
	<path style="fill:#D1CB99;" d="M135.2,461.7c7-15.4-2.6-28.1-14.3-35.2c-14.9-9-52.5,0.9-52.5,0.9s5.6,33.3,17.9,46
		C99.7,487.1,126.2,481.3,135.2,461.7z"/>
	<path style="fill:#F79721;" d="M151.7,694.8c14.7-1.3,12.8-23.5-2-22.2C134.9,673.9,136.9,696.1,151.7,694.8z"/>
	<path style="fill:#EE4632;" d="M76.5,408.8c21.7-5.4,32.2-29.3,32.2-29.3c-12.5,5.8-34.7-2.2-45.9-3.7
		c-11.3-1.6-21.8,2.4-19.3,16.8C45.9,407,54.7,414.1,76.5,408.8z"/>
	<path style="fill:#EE4632;" d="M131.7,654.1c1.6-11.3-2.5-21.8-16.8-19.3c-14.4,2.5-21.6,11.3-16.2,33.1C104,689.6,128,700,128,700
		C122.2,687.5,130.1,665.3,131.7,654.1z"/>
	<path style="fill:#D1CB99;" d="M197.6,454.1c-1.1,14.2-11.8,23.5-28,45.7c-16.2,22.2,3.4,31.3,12.2,31.8
		c8.8,0.5,18.6-5.9,21.5-28.1S197.6,454.1,197.6,454.1z"/>
	<path style="fill:#F79721;" d="M177.4,401.7c19.6-13.7,15-50.2-22.7-34.6c0,0-47.5,20-44.2,40.6
		C113.2,423.6,156.9,416.1,177.4,401.7z"/>
	<path style="fill:#EE4632;" d="M209.5,420.8c-13.6-1.3-22.6-9.3-22.6-9.3c2.8,22.2,13.8,37.4,28.2,46.4c12.4,7.8,40.6,10,39.2-14.2
		C252.9,420.4,223.1,422.1,209.5,420.8z"/>
	<path style="fill:#F79721;" d="M116.8,614.8c8.4-6.7,2.6-12.5-3.7-11.9c-3.2,0.3-9.8,2.1-14.6,5.4c0,0-6.4,4-5.4,7.2
		c0.7,2.1,8,2.4,8,2.4C106.4,618.4,112.7,618.1,116.8,614.8z"/>
	<path style="fill:#D1CB99;" d="M33.1,655.1c23.7-23.9,38.8-37.9,50.1-39.2c0,0-23.2-12.4-62.7-2.2c-9,2.3-15.6,5.6-20.5,9.4v44.1
		C7.3,670.4,18.4,669.9,33.1,655.1z"/>
	<path style="fill:#D1CB99;" d="M219,663.7c18.3,4.6,29.3,8,33.2,13.1c0,0-0.6-14.7-16.8-30.9c-16.2-16.2-28.3-5.3-30.4-1.5
		C203,648.3,200.7,659.1,219,663.7z"/>
	<path style="fill:#EE4632;" d="M284.8,446.5c0,0-5.2,1-3.9,5.4c1.3,4.5,10.7,13.3,20.5,7.7c9.9-5.6,1.2-10.5,1.2-10.5
		S294.7,444.6,284.8,446.5z"/>
	<path style="fill:#F79721;" d="M216.2,577.9c-5.6,16.6-4.1,33.4,0.2,47.3c0,0,15.7-8.2,24.8-33.3
		C251.7,562.5,221.9,561.3,216.2,577.9z"/>
	<path style="fill:#D1CB99;" d="M231.3,401.4c9.9-7.6,10.2-20.4,1.3-26.5c-8.8-6.1-19.3-5.7-27.7,5c0,0-11.9,17.6-5.5,25.6
		C209.7,418.2,231.3,401.4,231.3,401.4z"/>
	<path style="fill:#D1CB99;" d="M67.9,547.2c11.5,13.5,20.7,3.6,19.4-6.7c-1.3-10.3-22.4-35.1-22.4-35.1S56.4,533.8,67.9,547.2z"/>
	<path style="fill:#F79721;" d="M0,417.7v16.2c9.1-0.3,17-1.2,17-1.2S9.7,423.9,0,417.7z"/>
	<path style="fill:#D1CB99;" d="M148.9,664.8c0,0,8.2-12.4,10.8-32.3c3.1-24.6-8.8-28-16.7-26.7c-7.8,1.3-18.4,8.3-9.8,24.8
		C139.9,643.8,146.8,652.8,148.9,664.8z"/>
	<path style="fill:#F79721;" d="M145.9,511.5c6.7-21.9,27.2-37.1,27.2-37.1c-39.9,1.2-58.6,18-70.4,31.1
		c-10.1,11.2-19.1,39.5,6.4,45.7C135.4,557.5,139.2,533.4,145.9,511.5z"/>
	<path style="fill:#D1CB99;" d="M92.2,682.5c8.3-31.4-55.6-18.4-67.8-10.1c0,0-14.8,8.1-15.3,21.9c-0.1,2.1,0.3,3.9,1,5.6h72.2
		C86.6,695.7,90.2,690.1,92.2,682.5z"/>
	<path style="fill:#EE4632;" d="M65.8,635.9c-18.1,8.5-10.7,17.5-10.7,17.5c3.9,6.2,21-6.8,34.2-13.1c13.2-6.3,14.3-8.2,10.8-9.2
		C96.6,630.2,79.2,629.6,65.8,635.9z"/>
	<path style="fill:#D1CB99;" d="M83.7,492.4c0,0,3.7-11.1-16.2-12.6c-14.7-1.2-30.8,5.5-33.7,7.7c-2.9,2.2-1.3,3.5,13.3,4.8
		C61.7,493.5,82.3,499.6,83.7,492.4z"/>
</g>
<g style="opacity:0.3;">
	<path style="fill:#F79721;" d="M1144.1,178.1c-10.2-7.7-28.5-5.6-29.4,12.3c-0.9,17.9-1.7,23.4-2.1,25.2c0,0,14.5-3.8,27.7-10.6
		C1153.5,198.2,1154.3,185.8,1144.1,178.1z"/>
	<path style="fill:#F79721;" d="M1126.4,126c19.8-36,1.9-35.4,1.9-35.4c-3.8-0.2-10.1,6.2-10.1,6.2c-6,5.8-12.2,13.8-12.3,22.3
		C1105.6,135.8,1121.4,135,1126.4,126z"/>
	<path style="fill:#EE4632;" d="M1043.4,12.6c-5.6,8-14.7,21.5-31.6,20.2c0,0,15.2,17.3,36.8,15.4c21.6-1.9,41.5-15,48.1-29.1
		c3.2-6.7,2.8-13.6-0.6-19.1H1052C1048.4,4.4,1045.8,9.2,1043.4,12.6z"/>
	<path style="fill:#EE4632;" d="M980.1,220c-8.7,12.8,4.8,13.5,4.8,13.5s12.2,0.8,23.1-7.4c0,0,5.8-4.3,1.5-8.9
		C1005.3,212.5,988.6,207.4,980.1,220z"/>
	<path style="fill:#EE4632;" d="M1173.8,108.9c13.2-8.2,1.1-14.3,1.1-14.3s-10.8-5.7-24.2-2.6c0,0-7,1.6-5,7.5
		C1147.7,105.5,1160.9,117,1173.8,108.9z"/>
	<path style="fill:#EE4632;" d="M975.6,80.7c11-7.6,0.3-12.3,0.3-12.3s-9.5-4.4-20.9-1.2c0,0-6,1.6-4,6.7
		C953,78.9,964.8,88.2,975.6,80.7z"/>
	<path style="fill:#EE4632;" d="M1193.6,276.2c0,0-9.5-4.4-20.9-1.2c0,0-6,1.6-4,6.7c2,5,13.8,14.3,24.5,6.8
		C1204.3,280.9,1193.6,276.2,1193.6,276.2z"/>
	<path style="fill:#F79721;" d="M1200,272.8v-32c-1.4,0.8-2.5,1.7-3.4,2.5C1191.2,248.6,1187.7,261.9,1200,272.8z"/>
	<path style="fill:#F79721;" d="M956.9,12c-12.5,6.6-14.2,23.4-2.5,35c11.7,11.6,34.2,15,39.4,15.8c0,0,7.9-24.3-1.5-39.8
		C983.1,7.6,969.4,5.4,956.9,12z"/>
	<path style="fill:#EE4632;" d="M1182.1,252.4c13.5-18.7,3.7-38.2-17.2-44.1c-20.9-5.9-37.6,6.1-45,41c-7.4,34.8,2.5,61,2.5,61
		C1128.7,292.4,1168.6,271.2,1182.1,252.4z"/>
	<path style="fill:#D1CB99;" d="M1165.7,8c6.6,0.7,17.7,2.1,34.3-1.1V0h-24.9C1169.4,5.6,1165.7,8,1165.7,8z"/>
	<path style="fill:#F79721;" d="M1200,114.5v-13.1c-7.5-0.9-11.4-2.4-11.4-2.4C1190.6,102.4,1193.7,108,1200,114.5z"/>
	<path style="fill:#D1CB99;" d="M1160.5,124.1c0,0,23.8,25.7,39.5,32.1v-27.2C1184.3,122.1,1160.5,124.1,1160.5,124.1z"/>
	<path style="fill:#D1CB99;" d="M997.1,307c0,0,39.9,40,56.6,15.1C1069.8,298.2,997.1,307,997.1,307z"/>
	<path style="fill:#F79721;" d="M1078.8,184.4c16.9-5.7-22.3-28.8-22.3-28.8S1061.2,190.3,1078.8,184.4z"/>
	<path style="fill:#D1CB99;" d="M1018.1,10.5c7.4-0.2,11.7-4.8,13.8-10.5h-32C1003.3,6.1,1010.2,10.7,1018.1,10.5z"/>
	<path style="fill:#D1CB99;" d="M966.8,206.2c27.1,6.8,44.5-7.5,48.2-14.9c2.4-4.7,3.6-21.7-18.3-11.4
		C974.7,190.3,966.8,206.2,966.8,206.2z"/>
	<path style="fill:#F79721;" d="M1151.4,41.8c15.8-13.2,29.1-15,29.1-15c-25.3-13.9-54.7-11.9-69.1-7.7
		c-14.5,4.2-16.6,19.7-7.6,30.7C1112.4,60.4,1134,56.4,1151.4,41.8z"/>
	<path style="fill:#D1CB99;" d="M931,98.6c-2.3-0.7-3.4,2.1-6.4,12.3c-5,16.7-18.2,26.4-30.7,38.3c-20.8,19.8-3.3,45.2,14.8,42.8
		c19-2.5,26.4-22.3,30-48c1.7-11.9,1.9-24-0.6-32.6C938.1,111.3,935.1,100,931,98.6z"/>
	<path style="fill:#D1CB99;" d="M1044.6,72.8c-4.9,25.3,21.5,30.5,38,26.6c16.5-3.9,40.1-12.9,55.7-29.5c0,0-23.1-1.5-48.6-8.5
		C1089.7,61.5,1048.8,51,1044.6,72.8z"/>
	<path style="fill:#D1CB99;" d="M1096.3,140.2c-14.5,4.2-17,20-7.6,30.7c8,9.1,26.3,7.5,44.5-5.5c0,0,9.6-7.1,16.7-9
		c9.2-2.5,13-4.6,10.8-9.1c-1.6-3.4-13.3-7.3-13.3-7.3C1126.7,133.7,1107.7,136.9,1096.3,140.2z"/>
	<path style="fill:#D1CB99;" d="M1103.6,213.9c0,0-9.3-16.6-26.1-20.3c-36.9-8-58.4,16.9-58.6,31.5c-0.3,16.7,18.8,28,34.1,19.1
		c9.5-5.5,16.7-18.9,27.2-25.1C1089.4,213.8,1095.5,213.7,1103.6,213.9z"/>
	<path style="fill:#EE4632;" d="M1114.7,257.7c-5.4-2.2-7.2-10.2-10-21.2c-2.8-11-12.4-12.9-16.7-10.7c-3.4,1.8-9.7,6.1-0.9,18.2
		C1096,256,1114.7,257.7,1114.7,257.7z"/>
	<path style="fill:#EE4632;" d="M1020.4,50.5c-6-0.7-17.8-0.4-16.7,22.9c1.1,23.2,24,41.3,24,41.3c-5.2-7.4-0.7-19.4,5.1-36.1
		C1038.6,61.9,1027.7,51.3,1020.4,50.5z"/>
	<path style="fill:#EE4632;" d="M949.6,219.3c1.5-5.6,2.9-17-19.5-19.2c-22.4-2.2-43,17.1-43,17.1c7.8-3.9,18.7,2.1,33.8,10
		S947.7,226.3,949.6,219.3z"/>
	<path style="fill:#D1CB99;" d="M973.6,113.9c14.8-0.4,28.9-9.8,26-18.5c-2-6.1-13.5-13.5-26.1-1.3c-5.6,5.4-14.7,6.6-17.1,11.7
		C951.8,115.6,973.6,113.9,973.6,113.9z"/>
	<path style="fill:#F79721;" d="M1135.6,61.2c15.6-0.5,35,17.6,46,24.2c6.2,3.7,13,5.5,18.4,3.5v-38c-4.4-2.6-10.3-4.6-18-5.8
		C1157.1,40.9,1135.6,61.2,1135.6,61.2z"/>
	<path style="fill:#F79721;" d="M1056.8,141.7c18.1-5.3,32.1-17,41.6-29.4c0,0-16.9-8.8-44.7-1.3
		C1021.4,119.8,1038.7,146.9,1056.8,141.7z"/>
	<path style="fill:#D1CB99;" d="M964.4,233c-10.5-0.2-19.8,3.6-26.9,8.6c0,0,7.5,7.5,23.4,8.1C979.5,250.4,974.8,233.2,964.4,233z"
		/>
	<path style="fill:#D1CB99;" d="M1102.6,277.6c-8.8-6.1-19.3-5.7-27.7,5c0,0-11.9,17.6-5.5,25.6c10.2,12.7,31.8-4.1,31.8-4.1
		C1111.1,296.5,1111.4,283.7,1102.6,277.6z"/>
	<path style="fill:#F79721;" d="M1023.9,254.4c-34.4-27.4-56.2,3.8-49.2,21.1c7,17.3,15.9,16.2,44.2,17.6
		c28.3,1.3,42.7,8.8,42.7,8.8C1057.7,293,1050.3,275.4,1023.9,254.4z"/>
	<path style="fill:#D1CB99;" d="M1189.1,303.3c-13.5-9.7-25.9-8.4-37.7,3.2c-11.8,11.6-20.6,16.1-30.4,22.4
		c-9.8,6.3-7.2,16.6-7.2,16.6c6.7,21.7,56.5,1.1,56.5,1.1C1185.1,342.2,1210.9,319,1189.1,303.3z"/>
	<path style="fill:#EE4632;" d="M1065.3,249c0,0-9.7,7.4-12.5,20.9c0,0-1.5,7,4.7,7.7c6.3,0.7,22.1-6.5,20.3-21.6
		C1075.9,240.6,1065.3,249,1065.3,249z"/>
	<path style="fill:#D1CB99;" d="M1019.2,127.8c0,0-15.5,1.8-5.9,26.9c7,18.4,24.4,34.1,28.7,36.3c4.3,2.3,5-0.5-1.9-18.8
		C1033.1,153.9,1028.7,125.5,1019.2,127.8z"/>
	<path style="fill:#D1CB99;" d="M1162.4,162c-9.6,9.8,0.3,35.3,22.3,46.6c6,3.1,11.1,4.8,15.3,5.7v-26c-0.8-2.3-1.6-4.7-2.3-7.4
		C1191,157.5,1171.4,152.9,1162.4,162z"/>
	<path style="fill:#F79721;" d="M995.8,156.9c7.8-12.9-1-27.6-15-30.4c-13.3-2.7-27.5,14.1-31.8,36.3c-3.9,20.2-13,30-13,30
		C964.3,187.5,988.2,169.6,995.8,156.9z"/>
</g>
</svg>
