<?xml version="1.0" encoding="utf-8"?>
<svg version="1.1" xmlns="http://www.w3.org/2000/svg" xmlns:xlink="http://www.w3.org/1999/xlink" x="0" y="0"
	 viewBox="0 0 2000 350" width="2000" height="350" xml:space="preserve">
<g style="opacity:0.15;">
	<polygon style="fill:#4A6792;" points="417.4,132.5 279.2,132.5 279.2,71.7 251.6,71.7 251.6,132.5 251.6,132.5 251.6,281.7
		472.7,281.7 472.7,187.8 	"/>
	<polygon style="fill:#6A81A5;" points="417.4,187.8 472.7,187.8 417.4,132.5 	"/>
	<polygon style="fill:#6A81A5;" points="362.1,187.8 417.4,187.8 362.1,132.5 	"/>
	<polygon style="fill:#6A81A5;" points="306.9,187.8 362.1,187.8 306.9,132.5 	"/>
	<polygon style="fill:#6A81A5;" points="251.6,187.8 306.9,187.8 251.6,132.5 	"/>
	<g>
		<path style="fill:#4A6792;" d="M75.8,146.1c0,1.8-1.7,3.2-3.8,3.2h-4.9c-2.1,0-3.8-1.4-3.8-3.2c0-1.8,1.7-3.2,3.8-3.2H72
			C74.1,142.9,75.8,144.4,75.8,146.1z"/>
	</g>
	<g>
		<path style="fill:#4A6792;" d="M141.9,146.1c0,1.8-1.7,3.2-3.8,3.2h-4.9c-2.1,0-3.8-1.4-3.8-3.2c0-1.8,1.7-3.2,3.8-3.2h4.9
			C140.3,142.9,141.9,144.4,141.9,146.1z"/>
	</g>
	<g>
		<path style="fill:#4A6792;" d="M208.1,146.1c0,1.8-1.7,3.2-3.8,3.2h-4.9c-2.1,0-3.8-1.4-3.8-3.2c0-1.8,1.7-3.2,3.8-3.2h4.9
			C206.4,142.9,208.1,144.4,208.1,146.1z"/>
	</g>
	<path style="fill:#4A6792;" d="M69.6,152.2c-14.1,0-25.6,11.5-25.6,25.6v101.4h25.6h25.6V177.8C95.2,163.7,83.7,152.2,69.6,152.2z"
		/>
	<path style="fill:#4A6792;" d="M135.8,152.2c-14.1,0-25.6,11.5-25.6,25.6v101.4h51.2l0,0V177.8l0,0
		C161.3,163.7,149.9,152.2,135.8,152.2z"/>
	<path style="fill:#4A6792;" d="M204.5,152.4c-0.9-0.1-1.7-0.1-2.6-0.1c-14.1,0-25.6,11.5-25.6,25.6v101.4h25.6h25.6h0V177.8
		C227.5,164.6,217.4,153.7,204.5,152.4z"/>
	<path style="fill:#6A81A5;" d="M229.2,188.2H41c-2.8,0-5-2.2-5-5s2.2-5,5-5h188.2c2.8,0,5,2.2,5,5S232,188.2,229.2,188.2z"/>
	<path style="fill:#6A81A5;" d="M229.2,270.1H41c-2.8,0-5-2.2-5-5s2.2-5,5-5h188.2c2.8,0,5,2.2,5,5S232,270.1,229.2,270.1z"/>
	<polygon style="fill:#4A6792;" points="864.6,132.5 726.5,132.5 726.5,71.7 698.8,71.7 698.8,132.5 698.8,132.5 698.8,281.7
		919.9,281.7 919.9,187.8 	"/>
	<polygon style="fill:#6A81A5;" points="864.6,187.8 919.9,187.8 864.6,132.5 	"/>
	<polygon style="fill:#6A81A5;" points="809.4,187.8 864.6,187.8 809.4,132.5 	"/>
	<polygon style="fill:#6A81A5;" points="754.1,187.8 809.4,187.8 754.1,132.5 	"/>
	<polygon style="fill:#6A81A5;" points="698.8,187.8 754.1,187.8 698.8,132.5 	"/>
	<g>
		<path style="fill:#4A6792;" d="M523,146.1c0,1.8-1.7,3.2-3.8,3.2h-4.9c-2.1,0-3.8-1.4-3.8-3.2c0-1.8,1.7-3.2,3.8-3.2h4.9
			C521.3,142.9,523,144.4,523,146.1z"/>
	</g>
	<g>
		<path style="fill:#4A6792;" d="M589.2,146.1c0,1.8-1.7,3.2-3.8,3.2h-4.9c-2.1,0-3.8-1.4-3.8-3.2c0-1.8,1.7-3.2,3.8-3.2h4.9
			C587.5,142.9,589.2,144.4,589.2,146.1z"/>
	</g>
	<g>
		<path style="fill:#4A6792;" d="M655.3,146.1c0,1.8-1.7,3.2-3.8,3.2h-4.9c-2.1,0-3.8-1.4-3.8-3.2c0-1.8,1.7-3.2,3.8-3.2h4.9
			C653.6,142.9,655.3,144.4,655.3,146.1z"/>
	</g>
	<path style="fill:#4A6792;" d="M516.8,152.2c-14.1,0-25.6,11.5-25.6,25.6v101.4h25.6h25.6V177.8C542.4,163.7,531,152.2,516.8,152.2
		z"/>
	<path style="fill:#4A6792;" d="M608.5,176.5c0,0,0-0.1,0-0.1c-0.1-1.6-0.3-3.2-0.7-4.7c-2.7-11-12.5-19.2-24.2-19.5
		c-0.2,0-0.4,0-0.7,0l0,0h0l0,0c-14.1,0-25.6,11.5-25.6,25.6v101.4h51.2V177.8C608.6,177.4,608.6,177,608.5,176.5z"/>
	<path style="fill:#4A6792;" d="M651.7,152.4c-0.9-0.1-1.7-0.1-2.6-0.1c-14.1,0-25.6,11.5-25.6,25.6v101.4h25.6h25.6h0V177.8
		C674.7,164.6,664.6,153.7,651.7,152.4z"/>
	<path style="fill:#6A81A5;" d="M676.4,188.2H488.2c-2.8,0-5-2.2-5-5s2.2-5,5-5h188.2c2.8,0,5,2.2,5,5S679.2,188.2,676.4,188.2z"/>
	<path style="fill:#6A81A5;" d="M676.4,270.1H488.2c-2.8,0-5-2.2-5-5s2.2-5,5-5h188.2c2.8,0,5,2.2,5,5S679.2,270.1,676.4,270.1z"/>
	<polygon style="fill:#4A6792;" points="1553,124 1420.4,124 1420.4,65.7 1393.9,65.7 1393.9,124 1393.9,124 1393.9,267.2
		1606,267.2 1606,177.1 	"/>
	<polygon style="fill:#6A81A5;" points="1553,177.1 1606,177.1 1553,124 	"/>
	<polygon style="fill:#6A81A5;" points="1499.9,177.1 1553,177.1 1499.9,124 	"/>
	<polygon style="fill:#6A81A5;" points="1446.9,177.1 1499.9,177.1 1446.9,124 	"/>
	<polygon style="fill:#6A81A5;" points="1393.9,177.1 1446.9,177.1 1393.9,124 	"/>
	<g>
		<path style="fill:#4A6792;" d="M1225.2,137.1c0,1.7-1.7,3.1-3.8,3.1h-4.4c-2.1,0-3.8-1.4-3.8-3.1s1.7-3.1,3.8-3.1h4.4
			C1223.5,134,1225.2,135.4,1225.2,137.1z"/>
	</g>
	<g>
		<path style="fill:#4A6792;" d="M1288.7,137.1c0,1.7-1.7,3.1-3.8,3.1h-4.4c-2.1,0-3.8-1.4-3.8-3.1s1.7-3.1,3.8-3.1h4.4
			C1287,134,1288.7,135.4,1288.7,137.1z"/>
	</g>
	<g>
		<path style="fill:#4A6792;" d="M1352.1,137.1c0,1.7-1.7,3.1-3.8,3.1h-4.4c-2.1,0-3.8-1.4-3.8-3.1s1.7-3.1,3.8-3.1h4.4
			C1350.4,134,1352.1,135.4,1352.1,137.1z"/>
	</g>
	<path style="fill:#4A6792;" d="M1219.2,143c-13.6,0-24.5,11-24.5,24.6v97.3h24.5h24.5v-97.3C1243.8,154,1232.8,143,1219.2,143z"/>
	<path style="fill:#4A6792;" d="M1306.8,162.8c-2.2-11.3-12.2-19.8-24.1-19.8c-13.6,0-24.6,11-24.6,24.6v97.3h24.6h24.6l0,0v-97.3
		C1307.3,165.9,1307.1,164.3,1306.8,162.8z"/>
	<path style="fill:#4A6792;" d="M1348.7,143.1c-0.8-0.1-1.7-0.1-2.5-0.1c-13.6,0-24.5,11-24.5,24.6v97.3h24.5h24.6h0v-97.3
		C1370.7,154.8,1361.1,144.4,1348.7,143.1z"/>
	<path style="fill:#6A81A5;" d="M1372.4,177.5h-180.6c-2.6,0-4.8-2.1-4.8-4.8s2.1-4.8,4.8-4.8h180.6c2.6,0,4.8,2.1,4.8,4.8
		S1375,177.5,1372.4,177.5z"/>
	<path style="fill:#6A81A5;" d="M1372.4,256h-180.6c-2.6,0-4.8-2.1-4.8-4.8s2.1-4.8,4.8-4.8h180.6c2.6,0,4.8,2.1,4.8,4.8
		S1375,256,1372.4,256z"/>
	<g>
		<path style="fill:#4A6792;" d="M1016.6,137.1c0,1.7-1.7,3.1-3.8,3.1h-4.4c-2.1,0-3.8-1.4-3.8-3.1s1.7-3.1,3.8-3.1h4.4
			C1014.9,134,1016.6,135.4,1016.6,137.1z"/>
	</g>
	<g>
		<path style="fill:#4A6792;" d="M1080.1,137.1c0,1.7-1.7,3.1-3.8,3.1h-4.4c-2.1,0-3.8-1.4-3.8-3.1s1.7-3.1,3.8-3.1h4.4
			C1078.4,134,1080.1,135.4,1080.1,137.1z"/>
	</g>
	<g>
		<path style="fill:#4A6792;" d="M1143.5,137.1c0,1.7-1.7,3.1-3.8,3.1h-4.4c-2.1,0-3.8-1.4-3.8-3.1s1.7-3.1,3.8-3.1h4.4
			C1141.8,134,1143.5,135.4,1143.5,137.1z"/>
	</g>
	<path style="fill:#4A6792;" d="M1010.7,143c-13.6,0-24.5,11-24.5,24.6v97.3h24.5h24.5v-97.3C1035.2,154,1024.2,143,1010.7,143z"/>
	<path style="fill:#4A6792;" d="M1074.1,143c-13.6,0-24.6,11-24.6,24.6v97.3h24.6h24.6v-97.3l0,0C1098.7,154,1087.7,143,1074.1,143z
		"/>
	<path style="fill:#4A6792;" d="M1140.1,143.1c-0.8-0.1-1.7-0.1-2.5-0.1c-13.6,0-24.5,11-24.5,24.6v97.3h24.5h24.6h0v-97.3
		C1162.2,154.8,1152.5,144.4,1140.1,143.1z"/>
	<path style="fill:#6A81A5;" d="M1163.8,177.5H983.2c-2.6,0-4.8-2.1-4.8-4.8s2.1-4.8,4.8-4.8h180.6c2.6,0,4.8,2.1,4.8,4.8
		S1166.5,177.5,1163.8,177.5z"/>
	<path style="fill:#6A81A5;" d="M1163.8,256H983.2c-2.6,0-4.8-2.1-4.8-4.8s2.1-4.8,4.8-4.8h180.6c2.6,0,4.8,2.1,4.8,4.8
		S1166.5,256,1163.8,256z"/>
	<g>
		<path style="fill:#4A6792;" d="M1658.6,137.1c0,1.7-1.7,3.1-3.8,3.1h-4.4c-2.1,0-3.8-1.4-3.8-3.1s1.7-3.1,3.8-3.1h4.4
			C1656.9,134,1658.6,135.4,1658.6,137.1z"/>
	</g>
	<g>
		<path style="fill:#4A6792;" d="M1722,137.1c0,1.7-1.7,3.1-3.8,3.1h-4.4c-2.1,0-3.8-1.4-3.8-3.1s1.7-3.1,3.8-3.1h4.4
			C1720.3,134,1722,135.4,1722,137.1z"/>
	</g>
	<g>
		<path style="fill:#4A6792;" d="M1785.5,137.1c0,1.7-1.7,3.1-3.8,3.1h-4.4c-2.1,0-3.8-1.4-3.8-3.1s1.7-3.1,3.8-3.1h4.4
			C1783.8,134,1785.5,135.4,1785.5,137.1z"/>
	</g>
	<path style="fill:#4A6792;" d="M1652.6,143c-13.6,0-24.5,11-24.5,24.6v97.3h24.5h24.5v-97.3C1677.2,154,1666.2,143,1652.6,143z"/>
	<path style="fill:#4A6792;" d="M1716.1,143c-13.6,0-24.6,11-24.6,24.6v97.3h24.6h24.6v-97.3l0,0C1740.7,154,1729.7,143,1716.1,143z
		"/>
	<path style="fill:#4A6792;" d="M1782.1,143.1c-0.8-0.1-1.7-0.1-2.5-0.1c-13.6,0-24.5,11-24.5,24.6v97.3h24.5h24.6h0v-97.3
		C1804.1,154.8,1794.5,144.4,1782.1,143.1z"/>
	<path style="fill:#6A81A5;" d="M1805.8,177.5h-180.6c-2.6,0-4.8-2.1-4.8-4.8s2.1-4.8,4.8-4.8h180.6c2.6,0,4.8,2.1,4.8,4.8
		S1808.4,177.5,1805.8,177.5z"/>
	<path style="fill:#6A81A5;" d="M1805.8,256h-180.6c-2.6,0-4.8-2.1-4.8-4.8s2.1-4.8,4.8-4.8h180.6c2.6,0,4.8,2.1,4.8,4.8
		S1808.4,256,1805.8,256z"/>
	<g>
		<path style="fill:#4A6792;" d="M1874.9,137.1c0,1.7-1.7,3.1-3.8,3.1h-4.4c-2.1,0-3.8-1.4-3.8-3.1s1.7-3.1,3.8-3.1h4.4
			C1873.2,134,1874.9,135.4,1874.9,137.1z"/>
	</g>
	<g>
		<path style="fill:#4A6792;" d="M1938.4,137.1c0,1.7-1.7,3.1-3.8,3.1h-4.4c-2.1,0-3.8-1.4-3.8-3.1s1.7-3.1,3.8-3.1h4.4
			C1936.7,134,1938.4,135.4,1938.4,137.1z"/>
	</g>
	<g>
		<path style="fill:#4A6792;" d="M2000,137.1c0,1.7-1.7,3.1-3.8,3.1h-2.5c-2.1,0-3.8-1.4-3.8-3.1s1.7-3.1,3.8-3.1h2.5
			C1998.3,134,2000,135.4,2000,137.1z"/>
	</g>
	<path style="fill:#4A6792;" d="M1869,143c-13.6,0-24.5,11-24.5,24.6v97.3h24.5h24.5v-97.3C1893.5,154,1882.5,143,1869,143z"/>
	<path style="fill:#4A6792;" d="M1932.4,143c-13.6,0-24.6,11-24.6,24.6v97.3h24.6h24.6v-97.3l0,0C1957,154,1946,143,1932.4,143z"/>
	<path style="fill:#4A6792;" d="M1998.4,143.1c-0.8-0.1-1.7-0.1-2.5-0.1c-13.6,0-24.5,11-24.5,24.6v97.3h24.5h4.1l0-121.5
		C2000,143.3,1999,143.2,1998.4,143.1z"/>
	<path style="fill:#6A81A5;" d="M2000,177.5h-158.5c-2.6,0-4.8-2.1-4.8-4.8s2.1-4.8,4.8-4.8H2000V177.5z"/>
	<path style="fill:#6A81A5;" d="M2000,256h-158.5c-2.6,0-4.8-2.1-4.8-4.8s2.1-4.8,4.8-4.8H2000V256z"/>
</g>
</svg>
