<?xml version="1.0" encoding="utf-8"?>
<svg version="1.1" xmlns="http://www.w3.org/2000/svg" xmlns:xlink="http://www.w3.org/1999/xlink" x="0" y="0"
	 viewBox="0 0 2000 350" width="2000" height="350" xml:space="preserve">
<path style="opacity:0.3;fill:#BED8EA;" d="M1388.7,291.1H1317c-2,0-3.6-1.6-3.6-3.6c0-2,1.6-3.6,3.6-3.6h2.7c3.9,0,7.1-3.2,7.1-7.1
	c0-3.9-3.2-7.1-7.1-7.1h-56.4c-3.9,0-7.1,3.2-7.1,7.1c0,3.9,3.2,7.1,7.1,7.1h2.7c2,0,3.6,1.6,3.6,3.6c0,2-1.6,3.6-3.6,3.6h-16.8
	c-3.9,0-7.1,3.2-7.1,7.1c0,3.9,3.2,7.1,7.1,7.1h139.5c3.9,0,7.1-3.2,7.1-7.1C1395.9,294.3,1392.7,291.1,1388.7,291.1z"/>
<g>
	<path fill="#DBEABE" d="M318.8,133.5c-9-15.2-22.4-18.9-33.6-11l-20.8-41.4c-10.5-20.9-27.6-20.9-38.1,0L193,147.6
		c-11.9-14.2-28.6-12.3-39.3,5.7l-87.8,148h218.9L252,246h133.5L318.8,133.5z"/>
	<path fill="#DBEABE" d="M1678.1,221h59l-52.8-89.1c-9.4-15.9-24.9-15.9-34.3,0l-12.4,20.8l-12.3-20.8
		c-9.4-15.9-24.9-15.9-34.3,0l-51.7,87.1l-58.8-99.2c-11.6-19.6-29.9-21.7-42.9-6.2L1401,41c-11.4-22.8-30.2-22.8-41.6,0l-22.7,45.2
		c-12.2-8.6-26.8-4.6-36.7,12l-38.4,64.8l-17-34c-12.6-25-33.1-25-45.7,0l-32.9,65.5l-63.7-127c-12.6-25-33.1-25-45.7,0l-25.5,50.7
		c-13.3-9-29.1-4.5-39.8,13.6l-45.1,76l-22.9-45.7c-12.6-25-33.1-25-45.7,0l-7.6,15.1l-45.7-77.1c-9.9-16.6-24.5-20.6-36.7-12
		L764.7,43c-11.4-22.8-30.2-22.8-41.6,0l-36.5,72.7c-13-15.5-31.3-13.4-42.9,6.2L584.9,221l-51.7-87.1c-9.4-15.9-24.9-15.9-34.3,0
		l-12.3,20.8l-12.4-20.8c-9.4-15.9-24.9-15.9-34.3,0L387.1,223h59l0,0h137.6l-36,60.7H787l-35.9-60.5h95.8l-22,43.8h86.2h64.7h147.6
		l-19.9-33.5h42.9l-0.2,0.4h150.9l-6.4-12.7h82.3l-35.9,60.5h239.3l-36-60.7L1678.1,221L1678.1,221z"/>
</g>
<path style="opacity:0.3;fill:#BED8EA;" d="M1422,301.1c0-5.1,4.1-9.2,9.2-9.2h37.8c5.1,0,9.2,4.1,9.2,9.2c0,5.1-4.1,9.2-9.2,9.2
	h-37.8C1426.1,310.3,1422,306.2,1422,301.1z"/>
<path style="opacity:0.3;fill:#BED8EA;" d="M657.9,316.6h-84.8c-2.9,0-5.3-2.4-5.3-5.3s2.4-5.3,5.3-5.3h0.3c3.4,0,6.2-2.8,6.2-6.2
	c0-3.4-2.8-6.2-6.2-6.2h-44.2c-1.7,0-3.1-1.4-3.1-3.1s1.4-3.1,3.1-3.1h2.4c3.4,0,6.2-2.8,6.2-6.2c0-3.4-2.8-6.2-6.2-6.2h-49.3
	c-3.5,0-6.2,2.8-6.2,6.2c0,3.4,2.8,6.2,6.2,6.2h2.4c1.7,0,3.1,1.4,3.1,3.1s-1.4,3.1-3.1,3.1h-21.8c-3.4,0-6.2,2.8-6.2,6.2
	c0,3.5,2.8,6.2,6.2,6.2h46c2.9,0,5.3,2.4,5.3,5.3s-2.4,5.3-5.3,5.3h-2.5c-5.8,0-10.5,4.7-10.5,10.5c0,5.8,4.7,10.5,10.5,10.5h151.7
	c5.8,0,10.5-4.7,10.5-10.5C668.4,321.3,663.7,316.6,657.9,316.6z"/>
<path style="opacity:0.3;fill:#BED8EA;" d="M1926.6,248.1h-84.8c-2.9,0-5.3-2.4-5.3-5.3c0-2.9,2.4-5.3,5.3-5.3h0.3
	c3.4,0,6.2-2.8,6.2-6.2c0-3.4-2.8-6.2-6.2-6.2h-44.2c-1.7,0-3.1-1.4-3.1-3.1s1.4-3.1,3.1-3.1h2.4c3.4,0,6.2-2.8,6.2-6.2
	c0-3.4-2.8-6.2-6.2-6.2h-49.3c-3.5,0-6.2,2.8-6.2,6.2c0,3.4,2.8,6.2,6.2,6.2h2.4c1.7,0,3.1,1.4,3.1,3.1s-1.4,3.1-3.1,3.1h-21.8
	c-3.4,0-6.2,2.8-6.2,6.2c0,3.5,2.8,6.2,6.2,6.2h46c2.9,0,5.3,2.4,5.3,5.3c0,2.9-2.4,5.3-5.3,5.3h-2.5c-5.8,0-10.5,4.7-10.5,10.5
	c0,5.8,4.7,10.5,10.5,10.5h151.7c5.8,0,10.5-4.7,10.5-10.5C1937.1,252.8,1932.4,248.1,1926.6,248.1z"/>
</svg>
