<?xml version="1.0" encoding="utf-8"?>
<svg version="1.1" xmlns="http://www.w3.org/2000/svg" xmlns:xlink="http://www.w3.org/1999/xlink" x="0" y="0"
	 viewBox="0 0 85 85" width="85" height="85" xml:space="preserve">
<rect x="15.7" y="26.3" fill="#F9AF7D" width="31.9" height="22.4"/>
<path fill="#F69454" d="M47.5,31.3h12.6c0.9,0,2.1,0.5,2.7,1l5.7,5c0.6,0.6,1.2,1.7,1.2,2.6v8.7H47.5V31.3z"/>
<path fill="#DBDCDC" d="M67.5,41.9V40c0-0.2-0.3-0.8-0.4-0.9l-5.7-5c-0.2-0.2-1-0.5-1.3-0.5h-2v8.4H67.5z"/>
<rect x="49.7" y="33.5" fill="#DBDCDC" width="5.8" height="8.4"/>
<path fill="#788073" d="M71.5,48.7h-9.1H25.1v4.7H67C69.5,53.4,71.5,51.3,71.5,48.7L71.5,48.7L71.5,48.7z"/>
<path fill="#595757" d="M31.8,53.4c0-3.7-3-6.7-6.7-6.7c-3.7,0-6.7,3-6.7,6.7c0,3.7,3,6.7,6.7,6.7
	C28.8,60.1,31.8,57.1,31.8,53.4z"/>
<path fill="#595757" d="M63.1,53.4c0-3.7-3-6.7-6.7-6.7c-3.7,0-6.7,3-6.7,6.7c0,3.7,3,6.7,6.7,6.7
	C60.1,60.1,63.1,57.1,63.1,53.4z"/>
<linearGradient id="pt-1" gradientUnits="userSpaceOnUse" x1="32.8712" y1="46.0027" x2="43.3904" y2="39.7323">
	<stop  offset="0" style="stop-color:#EC1C24"/>
	<stop  offset="0.9919" style="stop-color:#F4821F"/>
</linearGradient>
<path style="fill:url(#pt-1);" d="M36.5,44.9c0.6-0.3,1.2-0.7,1.7-1.1c0,0,0,0,0-0.1c-0.1-0.1-0.1-0.3-0.2-0.4l-0.7-1
	c0,0-0.1,0-0.1,0c0,0,0,0,0,0C37.2,43.3,36.9,44.2,36.5,44.9C36.4,44.9,36.4,44.9,36.5,44.9C36.4,44.9,36.5,44.9,36.5,44.9z"/>
<path fill="#F79721" d="M36,40.6l-0.2-0.3l-0.2,0.3l0,0c-0.4,0.5-0.6,1.2-0.6,1.8c0,0.8,0.3,1.5,0.8,2.1
	c0.5-0.6,0.8-1.3,0.8-2.1C36.6,41.8,36.4,41.1,36,40.6L36,40.6z"/>
<linearGradient id="pt-2" gradientUnits="userSpaceOnUse" x1="29.74" y1="41.435" x2="40.893" y2="34.7868">
	<stop  offset="0" style="stop-color:#EC1C24"/>
	<stop  offset="0.9919" style="stop-color:#F4821F"/>
</linearGradient>
<path style="fill:url(#pt-2);" d="M36.8,37.6c0-0.5-0.4-1-0.9-1h0c-0.5,0-1,0.5-1,1c0,0.2,0.1,0.4,0.2,0.6l0.7,1
	c0,0,0.1,0,0.1,0l0.7-1C36.7,38,36.8,37.8,36.8,37.6z"/>
<linearGradient id="pt-3" gradientUnits="userSpaceOnUse" x1="27.552" y1="37.7583" x2="38.7008" y2="31.1126">
	<stop  offset="0" style="stop-color:#EC1C24"/>
	<stop  offset="0.9919" style="stop-color:#F4821F"/>
</linearGradient>
<path style="fill:url(#pt-3);" d="M34.4,34.7c0.1-0.2,0.2-0.4,0.2-0.7c0-0.6-0.5-1.2-1.1-1.2c0,0,0,0,0,0
	c-0.6,0-1.1,0.6-1.1,1.2c0,0.2,0.1,0.5,0.2,0.7l0,0l0.9,1.2c0,0,0.1,0,0.1,0L34.4,34.7L34.4,34.7z"/>
<path style="fill:#F79721;" d="M30.8,40.6c-0.4,0.5-0.6,1.2-0.6,1.8c0,1.4,0.9,2.5,2.1,3c0.1,0,0.1,0,0.1-0.1c0-0.1,0-0.3,0-0.4
	c0-0.5,0.1-1,0.3-1.5c0,0,0,0,0,0l0.3-0.4c0,0,0,0,0,0l2.3-3.1l-1.9-2.6c0-0.1-0.1-0.1-0.2,0L30.8,40.6z"/>
<linearGradient id="pt-4" gradientUnits="userSpaceOnUse" x1="28.4488" y1="39.2762" x2="39.5749" y2="32.644">
	<stop  offset="0" style="stop-color:#EC1C24"/>
	<stop  offset="0.9919" style="stop-color:#F4821F"/>
</linearGradient>
<path style="fill:url(#pt-4);" d="M29.6,42.4c0-0.6,0.1-1.1,0.4-1.7c0,0,0.2-0.4,0.3-0.5l2.7-3.7c0,0,0,0,0-0.1l-1-1.3L32,35.1
	c-0.2-0.3-0.3-0.7-0.3-1.1c0-1,0.8-1.8,1.8-1.9v0l0,0l0,0v0c1,0,1.8,0.8,1.8,1.9c0,0.4-0.1,0.8-0.3,1.1l-0.1,0.1l-1,1.3c0,0,0,0,0,0
	l0.4,0.5c0,0,0.1,0,0.1,0c0.2-0.6,0.8-1.1,1.5-1.1l0,0h0.1l0,0c0.7,0,1.3,0.5,1.5,1.1c0,0,0.1,0,0.1,0l0.4-0.5c0,0,0,0,0-0.1
	l-1.1-1.4c-0.2-0.3-0.3-0.7-0.3-1.1c0-0.9,0.6-1.6,1.5-1.8c0,0,0-0.1,0-0.1c-1.6-1.2-3.8-1.8-6.1-1.4c-2.9,0.6-5.2,2.9-5.8,5.8
	c-0.8,3.8,1.4,7.3,4.6,8.5c0,0,0.1,0,0-0.1C30,44.3,29.6,43.4,29.6,42.4z"/>
<path style="fill:#F7981D;" d="M35.3,44.9C35.3,44.9,35.3,44.9,35.3,44.9c-0.6-0.7-0.9-1.6-0.9-2.5c0,0,0,0,0,0c0-0.1-0.1-0.1-0.1,0
	l-0.7,0.9c-0.3,0.5-0.5,1-0.5,1.5c0,0.2,0,0.5,0.1,0.7c0,0,0,0,0,0c0.1,0,0.1,0,0.2,0c0,0,0,0,0.1,0C34.2,45.5,34.8,45.3,35.3,44.9z
	"/>
<linearGradient id="pt-5" gradientUnits="userSpaceOnUse" x1="28.7979" y1="39.8589" x2="39.9524" y2="33.2098">
	<stop  offset="0" style="stop-color:#EC1C24"/>
	<stop  offset="0.9919" style="stop-color:#F4821F"/>
</linearGradient>
<path style="fill:url(#pt-5);" d="M37,34c0,0.2,0.1,0.5,0.2,0.7l0.9,1.2c0,0,0.1,0,0.1,0l0.9-1.2c0.1-0.2,0.2-0.4,0.2-0.7
	c0-0.2-0.1-0.4-0.2-0.6c0,0,0,0,0,0c-0.1-0.1-0.1-0.2-0.2-0.3c0,0,0,0,0,0c-0.2-0.2-0.4-0.3-0.7-0.3c0,0,0,0,0,0
	C37.6,32.8,37,33.4,37,34z"/>
<linearGradient id="pt-6" gradientUnits="userSpaceOnUse" x1="30.5915" y1="42.738" x2="41.679" y2="36.1289">
	<stop  offset="0" style="stop-color:#EC1C24"/>
	<stop  offset="0.9919" style="stop-color:#F4821F"/>
</linearGradient>
<path style="fill:url(#pt-6);" d="M39.7,35.1l-0.1,0.1l-1,1.3c0,0,0,0,0,0.1l2,2.7c0,0,0.1,0,0.1,0c0.1-0.4,0.1-0.8,0.1-1.2
	c0-1.3-0.3-2.4-0.9-3.5c0,0-0.1,0-0.1,0C39.8,34.8,39.8,34.9,39.7,35.1z"/>
<linearGradient id="pt-7" gradientUnits="userSpaceOnUse" x1="31.4987" y1="44.3384" x2="42.6189" y2="37.7098">
	<stop  offset="0" style="stop-color:#EC1C24"/>
	<stop  offset="0.9919" style="stop-color:#F4821F"/>
</linearGradient>
<path style="fill:url(#pt-7);" d="M38.3,37.2c0-0.1-0.1-0.1-0.2,0l-1.9,2.5l2.2,3c0,0,0.2,0.3,0.2,0.3c0,0.1,0.1,0.1,0.2,0
	c0.7-0.8,1.3-1.8,1.6-2.8c0,0,0-0.1,0-0.1L38.3,37.2z"/>
</svg>
