<?xml version="1.0" encoding="utf-8"?>
<svg version="1.1" xmlns="http://www.w3.org/2000/svg" xmlns:xlink="http://www.w3.org/1999/xlink" x="0" y="0"
	 viewBox="0 0 85 85" width="85" height="85" xml:space="preserve">
<path fill="#716552" d="M67.6,26.7H43.4c-0.5,0-0.9,0.4-0.9,0.9c0-0.5-0.4-0.9-0.9-0.9H17.4c-0.5,0-0.9,0.4-0.9,0.9v29.6
	c0,0.5,0.4,0.9,0.9,0.9h23c0.2,0.6,1.1,1,2.1,1c1,0,1.9-0.4,2.1-1h22.9c0.5,0,0.9-0.4,0.9-0.9V27.6C68.5,27.1,68.1,26.7,67.6,26.7z"
	/>
<path fill="#716552" d="M42.6,59.6c-1.1,0-2-0.4-2.4-1H17.4c-0.7,0-1.4-0.6-1.4-1.3V27.6c0-0.7,0.6-1.3,1.4-1.3h24.1
	c0.4,0,0.7,0.1,0.9,0.4c0.2-0.2,0.6-0.4,0.9-0.4h24.1c0.7,0,1.3,0.6,1.3,1.3v29.6c0,0.7-0.6,1.3-1.3,1.3H44.9
	C44.5,59.2,43.6,59.6,42.6,59.6z M17.4,27.1c-0.3,0-0.5,0.2-0.5,0.5v29.6c0,0.3,0.2,0.5,0.5,0.5h23.3l0.1,0.3
	c0.1,0.4,0.8,0.8,1.8,0.8c0.9,0,1.6-0.4,1.8-0.8l0.1-0.3h23.2c0.3,0,0.5-0.2,0.5-0.5V27.6c0-0.3-0.2-0.5-0.5-0.5H43.4
	c-0.3,0-0.5,0.2-0.5,0.5h-0.8c0-0.3-0.2-0.5-0.5-0.5H17.4z"/>
<g>
	<defs>
		<path id="pt-1" d="M66.5,25.8H43.4c-0.5,0-0.9,0.4-0.9,0.9c0-0.5-0.4-0.9-0.9-0.9H18.5c-0.5,0-0.9,0.4-0.9,0.9v29.5
			c0,0.5,0.4,0.9,0.9,0.9h22c0.2,0.6,1,1,2,1c1,0,1.8-0.4,2-1h21.9c0.5,0,0.9-0.4,0.9-0.9V26.7C67.4,26.2,67,25.8,66.5,25.8z"/>
	</defs>
	<use xlink:href="#pt-1" fill="#FFF9ED" style="overflow:visible;"/>
	<clipPath id="pt-2">
		<use xlink:href="#pt-1" style="overflow:visible;"/>
	</clipPath>
	<rect x="30.3" y="25.3" fill="#F1EEE0" style="clip-path:url(#pt-2);" width="12.3" height="34"/>
</g>
<path fill="#C0BAB2" d="M62.3,49.4H47.6c-0.3,0-0.6-0.3-0.6-0.6c0-0.3,0.3-0.6,0.6-0.6h14.7c0.3,0,0.6,0.3,0.6,0.6
	C62.9,49.1,62.6,49.4,62.3,49.4z"/>
<path fill="#C0BAB2" d="M62.3,53H47.6c-0.3,0-0.6-0.3-0.6-0.6c0-0.3,0.3-0.6,0.6-0.6h14.7c0.3,0,0.6,0.3,0.6,0.6
	C62.9,52.7,62.6,53,62.3,53z"/>
<path fill="#C0BAB2" d="M62.3,38.9H47.6c-0.3,0-0.6-0.3-0.6-0.6c0-0.3,0.3-0.6,0.6-0.6h14.7c0.3,0,0.6,0.3,0.6,0.6
	C62.9,38.6,62.6,38.9,62.3,38.9z"/>
<path fill="#C0BAB2" d="M62.3,42.4H47.6c-0.3,0-0.6-0.3-0.6-0.6c0-0.3,0.3-0.6,0.6-0.6h14.7c0.3,0,0.6,0.3,0.6,0.6
	C62.9,42.2,62.6,42.4,62.3,42.4z"/>
<path fill="#C0BAB2" d="M62.3,46H47.6c-0.3,0-0.6-0.3-0.6-0.6c0-0.3,0.3-0.6,0.6-0.6h14.7c0.3,0,0.6,0.3,0.6,0.6
	C62.9,45.7,62.6,46,62.3,46z"/>
<path fill="#94BC79" d="M35.5,34.5c0.1-0.3,0.2-0.6,0.2-1c0-1.3-1-2.3-2.3-2.3c-0.1,0-0.1,0-0.2,0c-0.7-1-1.9-1.7-3.3-1.7
	c-1.6,0-3,1-3.6,2.3c-0.1,0-0.2,0-0.4,0c-1.6,0-2.9,1.3-2.9,2.9c0,0.4,0.1,0.8,0.2,1.2c-0.5,0.5-0.8,1.2-0.8,2
	c0,1.6,1.3,2.9,2.9,2.9c1.6,0,2.9-1.3,2.9-2.9c0-0.3-0.1-0.5-0.1-0.8c0.4,0.2,0.8,0.3,1.3,0.4c0,0.1,0,0.3,0,0.4c0,2.2,1.8,4,4,4
	c2.2,0,4-1.8,4-4C37.4,36.4,36.7,35.2,35.5,34.5z"/>
<path fill="#A2CE7A" d="M35.2,38.1c-0.2-0.6-0.5-1.2-0.9-1.7c0-0.1,0-0.2,0-0.3c0-2.2-1.8-4-4-4c-2.2,0-4,1.8-4,4
	c0,0.3,0,0.6,0.1,0.9c-0.4,0.3-0.8,0.7-1,1.2c-1,0.7-1.7,1.9-1.7,3.3c0,2.2,1.8,4,4,4c1.1,0,2.1-0.4,2.8-1.1
	c0.6,0.3,1.2,0.5,1.9,0.5c2.2,0,4-1.8,4-4C36.3,39.8,35.9,38.8,35.2,38.1z"/>
<g>
	<path fill="#D5E8C3" d="M32.6,40.1c0-0.5-0.4-0.8-0.8-0.9v-1.6c0-0.2-0.2-0.4-0.4-0.4c-0.2,0-0.4,0.2-0.4,0.4v1.9
		c-0.1,0.2-0.3,0.4-0.3,0.6l-0.6,10.4c0,0.1,0,0.1,0,0.2c0.1,0.9,0.8,1.5,1.7,1.5c0.9-0.1,1.5-0.8,1.5-1.7L32.6,40.1z"/>
	<path fill="#D5E8C3" d="M29,39.5v-1.5c0-0.2-0.2-0.4-0.4-0.4c-0.2,0-0.4,0.2-0.4,0.4v1.2c-0.5,0-0.8,0.4-0.9,0.9l-0.6,10.4
		c0,0.1,0,0.1,0,0.2c0.1,0.9,0.8,1.5,1.7,1.5c0.9-0.1,1.5-0.8,1.5-1.7l-0.6-10.4C29.2,39.9,29.1,39.7,29,39.5z"/>
</g>
<g>
	<path fill="#E1EFD6" d="M28.4,51.8l0.6-15c0-0.5,0.5-0.9,1-0.9c0.5,0,0.9,0.4,0.9,0.9l0.6,15c0,0.9-0.6,1.6-1.5,1.6
		c-0.9,0-1.6-0.6-1.6-1.5C28.4,51.9,28.4,51.9,28.4,51.8z"/>
</g>
<path fill="#57B2AB" d="M65.1,42.2l-2.2-0.8c0,0-0.1,0-0.1,0l-2.2,0.8c-0.1,0-0.2,0-0.2-0.1V25.6c0-0.1,0.1-0.2,0.2-0.2H65
	c0.1,0,0.2,0.1,0.2,0.2v16.5C65.2,42.2,65.1,42.3,65.1,42.2z"/>
<path fill="#338389" d="M62.8,25.4H65c0.1,0,0.2,0.1,0.2,0.2v16.5c0,0.1-0.1,0.1-0.2,0.1l-2.3-0.9"/>
</svg>
