<?xml version="1.0" encoding="utf-8"?>
<svg version="1.1" xmlns="http://www.w3.org/2000/svg" xmlns:xlink="http://www.w3.org/1999/xlink" x="0" y="0"
	 viewBox="0 0 85 85" width="85" height="85" xml:space="preserve">
<path fill="#4B99B7" d="M64.1,50.3c0-0.1,0-0.1,0-0.2c0,0,0,0,0,0c0,0,0,0,0-0.1c0-0.1,0-0.2,0-0.2c0,0,0-0.1,0-0.1
	c0-0.1,0-0.1-0.1-0.2c0,0,0-0.1-0.1-0.1c0-0.1-0.1-0.1-0.1-0.1c0,0-0.1-0.1-0.1-0.1c0,0-0.1-0.1-0.1-0.1c0,0,0,0-0.1-0.1L54.9,18
	c-0.2-0.5-0.7-0.9-1.2-0.9H31.4c-0.6,0-1.1,0.4-1.2,0.9l-8.7,30.8c0,0,0,0-0.1,0.1c0,0-0.1,0.1-0.1,0.1c0,0-0.1,0.1-0.1,0.1
	c0,0-0.1,0.1-0.1,0.1c0,0,0,0.1-0.1,0.1c0,0.1-0.1,0.1-0.1,0.2c0,0,0,0.1,0,0.1c0,0.1,0,0.1,0,0.2c0,0,0,0.1,0,0.1c0,0,0,0.1,0,0.1
	c0,0,0,0,0,0.1c0,0,0,0.1,0,0.1c0,0.1,0,0.2,0,0.2c0,0,0,0,0,0L25.5,68c0,0,0,0,0,0.1c0,0.2,0.1,0.3,0.2,0.4c0,0,0,0,0,0
	c0.1,0.1,0.2,0.2,0.3,0.3c0,0,0,0,0.1,0.1c0.1,0.1,0.3,0.2,0.4,0.2c0,0,0.1,0,0.1,0c0.2,0,0.3,0.1,0.5,0.1h30.8c0.2,0,0.3,0,0.5-0.1
	c0,0,0.1,0,0.1,0c0.1-0.1,0.3-0.1,0.4-0.2c0,0,0,0,0.1,0c0.1-0.1,0.2-0.2,0.3-0.4c0,0,0,0,0,0c0.1-0.1,0.2-0.3,0.2-0.5
	c0,0,0,0,0-0.1l4.6-17.5c0,0,0,0,0-0.1C64.1,50.4,64.1,50.3,64.1,50.3z M53.7,65.9l0.4-2.5h3.2l-0.7,2.5H53.7z M47.3,65.9l0.1-2.5
	h3.3l-0.4,2.5H47.3z M34.7,65.9l-0.4-2.5h3.3l0.1,2.5H34.7z M28.4,65.9l-0.7-2.5h3.2l0.4,2.5H28.4z M26.2,57.5H30l0.4,2.5h-3.6
	L26.2,57.5z M33.4,57.5h3.9l0.1,2.5h-3.6L33.4,57.5z M40.6,57.5h3.9l-0.1,2.5h-3.6L40.6,57.5z M47.8,57.5h3.9l-0.4,2.5h-3.6
	L47.8,57.5z M55,57.5h3.8l-0.7,2.5h-3.6L55,57.5z M55.5,54.2l0.4-2.5h4.4l-0.7,2.5H55.5z M52.2,54.2h-4.2l0.1-2.5h4.5L52.2,54.2z
	 M44.6,54.2h-4.2l-0.1-2.5h4.5L44.6,54.2z M36.9,51.7l0.1,2.5h-4.2l-0.4-2.5H36.9z M29.1,51.7l0.4,2.5h-4.2l-0.7-2.5H29.1z
	 M40.9,63.4h3.3L44,65.9h-3L40.9,63.4z M32.4,19.6h20.3l8.2,28.8H24.2L32.4,19.6z"/>
<path fill="#678482" d="M49.1,20.8H36c-1.4,0-2.5-1.1-2.5-2.5c0-1.4,1.1-2.5,2.5-2.5h13.2c1.4,0,2.5,1.1,2.5,2.5
	C51.7,19.7,50.5,20.8,49.1,20.8"/>
</svg>
