<?xml version="1.0" encoding="utf-8"?>
<svg version="1.1" xmlns="http://www.w3.org/2000/svg" xmlns:xlink="http://www.w3.org/1999/xlink" x="0" y="0"
	 viewBox="0 0 85 85" width="85" height="85" xml:space="preserve">
<polygon fill="#F8A039" points="65.9,31.6 31.9,34.5 31.8,33.1 65.7,29.3 "/>
<polygon fill="#F8A039" points="65.2,23.9 31.7,30.3 31.4,28.9 64.8,21.6 "/>
<rect x="35.5" y="56.5" fill="#CFE4D2" width="13.3" height="8.7"/>
<path fill="#CFE4D2" d="M65.1,39.3c0,12.7-10.3,23-23,23c-12.7,0-23-10.3-23-23"/>
<path fill="#CFE4D2" d="M62.9,39.3c0,11.5-9.3,20.8-20.8,20.8c-11.5,0-20.8-9.3-20.8-20.8"/>
<path fill="#FFFDF3" d="M42.1,60.1c7.8,0,14.5-4.2,18.1-10.5c-3.1-4.2-10-7.1-18.1-7.1c-8.1,0-15,2.9-18.1,7.1
	C27.6,55.9,34.3,60.1,42.1,60.1z"/>
<path fill="#FFFDF3" d="M37,49.5c-0.5,0-0.8-0.4-0.8-0.8V31.5c0-0.5,0.4-0.8,0.8-0.8s0.8,0.4,0.8,0.8v17.2
	C37.9,49.1,37.5,49.5,37,49.5z"/>
<path fill="#FFFDF3" d="M40,49.5c-0.5,0-0.9-0.4-0.9-0.9V30.9c0-0.5,0.4-0.8,0.9-0.8c0.5,0,0.9,0.4,0.9,0.8v17.8
	C40.9,49.1,40.5,49.5,40,49.5z"/>
<path fill="#FFFDF3" d="M43,49.5c-0.5,0-0.9-0.4-0.9-0.9V30.4c0-0.5,0.4-0.9,0.9-0.9c0.5,0,0.9,0.4,0.9,0.9v18.3
	C43.9,49.1,43.5,49.5,43,49.5z"/>
<path fill="#FFFDF3" d="M46,49.5c-0.5,0-0.9-0.4-0.9-0.9V30.4c0-0.5,0.4-0.9,0.9-0.9c0.5,0,0.9,0.4,0.9,0.9v18.3
	C46.9,49.1,46.5,49.5,46,49.5z"/>
<path fill="#F18F45" d="M42.5,50.2l-1.1-0.4c-0.9,2.6-2.6,4.3-5.3,3.4c-2.7-0.9-3.2-2.8-2.1-5.9L33,46.9
	c-1.4,4.1-0.7,6.5,2.7,7.6C39.1,55.7,41.3,53.5,42.5,50.2z"/>
<path fill="#F4AA71" d="M36.1,53.2c2.7,0.9,4.4-0.8,5.3-3.4L34,47.2C32.9,50.4,33.5,52.3,36.1,53.2z"/>
<path fill="#F6CCAA" d="M37.3,49.8c0.7,0.3,1.2-0.2,1.5-0.9l-2.1-0.7C36.4,49,36.5,49.6,37.3,49.8z"/>
<path fill="#F18F45" d="M31.6,37l-1,0.5c1.3,2.4,1.4,4.9-1.1,6.2c-2.5,1.3-4.2,0.5-5.8-2.5l-1,0.5c2,3.8,4.3,4.9,7.4,3.2
	C33.4,43.3,33.3,40.1,31.6,37z"/>
<path fill="#F4AA71" d="M29.5,43.8c2.5-1.4,2.4-3.8,1.1-6.2l-6.9,3.7C25.3,44.2,27.1,45.1,29.5,43.8z"/>
<path fill="#F6CCAA" d="M27.8,40.6c0.7-0.4,0.7-1.1,0.3-1.7l-1.9,1C26.7,40.8,27.1,41,27.8,40.6z"/>
<rect x="32.6" y="46.9" transform="matrix(0.5941 -0.8044 0.8044 0.5941 -25.1577 46.7643)" fill="#9DC93B" width="2.2" height="2.8"/>
<rect x="39.5" y="44.7" transform="matrix(0.8971 -0.4419 0.4419 0.8971 -16.208 22.6709)" fill="#9DC93B" width="2.2" height="2.9"/>
<rect x="47.4" y="42.6" transform="matrix(0.8075 0.5898 -0.5898 0.8075 35.2968 -20.1407)" fill="#9DC93B" width="2.2" height="2.9"/>
<rect x="36.4" y="20.2" transform="matrix(0.8084 0.5886 -0.5886 0.8084 19.9172 -17.9307)" fill="#9DC93B" width="2.2" height="2.9"/>
<rect x="53.7" y="46.9" transform="matrix(0.9778 0.2096 -0.2096 0.9778 11.3451 -10.4113)" fill="#9DC93B" width="2.2" height="2.9"/>
<rect x="59" y="38.9" transform="matrix(0.9364 -0.351 0.351 0.9364 -10.3357 23.6673)" fill="#9DC93B" width="2.2" height="2.9"/>
<rect x="23.6" y="34.4" transform="matrix(0.9367 -0.3502 0.3502 0.9367 -10.9886 10.9102)" fill="#9DC93B" width="2.2" height="2.8"/>
</svg>
