<?xml version="1.0" encoding="utf-8"?>
<svg version="1.1" xmlns="http://www.w3.org/2000/svg" xmlns:xlink="http://www.w3.org/1999/xlink" x="0" y="0"
	 viewBox="0 0 85 85" width="85" height="85" xml:space="preserve">
<path fill="#93B5C1" d="M58.3,67.9H28.2c-1.3,0-2.5-0.7-3.1-1.8c-0.7-1.1-0.7-2.5,0-3.6l11.3-19.6c0.1-0.2,0.2-0.5,0.2-0.7
	V19.7c0-2,1.6-3.6,3.6-3.6h6.1c2,0,3.6,1.6,3.6,3.6v22.4c0,0.2,0.1,0.5,0.2,0.7l11.3,19.6c0,0,0,0,0,0c0.7,1.1,0.7,2.5,0,3.6
	C60.8,67.2,59.6,67.9,58.3,67.9z M40.2,18.3c-0.8,0-1.4,0.6-1.4,1.4v22.4c0,0.6-0.2,1.3-0.5,1.8L27,63.5c-0.3,0.5-0.3,1,0,1.4
	c0.3,0.5,0.7,0.7,1.2,0.7h30.1c0.5,0,1-0.3,1.2-0.7c0.3-0.5,0.3-1,0-1.4L48.2,43.9c-0.3-0.6-0.5-1.2-0.5-1.8V19.7
	c0-0.8-0.6-1.4-1.4-1.4H40.2z"/>
<line style="opacity:0.5;fill:none;stroke:#478699;stroke-width:0.8368;stroke-linecap:round;stroke-linejoin:round;stroke-miterlimit:10;" x1="41.4" y1="58.7" x2="48.6" y2="58.7"/>
<line style="opacity:0.5;fill:none;stroke:#478699;stroke-width:0.8368;stroke-linecap:round;stroke-linejoin:round;stroke-miterlimit:10;" x1="41.4" y1="56.1" x2="45.3" y2="56.1"/>
<line style="opacity:0.5;fill:none;stroke:#478699;stroke-width:0.8368;stroke-linecap:round;stroke-linejoin:round;stroke-miterlimit:10;" x1="41.4" y1="53.6" x2="45.3" y2="53.6"/>
<line style="opacity:0.5;fill:none;stroke:#478699;stroke-width:0.8368;stroke-linecap:round;stroke-linejoin:round;stroke-miterlimit:10;" x1="41.4" y1="51.1" x2="45.3" y2="51.1"/>
<line style="opacity:0.5;fill:none;stroke:#478699;stroke-width:0.8368;stroke-linecap:round;stroke-linejoin:round;stroke-miterlimit:10;" x1="41.4" y1="48.5" x2="45.3" y2="48.5"/>
</svg>
