<?xml version="1.0" encoding="utf-8"?>
<svg version="1.1" xmlns="http://www.w3.org/2000/svg" xmlns:xlink="http://www.w3.org/1999/xlink" x="0" y="0"
	 viewBox="0 0 85 85" xml:space="preserve">
<path fill="#86AD70" d="M44.5,51.9v-2c0-1.1-0.9-2-2-2c-0.4,0-0.8,0.1-1.1,0.4V36.7c0-1.1-0.9-2-2-2c-0.4,0-0.8,0.1-1.1,0.4
	v-3.6c0-1.1-0.9-2-2-2c-0.4,0-0.8,0.1-1.1,0.4v-3.3c0-1.1-0.9-2-2-2c-1.1,0-2,0.9-2,2v29.9c0,1.1,0.9,2,2,2c0.4,0,0.8-0.1,1.1-0.4
	v1.6c0,1.1,0.9,2,2,2c0.5,0,0.9-0.2,1.2-0.4c0.2,0.8,1,1.5,1.9,1.5v3.1h6.2v-14H44.5z"/>
<path fill="#F2DC9A" d="M48.7,49.6c0,1.2-1,2.2-2.2,2.2h-7.8c-1.2,0-2.2-1-2.2-2.2V23.8c0-1.2,1-2.2,2.2-2.2h7.8
	c1.2,0,2.2,1,2.2,2.2V49.6z"/>
<path fill="#E9C260" d="M39.4,37v-0.6c0-1.2-1-2.2-2.2-2.2h-1.7c-1.2,0-2.2,1-2.2,2.2V37c0,1.2,1,2.2,2.2,2.2h1.7
	C38.4,39.2,39.4,38.2,39.4,37z"/>
<path fill="#E9C260" d="M43.3,39.2h-1.7c-1.2,0-2.2,1-2.2,2.2V42c0,1.2,1,2.2,2.2,2.2h1.7c1.2,0,2.2-1,2.2-2.2v-0.6
	C45.6,40.2,44.6,39.2,43.3,39.2z"/>
<path fill="#E9C260" d="M40.3,49.3h-1.7c-1.2,0-2.2,1-2.2,2.2v0.6c0,1.2,1,2.2,2.2,2.2h1.7c1.2,0,2.2-1,2.2-2.2v-0.6
	C42.5,50.3,41.5,49.3,40.3,49.3z"/>
<path fill="#E9C260" d="M49.5,24.1h-1.7c-1.2,0-2.2,1-2.2,2.2v0.6c0,1.2,1,2.2,2.2,2.2h1.7c1.2,0,2.2-1,2.2-2.2v-0.6
	C51.7,25.1,50.7,24.1,49.5,24.1z"/>
<path fill="#F4D962" d="M35.5,44.2h1.7c1.2,0,2.2-1,2.2-2.2v-0.6c0-1.2-1-2.2-2.2-2.2h-1.7c-1.2,0-2.2,1-2.2,2.2V42
	C33.3,43.2,34.3,44.2,35.5,44.2z"/>
<path fill="#F4D962" d="M45.6,21.9c0,1.2,1,2.2,2.2,2.2h1.7c1.2,0,2.2-1,2.2-2.2v-0.6c0-1.2-1-2.2-2.2-2.2h-1.7
	c-1.2,0-2.2,1-2.2,2.2c0-1.2-1-2.2-2.2-2.2h-1.7c-1.2,0-2.2,1-2.2,2.2c0-1.2-1-2.2-2.2-2.2h-1.7c-1.2,0-2.2,1-2.2,2.2v0.6
	c0,1.2,1,2.2,2.2,2.2c-1.2,0-2.2,1-2.2,2.2v0.6c0,1.2,1,2.2,2.2,2.2c-1.2,0-2.2,1-2.2,2.2v0.6c0,1.2,1,2.2,2.2,2.2h1.7
	c1.2,0,2.2-1,2.2-2.2c0,1.2,1,2.2,2.2,2.2c-1.2,0-2.2,1-2.2,2.2V37c0,1.2,1,2.2,2.2,2.2h1.7c1.2,0,2.2-1,2.2-2.2
	c0,1.2,1,2.2,2.2,2.2c-1.2,0-2.2,1-2.2,2.2V42c0,1.2,1,2.2,2.2,2.2h1.7c1.2,0,2.2-1,2.2-2.2v-0.6c0-1.2-1-2.2-2.2-2.2
	c1.2,0,2.2-1,2.2-2.2v-0.6c0-1.2-1-2.2-2.2-2.2c1.2,0,2.2-1,2.2-2.2v-0.6c0-1.2-1-2.2-2.2-2.2h-1.7c-1.2,0-2.2,1-2.2,2.2
	c0-1.2-1-2.2-2.2-2.2c1.2,0,2.2-1,2.2-2.2v-0.6c0-1.2-1-2.2-2.2-2.2C44.6,24.1,45.6,23.1,45.6,21.9z M39.4,31.4c0-1.2-1-2.2-2.2-2.2
	c1.2,0,2.2-1,2.2-2.2c0,1.2,1,2.2,2.2,2.2C40.4,29.1,39.4,30.1,39.4,31.4z M39.4,26.3c0-1.2-1-2.2-2.2-2.2c1.2,0,2.2-1,2.2-2.2
	c0,1.2,1,2.2,2.2,2.2C40.4,24.1,39.4,25.1,39.4,26.3z M45.6,31.9c0,1.2,1,2.2,2.2,2.2c-1.2,0-2.2,1-2.2,2.2c0-1.2-1-2.2-2.2-2.2
	C44.6,34.2,45.6,33.2,45.6,31.9z"/>
<path fill="#F4D962" d="M46.4,49.3h-1.7c-1.2,0-2.2,1-2.2,2.2v0.6c0,1.2,1,2.2,2.2,2.2h1.7c1.2,0,2.2-1,2.2-2.2v-0.6
	C48.7,50.3,47.6,49.3,46.4,49.3z"/>
<path fill="#F4D962" d="M49.5,44.2h-1.7c-1.2,0-2.2,1-2.2,2.2c0-1.2-1-2.2-2.2-2.2h-1.7c-1.2,0-2.2,1-2.2,2.2
	c0-1.2-1-2.2-2.2-2.2h-1.7c-1.2,0-2.2,1-2.2,2.2V47c0,1.2,1,2.2,2.2,2.2h1.7c1.2,0,2.2-1,2.2-2.2c0,1.2,1,2.2,2.2,2.2h1.7
	c1.2,0,2.2-1,2.2-2.2c0,1.2,1,2.2,2.2,2.2h1.7c1.2,0,2.2-1,2.2-2.2v-0.6C51.7,45.3,50.7,44.2,49.5,44.2z"/>
<path fill="#94BC79" d="M51.7,24.7c-1.1,0-2,0.9-2,2v3.3c-0.3-0.2-0.7-0.4-1.1-0.4c-1.1,0-2,0.9-2,2v3.6
	c-0.3-0.2-0.7-0.4-1.1-0.4c-1.1,0-2,0.9-2,2v11.6c-0.3-0.2-0.7-0.4-1.1-0.4c-1.1,0-2,0.9-2,2v10.9c0,1.1,0.9,2,2,2
	c0.6,0,1.2-0.3,1.5-0.8c0.4,0.5,0.9,0.8,1.5,0.8c0.9,0,1.7-0.6,1.9-1.5c0.3,0.3,0.7,0.4,1.2,0.4c1.1,0,2-0.9,2-2v-1.6
	c0.3,0.2,0.7,0.4,1.1,0.4c1.1,0,2-0.9,2-2V26.6C53.7,25.5,52.8,24.7,51.7,24.7z"/>
</svg>
