<?xml version="1.0" encoding="utf-8"?>
<svg version="1.1" xmlns="http://www.w3.org/2000/svg" xmlns:xlink="http://www.w3.org/1999/xlink" x="0" y="0"
	 viewBox="0 0 85 85" width="85" height="85" xml:space="preserve">
<polygon fill="#D5D6D5" points="57.1,39.4 54.2,32.7 24.9,32.7 24.9,19.8 19,19.8 19,32.7 19,64.3 65.9,64.3 65.9,44.4 "/>
<polygon fill="#C0C0C0" points="54.2,32.7 54.2,44.4 65.9,44.4 "/>
<polygon fill="#C0C0C0" points="42.5,44.4 54.2,44.4 42.5,32.7 "/>
<polygon fill="#C0C0C0" points="30.8,44.4 42.5,44.4 30.8,32.7 "/>
<path fill="#C0C0C0" d="M30.8,53.4c-2.4,0-4.4,2-4.4,4.4v6.5h8.8v-6.5C35.2,55.4,33.2,53.4,30.8,53.4"/>
<path fill="#9E9F9F" d="M35.2,57.8c0-2.4-2-4.4-4.4-4.4v10.9h4.4V57.8z"/>
<linearGradient id="pt-1" gradientUnits="userSpaceOnUse" x1="24.7468" y1="43.6193" x2="30.97" y2="39.9097">
	<stop  offset="0" style="stop-color:#EC1C24"/>
	<stop  offset="0.9919" style="stop-color:#F4821F"/>
</linearGradient>
<path style="fill:url(#pt-1);" d="M26.9,42.9c0.4-0.2,0.7-0.4,1-0.7c0,0,0,0,0,0c0-0.1-0.1-0.2-0.1-0.2l-0.4-0.6c0,0-0.1,0,0,0
	v0C27.3,42,27.2,42.5,26.9,42.9C26.8,42.9,26.8,43,26.9,42.9C26.9,43,26.9,42.9,26.9,42.9z"/>
<path fill="#F79721" d="M26.6,40.4l-0.1-0.2l-0.1,0.2l0,0c-0.2,0.3-0.3,0.7-0.3,1.1c0,0.5,0.2,0.9,0.5,1.2
	c0.3-0.3,0.5-0.8,0.5-1.2C26.9,41.1,26.8,40.7,26.6,40.4L26.6,40.4z"/>
<linearGradient id="pt-2" gradientUnits="userSpaceOnUse" x1="22.8923" y1="40.915" x2="29.4921" y2="36.9809">
	<stop  offset="0" style="stop-color:#EC1C24"/>
	<stop  offset="0.9919" style="stop-color:#F4821F"/>
</linearGradient>
<path style="fill:url(#pt-2);" d="M27,38.6c0-0.3-0.2-0.6-0.6-0.6h0c-0.3,0-0.6,0.3-0.6,0.6c0,0.1,0,0.2,0.1,0.3l0.4,0.6
	c0,0,0,0,0.1,0l0.4-0.6C27,38.9,27,38.8,27,38.6z"/>
<linearGradient id="pt-3" gradientUnits="userSpaceOnUse" x1="21.5976" y1="38.739" x2="28.1933" y2="34.8074">
	<stop  offset="0" style="stop-color:#EC1C24"/>
	<stop  offset="0.9919" style="stop-color:#F4821F"/>
</linearGradient>
<path style="fill:url(#pt-3);" d="M25.6,36.9c0.1-0.1,0.1-0.3,0.1-0.4c0-0.4-0.3-0.7-0.7-0.7c0,0,0,0,0,0
	c-0.4,0-0.7,0.3-0.7,0.7c0,0.1,0,0.3,0.1,0.4l0,0l0.5,0.7c0,0,0.1,0,0.1,0L25.6,36.9L25.6,36.9z"/>
<path fill="#F79721" d="M23.5,40.4c-0.2,0.3-0.3,0.7-0.3,1.1c0,0.8,0.5,1.5,1.2,1.8c0,0,0.1,0,0.1-0.1c0-0.1,0-0.2,0-0.3
	c0-0.3,0.1-0.6,0.2-0.9c0,0,0,0,0,0l0.2-0.3v0l1.4-1.9l-1.1-1.5c0,0-0.1,0-0.1,0L23.5,40.4z"/>
<linearGradient id="pt-4" gradientUnits="userSpaceOnUse" x1="22.1262" y1="39.6376" x2="28.7119" y2="35.712">
	<stop  offset="0" style="stop-color:#EC1C24"/>
	<stop  offset="0.9919" style="stop-color:#F4821F"/>
</linearGradient>
<path style="fill:url(#pt-4);" d="M22.8,41.5c0-0.3,0.1-0.7,0.2-1c0,0,0.1-0.2,0.2-0.3l1.6-2.2c0,0,0,0,0,0l-0.6-0.8l-0.1-0.1
	C24.1,37,24,36.7,24,36.5c0-0.6,0.5-1.1,1.1-1.1l0,0h0h0l0,0c0.6,0,1.1,0.5,1.1,1.1c0,0.2-0.1,0.4-0.2,0.6l-0.1,0.1L25.3,38v0
	l0.2,0.3c0,0,0,0,0,0c0.1-0.4,0.5-0.6,0.9-0.7v0h0v0c0.4,0,0.8,0.3,0.9,0.7c0,0,0,0,0,0l0.2-0.3c0,0,0,0,0,0L27,37.1
	c-0.1-0.2-0.2-0.4-0.2-0.6c0-0.5,0.4-1,0.9-1.1c0,0,0,0,0,0c-1-0.7-2.2-1.1-3.6-0.8c-1.7,0.3-3.1,1.7-3.4,3.4
	c-0.5,2.3,0.8,4.3,2.7,5c0,0,0,0,0,0C23,42.6,22.8,42.1,22.8,41.5z"/>
<path fill="#F7981D" d="M26.2,43C26.2,43,26.2,43,26.2,43c-0.3-0.4-0.5-0.9-0.5-1.5v0c0,0,0,0-0.1,0L25.2,42
	c-0.2,0.3-0.3,0.6-0.3,0.9c0,0.1,0,0.3,0.1,0.4c0,0,0,0,0,0c0,0,0.1,0,0.1,0c0,0,0,0,0,0C25.5,43.3,25.9,43.2,26.2,43z"/>
<linearGradient id="pt-5" gradientUnits="userSpaceOnUse" x1="22.3351" y1="39.9815" x2="28.9355" y2="36.0471">
	<stop  offset="0" style="stop-color:#EC1C24"/>
	<stop  offset="0.9919" style="stop-color:#F4821F"/>
</linearGradient>
<path style="fill:url(#pt-5);" d="M27.2,36.5c0,0.1,0,0.3,0.1,0.4l0.5,0.7c0,0,0.1,0,0.1,0l0.5-0.7c0.1-0.1,0.1-0.3,0.1-0.4
	c0-0.1,0-0.3-0.1-0.4c0,0,0,0,0,0c0-0.1-0.1-0.1-0.1-0.2l0,0c-0.1-0.1-0.3-0.2-0.4-0.2h0C27.5,35.8,27.2,36.1,27.2,36.5z"/>
<linearGradient id="pt-6" gradientUnits="userSpaceOnUse" x1="23.3907" y1="41.6897" x2="29.9584" y2="37.7747">
	<stop  offset="0" style="stop-color:#EC1C24"/>
	<stop  offset="0.9919" style="stop-color:#F4821F"/>
</linearGradient>
<path style="fill:url(#pt-6);" d="M28.8,37.1L28.8,37.1L28.1,38c0,0,0,0,0,0l1.2,1.6c0,0,0.1,0,0.1,0c0-0.2,0.1-0.5,0.1-0.7
	c0-0.7-0.2-1.4-0.5-2c0,0,0,0-0.1,0C28.9,37,28.8,37.1,28.8,37.1z"/>
<linearGradient id="pt-7" gradientUnits="userSpaceOnUse" x1="23.9296" y1="42.636" x2="30.5138" y2="38.7112">
	<stop  offset="0" style="stop-color:#EC1C24"/>
	<stop  offset="0.9919" style="stop-color:#F4821F"/>
</linearGradient>
<path style="fill:url(#pt-7);" d="M28,38.4c0,0-0.1,0-0.1,0l-1.1,1.5l1.3,1.8c0,0,0.1,0.2,0.1,0.2c0,0,0.1,0,0.1,0
	c0.4-0.5,0.8-1,1-1.7c0,0,0,0,0-0.1L28,38.4z"/>
</svg>
