<?xml version="1.0" encoding="utf-8"?>
<svg version="1.1" xmlns="http://www.w3.org/2000/svg" xmlns:xlink="http://www.w3.org/1999/xlink" x="0" y="0"
	 viewBox="0 0 77 86" width="77" height="86" xml:space="preserve">
<path fill="#E7E9EE" d="M59.4,80.8c0,3-2.4,5.4-5.4,5.4l-48.3,0c-3,0-5.4-2.4-5.4-5.4L0.3,5.2c0-3,2.4-5.4,5.4-5.4l48.3,0
	c3,0,5.4,2.4,5.4,5.4L59.4,80.8z"/>
<path fill="#FFF" d="M0.2,48.7l0-43.4c0-3,2.4-5.4,5.4-5.4l48.3,0c3,0,5.4,2.4,5.4,5.4l0,4.5"/>
<polygon fill="#9F9599" points="56.6,73.5 3,73.5 3.1,12.5 56.7,12.5 "/>
<polyline fill="#685990" style="opacity:0.1;" points="3,45.5 3.1,12.5 56.7,12.5 "/>
<path fill="#F48458" d="M29.6,22c-0.4,0-0.7-0.3-0.7-0.7l0-1.7c0-0.4,0.3-0.7,0.7-0.7c0.4,0,0.7,0.3,0.7,0.7l0,1.7
	C30.2,21.7,29.9,22,29.6,22C29.6,22,29.6,22,29.6,22z"/>
<path fill="#FFF8ED" d="M36.9,30.9c0.1,4.4-1.2,7.1-7,7.2c-5.8,0.1-7.2-2.5-7.3-6.9c-0.1-4.4,2.4-10.7,7-10.7
	C34.2,20.3,36.8,26.5,36.9,30.9"/>
<path d="M28.1,24c0,0.3-0.3,0.6-0.6,0.6c-0.3,0-0.6-0.3-0.6-0.6c0-0.3,0.3-0.6,0.6-0.6C27.8,23.4,28.1,23.7,28.1,24"/>
<path d="M32.5,24c0,0.3-0.3,0.6-0.6,0.6c-0.3,0-0.6-0.3-0.6-0.6c0-0.3,0.3-0.6,0.6-0.6C32.2,23.4,32.5,23.6,32.5,24"/>
<path fill="#E5A76C" d="M29.7,27c0.3,0,0.5-0.4,0.5-0.8l-1,0C29.2,26.6,29.4,27,29.7,27"/>
<path fill="#F9D178" d="M29.6,24.8c-0.5,0-0.9,0.6-0.9,1.4l1.8,0C30.6,25.4,30.1,24.8,29.6,24.8"/>
<path fill="#FAA91D" d="M36.7,28.9c-0.8-0.3-1.7-0.2-2.3,0.4l-2.5,2.3c-0.3,0.3-0.4,0.8-0.1,1.2c0.3,0.3,0.7,0.4,1.1,0.1
	c0,0.2,0,0.5,0.2,0.7c0.3,0.3,0.8,0.4,1.2,0.1l0,0c0,0.2,0,0.5,0.2,0.6c0.3,0.3,0.8,0.4,1.2,0.1l1.2-1c0.1-0.7,0.1-1.5,0.1-2.3
	C36.9,30.3,36.8,29.6,36.7,28.9"/>
<path fill="#FAA91D" d="M25.1,34.3c0.2-0.2,0.2-0.4,0.2-0.6l0,0c0.3,0.3,0.9,0.2,1.1-0.1c0.2-0.2,0.2-0.4,0.2-0.7
	c0.3,0.2,0.8,0.2,1.1-0.2c0.3-0.3,0.2-0.9-0.1-1.1L25,29.4c-0.7-0.6-1.6-0.7-2.3-0.4c-0.1,0.7-0.1,1.4-0.1,2c0,0.8,0.1,1.6,0.2,2.3
	l1.2,1C24.3,34.7,24.8,34.7,25.1,34.3"/>
<path fill="#716552" d="M43,45.9L43,45.9l-26.6,0c-0.3,0-0.6-0.2-0.6-0.6c0-0.3,0.2-0.6,0.6-0.6l0,0l26.6,0
	c0.3,0,0.6,0.2,0.6,0.6C43.5,45.7,43.3,45.9,43,45.9z"/>
<path fill="#716552" d="M43,51.1L43,51.1l-26.6,0c-0.3,0-0.6-0.2-0.6-0.6c0-0.3,0.2-0.6,0.6-0.6l0,0L43,50
	c0.3,0,0.6,0.2,0.6,0.5C43.5,50.8,43.3,51.1,43,51.1z"/>
<path fill="#716552" d="M43,56.2L43,56.2l-26.6,0c-0.3,0-0.6-0.2-0.6-0.6c0-0.3,0.2-0.6,0.6-0.6l0,0l26.6,0
	c0.3,0,0.6,0.2,0.6,0.6C43.5,55.9,43.3,56.2,43,56.2z"/>
<path fill="#F2F7E3" d="M27,64.9c0.2,0.9-0.3,1.5-1,1.7c-0.7,0.2-1.5-0.1-1.7-1c-0.2-0.9,0.3-2.1,0.8-2.2
	C25.8,63.2,26.8,64,27,64.9z"/>
<path fill="#F2F7E3" d="M32.7,64.8c-0.3,0.9,0.2,1.5,0.9,1.8c0.7,0.2,1.5,0,1.7-0.9c0.3-0.9-0.2-2.1-0.7-2.3
	C34.1,63.2,33,63.9,32.7,64.8z"/>
<path fill="#F8F8F8" d="M31.3,64.6c0,1-0.7,1.6-1.5,1.6c-0.8,0-1.6-0.5-1.6-1.6c0-1,0.9-2.2,1.5-2.2
	C30.4,62.4,31.3,63.6,31.3,64.6z"/>
<path fill="#464E5D" d="M76.7,82.5c0,2-1.6,3.7-3.7,3.7l-19.7,0c-2,0-3.7-1.6-3.7-3.7l0.1-50.8c0-2,1.6-3.7,3.7-3.7l19.7,0
	c2,0,3.7,1.6,3.6,3.7L76.7,82.5z"/>
<path fill="#454B59" d="M49.7,60.9l0-29.2c0-2,1.6-3.7,3.7-3.7l19.7,0c2,0,3.7,1.6,3.6,3.7l0,3.1"/>
<g>
		<rect x="51.6" y="36.6" transform="matrix(1 1.176419e-03 -1.176419e-03 1 6.725478e-02 -7.436892e-02)" fill="#F1EEE0" width="23.3" height="41"/>
</g>
<polyline fill="#685990" style="opacity:0.1;" points="51.6,58.8 51.6,36.6 74.9,36.6 "/>
<path fill="#F48458" d="M63,42.6c-0.2,0-0.4-0.2-0.5-0.4l0-1.2c0-0.2,0.2-0.5,0.4-0.5c0.3-0.1,0.5,0.2,0.5,0.4l0,1.1
	C63.4,42.4,63.2,42.6,63,42.6C63,42.6,63,42.6,63,42.6z"/>
<path fill="#FFF8ED" d="M68,48.7c0,3-0.8,4.8-4.8,4.9c-4,0.1-4.9-1.7-5-4.7c0-3,1.6-7.3,4.8-7.3C66.1,41.5,67.9,45.7,68,48.7
	"/>
<path d="M61.9,44c0,0.2-0.2,0.4-0.4,0.4c-0.2,0-0.4-0.2-0.4-0.4c0-0.2,0.2-0.4,0.4-0.4C61.7,43.6,61.9,43.8,61.9,44"/>
<path d="M64.9,44c0,0.2-0.2,0.4-0.4,0.4c-0.2,0-0.4-0.2-0.4-0.4c0-0.2,0.2-0.4,0.4-0.4C64.7,43.6,64.9,43.8,64.9,44"/>
<path fill="#E5A76C" d="M63,46.1c0.2,0,0.4-0.2,0.4-0.5l-0.7,0C62.7,45.8,62.9,46.1,63,46.1"/>
<path fill="#F9D178" d="M63,44.6c-0.3,0-0.6,0.4-0.6,0.9l1.2,0C63.6,45,63.4,44.6,63,44.6"/>
<path fill="#FAA91D" d="M67.8,47.3c-0.5-0.2-1.1-0.1-1.6,0.3l-1.7,1.5c-0.2,0.2-0.2,0.6,0,0.8c0.2,0.2,0.5,0.2,0.7,0.1
	c0,0.2,0,0.3,0.1,0.5c0.2,0.2,0.6,0.2,0.8,0l0,0c0,0.2,0,0.3,0.1,0.4c0.2,0.2,0.6,0.2,0.8,0l0.8-0.7c0.1-0.5,0.1-1,0.1-1.6
	C68,48.3,67.9,47.8,67.8,47.3"/>
<path fill="#FAA91D" d="M59.9,51.1c0.1-0.1,0.1-0.3,0.1-0.4l0,0c0.2,0.2,0.6,0.2,0.8-0.1c0.1-0.1,0.1-0.3,0.1-0.5
	c0.2,0.1,0.5,0.1,0.7-0.1c0.2-0.2,0.2-0.6-0.1-0.8l-1.8-1.5c-0.5-0.4-1.1-0.5-1.6-0.2c-0.1,0.5-0.1,0.9-0.1,1.4
	c0,0.6,0.1,1.1,0.1,1.6l0.8,0.7C59.4,51.3,59.7,51.3,59.9,51.1"/>
<path fill="#716552" d="M69.5,60.2L69.5,60.2l-12.4,0c-0.2,0-0.4-0.2-0.4-0.4c0-0.2,0.2-0.4,0.4-0.4l0,0l12.4,0
	c0.2,0,0.4,0.2,0.4,0.4C69.8,60,69.7,60.2,69.5,60.2z"/>
<path fill="#716552" d="M69.5,63.7L69.5,63.7l-12.4,0c-0.2,0-0.4-0.2-0.4-0.4c0-0.2,0.2-0.4,0.4-0.4l0,0l12.4,0
	c0.2,0,0.4,0.2,0.4,0.4C69.8,63.5,69.7,63.7,69.5,63.7z"/>
<path fill="#716552" d="M69.5,67.2L69.5,67.2l-12.4,0c-0.2,0-0.4-0.2-0.4-0.4c0-0.2,0.2-0.4,0.4-0.4l0,0l12.4,0
	c0.2,0,0.4,0.2,0.4,0.4C69.8,67,69.7,67.2,69.5,67.2z"/>
<path fill="#F2F7E3" d="M61.6,73.1c0.2,0.6-0.2,1-0.7,1.2c-0.5,0.1-1-0.1-1.2-0.7c-0.2-0.6,0.2-1.4,0.6-1.5
	C60.7,72,61.4,72.5,61.6,73.1z"/>
<path fill="#F2F7E3" d="M65.5,73.1c-0.2,0.6,0.1,1.1,0.6,1.2c0.5,0.1,1,0,1.2-0.6c0.2-0.6-0.1-1.4-0.5-1.5
	C66.4,72,65.6,72.4,65.5,73.1z"/>
<path fill="#F8F8F8" d="M64.5,72.9c0,0.7-0.5,1.1-1,1.1c-0.6,0-1.1-0.4-1.1-1.1c0-0.7,0.6-1.5,1-1.5
	C63.8,71.4,64.5,72.2,64.5,72.9z"/>
</svg>
