<?xml version="1.0" encoding="utf-8"?>
<svg version="1.1" xmlns="http://www.w3.org/2000/svg" xmlns:xlink="http://www.w3.org/1999/xlink" x="0" y="0"
	 viewBox="0 0 80 91" width="80" height="91" xml:space="preserve">
<path fill="#F9B84A" d="M79.4,64.2c1.3,3.4-0.5,7.1-3.8,8.4L36.4,87.3c-3.4,1.3-7.1-0.5-8.4-3.8L5.6,23.6
	c-1.3-3.4,0.5-7.1,3.8-8.4L48.6,0.5C52-0.8,55.7,1,57,4.3L79.4,64.2z"/>
<rect x="15.4" y="14.3" transform="matrix(0.9364 -0.3509 0.3509 0.9364 -17.3078 10.0486)" fill="#AF875B" width="7.4" height="77"/>
<rect x="13.6" y="15.9" transform="matrix(0.9363 -0.3513 0.3513 0.9363 -18.1669 8.673)" fill="#876847" width="2.5" height="77"/>
<linearGradient id="pt-1" gradientUnits="userSpaceOnUse" x1="1961.4612" y1="401.304" x2="1979.4352" y2="390.5899" gradientTransform="matrix(0.9181 -0.3965 0.3965 0.9181 -1916.4489 449.8407)">
	<stop  offset="0" style="stop-color:#EC1C24"/>
	<stop  offset="0.9919" style="stop-color:#F4821F"/>
</linearGradient>
<path style="fill:url(#pt-1);" d="M48.4,36.3c0.8-0.9,1.5-1.9,2-3c0,0,0-0.1,0-0.1c-0.2-0.2-0.4-0.3-0.6-0.4l-1.8-1
	c-0.1,0-0.1,0-0.1,0.1c0,0,0,0,0,0.1c0.6,1.4,0.7,3,0.4,4.4C48.2,36.4,48.3,36.4,48.4,36.3C48.3,36.4,48.4,36.3,48.4,36.3z"/>
<path fill="#F79721" d="M44.7,29.9l-0.5-0.3l-0.1,0.6l0,0c-0.2,1.1-0.1,2.2,0.3,3.2c0.5,1.2,1.5,2.2,2.6,2.7
	c0.4-1.2,0.3-2.5-0.2-3.8C46.4,31.4,45.7,30.5,44.7,29.9L44.7,29.9z"/>
<linearGradient id="pt-2" gradientUnits="userSpaceOnUse" x1="1956.1168" y1="393.4977" x2="1975.1639" y2="382.144" gradientTransform="matrix(0.9181 -0.3965 0.3965 0.9181 -1916.4489 449.8407)">
	<stop  offset="0" style="stop-color:#EC1C24"/>
	<stop  offset="0.9919" style="stop-color:#F4821F"/>
</linearGradient>
<path style="fill:url(#pt-2);" d="M43.9,24.7c-0.4-0.8-1.3-1.2-2.2-0.9c0,0,0,0,0,0c-0.8,0.4-1.2,1.4-0.8,2.2
	c0.1,0.3,0.4,0.6,0.7,0.8l1.8,1c0.1,0,0.2,0,0.2-0.1l0.5-2C44.1,25.4,44,25.1,43.9,24.7z"/>
<linearGradient id="pt-3" gradientUnits="userSpaceOnUse" x1="1952.3766" y1="387.2215" x2="1971.4218" y2="375.8688" gradientTransform="matrix(0.9181 -0.3965 0.3965 0.9181 -1916.4489 449.8407)">
	<stop  offset="0" style="stop-color:#EC1C24"/>
	<stop  offset="0.9919" style="stop-color:#F4821F"/>
</linearGradient>
<path style="fill:url(#pt-3);" d="M38.2,21.8c0.1-0.4,0-0.8-0.1-1.2c-0.4-1-1.6-1.5-2.6-1.1c0,0,0,0,0,0c-1,0.5-1.4,1.6-1,2.7
	c0.2,0.4,0.4,0.7,0.8,0.9l0,0l2.1,1.2c0.1,0,0.2,0,0.2-0.1L38.2,21.8L38.2,21.8z"/>
<path fill="#F79721" d="M36.6,33.5c-0.2,1.1-0.1,2.2,0.3,3.2c0.9,2.1,3.1,3.4,5.3,3.2c0.1,0,0.2-0.1,0.1-0.3
	c-0.1-0.2-0.2-0.4-0.3-0.7c-0.3-0.8-0.5-1.6-0.5-2.5c0,0,0,0,0,0l0.1-0.9c0,0,0,0,0,0l1.5-6.5l-4.7-2.7c-0.1-0.1-0.2,0-0.2,0.1
	L36.6,33.5z"/>
<linearGradient id="pt-4" gradientUnits="userSpaceOnUse" x1="1953.91" y1="389.8109" x2="1972.9142" y2="378.4827" gradientTransform="matrix(0.9181 -0.3965 0.3965 0.9181 -1916.4489 449.8407)">
	<stop  offset="0" style="stop-color:#EC1C24"/>
	<stop  offset="0.9919" style="stop-color:#F4821F"/>
</linearGradient>
<path style="fill:url(#pt-4);" d="M35.9,37.1c-0.4-0.9-0.6-1.9-0.5-2.9c0,0,0-0.7,0.1-1l1.8-7.6c0,0,0-0.1,0-0.1l-2.4-1.4
	L34.7,24c-0.6-0.3-1-0.8-1.3-1.4c-0.7-1.6,0-3.4,1.6-4.1v0c0,0,0,0,0,0c0,0,0,0,0,0h0c1.6-0.6,3.4,0.1,4.1,1.7
	c0.3,0.6,0.3,1.3,0.2,1.9l-0.1,0.3L38.5,25c0,0,0,0.1,0,0.1l1,0.6c0,0,0.1,0,0.1-0.1c-0.1-1.1,0.5-2.2,1.5-2.8l0,0l0.1-0.1l0,0
	c1.1-0.4,2.3-0.1,3.1,0.8c0,0,0.1,0,0.1,0l0.3-1.1c0,0,0-0.1,0-0.1l-2.6-1.5c-0.6-0.3-1-0.8-1.3-1.4c-0.6-1.4-0.1-3,1.1-3.8
	c0,0,0-0.1,0-0.1c-3.4-0.8-7.2-0.3-10.4,1.9c-4.2,2.9-6.3,8-5.2,13c1.4,6.5,7,10.5,13,10.3c0.1,0,0.1-0.1,0-0.1
	C37.8,39.8,36.6,38.7,35.9,37.1z"/>
<path fill="#F7981D" d="M46.6,37.3c0,0,0-0.1,0-0.1c-1.3-0.7-2.5-1.8-3.1-3.3c0,0,0,0,0-0.1c0-0.1-0.1-0.1-0.2,0l-0.5,2
	c-0.2,0.9-0.1,1.9,0.3,2.8c0.2,0.4,0.4,0.7,0.6,1c0,0,0.1,0,0.1,0c0.1,0,0.2-0.1,0.3-0.1c0,0,0.1,0,0.1,0C45.2,39,46,38.2,46.6,37.3
	z"/>
<linearGradient id="pt-5" gradientUnits="userSpaceOnUse" x1="1954.5112" y1="390.8051" x2="1973.5579" y2="379.4515" gradientTransform="matrix(0.9181 -0.3965 0.3965 0.9181 -1916.4489 449.8407)">
	<stop  offset="0" style="stop-color:#EC1C24"/>
	<stop  offset="0.9919" style="stop-color:#F4821F"/>
</linearGradient>
<path style="fill:url(#pt-5);" d="M41.9,18.9c0.2,0.4,0.4,0.7,0.8,0.9l2.2,1.2c0.1,0,0.2,0,0.2-0.1l0.6-2.4
	c0.1-0.4,0-0.8-0.1-1.2c-0.2-0.4-0.4-0.7-0.7-0.9c0,0,0,0,0,0c-0.2-0.1-0.4-0.2-0.5-0.3c0,0,0,0,0,0c-0.4-0.1-0.9-0.1-1.3,0
	c0,0,0,0,0,0C41.9,16.7,41.5,17.9,41.9,18.9z"/>
<linearGradient id="pt-6" gradientUnits="userSpaceOnUse" x1="1957.5537" y1="395.734" x2="1976.5093" y2="384.4348" gradientTransform="matrix(0.9181 -0.3965 0.3965 0.9181 -1916.4489 449.8407)">
	<stop  offset="0" style="stop-color:#EC1C24"/>
	<stop  offset="0.9919" style="stop-color:#F4821F"/>
</linearGradient>
<path style="fill:url(#pt-6);" d="M46.7,18.8l-0.1,0.3L46,21.8c0,0,0,0.1,0,0.1l5.1,2.9c0.1,0,0.2,0,0.1-0.1
	c-0.2-0.7-0.4-1.3-0.7-2c-0.8-2-2.1-3.6-3.7-4.9c-0.1-0.1-0.2,0-0.1,0.1C46.8,18.2,46.8,18.5,46.7,18.8z"/>
<linearGradient id="pt-7" gradientUnits="userSpaceOnUse" x1="1959.1212" y1="398.4568" x2="1978.1095" y2="387.138" gradientTransform="matrix(0.9181 -0.3965 0.3965 0.9181 -1916.4489 449.8407)">
	<stop  offset="0" style="stop-color:#EC1C24"/>
	<stop  offset="0.9919" style="stop-color:#F4821F"/>
</linearGradient>
<path style="fill:url(#pt-7);" d="M46,23.1c-0.1-0.1-0.3,0-0.3,0.1l-1.2,5.2l5.5,3.2c0,0,0.5,0.3,0.6,0.4c0.1,0.1,0.3,0,0.3-0.1
	c0.6-1.8,0.8-3.7,0.6-5.6c0-0.1,0-0.1-0.1-0.2L46,23.1z"/>
</svg>
