<?xml version="1.0" encoding="utf-8"?>
<svg version="1.1" xmlns="http://www.w3.org/2000/svg" xmlns:xlink="http://www.w3.org/1999/xlink" x="0" y="0"
	 viewBox="0 0 140 107" width="140" height="107" xml:space="preserve">
<g>
	<defs>
		<path id="pt-1" d="M135.5,86.1c0,2.2-1.8,4-4,4H8.5c-2.2,0-4-1.8-4-4V4.3c0-2.2,1.8-4,4-4h123.1c2.2,0,4,1.8,4,4V86.1z"/>
	</defs>
	<use xlink:href="#pt-1" fill="#E7E9EE" style="overflow:visible;"/>
	<clipPath id="pt-2">
		<use xlink:href="#pt-1"  style="overflow:visible;"/>
	</clipPath>
	<g style="clip-path:url(#pt-2);">
		<rect x="-0.1" y="-0.4" fill="#464E5D" width="140.2" height="79.4"/>
	</g>
	<g style="clip-path:url(#pt-2);">
		<polyline fill="#454B59" points="-0.1,79 -0.1,-0.4 140.1,-0.4"/>
	</g>
</g>
<path fill="#D7DAE1" d="M98.9,106c0,0.4-0.3,0.6-0.6,0.6H41.7c-0.4,0-0.7-0.3-0.7-0.6v0c0-0.4,0.3-0.7,0.7-0.7h56.6
	C98.6,105.3,98.9,105.6,98.9,106L98.9,106z"/>
<rect x="9.8" y="5.2" fill="#FCE79D" width="120.3" height="68.2"/>
<g>
	<defs>
		<path id="pt-3" d="M87.2,105.1c0,0.2-0.2,0.4-0.4,0.4H53.1c-0.2,0-0.4-0.2-0.4-0.4l4-14.7c0-0.2,0.2-0.4,0.4-0.4h25.7
			c0.2,0,0.4,0.2,0.4,0.4L87.2,105.1z"/>
	</defs>
	<use xlink:href="#pt-3" fill="#E7E9EE" style="overflow:visible;"/>
	<clipPath id="pt-4">
		<use xlink:href="#pt-3"  style="overflow:visible;"/>
	</clipPath>
	<g style="clip-path:url(#pt-4);">
		<rect x="54.9" y="88.6" fill="#D7DAE1" width="30.2" height="5.1"/>
	</g>
</g>
<path fill="#F18F45" d="M42.6,28.4c-11.5-0.2-20.8,4.3-21,16.1C21.4,56.3,28.1,61,42.1,61.2c14,0.2,20.8-4.3,21-16.1
	C63.3,33.3,54.1,28.5,42.6,28.4"/>
<path fill="#94BC79" d="M42.6,32.2C42.6,32.2,42.6,32.2,42.6,32.2c-1.2,0-2.1-1-2.1-2.1l0.1-9.8c0-1.1,0.9-2,2.1-2
	c1.1,0,2.1,1,2,2.1l-0.1,9.8C44.6,31.3,43.7,32.2,42.6,32.2z"/>
<path fill="#94BC79" d="M34.1,35.5l5.7-8.1c1.3-1.8,3.8-2.2,5.5-1c1.8,1.3,2.2,3.8,1,5.5c-0.3,0.4-0.7,0.8-1.1,1L37,38.5
	c-1,0.6-2.3,0.4-2.9-0.6C33.6,37.1,33.6,36.2,34.1,35.5"/>
<path fill="#94BC79" d="M47.9,38.6l-8.1-5.7c-1.8-1.3-2.2-3.7-1-5.5c1.3-1.8,3.7-2.2,5.5-1c0.4,0.3,0.8,0.7,1,1.1l5.5,8.3
	c0.6,1,0.4,2.3-0.6,2.9C49.5,39.1,48.6,39.1,47.9,38.6"/>
<path fill="#94BC79" d="M40.4,39.9l-1.7-9.8c-0.4-2.2,1.1-4.2,3.2-4.6c2.2-0.4,4.2,1.1,4.6,3.2c0.1,0.5,0.1,1,0,1.5l-2,9.7
	c-0.2,1.1-1.3,1.9-2.5,1.6C41.1,41.4,40.5,40.7,40.4,39.9"/>
<path fill="#94BC79" d="M52.3,32.4l-9.8,1.7c-2.2,0.4-4.2-1.1-4.6-3.2c-0.4-2.2,1.1-4.2,3.2-4.6c0.5-0.1,1-0.1,1.5,0l9.7,2
	c1.1,0.2,1.9,1.3,1.6,2.5C53.8,31.6,53.1,32.2,52.3,32.4"/>
<path fill="#94BC79" d="M32.8,28l9.8-1.7c2.2-0.4,4.2,1.1,4.6,3.2c0.4,2.2-1.1,4.2-3.2,4.6c-0.5,0.1-1,0.1-1.5,0l-9.7-2
	c-1.1-0.2-1.9-1.3-1.6-2.5C31.3,28.7,32,28.1,32.8,28"/>
<g>
	<path fill="#F18F45" d="M97.8,30.9l-2,0c0,3.8-1.9,6.9-6.8,7c-4.9,0-6.9-2.2-6.9-6.9l-2,0c0,6,2.5,8.9,8.9,8.8
		C95.4,39.8,97.9,35.8,97.8,30.9z"/>
</g>
<g>
	<path fill="#F4AA71" d="M89.1,37.9c4.9,0,6.8-3.2,6.8-7L82.2,31C82.2,35.7,84.1,37.9,89.1,37.9z"/>
</g>
<g>
	<path fill="#F6CCAA" d="M89,32.9c1.4,0,1.9-0.9,1.9-1.9l-3.8,0C87.1,32.3,87.7,32.9,89,32.9z"/>
</g>
<g>
	<path fill="#F18F45" d="M97.8,31.3l-2,0c0-3.8-1.8-6.9-6.8-6.9c-4.9,0-6.9,2.2-6.9,6.9l-2,0c0.1-6,2.6-8.9,8.9-8.8
		C95.5,22.5,97.9,26.4,97.8,31.3z"/>
</g>
<path fill="#F4AA71" d="M89.1,24.4c4.9,0,6.8,3.1,6.8,6.9l-13.7-0.1C82.2,26.6,84.2,24.4,89.1,24.4z"/>
<path fill="#F6CCAA" d="M89,29.4c1.4,0,1.9,0.9,1.9,1.9l-3.8,0C87.1,30,87.7,29.4,89,29.4z"/>
<path fill="#F18F45" d="M85.1,32.4c-0.2,0-0.7,0.5-0.7,0.9c0,0.4,0.3,0.6,0.7,0.6c0.4,0,0.6-0.3,0.6-0.7
	C85.7,32.9,85.3,32.4,85.1,32.4z"/>
<path fill="#F18F45" d="M92.5,27.8c-0.2,0-0.7,0.5-0.7,0.9c0,0.4,0.3,0.6,0.7,0.6c0.4,0,0.6-0.3,0.6-0.7
	C93.1,28.3,92.7,27.8,92.5,27.8z"/>
<path fill="#F18F45" d="M91,34c-0.2,0-0.7,0.5-0.7,0.9c0,0.4,0.3,0.6,0.7,0.6c0.4,0,0.6-0.3,0.6-0.7C91.6,34.5,91.2,34,91,34
	z"/>
<path fill="#F18F45" d="M94.6,31.1c-0.2,0-0.7,0.5-0.7,0.9c0,0.4,0.3,0.6,0.7,0.6c0.4,0,0.6-0.3,0.6-0.7
	C95.1,31.6,94.8,31.1,94.6,31.1z"/>
<path fill="#F18F45" d="M85.3,27.3c-0.2,0-0.7,0.5-0.7,0.9c0,0.4,0.3,0.6,0.7,0.6c0.4,0,0.6-0.3,0.6-0.7
	C85.9,27.8,85.5,27.3,85.3,27.3z"/>
<path fill="#F18F45" d="M90.3,25.9c-0.2,0-0.7,0.5-0.7,0.9c0,0.4,0.3,0.6,0.7,0.6c0.4,0,0.6-0.3,0.6-0.7
	C90.9,26.4,90.5,25.9,90.3,25.9z"/>
<path fill="#F18F45" d="M87.2,34.8c-0.2,0-0.7,0.5-0.7,0.9c0,0.4,0.3,0.6,0.7,0.6c0.4,0,0.6-0.3,0.6-0.7
	C87.7,35.3,87.4,34.8,87.2,34.8z"/>
<path fill="#98BC7A" d="M117.6,47H81.5c-0.5,0-0.9-0.4-0.9-0.9c0-0.5,0.4-0.9,0.9-0.9h36.1c0.5,0,0.9,0.4,0.9,0.9
	C118.5,46.6,118.1,47,117.6,47z"/>
<path fill="#98BC7A" d="M117.6,53.6H81.5c-0.5,0-0.9-0.4-0.9-0.9c0-0.5,0.4-0.9,0.9-0.9h36.1c0.5,0,0.9,0.4,0.9,0.9
	C118.5,53.2,118.1,53.6,117.6,53.6z"/>
<path fill="#98BC7A" d="M117.6,60.2H81.5c-0.5,0-0.9-0.4-0.9-0.9c0-0.5,0.4-0.9,0.9-0.9h36.1c0.5,0,0.9,0.4,0.9,0.9
	C118.5,59.8,118.1,60.2,117.6,60.2z"/>
<path fill="#98BC7A" d="M117.6,31.8h-15.3c-0.5,0-0.9-0.4-0.9-0.9c0-0.5,0.4-0.9,0.9-0.9h15.3c0.5,0,0.9,0.4,0.9,0.9
	C118.5,31.4,118.1,31.8,117.6,31.8z"/>
<path fill="#98BC7A" d="M117.6,38.4h-15.3c-0.5,0-0.9-0.4-0.9-0.9s0.4-0.9,0.9-0.9h15.3c0.5,0,0.9,0.4,0.9,0.9
	S118.1,38.4,117.6,38.4z"/>
<polygon style="opacity:0.1;" fill="#F3D98E" points="9.8,5.2 9.8,73.4 130.2,5.2 "/>
</svg>
