<?xml version="1.0" encoding="utf-8"?>
<svg version="1.1" xmlns="http://www.w3.org/2000/svg" xmlns:xlink="http://www.w3.org/1999/xlink" x="0" y="0"
	 viewBox="0 0 96 63" width="96" height="63" xml:space="preserve">
<path fill="#716552" d="M93.6,2.7H49.7c-1,0-1.7,0.8-1.7,1.7c0-0.9-0.8-1.7-1.7-1.7H2.4c-0.9,0-1.7,0.8-1.7,1.7v53.9
	c0,0.9,0.8,1.7,1.7,1.7h41.9c0.4,1.1,2,1.9,3.9,1.9c1.9,0,3.5-0.8,3.9-1.9h41.6c0.9,0,1.7-0.8,1.7-1.7V4.4
	C95.3,3.4,94.6,2.7,93.6,2.7z"/>
<path fill="#716552" d="M48.1,62.6c-1.9,0-3.6-0.7-4.3-1.9H2.4c-1.4,0-2.5-1.1-2.5-2.5V4.4C-0.1,3,1,1.9,2.4,1.9h43.9
	c0.7,0,1.3,0.3,1.7,0.7c0.4-0.4,1-0.7,1.7-0.7h43.9c1.4,0,2.5,1.1,2.5,2.5v53.9c0,1.4-1.1,2.5-2.5,2.5H52.4
	C51.7,61.9,50,62.6,48.1,62.6z M2.4,3.4c-0.5,0-1,0.4-1,1v53.9c0,0.5,0.4,1,1,1h42.4l0.2,0.5c0.3,0.7,1.5,1.4,3.2,1.4
	c1.7,0,2.9-0.7,3.2-1.4l0.2-0.5h42.2c0.5,0,1-0.4,1-1V4.4c0-0.5-0.4-1-1-1H49.7c-0.5,0-1,0.4-1,1h-1.5c0-0.5-0.4-1-1-1H2.4z"/>
<g>
	<defs>
		<path id="pt-1" d="M91.7,1h-42C48.7,1,48,1.8,48,2.7C48,1.8,47.3,1,46.4,1h-42C3.4,1,2.7,1.8,2.7,2.7v53.7
			c0,0.9,0.7,1.6,1.6,1.6h40.1c0.4,1,1.9,1.8,3.7,1.8c1.8,0,3.3-0.8,3.7-1.8h39.8c0.9,0,1.6-0.7,1.6-1.6V2.7C93.3,1.8,92.6,1,91.7,1
			z"/>
	</defs>
	<use xlink:href="#pt-1" fill="#FFF9ED" style="overflow:visible;"/>
	<clipPath id="pt-2">
		<use xlink:href="#pt-1"  style="overflow:visible;"/>
	</clipPath>
	<g style="clip-path:url(#pt-2);">
		<rect x="25.7" y="0.1" fill="#F1EEE0" width="22.4" height="61.9"/>
	</g>
</g>
<path fill="#C0BAB2" d="M84,44.1H57.3c-0.6,0-1.1-0.5-1.1-1.1c0-0.6,0.5-1.1,1.1-1.1H84c0.6,0,1.1,0.5,1.1,1.1
	C85.1,43.6,84.6,44.1,84,44.1z"/>
<path fill="#C0BAB2" d="M84,50.5H57.3c-0.6,0-1.1-0.5-1.1-1.1c0-0.6,0.5-1.1,1.1-1.1H84c0.6,0,1.1,0.5,1.1,1.1
	C85.1,50,84.6,50.5,84,50.5z"/>
<path fill="#C0BAB2" d="M84,24.9H57.3c-0.6,0-1.1-0.5-1.1-1.1c0-0.6,0.5-1.1,1.1-1.1H84c0.6,0,1.1,0.5,1.1,1.1
	C85.1,24.4,84.6,24.9,84,24.9z"/>
<path fill="#C0BAB2" d="M84,31.4H57.3c-0.6,0-1.1-0.5-1.1-1.1c0-0.6,0.5-1.1,1.1-1.1H84c0.6,0,1.1,0.5,1.1,1.1
	C85.1,30.9,84.6,31.4,84,31.4z"/>
<path fill="#C0BAB2" d="M84,37.9H57.3c-0.6,0-1.1-0.5-1.1-1.1c0-0.6,0.5-1.1,1.1-1.1H84c0.6,0,1.1,0.5,1.1,1.1
	C85.1,37.4,84.6,37.9,84,37.9z"/>
<circle fill="#94BC79" cx="25.2" cy="15.1" r="7.3"/>
<circle fill="#94BC79" cx="17.9" cy="17.3" r="5.3"/>
<path fill="#94BC79" d="M22.1,23c0,2.9-2.4,5.3-5.3,5.3c-2.9,0-5.3-2.4-5.3-5.3c0-2.9,2.4-5.3,5.3-5.3
	C19.8,17.8,22.1,20.1,22.1,23z"/>
<path fill="#94BC79" d="M35.7,15.1c0,2.3-1.9,4.2-4.2,4.2c-2.3,0-4.2-1.9-4.2-4.2c0-2.3,1.9-4.2,4.2-4.2
	C33.8,10.9,35.7,12.8,35.7,15.1z"/>
<path fill="#94BC79" d="M28.2,29.7c0,4-3.3,7.3-7.3,7.3c-4,0-7.3-3.3-7.3-7.3c0-4,3.3-7.3,7.3-7.3
	C25,22.4,28.2,25.7,28.2,29.7z"/>
<path fill="#94BC79" d="M38.7,23c0,4-3.3,7.3-7.3,7.3c-4,0-7.3-3.3-7.3-7.3c0-4,3.3-7.3,7.3-7.3C35.5,15.8,38.7,19,38.7,23z"
	/>
<circle fill="#94BC79" cx="29.4" cy="28.6" r="7.3"/>
<circle fill="#A2CE7A" cx="25.7" cy="19.9" r="7.3"/>
<path fill="#A2CE7A" d="M30.5,27.2c0,4-3.3,7.3-7.3,7.3c-4,0-7.3-3.3-7.3-7.3c0-4,3.3-7.3,7.3-7.3
	C27.2,19.9,30.5,23.2,30.5,27.2z"/>
<path fill="#A2CE7A" d="M35,25.5c0,4-3.3,7.3-7.3,7.3c-4,0-7.3-3.3-7.3-7.3c0-4,3.3-7.3,7.3-7.3C31.7,18.2,35,21.5,35,25.5z"
	/>
<path fill="#D5E8C3" d="M25.4,46.1l1.1-18.9c0.1-1,0.9-1.7,1.8-1.6c0.9,0.1,1.6,0.8,1.6,1.6l1.1,18.9c0.1,1.6-1.1,3-2.7,3.1
	c-1.6,0.1-3-1.1-3.1-2.7C25.3,46.3,25.4,46.2,25.4,46.1z"/>
<path fill="#D0E3C0" d="M19.3,46.1l1.1-18.9c0.1-1,0.9-1.7,1.8-1.6c0.9,0.1,1.6,0.8,1.6,1.6L25,46.1c0.1,1.6-1.1,3-2.7,3.1
	c-1.6,0.1-3-1.1-3.1-2.7C19.3,46.3,19.3,46.2,19.3,46.1z"/>
<path fill="#D0E3C0" d="M22.7,28.3c-0.4,0-0.7-0.3-0.7-0.7v-4.2c0-0.4,0.3-0.7,0.7-0.7s0.7,0.3,0.7,0.7v4.2
	C23.4,28,23.1,28.3,22.7,28.3z"/>
<path fill="#D5E8C3" d="M27.7,27.7c-0.4,0-0.7-0.3-0.7-0.7v-4.2c0-0.4,0.3-0.7,0.7-0.7c0.4,0,0.7,0.3,0.7,0.7V27
	C28.4,27.4,28.1,27.7,27.7,27.7z"/>
<path fill="#E1EFD6" d="M22.3,48.5l1.1-27.3c0-1,0.8-1.7,1.8-1.7c0.9,0,1.6,0.8,1.7,1.7l1.1,27.3c0.1,1.6-1.2,2.9-2.8,3
	c-1.6,0.1-2.9-1.2-3-2.8C22.3,48.7,22.3,48.6,22.3,48.5z"/>
<path fill="#57B2AB" d="M89.1,31L85,29.5c-0.1,0-0.1,0-0.2,0L80.8,31c-0.1,0.1-0.3-0.1-0.3-0.2V0.7c0-0.2,0.2-0.4,0.4-0.4H89
	c0.2,0,0.4,0.2,0.4,0.4v30.1C89.4,31,89.2,31.1,89.1,31z"/>
<path fill="#338389" d="M85,0.4H89c0.2,0,0.4,0.2,0.4,0.4v30.1c0,0.2-0.2,0.3-0.3,0.2L85,29.5"/>
</svg>
