<?xml version="1.0" encoding="utf-8"?>
<svg version="1.1" xmlns="http://www.w3.org/2000/svg" xmlns:xlink="http://www.w3.org/1999/xlink" x="0" y="0"
	 viewBox="0 0 55 44" width="55" height="44" xml:space="preserve">
<path fill="#BBE3E4" d="M10.3,44.1c-4.8,0-8.8-3.7-9.1-8.6c-0.3-5,3.5-9.4,8.5-9.7l21.7-1.4c3.2-0.2,4.1-1.6,4.4-2.1
	c1-1.7,1.4-5.1-0.7-9.9c-2-4.6,0.1-10,4.7-12c4.6-2,10,0.1,12,4.7c4.2,9.6,4,19.3-0.5,26.7c-3.9,6.4-10.8,10.3-18.8,10.8l-21.7,1.4
	C10.7,44.1,10.5,44.1,10.3,44.1z"/>
<path fill="#F9E2B7" d="M9.6,44.2c-5,0-9.1-3.9-9.4-8.9c-0.3-5.2,3.6-9.7,8.9-10l15.4-1c5.2-0.3,9.7,3.6,10,8.9
	c0.3,5.2-3.6,9.7-8.9,10l-15.4,1C10,44.2,9.8,44.2,9.6,44.2z"/>
</svg>
