<?xml version="1.0" encoding="utf-8"?>
<svg version="1.1" xmlns="http://www.w3.org/2000/svg" xmlns:xlink="http://www.w3.org/1999/xlink" x="0" y="0"
	 viewBox="0 0 63 63" width="63" height="63" xml:space="preserve">
<path fill="#FBECB4" d="M23,46.8c-2.9,0.8-6,0.9-8.1-0.4c-2.8-1.6-3.8-5.1-2.2-7.9c1.3-2.4,4.1-3.4,6.6-2.7
	c0.7-0.1,1.7-0.5,2-0.7c2.3-2.2,6-2.1,8.2,0.2c2.2,2.3,2.1,6-0.2,8.2C27.7,45,25.4,46.2,23,46.8z"/>
<path fill="#F0C295" d="M20.6,37.3c-0.7,0.2-1.4,0.3-1.9,0.2c-0.6-0.1-0.7-0.5-0.2-0.9c0.4-0.3,1.2-0.2,1.8-0.2
	c0.2,0,0.4-0.1,0.5-0.2c0.6-0.3,1.4-0.8,1.8-0.6c0.4,0.2,0.3,0.7-0.3,1C21.7,36.9,21.2,37.2,20.6,37.3z"/>
<path fill="#FBECB4" d="M23.9,27.8c-3,0-6-0.8-7.7-2.6c-2.3-2.3-2.3-5.9,0-8.2c1.9-1.9,4.9-2.2,7.1-0.9
	c0.7,0.1,1.7,0,2.1-0.2c2.8-1.5,6.3-0.4,7.8,2.4c1.5,2.8,0.4,6.3-2.4,7.8C28.9,27.2,26.4,27.8,23.9,27.8z"/>
<path fill="#F0C295" d="M24.1,18c-0.7,0-1.5-0.1-1.9-0.3c-0.6-0.3-0.6-0.7,0-0.9c0.5-0.2,1.2,0.1,1.8,0.3c0.2,0,0.4,0,0.5,0
	c0.7-0.2,1.6-0.4,1.9-0.1c0.4,0.3,0.1,0.7-0.6,0.9C25.3,17.9,24.7,18,24.1,18z"/>
<path fill="#FBECB4" d="M51.3,44.1c-2.5,1.7-5.4,2.6-7.9,2.2c-3.1-0.6-5.2-3.7-4.5-6.8c0.5-2.7,2.8-4.5,5.4-4.6
	c0.6-0.3,1.4-1,1.7-1.3c1.5-2.8,5-3.8,7.9-2.3c2.8,1.5,3.8,5.1,2.3,7.9C55.2,40.9,53.4,42.7,51.3,44.1z"/>
<path fill="#F0C295" d="M46,35.8c-0.6,0.4-1.3,0.7-1.7,0.8c-0.6,0.1-0.8-0.2-0.5-0.8c0.3-0.4,1.1-0.5,1.6-0.7
	c0.1-0.1,0.4-0.2,0.4-0.3c0.5-0.5,1.1-1.2,1.5-1.2c0.5,0.1,0.5,0.5,0,1.1C47,35.1,46.6,35.5,46,35.8z"/>
<path style="opacity:0.6;" fill="#FFF" d="M6.3,30.1c-0.1,0-0.2,0-0.2,0c-0.8-0.1-1.4-0.9-1.2-1.7C6.5,18.3,12.9,9.6,22,5
	c0.7-0.4,1.6-0.1,2,0.7c0.4,0.7,0.1,1.6-0.7,2C15.1,11.9,9.3,19.8,7.8,28.9C7.6,29.6,7,30.1,6.3,30.1z"/>
<path style="opacity:0.6;" fill="#FFF" d="M3.4,35c0.1,1.1,1.2,1.9,2.3,1.8c1.1-0.1,1.9-1.2,1.8-2.3c-0.1-1.1-1.2-1.9-2.3-1.8
	C4.1,32.8,3.3,33.8,3.4,35z"/>
</svg>
