<?xml version="1.0" encoding="utf-8"?>
<svg version="1.1" xmlns="http://www.w3.org/2000/svg" xmlns:xlink="http://www.w3.org/1999/xlink" x="0" y="0"
	 viewBox="0 0 98 98" width="98" height="98" xml:space="preserve">
<path fill="#94BC79" d="M70,16.6c0,6-4.8,10.8-10.8,10.8c-6,0-10.8-4.8-10.8-10.8S53.3,5.8,59.2,5.8
	C65.2,5.8,70,10.6,70,16.6z"/>
<path fill="#94BC79" d="M56.2,19.8c0,4.3-3.5,7.8-7.8,7.8c-4.3,0-7.8-3.5-7.8-7.8c0-4.3,3.5-7.8,7.8-7.8
	C52.7,12,56.2,15.5,56.2,19.8z"/>
<path fill="#94BC79" d="M54.7,28.3c0,4.3-3.5,7.8-7.8,7.8c-4.3,0-7.8-3.5-7.8-7.8c0-4.3,3.5-7.8,7.8-7.8
	C51.2,20.5,54.7,24,54.7,28.3z"/>
<circle fill="#94BC79" cx="68.5" cy="16.6" r="6.2"/>
<circle fill="#94BC79" cx="52.9" cy="38.1" r="10.8"/>
<path fill="#94BC79" d="M79.3,28.3c0,6-4.8,10.8-10.8,10.8c-6,0-10.8-4.8-10.8-10.8c0-6,4.8-10.8,10.8-10.8
	C74.5,17.5,79.3,22.3,79.3,28.3z"/>
<path fill="#94BC79" d="M76.3,36.4c0,6-4.8,10.8-10.8,10.8c-6,0-10.8-4.8-10.8-10.8c0-6,4.8-10.8,10.8-10.8
	C71.5,25.7,76.3,30.5,76.3,36.4z"/>
<circle fill="#A2CE7A" cx="60" cy="23.6" r="10.8"/>
<path fill="#A2CE7A" d="M67,34.4c0,6-4.8,10.8-10.8,10.8s-10.8-4.8-10.8-10.8c0-6,4.8-10.8,10.8-10.8S67,28.4,67,34.4z"/>
<path fill="#A2CE7A" d="M73.7,31.9c0,6-4.8,10.8-10.8,10.8c-6,0-10.8-4.8-10.8-10.8S57,21.1,62.9,21.1
	C68.9,21.1,73.7,26,73.7,31.9z"/>
<path fill="#D5E8C3" d="M59.5,62.4l1.7-28c0.1-1.4,1.3-2.5,2.7-2.4c1.3,0.1,2.3,1.1,2.4,2.4l1.7,28c0.1,2.4-1.6,4.4-4,4.5
	c-2.4,0.1-4.4-1.7-4.5-4C59.5,62.7,59.5,62.5,59.5,62.4z"/>
<path fill="#D0E3C0" d="M50.5,62.4l1.7-28c0.1-1.4,1.3-2.5,2.7-2.4c1.3,0.1,2.3,1.1,2.4,2.4l1.7,28c0.1,2.4-1.6,4.4-4,4.5
	c-2.4,0.1-4.4-1.7-4.5-4C50.5,62.7,50.5,62.5,50.5,62.4z"/>
<path fill="#D0E3C0" d="M55.5,36.1c-0.6,0-1.1-0.5-1.1-1.1v-6.2c0-0.6,0.5-1.1,1.1-1.1c0.6,0,1.1,0.5,1.1,1.1v6.2
	C56.6,35.6,56.1,36.1,55.5,36.1z"/>
<path fill="#D5E8C3" d="M62.9,35.2c-0.6,0-1.1-0.5-1.1-1.1v-6.3c0-0.6,0.5-1.1,1.1-1.1c0.6,0,1.1,0.5,1.1,1.1v6.3
	C64,34.7,63.5,35.2,62.9,35.2z"/>
<path fill="#E1EFD6" d="M55,66l1.7-40.4c0.1-1.4,1.3-2.5,2.7-2.5c1.3,0.1,2.4,1.1,2.5,2.5L63.5,66c0.1,2.4-1.7,4.3-4.1,4.4
	c-2.4,0.1-4.3-1.7-4.4-4.1C55,66.2,55,66.1,55,66z"/>
<path fill="#F4D962" d="M23.9,41.7c0,5.4-15.9,7.8-15.9,18C8,69.9,15.1,73,23.9,73c8.8,0,15.9-3.1,15.9-13.3
	C39.7,49.5,23.9,47.1,23.9,41.7z"/>
<path fill="#EF7D42" d="M49,50.3c-9.2,0-16.7,3.7-16.7,13.2c0,9.5,5.4,13.2,16.7,13.2c11.3,0,16.7-3.7,16.7-13.2
	C65.7,54,58.2,50.3,49,50.3z"/>
<path fill="#94BC79" d="M49,53.1c-0.7,0-1.3-0.6-1.3-1.3v-7.9c0-0.7,0.6-1.3,1.3-1.3c0.7,0,1.3,0.6,1.3,1.3v7.9
	C50.3,52.5,49.7,53.1,49,53.1z"/>
<path fill="#94BC79" d="M42.5,56.5l4.8-6.4c0.8-1.1,2.4-1.3,3.5-0.5c1.1,0.8,1.3,2.4,0.5,3.5c-0.1,0.2-0.3,0.4-0.5,0.5
	l-6.4,4.8c-0.6,0.4-1.4,0.3-1.8-0.3C42.2,57.5,42.2,56.9,42.5,56.5z"/>
<path fill="#94BC79" d="M53.7,58.3l-6.4-4.8c-1.1-0.8-1.3-2.4-0.5-3.5c0.8-1.1,2.4-1.3,3.5-0.5c0.2,0.1,0.4,0.3,0.5,0.5
	l4.8,6.4c0.4,0.6,0.3,1.4-0.3,1.8C54.7,58.6,54.1,58.6,53.7,58.3z"/>
<path fill="#94BC79" d="M47.7,59.7l-1.2-7.9c-0.2-1.4,0.7-2.6,2.1-2.8c1.4-0.2,2.6,0.7,2.8,2.1c0,0.2,0,0.5,0,0.7l-1.2,7.9
	c-0.1,0.7-0.8,1.2-1.5,1.1C48.2,60.7,47.8,60.2,47.7,59.7z"/>
<path fill="#94BC79" d="M56.9,53.1L49,54.2c-1.4,0.2-2.6-0.7-2.8-2.1c-0.2-1.3,0.7-2.6,2.1-2.8c0.2,0,0.5,0,0.7,0l7.9,1.2
	c0.7,0.1,1.2,0.8,1.1,1.5C57.9,52.6,57.4,53,56.9,53.1z"/>
<path fill="#94BC79" d="M41.1,50.5l7.9-1.2c1.4-0.2,2.6,0.7,2.8,2.1c0.2,1.4-0.7,2.6-2.1,2.8c-0.2,0-0.5,0-0.7,0l-7.9-1.2
	c-0.7-0.1-1.2-0.8-1.1-1.5C40.1,51,40.6,50.6,41.1,50.5z"/>
<path fill="#F18F45" d="M76.8,68.4h-2.9c0,7.2-2.9,13-10.3,13c-7.4,0-10.3-4.2-10.3-13h-2.9c0,11.3,3.7,16.7,13.2,16.7
	C73.1,85.2,76.8,77.7,76.8,68.4z"/>
<path fill="#F4AA71" d="M63.5,81.5c7.4,0,10.3-5.8,10.3-13H53.2C53.2,77.2,56.1,81.5,63.5,81.5z"/>
<path fill="#F6CCAA" d="M63.5,72.1c2.1,0,2.9-1.6,2.9-3.6h-5.7C60.7,70.9,61.5,72.1,63.5,72.1z"/>
<path fill="#F391B4" d="M76.2,66c0-2.7,7.9-3.9,7.9-9c0-5.1-3.6-8-7.9-8c-4.4,0-7.9,2.9-7.9,8C68.2,62.1,76.2,63.3,76.2,66z"
	/>
<path fill="#BF99C6" d="M36.3,76.8c0,3-1.9,5.4-5.4,5.4c-3.5,0-5.4-2.4-5.4-5.4c0-3,2.1-5.4,5.4-5.4
	C34.2,71.4,36.3,73.8,36.3,76.8z"/>
<ellipse fill="#F9A44B" cx="30.9" cy="72.7" rx="1.9" ry="0.7"/>
<path fill="#BF99C6" d="M44.7,74.9c0,3-1.9,5.4-5.4,5.4s-5.4-2.4-5.4-5.4c0-3,2.1-5.4,5.4-5.4C42.6,69.5,44.7,72,44.7,74.9z"
	/>
<ellipse fill="#F9A44B" cx="39.2" cy="70.9" rx="1.9" ry="0.7"/>
<path fill="#83B365" d="M76.2,51.6c-0.7,0-1.3-0.6-1.3-1.3V35c0-0.7,0.6-1.3,1.3-1.3c0.7,0,1.3,0.6,1.3,1.3v15.4
	C77.5,51.1,76.9,51.6,76.2,51.6z"/>
<path fill="#83B365" d="M76.2,48.4c-0.3,0-0.7-0.1-0.9-0.4c-0.5-0.5-0.5-1.3,0-1.8l5.6-5.6c0.5-0.5,1.3-0.5,1.8,0
	c0.5,0.5,0.5,1.3,0,1.8L77.1,48C76.8,48.3,76.5,48.4,76.2,48.4z"/>
<path fill="#83B365" d="M76.2,48.4c-0.3,0-0.7-0.1-0.9-0.4l-5.6-5.6c-0.5-0.5-0.5-1.3,0-1.8c0.5-0.5,1.3-0.5,1.8,0l5.6,5.6
	c0.5,0.5,0.5,1.3,0,1.8C76.8,48.3,76.5,48.4,76.2,48.4z"/>
<path fill="#83B365" d="M76.2,43.7c-0.3,0-0.7-0.1-0.9-0.4c-0.5-0.5-0.5-1.3,0-1.8l5.6-5.6c0.5-0.5,1.3-0.5,1.8,0
	c0.5,0.5,0.5,1.3,0,1.8l-5.6,5.6C76.8,43.6,76.5,43.7,76.2,43.7z"/>
<path fill="#83B365" d="M76.2,43.7c-0.3,0-0.7-0.1-0.9-0.4l-5.6-5.6c-0.5-0.5-0.5-1.3,0-1.8c0.5-0.5,1.3-0.5,1.8,0l5.6,5.6
	c0.5,0.5,0.5,1.3,0,1.8C76.8,43.6,76.5,43.7,76.2,43.7z"/>
<path style="opacity:0.6;" fill="#FFF" d="M7.6,46.9c-0.1,0-0.2,0-0.4,0c-1.2-0.2-2-1.3-1.8-2.5C7.8,29.6,17.2,16.7,30.6,9.9
	c1.1-0.6,2.4-0.1,3,1c0.6,1.1,0.1,2.4-1,3C20.5,20,11.9,31.7,9.7,45.1C9.6,46.1,8.6,46.9,7.6,46.9z"/>
<path style="opacity:0.6;" fill="#FFF" d="M3.3,54c0.2,1.7,1.7,2.8,3.4,2.6c1.7-0.2,2.8-1.7,2.6-3.4c-0.2-1.7-1.7-2.8-3.4-2.6
	C4.3,50.8,3.1,52.3,3.3,54z"/>
</svg>
