<?xml version="1.0" encoding="utf-8"?>
<svg version="1.1" xmlns="http://www.w3.org/2000/svg" xmlns:xlink="http://www.w3.org/1999/xlink" x="0" y="0"
	 viewBox="0 0 58 58" width="58" height="58" xml:space="preserve">
<path style="opacity:0.5;" fill="#F18F45" d="M29,17.1c-10.6,0-19.2,4.2-19.2,15.2c0,10.9,6.2,15.2,19.2,15.2
	c12.9,0,19.2-4.2,19.2-15.2C48.2,21.3,39.6,17.1,29,17.1z"/>
<path style="opacity:0.5;" fill="#72A252" d="M38,17.5h-7.8V9.7c0-0.7-0.5-1.2-1.2-1.2S27.8,9,27.8,9.7v7.8H20c-0.7,0-1.2,0.5-1.2,1.2
	c0,0.7,0.5,1.2,1.2,1.2h6.1l-4.3,4.3c-0.5,0.5-0.5,1.2,0,1.7c0.2,0.2,0.5,0.4,0.8,0.4c0.3,0,0.6-0.1,0.8-0.4l4.3-4.3v6.1
	c0,0.7,0.5,1.2,1.2,1.2s1.2-0.5,1.2-1.2v-6.1l4.3,4.3c0.2,0.2,0.5,0.4,0.8,0.4c0.3,0,0.6-0.1,0.8-0.4c0.5-0.5,0.5-1.2,0-1.7
	l-4.3-4.3H38c0.7,0,1.2-0.5,1.2-1.2C39.2,18.1,38.7,17.5,38,17.5z"/>
<path style="opacity:0.6;" fill="#FFF" d="M52.7,27.3c-0.6,0-1.1-0.4-1.2-1c-1.2-7.6-6.1-14.1-12.9-17.6C37.9,8.4,37.7,7.6,38,7
	c0.3-0.6,1.1-0.9,1.7-0.6c7.6,3.8,12.9,11.1,14.2,19.4c0.1,0.7-0.3,1.3-1,1.4C52.8,27.3,52.8,27.3,52.7,27.3z"/>
<circle style="opacity:0.6;" fill="#FFF" cx="53.4" cy="31.1" r="1.7"/>
</svg>
