<?xml version="1.0" encoding="utf-8"?>
<svg version="1.1" xmlns="http://www.w3.org/2000/svg" xmlns:xlink="http://www.w3.org/1999/xlink" x="0" y="0"
	 viewBox="0 0 71 71" width="71" height="71" xml:space="preserve">
<path style="fill:#F8F8F8;" d="M51.1,38.4c0,10.4-7.5,15.9-15.6,15.9c-8,0-15.6-5.5-15.6-15.9c0-10.4,9.4-21.8,15.6-21.8
	C41.7,16.6,51.1,28,51.1,38.4z"/>
<linearGradient id="pt-1" gradientUnits="userSpaceOnUse" x1="39.1793" y1="49.5833" x2="50.9838" y2="42.5467">
	<stop  offset="0" style="stop-color:#EC1C24"/>
	<stop  offset="0.9919" style="stop-color:#F4821F"/>
</linearGradient>
<path style="fill:url(#pt-1);" d="M43.2,48.3c0.7-0.3,1.4-0.8,2-1.3c0,0,0,0,0-0.1c-0.1-0.1-0.1-0.3-0.2-0.4l-0.8-1.1
	c0,0-0.1,0-0.1,0c0,0,0,0,0,0C44.1,46.6,43.7,47.5,43.2,48.3C43.1,48.3,43.2,48.3,43.2,48.3C43.2,48.3,43.2,48.3,43.2,48.3z"/>
<path style="fill:#F79721;" d="M42.7,43.5l-0.2-0.3l-0.2,0.3l0,0c-0.4,0.6-0.6,1.3-0.6,2c0,0.9,0.3,1.7,0.9,2.3
	c0.5-0.6,0.9-1.4,0.9-2.3C43.3,44.8,43.1,44.1,42.7,43.5L42.7,43.5z"/>
<linearGradient id="pt-2" gradientUnits="userSpaceOnUse" x1="35.6707" y1="44.4558" x2="48.1771" y2="37.0008">
	<stop  offset="0" style="stop-color:#EC1C24"/>
	<stop  offset="0.9919" style="stop-color:#F4821F"/>
</linearGradient>
<path style="fill:url(#pt-2);" d="M43.5,40.2c0-0.6-0.5-1.1-1.1-1.1c0,0,0,0,0,0c-0.6,0-1.1,0.5-1.1,1.1c0,0.2,0.1,0.4,0.2,0.6
	l0.8,1.1c0,0,0.1,0,0.1,0l0.8-1.1C43.5,40.6,43.5,40.4,43.5,40.2z"/>
<linearGradient id="pt-3" gradientUnits="userSpaceOnUse" x1="33.2156" y1="40.3336" x2="45.7191" y2="32.8804">
	<stop  offset="0" style="stop-color:#EC1C24"/>
	<stop  offset="0.9919" style="stop-color:#F4821F"/>
</linearGradient>
<path style="fill:url(#pt-3);" d="M40.9,36.9c0.2-0.2,0.2-0.5,0.2-0.8c0-0.7-0.6-1.3-1.3-1.3c0,0,0,0,0,0
	c-0.7,0-1.3,0.6-1.3,1.3c0,0.3,0.1,0.5,0.2,0.8l0,0l1,1.3c0,0,0.1,0,0.1,0L40.9,36.9L40.9,36.9z"/>
<path style="fill:#F79721;" d="M36.9,43.5c-0.4,0.6-0.6,1.3-0.6,2c0,1.5,1,2.8,2.4,3.3c0.1,0,0.2,0,0.1-0.1c0-0.2,0-0.3,0-0.5
	c0-0.6,0.1-1.1,0.4-1.6c0,0,0,0,0,0l0.3-0.5c0,0,0,0,0,0l2.6-3.5l-2.1-2.9c0-0.1-0.1-0.1-0.2,0L36.9,43.5z"/>
<linearGradient id="pt-4" gradientUnits="userSpaceOnUse" x1="34.2199" y1="42.0358" x2="46.7004" y2="34.5962">
	<stop  offset="0" style="stop-color:#EC1C24"/>
	<stop  offset="0.9919" style="stop-color:#F4821F"/>
</linearGradient>
<path style="fill:url(#pt-4);" d="M35.5,45.5c0-0.7,0.1-1.3,0.4-1.9c0,0,0.2-0.4,0.3-0.6l3.1-4.1c0,0,0,0,0-0.1l-1.1-1.5
	l-0.1-0.2c-0.2-0.4-0.4-0.8-0.4-1.2c0-1.1,0.9-2,2-2.1l0,0c0,0,0,0,0,0c0,0,0,0,0,0l0,0c1.1,0,2,1,2,2.1c0,0.4-0.1,0.8-0.4,1.2
	l-0.1,0.2l-1.1,1.5c0,0,0,0,0,0.1l0.5,0.6c0,0,0.1,0,0.1,0c0.2-0.7,0.9-1.2,1.6-1.3v0l0.1,0v0c0.8,0,1.4,0.6,1.7,1.3
	c0,0,0.1,0,0.1,0l0.5-0.6c0,0,0,0,0-0.1l-1.2-1.6c-0.2-0.4-0.4-0.8-0.4-1.2c0-1,0.7-1.8,1.6-2c0,0,0-0.1,0-0.1
	c-1.8-1.4-4.2-2.1-6.8-1.6c-3.3,0.6-5.9,3.2-6.5,6.5c-0.9,4.3,1.5,8.1,5.1,9.6c0,0,0.1,0,0.1-0.1C36,47.7,35.5,46.7,35.5,45.5z"/>
<path style="fill:#F7981D;" d="M41.9,48.4C41.9,48.4,41.9,48.3,41.9,48.4c-0.6-0.8-1-1.8-1-2.9c0,0,0,0,0,0c0-0.1-0.1-0.1-0.1,0
	L40,46.5c-0.4,0.5-0.5,1.1-0.5,1.7c0,0.3,0,0.5,0.1,0.8c0,0,0,0,0.1,0c0.1,0,0.1,0,0.2,0c0,0,0,0,0.1,0
	C40.6,49.1,41.3,48.8,41.9,48.4z"/>
<linearGradient id="pt-5" gradientUnits="userSpaceOnUse" x1="34.6154" y1="42.6882" x2="47.1234" y2="35.2322">
	<stop  offset="0" style="stop-color:#EC1C24"/>
	<stop  offset="0.9919" style="stop-color:#F4821F"/>
</linearGradient>
<path style="fill:url(#pt-5);" d="M43.9,36.1c0,0.3,0.1,0.5,0.2,0.8l1,1.3c0,0,0.1,0,0.1,0l1-1.3c0.2-0.2,0.2-0.5,0.2-0.8
	c0-0.3-0.1-0.5-0.2-0.7c0,0,0,0,0,0c-0.1-0.1-0.2-0.2-0.3-0.3c0,0,0,0,0,0c-0.2-0.2-0.5-0.3-0.8-0.3c0,0,0,0,0,0
	C44.4,34.8,43.9,35.4,43.9,36.1z"/>
<linearGradient id="pt-6" gradientUnits="userSpaceOnUse" x1="36.6104" y1="45.927" x2="49.0626" y2="38.5044">
	<stop  offset="0" style="stop-color:#EC1C24"/>
	<stop  offset="0.9919" style="stop-color:#F4821F"/>
</linearGradient>
<path style="fill:url(#pt-6);" d="M46.8,37.3l-0.1,0.2l-1.1,1.4c0,0,0,0,0,0.1l2.3,3.1c0,0,0.1,0,0.1,0c0.1-0.4,0.1-0.9,0.1-1.4
	c0-1.4-0.3-2.7-0.9-3.9c0,0-0.1,0-0.1,0C47,37,46.9,37.1,46.8,37.3z"/>
<linearGradient id="pt-7" gradientUnits="userSpaceOnUse" x1="37.6415" y1="47.7143" x2="50.1138" y2="40.2797">
	<stop  offset="0" style="stop-color:#EC1C24"/>
	<stop  offset="0.9919" style="stop-color:#F4821F"/>
</linearGradient>
<path style="fill:url(#pt-7);" d="M45.3,39.8c-0.1-0.1-0.2-0.1-0.2,0l-2.1,2.8l2.5,3.4c0,0,0.2,0.3,0.3,0.4c0,0.1,0.2,0.1,0.2,0
	c0.8-0.9,1.5-2,1.8-3.2c0,0,0-0.1,0-0.1L45.3,39.8z"/>
<path style="opacity:0.6;" fill="#FFF" d="M64,32.4c-0.8,0-1.4-0.6-1.6-1.3C60.9,21.4,54.7,13,46,8.6c-0.8-0.4-1.1-1.4-0.7-2.1
	c0.4-0.8,1.4-1.1,2.1-0.7c9.6,4.9,16.4,14.1,18.1,24.7c0.1,0.9-0.4,1.7-1.3,1.8C64.2,32.4,64.1,32.4,64,32.4z"/>
<path style="opacity:0.6;" fill="#FFF" d="M67.1,37.5c-0.2,1.2-1.2,2-2.4,1.9c-1.2-0.2-2-1.2-1.9-2.4c0.2-1.2,1.2-2,2.4-1.9
	C66.4,35.2,67.2,36.3,67.1,37.5z"/>
</svg>
