<?xml version="1.0" encoding="utf-8"?>
<svg version="1.1" xmlns="http://www.w3.org/2000/svg" xmlns:xlink="http://www.w3.org/1999/xlink" x="0" y="0"
	 viewBox="0 0 120 120" width="120" height="120" xml:space="preserve">
<g>
	<defs>
		<path id="pt-1" d="M119.8,60c0,33-26.8,59.8-59.8,59.8C27,119.8,0.2,93,0.2,60C0.2,27,27,0.2,60,0.2C93,0.2,119.8,27,119.8,60
			z"/>
	</defs>
	<clipPath id="pt-2">
		<use xlink:href="#pt-1"  style="overflow:visible;"/>
	</clipPath>
	<polygon style="clip-path:url(#pt-2);fill:#F8A039;" points="100.4,38.4 42.7,43.2 42.5,40.8 100.1,34.5 	"/>
	<polygon style="clip-path:url(#pt-2);fill:#F8A039;" points="99.2,25.2 42.3,36.1 41.8,33.7 98.4,21.4 	"/>
	<rect x="48.7" y="80.6" style="clip-path:url(#pt-2);fill:#CFE4D2;" width="22.5" height="14.7"/>
	<path style="clip-path:url(#pt-2);fill:#CFE4D2;" d="M99.1,51.5C99.1,73,81.6,90.5,60,90.5c-21.6,0-39.1-17.5-39.1-39.1"/>
	<path style="clip-path:url(#pt-2);fill:#CFE4D2;" d="M95.2,51.5c0,19.5-15.8,35.2-35.2,35.2c-19.5,0-35.2-15.8-35.2-35.2"/>
	<path style="clip-path:url(#pt-2);fill:#FFFDF3;" d="M60,86.7c13.1,0,24.6-7.2,30.7-17.9c-5.2-7-17-12-30.7-12
		c-13.7,0-25.5,4.9-30.7,12C35.4,79.5,46.9,86.7,60,86.7z"/>
	<path style="clip-path:url(#pt-2);fill:#FFFDF3;" d="M51.4,68.7c-0.8,0-1.4-0.6-1.4-1.4V38.1c0-0.8,0.6-1.4,1.4-1.4
		c0.8,0,1.4,0.6,1.4,1.4v29.2C52.8,68,52.2,68.7,51.4,68.7z"/>
	<path style="clip-path:url(#pt-2);fill:#FFFDF3;" d="M56.5,68.7c-0.8,0-1.4-0.6-1.4-1.4V37.1c0-0.8,0.6-1.4,1.4-1.4
		c0.8,0,1.4,0.6,1.4,1.4v30.2C57.9,68.1,57.3,68.7,56.5,68.7z"/>
	<path style="clip-path:url(#pt-2);fill:#FFFDF3;" d="M61.5,68.7c-0.8,0-1.5-0.7-1.5-1.5v-31c0-0.8,0.7-1.5,1.5-1.5
		c0.8,0,1.5,0.7,1.5,1.5v31C63,68.1,62.3,68.7,61.5,68.7z"/>
	<path style="clip-path:url(#pt-2);fill:#FFFDF3;" d="M66.6,68.7c-0.8,0-1.5-0.7-1.5-1.5v-31c0-0.8,0.7-1.5,1.5-1.5
		c0.8,0,1.5,0.7,1.5,1.5v31C68.1,68.1,67.4,68.7,66.6,68.7z"/>
	<path style="clip-path:url(#pt-2);fill:#F18F45;" d="M60.6,69.8l-1.8-0.6c-1.5,4.4-4.5,7.3-9,5.8c-4.5-1.6-5.4-4.7-3.5-10.1
		l-1.8-0.6c-2.4,6.9-1.3,11,4.5,13C54.9,79.2,58.7,75.4,60.6,69.8z"/>
	<path style="clip-path:url(#pt-2);fill:#F4AA71;" d="M49.9,74.9c4.5,1.6,7.5-1.4,9-5.8l-12.5-4.3
		C44.5,70.2,45.3,73.4,49.9,74.9z"/>
	<path style="clip-path:url(#pt-2);fill:#F6CCAA;" d="M51.8,69.2c1.3,0.4,2.1-0.4,2.5-1.6l-3.5-1.2
		C50.3,67.9,50.6,68.8,51.8,69.2z"/>
	<path style="clip-path:url(#pt-2);fill:#F18F45;" d="M42.2,47.5l-1.7,0.9c2.2,4.1,2.4,8.2-1.8,10.5c-4.2,2.3-7.1,0.8-9.8-4.2
		l-1.7,0.9c3.5,6.4,7.2,8.3,12.6,5.4C45.2,58.1,45,52.8,42.2,47.5z"/>
	<path style="clip-path:url(#pt-2);fill:#F4AA71;" d="M38.7,59c4.2-2.3,4-6.5,1.8-10.5l-11.6,6.3C31.6,59.7,34.5,61.2,38.7,59z"
		/>
	<path style="clip-path:url(#pt-2);fill:#F6CCAA;" d="M35.8,53.6c1.2-0.6,1.1-1.8,0.5-2.9l-3.2,1.8
		C33.8,53.9,34.6,54.3,35.8,53.6z"/>

		<rect x="44" y="64.2" transform="matrix(0.5942 -0.8043 0.8043 0.5942 -35.0024 63.9274)" style="clip-path:url(#pt-2);fill:#9DC93B;" width="3.8" height="4.8"/>
	<polygon style="clip-path:url(#pt-2);fill:#9DC93B;" points="60.1,64.3 56.8,66 54.6,61.6 58,60 	"/>

		<rect x="69" y="56.9" transform="matrix(0.8076 0.5897 -0.5897 0.8076 48.6472 -30.3758)" style="clip-path:url(#pt-2);fill:#9DC93B;" width="3.8" height="4.8"/>

		<rect x="50.3" y="19" transform="matrix(0.8078 0.5895 -0.5895 0.8078 22.6555 -26.6597)" style="clip-path:url(#pt-2);fill:#9DC93B;" width="3.8" height="4.8"/>
	<polygon style="clip-path:url(#pt-2);fill:#9DC93B;" points="82.8,69.4 79.2,68.6 80.2,63.9 83.9,64.7 	"/>

		<rect x="88.7" y="50.7" transform="matrix(0.9365 -0.3506 0.3506 0.9365 -12.8835 35.1237)" style="clip-path:url(#pt-2);fill:#9DC93B;" width="3.8" height="4.8"/>

		<rect x="28.6" y="43.1" transform="matrix(0.9364 -0.3508 0.3508 0.9364 -14.0283 13.5754)" style="clip-path:url(#pt-2);fill:#9DC93B;" width="3.8" height="4.8"/>
	<rect x="7.5" y="95.3" style="clip-path:url(#pt-2);fill:#F8A039;" width="103.5" height="5.6"/>
</g>
<path style="opacity:0.6;" fill="#FFF" d="M7.8,61c0,0-0.1,0-0.1,0c-1.4-0.1-2.5-1.3-2.4-2.7C6.1,41,15.3,25,29.8,15.5c1.2-0.8,2.8-0.4,3.5,0.7
	c0.8,1.2,0.4,2.8-0.7,3.5c-13.2,8.6-21.5,23.1-22.3,38.8C10.3,59.9,9.1,61,7.8,61z"/>
<path style="opacity:0.6;" fill="#FFF" d="M4.1,69.7c0.5,1.9,2.3,3,4.2,2.6c1.9-0.5,3-2.3,2.6-4.2c-0.5-1.9-2.3-3-4.2-2.6
	C4.8,65.9,3.7,67.8,4.1,69.7z"/>
</svg>
