<?xml version="1.0" encoding="utf-8"?>
<svg version="1.1" xmlns="http://www.w3.org/2000/svg" xmlns:xlink="http://www.w3.org/1999/xlink" x="0" y="0"
	 viewBox="0 0 79 52" width="79" height="52" xml:space="preserve">
<path fill="#EAD321" d="M78.8,8.7c0,1.8-1.5,3.2-3.2,3.2H3.4c-1.8,0-3.2-1.4-3.2-3.2V3.2C0.2,1.4,1.6,0,3.4,0h72.2
	c1.8,0,3.2,1.4,3.2,3.2V8.7z"/>
<path fill="#7ABC7F" d="M73.5,48.8c0,1.8-1.5,3.2-3.2,3.2H8.7c-1.8,0-3.2-1.4-3.2-3.2L1.7,15.2c0-1.8,1.5-3.2,3.2-3.2h69.1
	c1.8,0,3.2,1.5,3.2,3.2L73.5,48.8z"/>
<linearGradient id="pt-1" gradientUnits="userSpaceOnUse" x1="38.7249" y1="45.3286" x2="56.4307" y2="34.7743">
	<stop  offset="0" style="stop-color:#EC1C24"/>
	<stop  offset="0.9919" style="stop-color:#F4821F"/>
</linearGradient>
<path style="fill:url(#pt-1);" d="M44.8,43.4c1.1-0.5,2.1-1.1,2.9-1.9c0,0,0-0.1,0-0.1c-0.1-0.2-0.2-0.4-0.4-0.6l-1.2-1.6
	c0-0.1-0.1,0-0.1,0c0,0,0,0,0,0.1c0,1.5-0.5,3-1.4,4.1c0,0,0,0.1,0,0.1C44.7,43.4,44.8,43.4,44.8,43.4z"/>
<path fill="#F79721" d="M44,36.2l-0.3-0.5l-0.3,0.5l0,0c-0.6,0.9-0.9,1.9-0.9,3c0,1.3,0.5,2.5,1.3,3.5
	c0.8-0.9,1.3-2.2,1.3-3.5C45,38.2,44.7,37.1,44,36.2L44,36.2z"/>
<linearGradient id="pt-2" gradientUnits="userSpaceOnUse" x1="33.4617" y1="37.6378" x2="52.2213" y2="26.4554">
	<stop  offset="0" style="stop-color:#EC1C24"/>
	<stop  offset="0.9919" style="stop-color:#F4821F"/>
</linearGradient>
<path style="fill:url(#pt-2);" d="M45.3,31.2c0-0.9-0.7-1.6-1.6-1.7c0,0,0,0,0,0c-0.9,0.1-1.6,0.8-1.6,1.7c0,0.3,0.1,0.7,0.3,1
	l1.2,1.6c0,0.1,0.1,0.1,0.2,0l1.2-1.6C45.2,31.9,45.3,31.5,45.3,31.2z"/>
<linearGradient id="pt-3" gradientUnits="userSpaceOnUse" x1="29.7778" y1="31.4555" x2="48.5363" y2="20.2737">
	<stop  offset="0" style="stop-color:#EC1C24"/>
	<stop  offset="0.9919" style="stop-color:#F4821F"/>
</linearGradient>
<path style="fill:url(#pt-3);" d="M41.2,26.3c0.2-0.3,0.4-0.7,0.4-1.1c0-1.1-0.9-2-1.9-2c0,0,0,0,0,0c-1.1,0.1-1.9,0.9-1.9,2
	c0,0.4,0.1,0.8,0.4,1.1l0,0l1.5,2c0.1,0.1,0.2,0.1,0.2,0L41.2,26.3L41.2,26.3z"/>
<path fill="#F79721" d="M35.3,36.2c-0.6,0.9-0.9,1.9-0.9,3c0,2.3,1.5,4.3,3.5,5c0.1,0,0.2-0.1,0.2-0.2c0-0.2-0.1-0.5-0.1-0.7
	c0-0.9,0.2-1.7,0.6-2.4c0,0,0,0,0,0l0.4-0.7c0,0,0,0,0,0l3.9-5.3l-3.2-4.3c-0.1-0.1-0.2-0.1-0.3,0L35.3,36.2z"/>
<linearGradient id="pt-4" gradientUnits="userSpaceOnUse" x1="31.2867" y1="34.0071" x2="50.0066" y2="22.8484">
	<stop  offset="0" style="stop-color:#EC1C24"/>
	<stop  offset="0.9919" style="stop-color:#F4821F"/>
</linearGradient>
<path style="fill:url(#pt-4);" d="M33.3,39.3c0-1,0.2-1.9,0.6-2.8c0,0,0.3-0.6,0.5-0.9l4.6-6.2c0,0,0-0.1,0-0.1l-1.6-2.2
	l-0.2-0.2c-0.4-0.5-0.6-1.1-0.6-1.8c0-1.7,1.3-3.1,3-3.1v0c0,0,0,0,0,0c0,0,0,0,0,0v0c1.7,0.1,3,1.4,3,3.1c0,0.6-0.2,1.3-0.6,1.8
	l-0.2,0.2l-1.6,2.2c0,0,0,0.1,0,0.1l0.7,0.9c0,0,0.1,0,0.1,0c0.4-1.1,1.3-1.8,2.5-1.9v0h0.1v0c1.2,0.1,2.1,0.8,2.5,1.9
	c0,0.1,0.1,0.1,0.1,0l0.7-0.9c0,0,0-0.1,0-0.1l-1.8-2.4c-0.4-0.5-0.6-1.1-0.6-1.8c0-1.5,1.1-2.7,2.5-3c0.1,0,0.1-0.1,0-0.1
	c-2.7-2.1-6.4-3.1-10.2-2.3c-4.9,1-8.8,4.8-9.8,9.7c-1.3,6.4,2.3,12.2,7.7,14.4c0.1,0,0.1-0.1,0.1-0.1
	C33.9,42.4,33.3,40.9,33.3,39.3z"/>
<path fill="#F7981D" d="M42.8,43.5c0,0,0-0.1,0-0.1c-1-1.1-1.5-2.6-1.5-4.2c0,0,0,0,0-0.1c0-0.1-0.1-0.1-0.1-0.1l-1.2,1.6
	c-0.5,0.8-0.8,1.7-0.8,2.6c0,0.4,0.1,0.8,0.2,1.2c0,0,0,0.1,0.1,0.1c0.1,0,0.2,0,0.3,0c0,0,0.1,0,0.1,0
	C40.9,44.6,41.9,44.2,42.8,43.5z"/>
<linearGradient id="pt-5" gradientUnits="userSpaceOnUse" x1="31.8828" y1="34.9838" x2="50.6399" y2="23.8029">
	<stop  offset="0" style="stop-color:#EC1C24"/>
	<stop  offset="0.9919" style="stop-color:#F4821F"/>
</linearGradient>
<path style="fill:url(#pt-5);" d="M45.8,25.1c0,0.4,0.1,0.8,0.4,1.1l1.5,2c0.1,0.1,0.2,0.1,0.2,0l1.5-2c0.2-0.3,0.4-0.7,0.4-1.1
	c0-0.4-0.1-0.7-0.3-1.1c0,0,0,0,0,0c-0.1-0.2-0.2-0.3-0.4-0.4c0,0,0,0,0,0c-0.3-0.3-0.8-0.5-1.2-0.5c0,0,0,0,0,0
	C46.6,23.2,45.8,24,45.8,25.1z"/>
<linearGradient id="pt-6" gradientUnits="userSpaceOnUse" x1="34.8719" y1="39.8436" x2="53.5482" y2="28.7109">
	<stop  offset="0" style="stop-color:#EC1C24"/>
	<stop  offset="0.9919" style="stop-color:#F4821F"/>
</linearGradient>
<path style="fill:url(#pt-6);" d="M50.1,26.9L50,27.1l-1.6,2.2c0,0,0,0.1,0,0.1l3.4,4.6c0,0.1,0.1,0,0.2,0
	c0.1-0.7,0.2-1.3,0.2-2c0-2.1-0.5-4.1-1.4-5.8c0-0.1-0.1-0.1-0.2,0C50.4,26.4,50.3,26.7,50.1,26.9z"/>
<linearGradient id="pt-7" gradientUnits="userSpaceOnUse" x1="36.4211" y1="42.5233" x2="55.125" y2="31.3741">
	<stop  offset="0" style="stop-color:#EC1C24"/>
	<stop  offset="0.9919" style="stop-color:#F4821F"/>
</linearGradient>
<path style="fill:url(#pt-7);" d="M47.8,30.6c-0.1-0.1-0.2-0.1-0.3,0l-3.2,4.3l3.7,5c0,0,0.3,0.5,0.4,0.6c0.1,0.1,0.2,0.1,0.3,0
	c1.2-1.4,2.2-3,2.7-4.8c0-0.1,0-0.1,0-0.2L47.8,30.6z"/>
</svg>
