<?xml version="1.0" encoding="utf-8"?>
<svg version="1.1" xmlns="http://www.w3.org/2000/svg" xmlns:xlink="http://www.w3.org/1999/xlink" x="0" y="0"
	 viewBox="0 0 25 38" width="25" height="38" xml:space="preserve">
<path fill="#FAA81C" d="M0.1,10.6c0-1.6,0.5-3.2,1.5-4.8c1-1.6,2.5-2.9,4.4-4c1.9-1.1,4.2-1.6,6.8-1.6c2.4,0,4.5,0.4,6.4,1.3
	c1.8,0.9,3.3,2.1,4.3,3.6c1,1.5,1.5,3.2,1.5,5c0,1.4-0.3,2.6-0.9,3.7c-0.6,1.1-1.2,2-2,2.7c-0.8,0.8-2.2,2.1-4.2,3.9
	c-0.6,0.5-1,1-1.4,1.4c-0.3,0.4-0.6,0.7-0.8,1.1c-0.2,0.3-0.3,0.6-0.4,1c-0.1,0.3-0.2,0.9-0.4,1.7c-0.3,1.7-1.3,2.6-3,2.6
	c-0.9,0-1.6-0.3-2.2-0.8c-0.6-0.6-0.9-1.4-0.9-2.5c0-1.4,0.2-2.6,0.6-3.6c0.4-1,1-1.9,1.7-2.7c0.7-0.8,1.7-1.7,2.9-2.7
	c1.1-0.9,1.8-1.6,2.3-2.1c0.5-0.5,0.9-1,1.2-1.6c0.3-0.6,0.5-1.2,0.5-1.9c0-1.3-0.5-2.4-1.5-3.4c-1-0.9-2.3-1.4-3.8-1.4
	c-1.8,0-3.2,0.5-4,1.4c-0.9,0.9-1.6,2.3-2.2,4.1C6,12.8,5,13.7,3.4,13.7c-0.9,0-1.7-0.3-2.3-1C0.4,12.1,0.1,11.3,0.1,10.6z
	 M12.2,37.8c-1,0-1.9-0.3-2.6-1c-0.8-0.7-1.1-1.6-1.1-2.7c0-1,0.4-1.9,1.1-2.6c0.7-0.7,1.6-1.1,2.7-1.1c1,0,1.9,0.4,2.6,1.1
	c0.7,0.7,1.1,1.6,1.1,2.6c0,1.2-0.4,2.1-1.1,2.7C14,37.5,13.2,37.8,12.2,37.8z"/>
</svg>
