<?xml version="1.0" encoding="utf-8"?>
<svg version="1.1" xmlns="http://www.w3.org/2000/svg" xmlns:xlink="http://www.w3.org/1999/xlink" x="0" y="0"
	 viewBox="0 0 31 30" width="31" height="30" xml:space="preserve">
<path fill="#DE627C" d="M22.6,0.4c0.4,0,0.9,0,1.4,0.1c3,0.3,6.5,3.1,7,8.4c0,0,0,0.1,0,0.1v1.7c0,0,0,0.1,0,0.1
	c-0.4,5-4.1,11.1-14.8,18.7c-0.4,0.3-0.9,0.3-1.3,0C4.1,21.8,0.4,15.7,0,10.7c0,0,0-0.1,0-0.1V8.9c0,0,0-0.1,0-0.1
	C0.5,3.5,4,0.7,7,0.4c0.5,0,1-0.1,1.4-0.1c3,0,4.7,1.1,6.3,2.9c0.4,0.5,1.2,0.5,1.7,0C18,1.5,19.6,0.4,22.6,0.4"/>
<path fill="#D61E45" d="M15.5,3.6c-0.3,0-0.6-0.1-0.8-0.4C13,1.5,11.4,0.4,8.4,0.4c-0.4,0-0.9,0-1.4,0.1C4,0.7,0.5,3.5,0,8.8
	c0,0,0,0.1,0,0.1v1.7c0,0,0,0.1,0,0.1c0.4,5,4.1,11.1,14.8,18.7c0.2,0.1,0.4,0.2,0.7,0.2V3.6z"/>
</svg>
