<?xml version="1.0" encoding="utf-8"?>
<svg version="1.1" xmlns="http://www.w3.org/2000/svg" xmlns:xlink="http://www.w3.org/1999/xlink" x="0" y="0"
	 viewBox="0 0 22 30" width="22" height="30" xml:space="preserve">
<path style="fill:#EAD321;" d="M21.4,14.1c0.5,0.1,0.5,0.8,0,1c-2,0.7-5.3,2-6.4,3.1c-0.9,0.9-2.5,7.7-3.3,11.4
	c-0.1,0.6-0.9,0.6-1,0c-0.8-3.7-2.3-10.1-3.5-11.3c-0.9-0.9-4.5-2.4-6.5-3.2c-0.5-0.2-0.5-0.8,0-1c2-0.7,5.4-1.9,6.4-2.9
	c1.1-1.1,2.7-7.3,3.6-10.7c0.1-0.6,0.9-0.5,1,0c0.8,3.5,2.3,9.9,3.3,10.9C16,12.4,19.3,13.5,21.4,14.1z"/>
</svg>
