<?xml version="1.0" encoding="utf-8"?>
<svg version="1.1" xmlns="http://www.w3.org/2000/svg" xmlns:xlink="http://www.w3.org/1999/xlink" x="0" y="0"
	 viewBox="0 0 160 160" width="160" height="160" xml:space="preserve">
<path fill="#FAA81E" d="M109.9,106.9l-2.2-2.9l-2.1,2.9l-0.1,0.1c-3.9,5.7-6,12.3-6,19.2c0,8.4,3.1,16.2,8.3,22.1
	c5.1-5.9,8.3-13.6,8.3-22.1c0-6.9-2-13.5-5.9-19.1L109.9,106.9z"/>
<path fill="#FAA81E" d="M54.6,107c-3.9,5.7-6,12.3-6,19.2c0,14.6,9.3,27.1,22.4,31.8c0.7,0.3,1.5-0.4,1.4-1.1
	c-0.2-1.5-0.3-3.1-0.3-4.7c0-5.5,1.2-10.7,3.6-15.5c0,0,0-0.1,0-0.1l2.8-4.7c0,0,0-0.1,0.1-0.1l24.9-33.6L83.1,70.9
	c-0.4-0.6-1.3-0.6-1.7,0L54.6,107z"/>
<path fill="#F7981D" d="M102.2,153.5c0.2-0.2,0.3-0.5,0.1-0.8c-6.1-7.1-9.8-16.3-9.8-26.4c0-0.1,0-0.2,0-0.4
	c0-0.5-0.6-0.7-0.9-0.3l-7.5,10.1c-3.4,4.9-5.2,10.6-5.2,16.5c0,2.6,0.4,5,1,7.4c0.1,0.2,0.3,0.4,0.5,0.4c0.6,0,1.2,0.1,1.8,0.1
	c0.2,0,0.4,0,0.7,0C90.1,159.9,96.8,157.5,102.2,153.5z"/>
<linearGradient id="pt-1" gradientUnits="userSpaceOnUse" x1="159.9839" y1="93.2477" x2="160" y2="93.2477">
	<stop  offset="0" style="stop-color:#EC1C24"/>
	<stop  offset="0.9919" style="stop-color:#F4821F"/>
</linearGradient>
<path style="fill:url(#pt-1);" d="M160,93.3L160,93.3C160,93.2,160,93.3,160,93.3C160,93.3,160,93.3,160,93.3z"/>
<linearGradient id="pt-2" gradientUnits="userSpaceOnUse" x1="7.331570e-02" y1="40.0957" x2="159.3862" y2="40.0957">
	<stop  offset="0" style="stop-color:#EC1C24"/>
	<stop  offset="0.9919" style="stop-color:#F4821F"/>
</linearGradient>
<path style="fill:url(#pt-2);" d="M133.9,56.2l9.2-12.4l0.1-0.1c1.5-2.1,2.2-4.6,2.2-7.2c0-6.9-5.4-12.5-12.2-12.8
	c0,0-0.1,0-0.1,0c-6.8,0.4-12.2,6-12.2,12.8c0,2.6,0.8,5.1,2.2,7.2l0.1,0.1l9.2,12.4C132.8,56.7,133.5,56.7,133.9,56.2z"/>
<linearGradient id="pt-3" gradientUnits="userSpaceOnUse" x1="7.279817e-02" y1="40.0957" x2="159.3857" y2="40.0957">
	<stop  offset="0" style="stop-color:#EC1C24"/>
	<stop  offset="0.9919" style="stop-color:#F4821F"/>
</linearGradient>
<path style="fill:url(#pt-3);" d="M83,56.2l9.2-12.4l0.1-0.1c1.5-2.1,2.2-4.6,2.2-7.2c0-6.9-5.4-12.5-12.2-12.8c0,0-0.1,0-0.1,0
	C75.4,24,70,29.6,70,36.5c0,2.6,0.8,5.1,2.2,7.2l0.1,0.1l9.2,12.4C81.9,56.7,82.6,56.7,83,56.2z"/>
<linearGradient id="pt-4" gradientUnits="userSpaceOnUse" x1="7.164937e-02" y1="77.9763" x2="159.3867" y2="77.9763">
	<stop  offset="0" style="stop-color:#EC1C24"/>
	<stop  offset="0.9919" style="stop-color:#F4821F"/>
</linearGradient>
<path style="fill:url(#pt-4);" d="M107.7,64.3c0,0-0.1,0-0.1,0c-5.7,0.3-10.1,5-10.1,10.7c0,2.2,0.6,4.3,1.9,6l7.7,10.4
	c0.3,0.4,0.9,0.4,1.2,0L116,81c1.3-1.8,1.9-3.9,1.9-6.1C117.9,69.3,113.4,64.6,107.7,64.3z"/>
<linearGradient id="pt-5" gradientUnits="userSpaceOnUse" x1="0" y1="79.9597" x2="159.3141" y2="79.9597">
	<stop  offset="0" style="stop-color:#EC1C24"/>
	<stop  offset="0.9919" style="stop-color:#F4821F"/>
</linearGradient>
<path style="fill:url(#pt-5);" d="M0,0v160h60.3c-3.3-1.9-8-6.2-8-6.3c-6.6-7.2-10.7-16.9-10.7-27.4c0-6.2,1.4-12.2,4.1-17.7
	c0,0,2-3.8,3.3-5.6l29.2-39.2c0.1-0.2,0.1-0.4,0-0.5L67.7,49.3l-1-1.5c-2.4-3.3-3.6-7.3-3.6-11.4c0-10.7,8.5-19.4,19.1-19.8v0
	c0,0,0,0,0.1,0c0,0,0,0,0.1,0v0c10.6,0.4,19.1,9.1,19.1,19.8c0,4.1-1.2,8-3.6,11.4l-1,1.5L86.4,63.2c-0.1,0.2-0.1,0.4,0,0.5l4.3,5.8
	c0.2,0.3,0.7,0.2,0.8-0.1c2.2-6.7,8.3-11.6,15.7-12v0l0.9,0l0,0c7.5,0.4,13.6,5.3,15.8,12.1c0.1,0.3,0.6,0.4,0.8,0.1l4.3-5.8
	c0.1-0.2,0.1-0.4,0-0.5l-11.4-15.3c-2.4-3.3-3.6-7.3-3.6-11.4c0-9.5,6.7-17.4,15.6-19.3c0,0,2.6-0.4,3.5-0.5v0c0,0,0,0,0.1,0
	c0,0,0,0,0.1,0v0c10.5,0.4,19,9.1,19,19.8c0,1.8-0.8,6.3-0.9,6.6c-0.6,1.7-1.4,3.3-2.5,4.8l-1.1,1.5l-10.3,13.8
	c-0.1,0.2-0.1,0.5,0,0.7l21.8,29.3c0.2,0.3,0.6,0.3,0.8,0.1V0H0z"/>
<linearGradient id="pt-6" gradientUnits="userSpaceOnUse" x1="140.5239" y1="26.3958" x2="140.5239" y2="26.3958">
	<stop  offset="0" style="stop-color:#EC1C24"/>
	<stop  offset="0.9919" style="stop-color:#F4821F"/>
</linearGradient>
<path style="fill:url(#pt-6);" d="M140.5,26.4"/>
<linearGradient id="pt-7" gradientUnits="userSpaceOnUse" x1="7.243860e-02" y1="115.2759" x2="159.3864" y2="115.2759">
	<stop  offset="0" style="stop-color:#EC1C24"/>
	<stop  offset="0.9919" style="stop-color:#F4821F"/>
</linearGradient>
<path style="fill:url(#pt-7);" d="M156.9,101.6l-22.7-30.5c-0.5-0.7-1.5-0.7-2.1,0l-20.1,27l23.7,32c0,0,2,2.8,2.4,3.5
	l19.4,26.3c1.5,0,2.4,0,2.4,0V106C159.5,105.4,157.1,102.1,156.9,101.6z"/>
<linearGradient id="pt-8" gradientUnits="userSpaceOnUse" x1="7.233133e-02" y1="142.6694" x2="159.3869" y2="142.6694">
	<stop  offset="0" style="stop-color:#EC1C24"/>
	<stop  offset="0.9919" style="stop-color:#F4821F"/>
</linearGradient>
<path style="fill:url(#pt-8);" d="M102.4,159.9c1.7,0,30.7,0,46.9,0l-19.1-25.8l0,0l-6.4-8.6c-0.3-0.4-0.9-0.2-0.9,0.3
	c0,0.1,0,0.2,0,0.3c0,9.7-2.4,19.6-8.8,26C107.2,159.1,102.9,159.9,102.4,159.9z"/>
</svg>
