<?xml version="1.0" encoding="utf-8"?>
<svg version="1.1" xmlns="http://www.w3.org/2000/svg" xmlns:xlink="http://www.w3.org/1999/xlink" x="0" y="0"
	 viewBox="0 0 295 112" width="295" height="112" xml:space="preserve">
<path fill="#FFF" d="M285,93.1h-67.6c-4.3,0-7.7-3.5-7.7-7.7c0-4.3,3.5-7.7,7.7-7.7h3.7c8.5,0,15.4-6.9,15.4-15.4
	c0-8.5-6.9-15.4-15.4-15.4H214c-4.3,0-7.7-3.5-7.7-7.7s3.5-7.7,7.7-7.7h4c8.5,0,15.4-6.9,15.4-15.4c0-8.5-6.9-15.4-15.4-15.4H60
	c-8.5,0-15.4,6.9-15.4,15.4c0,8.5,6.9,15.4,15.4,15.4h3.4c4.3,0,7.7,3.5,7.7,7.7s-3.5,7.7-7.7,7.7H16.3c-8.5,0-15.4,6.9-15.4,15.4
	c0,8.5,6.9,15.4,15.4,15.4h106.6c4.3,0,7.7,3.5,7.7,7.7c0,4.3-3.5,7.7-7.7,7.7h-0.4c-5.1,0-9.2,4.1-9.2,9.2c0,5.1,4.1,9.2,9.2,9.2
	H285c5.1,0,9.2-4.1,9.2-9.2C294.2,97.2,290.1,93.1,285,93.1z"/>
</svg>
