<?xml version="1.0" encoding="utf-8"?>
<svg version="1.1" xmlns="http://www.w3.org/2000/svg" xmlns:xlink="http://www.w3.org/1999/xlink" x="0" y="0"
	 viewBox="0 0 203 111" width="203" height="111" xml:space="preserve">
<path fill="#FFF" d="M188.8,41.8h-28.5c-3.8,0-6.9-3.1-6.9-6.9c0-3.8,3.1-6.9,6.9-6.9h5.2c7.6,0,13.7-6.2,13.7-13.7
	c0-7.6-6.2-13.7-13.7-13.7H57.1c-7.6,0-13.7,6.2-13.7,13.7c0,7.6,6.2,13.7,13.7,13.7h5.2c3.8,0,6.9,3.1,6.9,6.9
	c0,3.8-3.1,6.9-6.9,6.9h-48c-7.6,0-13.7,6.1-13.7,13.7c0,7.6,6.2,13.8,13.7,13.8h97c3.8,0,6.9,3.1,6.9,6.9c0,3.8-3.1,6.9-6.9,6.9
	H85.2c-7.6,0-13.7,6.1-13.7,13.7c0,7.6,6.2,13.7,13.7,13.7h84.9c7.6,0,13.7-6.2,13.7-13.7c0-7.6-6.2-13.7-13.7-13.7h-8
	c-3.8,0-6.9-3.1-6.9-6.9c0-3.8,3.1-6.9,6.9-6.9h26.6c7.6,0,13.8-6.2,13.8-13.8C202.5,47.9,196.3,41.8,188.8,41.8z"/>
</svg>
