<?xml version="1.0" encoding="utf-8"?>
<svg version="1.1" xmlns="http://www.w3.org/2000/svg" xmlns:xlink="http://www.w3.org/1999/xlink" x="0" y="0"
	 viewBox="0 0 255 81" width="255" height="81" xml:space="preserve">
<path fill="#FFF" d="M247.7,67.1h-48.3c-3,0-5.5-2.5-5.5-5.5c0-3.1,2.5-5.5,5.5-5.5h2.7c6.1,0,11-4.9,11-11
	c0-6.1-4.9-11-11-11h-67.5c-3.1,0-5.5-2.5-5.5-5.5s2.5-5.5,5.5-5.5H147c6.1,0,11-4.9,11-11c0-6.1-4.9-11-11-11H43.1
	c-6.1,0-11,4.9-11,11c0,6.1,4.9,11,11,11h2.5c3,0,5.5,2.5,5.5,5.5s-2.5,5.5-5.5,5.5H11.8c-6.1,0-11,4.9-11,11c0,6.1,4.9,11,11,11
	h120c3,0,5.5,2.5,5.5,5.5c0,3-2.5,5.5-5.5,5.5h-0.3c-3.6,0-6.6,2.9-6.6,6.6c0,3.6,2.9,6.6,6.6,6.6h116.2c3.6,0,6.6-2.9,6.6-6.6
	C254.3,70,251.3,67.1,247.7,67.1z"/>
</svg>
