<?xml version="1.0" encoding="utf-8"?>
<svg version="1.1" xmlns="http://www.w3.org/2000/svg" xmlns:xlink="http://www.w3.org/1999/xlink" x="0" y="0"
	 viewBox="0 0 145 80" width="145" height="80" xml:space="preserve">
<path fill="#FFF" d="M134.9,30.2h-20.4c-2.7,0-4.9-2.2-4.9-4.9c0-2.7,2.2-4.9,4.9-4.9h3.7c5.4,0,9.8-4.4,9.8-9.8
	c0-5.4-4.4-9.8-9.8-9.8H40.7c-5.4,0-9.8,4.4-9.8,9.8c0,5.4,4.4,9.8,9.8,9.8h3.7c2.7,0,4.9,2.2,4.9,4.9c0,2.7-2.2,4.9-4.9,4.9H10.1
	c-5.4,0-9.8,4.4-9.8,9.8c0,5.4,4.4,9.8,9.8,9.8h69.4c2.7,0,4.9,2.2,4.9,4.9c0,2.7-2.2,4.9-4.9,4.9H60.8c-5.4,0-9.8,4.4-9.8,9.8
	c0,5.4,4.4,9.8,9.8,9.8h60.7c5.4,0,9.8-4.4,9.8-9.8c0-5.4-4.4-9.8-9.8-9.8h-5.7c-2.7,0-4.9-2.2-4.9-4.9c0-2.7,2.2-4.9,4.9-4.9h19
	c5.4,0,9.8-4.4,9.8-9.8C144.7,34.6,140.3,30.2,134.9,30.2z"/>
</svg>
