<?xml version="1.0" encoding="utf-8"?>
<svg version="1.1" xmlns="http://www.w3.org/2000/svg" xmlns:xlink="http://www.w3.org/1999/xlink" x="0" y="0"
	 viewBox="0 0 107 40" width="107" height="40" xml:space="preserve">
<path fill="#FFFFFB" d="M102.1,15H57.8c-1.4,0-2.5-1.1-2.5-2.5c0-1.4,1.1-2.5,2.5-2.5h1.9c2.8,0,5-2.2,5-5c0-2.8-2.2-5-5-5
	H20.4c-2.8,0-5,2.2-5,5c0,2.7,2.2,5,5,5h1.9c1.4,0,2.5,1.1,2.5,2.5c0,1.4-1.1,2.5-2.5,2.5H4.9c-2.7,0-5,2.2-5,5c0,2.8,2.2,5,5,5H40
	c1.4,0,2.5,1.1,2.5,2.5S41.4,30,40,30h-9.5c-2.7,0-5,2.2-5,5s2.2,5,5,5h39.3c2.8,0,5-2.2,5-5s-2.2-5-5-5H58.5
	c-1.4,0-2.5-1.1-2.5-2.5s1.1-2.5,2.5-2.5h43.6c2.8,0,5-2.2,5-5C107.1,17.3,104.9,15,102.1,15z"/>
</svg>
