<?xml version="1.0" encoding="utf-8"?>
<svg version="1.1" xmlns="http://www.w3.org/2000/svg" xmlns:xlink="http://www.w3.org/1999/xlink" x="0" y="0"
	 viewBox="0 0 68 37" width="68" height="37" xml:space="preserve">
<path fill="#EFB97C" d="M48.2,21.7c-0.4,0.5-0.4,1.2,0.1,1.7l0.7,0.6c0.5,0.4,1.2,0.4,1.7-0.1l0,0c0.4-0.5,0.4-1.2-0.1-1.7
	l-0.7-0.6C49.4,21.2,48.6,21.2,48.2,21.7L48.2,21.7z"/>
<path fill="#595757" d="M29.8,29.5c0,4.2,3.4,7.5,7.5,7.5c4.2,0,7.5-3.4,7.5-7.5"/>
<path fill="#595757" d="M8.8,22c4.2,0,7.5,3.4,7.5,7.5l0,0c0,4.2-3.4,7.5-7.5,7.5c-4.2,0-7.5-3.4-7.5-7.5
	C1.2,25.3,4.6,22,8.8,22z"/>
<path fill="#F69454" d="M47.6,29.9c0.6,0,1.2,0,1.8,0c0,0,1.7-0.1,1.7-1.8c0-1.7-1.9-7-5.4-9c-3.6-2-18.1-1.4-18.1-1.4
	s-5.2,2.1-5.2,7.8c0,1.3,0.5,2.7,1.5,3.6c0.9,0.8,1.6,0.9,2.8,0.9"/>
<path fill="#F8EF6E" d="M26.4,17.3c0.1-4.4,6.6-4.6,9.7-4.5c2.2,0,4.4,0.1,6.4,0.8c1.7,0.6,3.9,1.8,3.9,3.9
	c0,1.7-1.9,3-3.3,3.6c-2.7,1.1-5.7,1-8.6,0.8c-2.3-0.1-5-0.2-6.9-1.8C27,19.5,26.4,18.3,26.4,17.3z"/>
<path fill="#F69454" d="M16.4,28.8c0,0.6,0.4,1,0.9,1h8.4c0.5,0,0.9-0.5,0.9-1v-2.5c0-0.6-0.4-1-0.9-1h-8.4
	c-0.5,0-0.9,0.5-0.9,1V28.8z"/>
<ellipse fill="fill:#EFB97C;" cx="12.6" cy="5.5" rx="1.3" ry="3.5"/>
<path fill="#F69454" d="M5.5,19.8c0.3-0.5,1.8-2.3,4.4-5.9c1.8-2.4,3.1-4.1,3.9-5.2c-0.5,0.2-1,0.3-1.5,0.3l0.2-7.1
	c1,0,1.9,0.5,2.5,1.2c0.6-0.3,1.3-0.4,2-0.4c2.1,0,3.8,1.2,3.8,2.7c0,1.3-1.3,2.3-3,2.6l-0.1,0.5c0,0.1,0,0.2,0,0.3
	C17.4,10.8,15.9,19.3,17,24c0.3,0.6,0.6,1.3,0.8,2.1c0,0,0,0,0,0c0,0,0,0,0,0c0.3,1.2,0.3,2.5,0.1,3.8L0,26.6
	C0.6,23.4,2.7,20.9,5.5,19.8z"/>
<path fill="#65887A" d="M18,3.4c0,0.4,0.3,0.7,0.8,0.7h5.8c0.4,0,0.7-0.3,0.7-0.7l0,0c0-0.4-0.3-0.7-0.7-0.7h-5.8
	C18.3,2.7,18,3,18,3.4L18,3.4z"/>
<path style="opacity:0.5;" fill="#FFF" d="M45.3,15.4c0,1-0.8,1.8-1.8,1.8H31.1c-1,0-1.8-0.8-1.8-1.8V1.9c0-1,0.8-1.8,1.8-1.8h12.4
	c1,0,1.8,0.8,1.8,1.8V15.4z"/>
<path style="opacity:0.5;" fill="#FFF" d="M43.5,17.3H31.1c-1,0-1.9-0.9-1.9-1.9V1.9c0-1,0.8-1.9,1.9-1.9h12.4c1,0,1.9,0.8,1.9,1.9
	v13.5C45.4,16.4,44.5,17.3,43.5,17.3z M31.1,0.1c-1,0-1.8,0.8-1.8,1.8v13.5c0,1,0.8,1.8,1.8,1.8h12.4c1,0,1.8-0.8,1.8-1.8V1.9
	c0-1-0.8-1.8-1.8-1.8H31.1z"/>
<g>
	<path fill="#A2CE7A" d="M42.2,8.3c0,0-0.2,0.4-0.4,1c-0.1,0.2-0.1,0.3-0.2,0.5c-0.1,0.2-0.1,0.4-0.2,0.5
		c-0.1,0.4-0.3,0.8-0.4,1.2c-0.1,0.2-0.1,0.4-0.2,0.6c-0.1,0.2-0.1,0.4-0.2,0.6c-0.1,0.4-0.2,0.7-0.3,1c-0.1,0.3-0.2,0.6-0.2,0.7
		c0,0.2-0.1,0.3-0.1,0.3c-0.2,0.7-0.9,1.1-1.6,0.9c-0.7-0.2-1.1-0.9-0.9-1.6c0-0.1,0.1-0.2,0.1-0.3c0,0,0-0.1,0.1-0.3
		c0.1-0.2,0.2-0.4,0.3-0.7c0.1-0.3,0.3-0.6,0.4-1c0.1-0.2,0.2-0.4,0.2-0.6c0.1-0.2,0.2-0.4,0.2-0.6c0.2-0.4,0.3-0.8,0.5-1.2
		c0.1-0.2,0.1-0.4,0.2-0.5c0.1-0.2,0.1-0.3,0.2-0.5c0.2-0.6,0.4-1,0.4-1c0.2-0.6,0.8-0.9,1.4-0.7c0.6,0.2,0.9,0.8,0.7,1.4
		C42.2,8.2,42.2,8.3,42.2,8.3"/>
	<path fill="#94BC79" d="M40.1,10.2C40,10.2,40,10.2,40.1,10.2c-0.2-0.1-0.3-0.2-0.3-0.4l0.9-2.3c0.1-0.1,0.2-0.2,0.3-0.2
		c0.1,0.1,0.2,0.2,0.2,0.3L40.3,10C40.3,10.1,40.2,10.2,40.1,10.2z"/>
	<path fill="#94BC79" d="M39.5,11.7C39.5,11.7,39.4,11.7,39.5,11.7c-0.2-0.1-0.3-0.2-0.2-0.4l0.3-0.8
		c0.1-0.1,0.2-0.2,0.3-0.2c0.1,0.1,0.2,0.2,0.2,0.3l-0.3,0.8C39.7,11.6,39.6,11.7,39.5,11.7z"/>
	<path fill="#94BC79" d="M38.2,15.1C38.2,15.1,38.1,15.1,38.2,15.1c-0.2-0.1-0.3-0.2-0.3-0.4l1.1-2.8
		c0.1-0.1,0.2-0.2,0.3-0.2c0.1,0.1,0.2,0.2,0.2,0.3l-1,2.8C38.4,15,38.3,15.1,38.2,15.1z"/>
	<path fill="#A2CE7A" d="M36.7,9c0.2-0.4,0.3-1,0.2-1.5c-0.2-0.7-0.7-1.2-1.4-1.4c0-0.2,0-0.3,0-0.5c-0.2-0.6-0.8-1-1.4-0.8
		c0,0,0,0-0.1,0c-0.5-0.4-1.2-0.6-1.8-0.4c-0.8,0.2-1.3,0.8-1.5,1.6c-0.1,0-0.1,0-0.2,0c-0.8,0.2-1.2,1-1,1.8
		c0.1,0.2,0.1,0.4,0.3,0.5c-0.2,0.3-0.2,0.7-0.1,1.1c0.1,0.5,0.5,0.9,1,1c0,0.2,0,0.4,0.1,0.6c0.3,1.1,1.4,1.7,2.5,1.4
		c0.5-0.1,0.9-0.5,1.2-0.9c0.3,0.1,0.6,0.1,1,0c1.1-0.3,1.7-1.4,1.4-2.5C36.8,9,36.7,9,36.7,9z"/>
	<path fill="#E1EFD6" d="M36.5,14.1l-1.6-5c-0.1-0.2-0.3-0.3-0.5-0.3l-0.2-0.8c0-0.1-0.2-0.2-0.3-0.2c-0.1,0-0.1,0.1-0.2,0.2
		l-0.1-0.3c-0.1-0.2-0.3-0.4-0.6-0.3c-0.3,0.1-0.4,0.3-0.4,0.6l0.1,0.4c-0.1,0-0.1-0.1-0.2,0c-0.1,0-0.2,0.2-0.2,0.3l0.2,0.6
		c-0.2,0.1-0.3,0.3-0.3,0.5l1,5.1c0,0,0,0.1,0,0.1c0.1,0.4,0.6,0.6,1,0.5c0,0,0,0,0,0c0.2,0.4,0.6,0.6,0.9,0.4
		c0.4-0.1,0.6-0.5,0.5-0.8c0,0,0.1,0,0.1,0C36.4,15,36.6,14.6,36.5,14.1z"/>
	<path fill="#94BC79" d="M44,2c-0.1-0.2-0.4-0.4-0.6-0.3l-0.6,0.2l0.3-0.7c0.1-0.2,0-0.5-0.2-0.6c-0.2-0.1-0.5,0-0.6,0.2
		l-0.3,0.7l-0.2-0.6c-0.1-0.2-0.4-0.4-0.6-0.3c-0.2,0.1-0.4,0.3-0.3,0.6c-0.2,0.1-0.3,0.3-0.3,0.6c-0.2,0.1-0.3,0.3-0.3,0.6
		C40,2.4,39.9,2.6,40,2.8c-0.2,0.1-0.3,0.3-0.3,0.6c-0.2,0.1-0.3,0.4-0.3,0.6l0.4,1.1c0.1,0.2,0.2,0.3,0.4,0.3l-0.8,1.7
		c-0.1,0.2,0,0.4,0.2,0.5c0,0,0.1,0,0.2,0c0.1,0,0.3-0.1,0.3-0.2l0.8-1.7c0.1,0.1,0.3,0.2,0.5,0.1l1.1-0.4c0.2-0.1,0.4-0.3,0.3-0.6
		C42.9,4.7,43,4.5,43,4.2c0.2-0.1,0.3-0.3,0.3-0.5c0.2-0.1,0.3-0.3,0.3-0.6c0.2-0.1,0.3-0.3,0.3-0.6C44,2.5,44.1,2.2,44,2z"/>
	<path fill="#F5C554" d="M41.2,8.5c0.3-1-0.2-2-1.2-2.4c-1-0.3-2,0.2-2.3,1.2l-0.1,0.4l1.6,0.8c0.1,0,0.1,0.1,0.1,0.2
		c0,0.1-0.1,0.1-0.2,0.1L37.4,8l-0.1,0.3L38.9,9c0.1,0,0.1,0.1,0.1,0.2c0,0.1-0.1,0.1-0.2,0.1l-1.5-0.7l-0.1,0.3l1.5,0.7
		c0.1,0,0.1,0.1,0.1,0.2c0,0.1-0.1,0.1-0.2,0.1L37,9.2l-1.8,5.7c-0.1,0.4,0,0.8,0.3,1c0.4,0.2,0.9,0.1,1.2-0.3L41,8.9
		C41.1,8.8,41.1,8.6,41.2,8.5"/>
	<path fill="#F18F45" d="M39.2,8.7c0-0.1,0-0.2-0.1-0.2l-1.6-0.8L37.4,8L39,8.8C39.1,8.8,39.2,8.8,39.2,8.7"/>
	<path fill="#F18F45" d="M38.9,9.3c0-0.1,0-0.2-0.1-0.2l-1.5-0.7l-0.1,0.3l1.5,0.7C38.8,9.4,38.9,9.3,38.9,9.3"/>
	<path fill="#F18F45" d="M38.7,9.8c0-0.1,0-0.2-0.1-0.2l-1.5-0.7L37,9.2l1.4,0.7C38.5,9.9,38.6,9.9,38.7,9.8"/>
	<path fill="#F18F45" d="M41.4,11.5c-1.6-0.1-2.8,0.5-2.9,2.1c-0.1,1.6,0.8,2.3,2.7,2.3c1.9,0.1,2.8-0.5,2.9-2.1
		C44.2,12.3,43,11.6,41.4,11.5"/>
	<path fill="#94BC79" d="M42.7,11.6l-0.9-0.2c0,0,0-0.1-0.1-0.1c-0.1,0-0.1-0.1-0.2-0.1c-0.1,0-0.2-0.1-0.3,0
		c-0.1,0-0.1,0-0.2,0.1c-0.1,0-0.1,0.1-0.2,0.1l-0.9,0.1c-0.1,0-0.2,0.1-0.2,0.2c0,0.2,0.1,0.3,0.2,0.3l0.4,0.1l-0.3,0.4
		c-0.1,0.1-0.1,0.2,0,0.3c0.1,0.1,0.3,0.2,0.4,0.1l0.4-0.2l0.1,0.4c0,0.1,0.1,0.2,0.2,0.2c0.1,0,0.3-0.1,0.3-0.2l0.1-0.4l0.4,0.3
		c0.1,0.1,0.2,0.1,0.3,0c0.1-0.1,0.2-0.3,0.1-0.4l-0.2-0.4l0.4-0.1c0.1,0,0.2-0.1,0.2-0.2C43,11.7,42.9,11.6,42.7,11.6z"/>
</g>
<path fill="#FFF" d="M42.5,16.3c-0.2,0-0.3-0.1-0.3-0.3c0-0.2,0.1-0.3,0.3-0.3c0.8,0,1.4-0.6,1.4-1.4
	c0-0.2,0.1-0.3,0.3-0.3c0.2,0,0.3,0.1,0.3,0.3C44.5,15.4,43.6,16.3,42.5,16.3z"/>
<path fill="#FFF" d="M30.4,3.2c-0.2,0-0.3-0.1-0.3-0.3c0-1.1,0.9-2,2-2c0.2,0,0.3,0.1,0.3,0.3c0,0.2-0.1,0.3-0.3,0.3
	c-0.8,0-1.4,0.6-1.4,1.4C30.7,3,30.6,3.2,30.4,3.2z"/>
<path fill="#FFF" d="M44.6,3.2c-0.2,0-0.3-0.1-0.3-0.3c0-0.8-0.6-1.4-1.4-1.4c-0.2,0-0.3-0.1-0.3-0.3
	c0-0.2,0.1-0.3,0.3-0.3c1.1,0,2,0.9,2,2C44.9,3,44.8,3.2,44.6,3.2z"/>
<path fill="#FFF" d="M40.1,1.6h0.3v1.8h-0.2V1.7H40L40.1,1.6z"/>
<path fill="#FFF" d="M41.7,2.4c0.2,0.1,0.3,0.3,0.3,0.5c0,0.2-0.1,0.3-0.2,0.4c-0.1,0.1-0.3,0.2-0.4,0.2
	c-0.2,0-0.3-0.1-0.4-0.2c-0.1-0.1-0.2-0.2-0.2-0.4c0-0.2,0.1-0.4,0.3-0.5C41,2.3,41,2.1,41,2c0-0.1,0.1-0.2,0.2-0.3
	c0.1-0.1,0.2-0.1,0.4-0.1c0.1,0,0.3,0,0.4,0.1C41.9,1.7,42,1.9,42,2C42,2.1,41.9,2.3,41.7,2.4z M41.9,2.8c0-0.1,0-0.2-0.1-0.3
	c-0.1-0.1-0.2-0.1-0.3-0.1c-0.1,0-0.2,0-0.3,0.1C41.1,2.7,41,2.7,41,2.9c0,0.1,0,0.2,0.1,0.3c0.1,0.1,0.2,0.1,0.3,0.1
	c0.1,0,0.2,0,0.3-0.1C41.9,3,41.9,2.9,41.9,2.8z M41.8,2c0-0.1,0-0.2-0.1-0.2c-0.1-0.1-0.1-0.1-0.2-0.1c-0.1,0-0.2,0-0.2,0.1
	c-0.1,0.1-0.1,0.1-0.1,0.2c0,0.1,0,0.2,0.1,0.2c0.1,0.1,0.1,0.1,0.2,0.1c0.1,0,0.2,0,0.2-0.1C41.8,2.1,41.8,2.1,41.8,2z"/>
<path fill="#FFF" d="M42.8,1.7c0,0,0.1,0,0.1,0c0,0,0,0.1,0,0.1c0,0,0,0.1,0,0.1c0,0-0.1,0-0.1,0c0,0-0.1,0-0.1,0
	c0,0,0-0.1,0-0.1c0,0,0-0.1,0-0.1C42.7,1.7,42.7,1.7,42.8,1.7z M42.8,2C42.8,2,42.8,2,42.8,2c0.1-0.1,0.1-0.1,0.1-0.1
	c0,0,0-0.1,0-0.1c0,0,0,0-0.1,0c0,0-0.1,0-0.1,0c0,0,0,0,0,0.1C42.7,1.9,42.7,1.9,42.8,2C42.7,2,42.7,2,42.8,2z"/>
<path fill="#FFF" d="M44.6,1.9L44.6,1.9c-0.2,0-0.3-0.1-0.4-0.1c-0.1,0-0.2,0-0.3,0.1c-0.1,0.1-0.1,0.2-0.1,0.3
	c0,0.1,0,0.2,0.1,0.3c0.1,0.1,0.2,0.1,0.3,0.1c0.1,0,0.2,0,0.3-0.2l0.1,0.1c0,0.1-0.1,0.1-0.2,0.1c-0.1,0-0.1,0-0.2,0
	c-0.1,0-0.3,0-0.4-0.1c-0.1-0.1-0.1-0.2-0.1-0.4c0-0.1,0-0.2,0.1-0.2c0-0.1,0.1-0.1,0.2-0.2c0.1,0,0.2-0.1,0.2-0.1
	c0.1,0,0.2,0,0.2,0.1C44.5,1.8,44.5,1.9,44.6,1.9z"/>
<path fill="#FFFFFB" d="M54.8,22.7h12.5c0.4,0,0.7-0.3,0.7-0.7c0-0.4-0.3-0.7-0.7-0.7H54.8c-0.4,0-0.7,0.3-0.7,0.7
	C54,22.4,54.4,22.7,54.8,22.7z"/>
<path fill="#FFFFFB" d="M54.8,26h9c0.4,0,0.7-0.3,0.7-0.7c0-0.4-0.3-0.7-0.7-0.7h-9c-0.4,0-0.7,0.3-0.7,0.7
	C54,25.7,54.4,26,54.8,26z"/>
<path fill="#FFFFFB" d="M54.8,29.2h9c0.4,0,0.7-0.3,0.7-0.7c0-0.4-0.3-0.7-0.7-0.7h-9c-0.4,0-0.7,0.3-0.7,0.7
	C54,28.9,54.4,29.2,54.8,29.2z"/>
</svg>
