<?xml version="1.0" encoding="utf-8"?>
<svg version="1.1" xmlns="http://www.w3.org/2000/svg" xmlns:xlink="http://www.w3.org/1999/xlink" x="0" y="0"
	 viewBox="0 0 63 32" width="63" height="32" xml:space="preserve">
<rect x="10.5" y="0.1" fill="#F9AF7D" width="29.9" height="21.1"/>
<path fill="#F69454" d="M40.4,4.9h11.8c0.8,0,1.9,0.4,2.6,1l5.3,4.7c0.6,0.5,1.1,1.6,1.1,2.4v8.2H40.4V4.9z"/>
<path fill="#DBDCDC" d="M59.1,14.8V13c0-0.2-0.2-0.7-0.4-0.9l-5.3-4.7c-0.2-0.2-0.9-0.5-1.2-0.5h-1.8v7.9H59.1z"/>
<rect x="42.4" y="6.9" fill="#DBDCDC" width="5.5" height="7.9"/>
<path fill="#FFFFFB" d="M13.3,8.8H0.8c-0.4,0-0.7-0.3-0.7-0.7c0-0.4,0.3-0.7,0.7-0.7h12.5c0.4,0,0.7,0.3,0.7,0.7
	C14.1,8.5,13.7,8.8,13.3,8.8z"/>
<path fill="#FFFFFB" d="M13.3,12.1h-9c-0.4,0-0.7-0.3-0.7-0.7c0-0.4,0.3-0.7,0.7-0.7h9c0.4,0,0.7,0.3,0.7,0.7
	C14.1,11.7,13.7,12.1,13.3,12.1z"/>
<path fill="#FFFFFB" d="M13.3,15.3h-9c-0.4,0-0.7-0.3-0.7-0.7c0-0.4,0.3-0.7,0.7-0.7h9c0.4,0,0.7,0.3,0.7,0.7
	C14.1,15,13.7,15.3,13.3,15.3z"/>
<path fill="#788073" d="M62.9,21.2h-8.6h-35v4.4h39.3C61,25.6,62.9,23.6,62.9,21.2L62.9,21.2L62.9,21.2z"/>
<path fill="#595757" d="M25.6,25.6c0-3.5-2.8-6.3-6.3-6.3c-3.5,0-6.3,2.8-6.3,6.3c0,3.5,2.8,6.3,6.3,6.3
	C22.8,31.9,25.6,29,25.6,25.6z"/>
<path fill="#595757" d="M55,25.6c0-3.5-2.8-6.3-6.3-6.3c-3.5,0-6.3,2.8-6.3,6.3c0,3.5,2.8,6.3,6.3,6.3
	C52.2,31.9,55,29,55,25.6z"/>
<linearGradient id="pt-1" gradientUnits="userSpaceOnUse" x1="26.6233" y1="18.665" x2="36.5011" y2="12.777">
	<stop  offset="0" style="stop-color:#EC1C24"/>
	<stop  offset="0.9919" style="stop-color:#F4821F"/>
</linearGradient>
<path style="fill:url(#pt-1);" d="M30,17.6c0.6-0.3,1.1-0.6,1.6-1.1c0,0,0,0,0-0.1c-0.1-0.1-0.1-0.2-0.2-0.4l-0.7-0.9
	c0,0-0.1,0-0.1,0c0,0,0,0,0,0C30.7,16.1,30.4,16.9,30,17.6C29.9,17.6,29.9,17.6,30,17.6C30,17.6,30,17.6,30,17.6z"/>
<path fill="#F79721" d="M29.6,13.6l-0.2-0.3l-0.2,0.3l0,0c-0.3,0.5-0.5,1.1-0.5,1.7c0,0.7,0.3,1.4,0.7,1.9
	c0.5-0.5,0.7-1.2,0.7-1.9C30.1,14.7,29.9,14.1,29.6,13.6L29.6,13.6z"/>
<linearGradient id="pt-2" gradientUnits="userSpaceOnUse" x1="23.6869" y1="14.3741" x2="34.1529" y2="8.1354">
	<stop  offset="0" style="stop-color:#EC1C24"/>
	<stop  offset="0.9919" style="stop-color:#F4821F"/>
</linearGradient>
<path style="fill:url(#pt-2);" d="M30.3,10.8c0-0.5-0.4-0.9-0.9-0.9c0,0,0,0,0,0c-0.5,0-0.9,0.4-0.9,0.9c0,0.2,0.1,0.4,0.2,0.5
	l0.7,0.9c0,0,0.1,0,0.1,0l0.7-0.9C30.2,11.1,30.3,11,30.3,10.8z"/>
<linearGradient id="pt-3" gradientUnits="userSpaceOnUse" x1="21.6311" y1="10.9256" x2="32.0972" y2="4.6869">
	<stop  offset="0" style="stop-color:#EC1C24"/>
	<stop  offset="0.9919" style="stop-color:#F4821F"/>
</linearGradient>
<path style="fill:url(#pt-3);" d="M28,8c0.1-0.2,0.2-0.4,0.2-0.6c0-0.6-0.5-1.1-1.1-1.1c0,0,0,0,0,0c-0.6,0-1.1,0.5-1.1,1.1
	c0,0.2,0.1,0.4,0.2,0.6l0,0l0.8,1.1c0,0,0.1,0,0.1,0L28,8L28,8z"/>
<path style="fill:#F79721;" d="M24.7,13.6c-0.3,0.5-0.5,1.1-0.5,1.7c0,1.3,0.8,2.4,2,2.8c0.1,0,0.1,0,0.1-0.1c0-0.1,0-0.3,0-0.4
	c0-0.5,0.1-0.9,0.3-1.4c0,0,0,0,0,0l0.2-0.4c0,0,0,0,0,0l2.2-3l-1.8-2.4c0,0-0.1,0-0.1,0L24.7,13.6z"/>
<linearGradient id="pt-4" gradientUnits="userSpaceOnUse" x1="22.4735" y1="12.3488" x2="32.917" y2="6.1235">
	<stop  offset="0" style="stop-color:#EC1C24"/>
	<stop  offset="0.9919" style="stop-color:#F4821F"/>
</linearGradient>
<path style="fill:url(#pt-4);" d="M23.6,15.3c0-0.5,0.1-1.1,0.4-1.6c0,0,0.2-0.3,0.3-0.5l2.6-3.4c0,0,0,0,0,0l-0.9-1.2l-0.1-0.1
	c-0.2-0.3-0.3-0.6-0.3-1c0-0.9,0.7-1.7,1.7-1.7l0,0c0,0,0,0,0,0c0,0,0,0,0,0l0,0c0.9,0,1.7,0.8,1.7,1.7c0,0.4-0.1,0.7-0.3,1
	l-0.1,0.1l-0.9,1.2c0,0,0,0,0,0l0.4,0.5c0,0,0.1,0,0.1,0c0.2-0.6,0.7-1,1.4-1.1v0l0.1,0l0,0c0.7,0,1.2,0.5,1.4,1.1c0,0,0,0,0.1,0
	l0.4-0.5c0,0,0,0,0,0l-1-1.3c-0.2-0.3-0.3-0.6-0.3-1c0-0.8,0.6-1.5,1.4-1.7c0,0,0,0,0-0.1c-1.5-1.2-3.5-1.7-5.7-1.3
	c-2.7,0.5-4.9,2.7-5.5,5.4c-0.7,3.6,1.3,6.8,4.3,8c0,0,0.1,0,0-0.1C23.9,17.1,23.6,16.2,23.6,15.3z"/>
<path fill="#F7981D" d="M28.9,17.7C28.9,17.7,28.9,17.6,28.9,17.7C28.4,17,28,16.2,28,15.3c0,0,0,0,0,0c0,0-0.1-0.1-0.1,0
	l-0.7,0.9c-0.3,0.4-0.5,0.9-0.5,1.5c0,0.2,0,0.4,0.1,0.6c0,0,0,0,0,0c0.1,0,0.1,0,0.2,0c0,0,0,0,0.1,0C27.8,18.2,28.4,18,28.9,17.7z
	"/>
<linearGradient id="pt-5" gradientUnits="userSpaceOnUse" x1="22.8054" y1="12.8942" x2="33.2708" y2="6.6559">
	<stop  offset="0" style="stop-color:#EC1C24"/>
	<stop  offset="0.9919" style="stop-color:#F4821F"/>
</linearGradient>
<path style="fill:url(#pt-5);" d="M30.5,7.4c0,0.2,0.1,0.4,0.2,0.6l0.8,1.1c0,0,0.1,0,0.1,0L32.5,8c0.1-0.2,0.2-0.4,0.2-0.6
	c0-0.2-0.1-0.4-0.2-0.6c0,0,0,0,0,0c-0.1-0.1-0.1-0.2-0.2-0.2c0,0,0,0,0,0c-0.2-0.2-0.4-0.3-0.7-0.3c0,0,0,0,0,0
	C31,6.3,30.5,6.8,30.5,7.4z"/>
<linearGradient id="pt-6" gradientUnits="userSpaceOnUse" x1="24.4737" y1="15.6048" x2="34.8932" y2="9.3938">
	<stop  offset="0" style="stop-color:#EC1C24"/>
	<stop  offset="0.9919" style="stop-color:#F4821F"/>
</linearGradient>
<path style="fill:url(#pt-6);" d="M33,8.4l-0.1,0.1L32,9.7c0,0,0,0,0,0.1l1.9,2.6c0,0,0.1,0,0.1,0c0.1-0.4,0.1-0.7,0.1-1.1
	c0-1.2-0.3-2.3-0.8-3.3c0,0-0.1,0-0.1,0C33.2,8.1,33.1,8.3,33,8.4z"/>
<linearGradient id="pt-7" gradientUnits="userSpaceOnUse" x1="25.3377" y1="17.1003" x2="35.7728" y2="10.88">
	<stop  offset="0" style="stop-color:#EC1C24"/>
	<stop  offset="0.9919" style="stop-color:#F4821F"/>
</linearGradient>
<path style="fill:url(#pt-7);" d="M31.7,10.4c0-0.1-0.1-0.1-0.2,0l-1.8,2.4l2.1,2.8c0,0,0.2,0.3,0.2,0.3c0,0.1,0.1,0.1,0.2,0
	c0.7-0.8,1.2-1.7,1.5-2.7c0,0,0-0.1,0-0.1L31.7,10.4z"/>
</svg>
