<?xml version="1.0" encoding="utf-8"?>
<svg version="1.1" xmlns="http://www.w3.org/2000/svg" xmlns:xlink="http://www.w3.org/1999/xlink" x="0" y="0"
	 viewBox="0 0 31 20" width="31" height="20" xml:space="preserve">
<path fill="#FBECB4" d="M15.9,19.9c4.8,0,9.6-1.3,12.4-4.1c3.6-3.6,3.6-9.5,0-13.1c-3.1-3.1-7.8-3.5-11.3-1.4
	c-1,0.1-2.8,0-3.4-0.3C9-1.3,3.5,0.5,1.1,5c-2.4,4.5-0.7,10.1,3.9,12.5C7.9,19.1,11.9,19.9,15.9,19.9"/>
<path fill="#F0C295" d="M15.6,4.2c1.2,0,2.4-0.1,3-0.5c0.9-0.4,0.9-1.1,0-1.5c-0.8-0.3-1.9,0.2-2.8,0.5c-0.3,0-0.7,0-0.8,0
	c-1.1-0.3-2.5-0.7-3.1-0.2c-0.6,0.5-0.2,1.1,1,1.4C13.6,4.1,14.6,4.2,15.6,4.2"/>
</svg>
