<?xml version="1.0" encoding="utf-8"?>
<svg version="1.1" xmlns="http://www.w3.org/2000/svg" xmlns:xlink="http://www.w3.org/1999/xlink" x="0" y="0"
	 viewBox="0 0 149 103" width="149" height="103" xml:space="preserve">
<path fill="#FFFDF0" d="M135.9,39.4c0.4-1.6,0.6-3.2,0.6-4.9c0-10.7-8.1-19.6-18.6-20.7c-2.8-8.1-10.5-14-19.6-14
	c-6,0-11.3,2.5-15.1,6.6c-4.1-4.1-9.8-6.6-16-6.6c-8.3,0-15.6,4.4-19.6,11c-1.9-0.6-4-0.9-6.1-0.9c-11.5,0-20.8,9.3-20.8,20.8v0
	C9.2,30.7-0.1,40-0.1,51.5c0,10.7,8,19.5,18.4,20.7c-0.2,1.1-0.3,2.1-0.3,3.2c0,11.5,9.3,20.8,20.8,20.8c3.9,0,7.5-1.1,10.6-2.9
	c3.7,6,10.2,9.9,17.7,9.9c7.1,0,13.4-3.6,17.1-9c3.8,5.1,9.8,8.4,16.7,8.4c11.2,0,20.4-8.9,20.8-20.1c1.4,0.3,2.9,0.4,4.4,0.4
	c12.7,0,22.9-10.3,22.9-22.9C149.1,50.9,143.7,43,135.9,39.4z"/>
</svg>
