<?xml version="1.0" encoding="utf-8"?>
<svg version="1.1" xmlns="http://www.w3.org/2000/svg" xmlns:xlink="http://www.w3.org/1999/xlink" x="0" y="0"
	 viewBox="0 0 81 55" width="81" height="55" xml:space="preserve">
<path fill="#DDDFC9" d="M10.6,54.9c-0.6,0-1.2-0.1-1.7-0.3c-2.5-1-3.7-3.8-2.8-6.3l1.7-4.5l-4.5-1.7c-2.5-1-3.7-3.8-2.8-6.3
	c1-2.5,3.8-3.7,6.3-2.8l9,3.5c2.5,1,3.7,3.8,2.8,6.3l-3.5,9C14.4,53.7,12.6,54.9,10.6,54.9z"/>
<path fill="#DDDFC9" d="M14,43.9c-1.1,0-2.2-0.7-2.7-1.8c-0.7-1.5,0-3.2,1.5-3.9L28,31.6c1.5-0.7,3.2,0,3.9,1.5
	c0.7,1.5,0,3.2-1.5,3.9l-15.1,6.7C14.9,43.9,14.4,43.9,14,43.9z"/>
<path fill="#B97F2A" d="M26.1,18.7L51.5,3c9-5.6,20.8-2.8,26.4,6.2c5.6,9,2.8,20.8-6.2,26.4c-1.5,0.9-3.1,1.6-4.7,2.1
	L38.2,46c-8,2.3-16.4-2.3-18.7-10.3C17.6,29.1,20.5,22.2,26.1,18.7"/>
<circle fill="#846651" cx="49.1" cy="17.3" r="1.8"/>
<path fill="#846651" d="M47.7,28.9c0.7,0.7,0.8,1.8,0.2,2.6c-0.7,0.8-1.8,0.8-2.6,0.2c-0.8-0.7-0.8-1.8-0.2-2.6
	C45.8,28.3,46.9,28.2,47.7,28.9z"/>
<path fill="#846651" d="M36.7,26.6c0.7,0.7,0.8,1.8,0.2,2.6c-0.7,0.7-1.8,0.8-2.6,0.2c-0.7-0.7-0.8-1.8-0.2-2.6
	C34.8,26,36,25.9,36.7,26.6z"/>
<path fill="#846651" d="M65.7,11.3c0.8,0.7,0.8,1.8,0.2,2.6c-0.7,0.7-1.8,0.8-2.6,0.2c-0.7-0.7-0.8-1.8-0.1-2.6
	C63.8,10.7,64.9,10.7,65.7,11.3z"/>
<path fill="#846651" d="M60.6,23.8c0.7,0.7,0.8,1.8,0.2,2.6c-0.7,0.8-1.8,0.8-2.6,0.2c-0.8-0.7-0.8-1.8-0.2-2.6
	C58.7,23.2,59.8,23.1,60.6,23.8z"/>
</svg>
