<?xml version="1.0" encoding="utf-8"?>
<svg version="1.1" xmlns="http://www.w3.org/2000/svg" xmlns:xlink="http://www.w3.org/1999/xlink" x="0" y="0"
	 viewBox="0 0 238 180" width="238" height="180" xml:space="preserve">
<g>
	<linearGradient id="pt-1" gradientUnits="userSpaceOnUse" x1="115.1063" y1="132.4086" x2="204.0512" y2="79.3894">
		<stop  offset="0" style="stop-color:#EC1C24"/>
		<stop  offset="0.9919" style="stop-color:#F4821F"/>
	</linearGradient>
	<path style="fill:url(#pt-1);" d="M145.7,122.8c5.4-2.5,10.3-5.7,14.7-9.6c0.1-0.1,0.2-0.3,0.1-0.5c-0.5-1.1-1.1-2.2-1.8-3.2
		l-6-8.1c-0.2-0.3-0.7-0.1-0.7,0.2c0,0.1,0,0.2,0,0.3c0,7.7-2.4,15-7,20.5c-0.2,0.2,0,0.4,0.1,0.4
		C145.3,122.9,145.5,122.8,145.7,122.8z"/>
	<path style="fill:#FAA81E;" d="M141.7,86.7l-1.7-2.3l-1.7,2.3l-0.1,0.1c-3.1,4.5-4.8,9.7-4.8,15.2c0,6.7,2.5,12.8,6.5,17.5
		c4.1-4.7,6.5-10.8,6.5-17.5c0-5.4-1.6-10.7-4.7-15.1L141.7,86.7z"/>
	<linearGradient id="pt-2" gradientUnits="userSpaceOnUse" x1="88.6718" y1="93.7744" x2="182.9031" y2="37.6039">
		<stop  offset="0" style="stop-color:#EC1C24"/>
		<stop  offset="0.9919" style="stop-color:#F4821F"/>
	</linearGradient>
	<path style="fill:url(#pt-2);" d="M148,61.4c0-4.5-3.5-8.2-8-8.5c0,0-0.1,0-0.1,0c-4.5,0.3-8,4-8,8.5c0,1.7,0.5,3.4,1.5,4.8
		l6.1,8.2c0.2,0.3,0.7,0.3,0.9,0l6.1-8.2C147.5,64.7,148,63.1,148,61.4z"/>
	<linearGradient id="pt-3" gradientUnits="userSpaceOnUse" x1="70.1595" y1="62.7232" x2="164.3949" y2="6.5503">
		<stop  offset="0" style="stop-color:#EC1C24"/>
		<stop  offset="0.9919" style="stop-color:#F4821F"/>
	</linearGradient>
	<path style="fill:url(#pt-3);" d="M127.7,36.6c1.2-1.7,1.8-3.7,1.8-5.7c0-5.4-4.3-9.9-9.6-10.1c0,0-0.1,0-0.1,0
		c-5.4,0.3-9.6,4.7-9.6,10.1c0,2.1,0.6,4,1.8,5.7l0.1,0.1l7.3,9.8c0.3,0.4,0.8,0.4,1.1,0L127.7,36.6L127.7,36.6z"/>
	<path style="fill:#FAA81E;" d="M97.9,86.7c-3.1,4.5-4.8,9.7-4.8,15.2c0,11.6,7.4,21.4,17.7,25.1c0.6,0.2,1.2-0.3,1.1-0.9
		c-0.2-1.2-0.3-2.5-0.3-3.7c0-4.3,0.9-8.5,2.8-12.3c0,0,0,0,0-0.1l2.2-3.7c0,0,0-0.1,0-0.1l19.7-26.6l-16-21.6c-0.3-0.4-1-0.4-1.3,0
		L97.9,86.7z"/>
	<linearGradient id="pt-4" gradientUnits="userSpaceOnUse" x1="77.742" y1="75.5383" x2="171.7761" y2="19.4854">
		<stop  offset="0" style="stop-color:#EC1C24"/>
		<stop  offset="0.9919" style="stop-color:#F4821F"/>
	</linearGradient>
	<path style="fill:url(#pt-4);" d="M87.6,102c0-4.9,1.1-9.7,3.2-14c0,0,1.5-3,2.6-4.4l23.1-31.1c0.1-0.1,0.1-0.3,0-0.4l-8.2-11
		l-0.8-1.2c-1.9-2.6-2.9-5.8-2.9-9c0-8.5,6.7-15.4,15.1-15.6v0c0,0,0,0,0,0c0,0,0,0,0,0v0c8.4,0.3,15.1,7.2,15.1,15.6
		c0,3.2-1,6.4-2.9,9l-0.8,1.2l-8.2,11c-0.1,0.1-0.1,0.3,0,0.4l3.4,4.6c0.2,0.2,0.5,0.2,0.6-0.1c1.8-5.3,6.6-9.2,12.4-9.5v0l0.7,0
		l0,0c5.9,0.3,10.8,4.2,12.5,9.6c0.1,0.3,0.4,0.3,0.6,0.1l3.4-4.6c0.1-0.1,0.1-0.3,0-0.4l-9-12.1c-1.9-2.6-2.9-5.8-2.9-9
		c0-7.5,5.3-13.7,12.3-15.3c0.3-0.1,0.4-0.4,0.1-0.6C143.6,4.5,125.5-0.5,106.1,3.3C81.5,8.1,62,27.5,57,52.1
		c-6.5,32.2,11.5,61.3,38.7,72.1c0.4,0.1,0.6-0.3,0.4-0.6C90.8,117.9,87.6,110.3,87.6,102z"/>
	<path style="fill:#F7981D;" d="M135.6,123.5c0.2-0.1,0.2-0.4,0.1-0.6c-4.8-5.6-7.7-12.9-7.7-20.9c0-0.1,0-0.2,0-0.3
		c0-0.4-0.5-0.6-0.7-0.3l-5.9,8c-2.7,3.9-4.1,8.4-4.1,13.1c0,2,0.3,4,0.8,5.8c0,0.2,0.2,0.3,0.4,0.3c0.5,0,0.9,0,1.4,0
		c0.2,0,0.4,0,0.5,0C126,128.6,131.3,126.6,135.6,123.5z"/>
	<linearGradient id="pt-5" gradientUnits="userSpaceOnUse" x1="80.7262" y1="80.451" x2="174.9619" y2="24.278">
		<stop  offset="0" style="stop-color:#EC1C24"/>
		<stop  offset="0.9919" style="stop-color:#F4821F"/>
	</linearGradient>
	<path style="fill:url(#pt-5);" d="M150.4,30.9c0,2.1,0.6,4,1.8,5.7l7.4,9.9c0.3,0.4,0.8,0.4,1.1,0l7.4-9.9
		c1.2-1.7,1.8-3.7,1.8-5.7c0-1.9-0.6-3.8-1.5-5.3c0,0,0-0.1-0.1-0.1c-0.6-0.8-1.2-1.5-1.9-2.2c0,0,0-0.1-0.1-0.1
		c-1.7-1.4-3.8-2.3-6.1-2.5c0,0-0.1,0-0.1,0C154.7,21,150.4,25.5,150.4,30.9z"/>
	<linearGradient id="pt-6" gradientUnits="userSpaceOnUse" x1="95.7477" y1="104.8596" x2="189.5708" y2="48.9324">
		<stop  offset="0" style="stop-color:#EC1C24"/>
		<stop  offset="0.9919" style="stop-color:#F4821F"/>
	</linearGradient>
	<path style="fill:url(#pt-6);" d="M172.4,39.9l-0.9,1.2L163.4,52c-0.1,0.2-0.1,0.4,0,0.5l17.3,23.2c0.2,0.3,0.7,0.2,0.8-0.2
		c0.5-3.3,0.8-6.7,0.8-10.2c0-10.6-2.6-20.5-7.2-29.3c-0.2-0.3-0.7-0.3-0.8,0.1C173.9,37.5,173.3,38.7,172.4,39.9z"/>
	<linearGradient id="pt-7" gradientUnits="userSpaceOnUse" x1="103.5332" y1="118.3181" x2="197.4887" y2="62.3121">
		<stop  offset="0" style="stop-color:#EC1C24"/>
		<stop  offset="0.9919" style="stop-color:#F4821F"/>
	</linearGradient>
	<path style="fill:url(#pt-7);" d="M160.9,58.3c-0.4-0.5-1.2-0.5-1.6,0l-15.9,21.4l18.8,25.3c0,0,1.6,2.3,1.9,2.8
		c0.3,0.6,1.2,0.7,1.6,0.2c6.2-6.8,11-15,13.8-24c0.1-0.3,0-0.6-0.2-0.9L160.9,58.3z"/>
	<path style="fill:#D71F45;" d="M12.7,178c-2.4,0-4.3-0.4-5.7-1.1c-1.4-0.7-2.6-1.7-3.6-2.8C3.2,173.8,3,173.4,3,173
		c0-0.5,0.1-0.9,0.5-1.3l1.2-1.2c0.3-0.3,0.7-0.5,1.1-0.5c0,0,0.1,0,0.1,0c0.4,0,0.8,0.2,1.1,0.5c0.3,0.2,0.6,0.5,0.9,0.8
		c0.3,0.3,0.7,0.6,1.2,0.8c0.4,0.2,1,0.4,1.5,0.6c0.6,0.2,1.3,0.2,2,0.2c1.6,0,3-0.5,4.1-1.4c1.1-0.9,1.6-2,1.6-3.4
		c0-1.6-0.5-2.8-1.4-3.7c-0.9-0.9-2.5-1.9-4.6-2.9c-1.3-0.6-2.5-1.3-3.6-2c-1.1-0.7-2-1.5-2.8-2.4c-0.8-0.9-1.4-1.9-1.8-3
		c-0.4-1.1-0.6-2.4-0.6-3.9c0-1.2,0.2-2.4,0.7-3.5c0.5-1.1,1.1-2.1,2-3c0.9-0.9,2-1.6,3.2-2.1c1.3-0.5,2.7-0.8,4.2-0.8
		c2,0,3.8,0.4,5.2,1.2c1.4,0.8,2.6,1.6,3.4,2.4c0.4,0.4,0.6,0.8,0.6,1.2c0,0.4-0.2,0.8-0.6,1.2l-1.2,1.3c-0.4,0.4-0.7,0.6-1.1,0.6
		c-0.4,0-0.8-0.2-1.2-0.6c-0.5-0.4-1.2-0.9-2.1-1.5c-0.9-0.5-1.9-0.8-3-0.8c-0.8,0-1.4,0.1-2.1,0.4c-0.6,0.3-1.2,0.6-1.6,1
		c-0.5,0.4-0.8,0.9-1.1,1.4c-0.3,0.5-0.4,1.1-0.4,1.7c0,0.8,0.1,1.4,0.3,2c0.2,0.6,0.6,1.1,1,1.6c0.5,0.5,1.1,1,1.8,1.4
		c0.8,0.5,1.7,0.9,2.7,1.4c1.4,0.6,2.7,1.3,3.9,2c1.1,0.7,2.1,1.5,2.9,2.4c0.8,0.9,1.4,1.9,1.8,3c0.4,1.1,0.6,2.4,0.6,3.9
		c0,1.3-0.3,2.6-0.9,3.8c-0.6,1.2-1.4,2.3-2.3,3.2c-1,0.9-2.2,1.6-3.5,2.2C15.6,177.7,14.2,178,12.7,178"/>
	<path style="fill:#D71F45;" d="M51.5,177.5c-0.5,0-0.9-0.2-1.2-0.5c-0.3-0.3-0.5-0.7-0.5-1.2v-20.5c0-0.5,0.2-0.9,0.5-1.2
		c0.3-0.3,0.7-0.5,1.2-0.5h1.6c0.5,0,0.9,0.2,1.2,0.5c0.3,0.3,0.5,0.7,0.5,1.2v20.5c0,0.5-0.2,0.9-0.5,1.2c-0.3,0.3-0.7,0.5-1.2,0.5
		H51.5z M51.5,151c-0.5,0-0.9-0.2-1.2-0.5c-0.3-0.3-0.5-0.7-0.5-1.2v-2.6c0-0.5,0.2-0.9,0.5-1.2c0.3-0.3,0.7-0.5,1.2-0.5h1.6
		c0.5,0,0.9,0.2,1.2,0.5c0.3,0.3,0.5,0.7,0.5,1.2v2.6c0,0.5-0.2,0.9-0.5,1.2c-0.3,0.3-0.7,0.5-1.2,0.5H51.5z"/>
	<path style="fill:#D71F45;" d="M74.3,177.5c-0.5,0-0.9-0.2-1.2-0.5c-0.3-0.3-0.5-0.7-0.5-1.2v-13.1c0-1.3-0.4-2.4-1.2-3.4
		c-0.8-1-2-1.5-3.7-1.5c-1.7,0-2.9,0.5-3.7,1.5c-0.8,1-1.2,2.1-1.2,3.4v13.1c0,0.5-0.2,0.9-0.5,1.2c-0.3,0.3-0.7,0.5-1.2,0.5h-1.6
		c-0.5,0-0.9-0.2-1.2-0.5c-0.3-0.3-0.5-0.7-0.5-1.2v-13.1c0-1.3,0.2-2.5,0.7-3.7c0.5-1.2,1.1-2.2,2-3.1c0.8-0.9,1.9-1.6,3.1-2.1
		c1.2-0.5,2.6-0.8,4-0.8c1.5,0,2.8,0.3,4,0.8c1.2,0.5,2.2,1.2,3.1,2.1c0.8,0.9,1.5,1.9,2,3.1c0.5,1.2,0.7,2.4,0.7,3.7v13.1
		c0,0.5-0.2,0.9-0.5,1.2c-0.3,0.3-0.7,0.5-1.2,0.5H74.3z"/>
	<path style="fill:#D71F45;" d="M116.1,178c-1.7,0-3.4-0.3-4.9-1c-1.5-0.7-2.8-1.6-4-2.7c-1.1-1.1-2-2.5-2.7-4c-0.7-1.5-1-3.1-1-4.9
		c0-1.7,0.3-3.4,1-4.9c0.7-1.5,1.6-2.8,2.7-4c1.1-1.1,2.5-2,4-2.7c1.5-0.7,3.1-1,4.9-1c1.7,0,3.4,0.3,4.9,1c1.5,0.7,2.8,1.6,4,2.7
		c1.1,1.1,2,2.5,2.7,4c0.7,1.5,1,3.1,1,4.9c0,1.7-0.3,3.4-1,4.9c-0.7,1.5-1.6,2.8-2.7,4c-1.1,1.1-2.5,2-4,2.7
		C119.5,177.7,117.8,178,116.1,178 M116.1,157.8c-1.1,0-2.1,0.2-3,0.6c-0.9,0.4-1.7,1-2.4,1.7c-0.7,0.7-1.2,1.5-1.6,2.5
		c-0.4,0.9-0.6,2-0.6,3c0,1.1,0.2,2.1,0.6,3c0.4,0.9,0.9,1.8,1.6,2.5c0.7,0.7,1.5,1.2,2.4,1.7c0.9,0.4,1.9,0.6,3,0.6
		c1.1,0,2.1-0.2,3-0.6c0.9-0.4,1.7-1,2.4-1.7c0.7-0.7,1.2-1.5,1.6-2.5c0.4-0.9,0.6-2,0.6-3c0-1.1-0.2-2.1-0.6-3
		c-0.4-0.9-0.9-1.8-1.6-2.5c-0.7-0.7-1.5-1.2-2.4-1.7C118.2,158,117.2,157.8,116.1,157.8"/>
	<path style="fill:#D71F45;" d="M82.4,177.5c-0.5,0-0.9-0.2-1.2-0.5c-0.3-0.3-0.5-0.7-0.5-1.2v-33c0-0.5,0.2-0.9,0.5-1.2
		c0.3-0.3,0.7-0.5,1.2-0.5h1.6c0.5,0,0.9,0.2,1.3,0.5c0.3,0.3,0.5,0.7,0.5,1.2v10.4l0,5.5l0,17.1c0,0.5-0.2,0.9-0.5,1.2
		c-0.3,0.3-0.7,0.5-1.3,0.5H82.4z"/>
	<path style="fill:#D71F45;" d="M97.5,177.5c-0.5,0-0.9-0.2-1.2-0.5c-0.3-0.3-0.5-0.7-0.5-1.2v-13.4c0-1.3-0.4-2.3-1.1-3
		c-0.7-0.7-1.7-1.1-3-1.1h-3.7v-4.7h3.9c1.3,0,2.5,0.2,3.6,0.7c1.1,0.4,2.1,1.1,2.8,1.8c0.8,0.8,1.4,1.7,1.8,2.8
		c0.4,1.1,0.6,2.3,0.6,3.5v13.4c0,0.5-0.2,0.9-0.5,1.2c-0.3,0.3-0.7,0.5-1.2,0.5H97.5z"/>
	<path style="fill:#D71F45;" d="M28.3,177.5c-0.5,0-0.9-0.2-1.2-0.5c-0.3-0.3-0.5-0.7-0.5-1.2v-33c0-0.5,0.2-0.9,0.5-1.2
		c0.3-0.3,0.7-0.5,1.2-0.5h1.6c0.5,0,0.9,0.2,1.2,0.5c0.3,0.3,0.5,0.7,0.5,1.2v10.4l0,5.5l0,17.1c0,0.5-0.2,0.9-0.5,1.2
		c-0.3,0.3-0.7,0.5-1.2,0.5H28.3z"/>
	<path style="fill:#D71F45;" d="M43.4,177.5c-0.5,0-0.9-0.2-1.2-0.5c-0.3-0.3-0.5-0.7-0.5-1.2v-13.4c0-1.3-0.4-2.3-1.1-3
		c-0.7-0.7-1.7-1.1-3-1.1h-3.7v-4.7h3.9c1.3,0,2.5,0.2,3.6,0.7c1.1,0.4,2.1,1.1,2.8,1.8c0.8,0.8,1.4,1.7,1.8,2.8
		c0.4,1.1,0.6,2.3,0.6,3.5v13.4c0,0.5-0.2,0.9-0.5,1.2c-0.3,0.3-0.7,0.5-1.2,0.5H43.4z"/>
	<path style="fill:#EE4632;" d="M182.2,173.1c-0.1-0.2-0.3-0.4-0.9-0.6c-0.5-0.2-1.2-0.6-1.2-0.6c-4.4-2.4-5.6-5.3-7.1-9.2
		c0-0.1-0.2-0.1-0.3,0c-0.5,1.9-1.1,3.5-2.3,5.9c0,0,0,0.1,0,0.1c1.9,3.4,3.8,5.7,7.6,7.6c0,0,0,0,0,0c0.1,0,1.1,0.5,1.7,0.6
		c0.7,0.1,1,0.1,1.3-0.1c0.4-0.2,0.6-0.6,0.8-1.1l0.4-1.5C182.4,173.5,182.3,173.3,182.2,173.1z"/>
	<path style="fill:#EE4632;" d="M155.7,156.6c0.3-0.3,0.5-0.7,0.5-1.3v-1.6c0-0.5-0.2-0.9-0.5-1.2c-0.3-0.3-0.7-0.4-1.2-0.4h-1.8
		l0,0H140v-2.4c0-0.8,0.3-3.1,3.2-3.1h8.1c1.4,0,2.7-0.6,3.6-1.5c0.8-0.8,1.5-3.4,0.1-3.4l-3.9,0l-8,0c-5.4,0-8.2,4-8.2,8v24.2l0,0
		v1.8c0,0.5,0.2,0.9,0.5,1.2c0.3,0.3,0.7,0.5,1.2,0.5h1.6c0.5,0,0.9-0.2,1.2-0.5c0.3-0.3,0.5-0.7,0.5-1.2V175l0,0v-17.9h6.7v18l0,0
		v0.6c0,0.5,0.2,0.9,0.5,1.2c0.3,0.3,0.7,0.5,1.3,0.5h1.6c0.5,0,0.9-0.2,1.2-0.5c0.3-0.3,0.4-0.7,0.4-1.2v-1.8l0,0v-16.8h2.6l0,0
		h0.2C155,157.1,155.4,156.9,155.7,156.6z"/>
	<path style="fill:#EE4632;" d="M171.8,155.8c0-1.3,0-2.1,0-2.2v-6h4.3v8.1h0l0,0.3c0,0.5,0.2,0.9,0.5,1.2c0.3,0.3,0.7,0.5,1.2,0.5
		h1.6c0.5,0,0.9-0.2,1.2-0.5c0.3-0.3,0.5-0.7,0.5-1.2v-0.3v-1.5v-6.5c-0.1-2.5-2.1-4.5-4.7-4.5l-12.8,0v-2.4l0,0
		c0-0.4-0.2-0.7-0.5-1c-0.3-0.3-0.7-0.5-1.2-0.5h-1.6c-0.5,0-0.9,0.2-1.2,0.5c-0.2,0.2-0.4,0.5-0.5,0.9l0,0v0v2.9v14.5l0,0v0.1
		c0,0.5,0.2,0.9,0.5,1.2c0.3,0.3,0.7,0.5,1.2,0.5h1.6c0.5,0,0.9-0.2,1.2-0.5c0.3-0.3,0.5-0.7,0.5-1.2v-0.1h0v-10.7h3.6h0.4v6.1
		c0,0.1,0,12.9-7.7,17.3c-0.3,0.1-0.5,0.3-0.8,0.4c-0.3,0.2-0.4,0.2-0.9,0.4l-0.6,0.2c-0.5,0.1-0.9,0.4-1.1,0.8
		c-0.2,0.4-0.3,0.8-0.2,1.4l0.2,1.5c0.1,0.5,0.4,0.8,0.8,1.1c0.5,0.3,1.3,0.1,1.3,0.1c5.4-1.8,9-6.1,11.2-12.4
		C171.4,160.8,171.7,157.7,171.8,155.8z"/>
	<path style="fill:#EE4632;" d="M211.5,153.1c-0.3-0.3-0.7-0.5-1.2-0.5l-8.7,0l0-6h5.5c1.4,0,2.7-0.4,3.6-1.3
		c0.8-0.8,1.5-3.7,0.1-3.7h-21.7h-0.1c-0.5,0-0.9,0.1-1.2,0.4c-0.3,0.3-0.5,0.7-0.5,1.3v1.6c0,0.5,0.2,0.9,0.5,1.2
		c0.3,0.3,0.7,0.5,1.2,0.5h0.1h7.4v6l-7.8,0c-0.5,0-0.9,0.2-1.2,0.5c-0.3,0.3-0.5,0.7-0.5,1.3v1.6c0,0.5,0.2,0.9,0.5,1.2
		c0.3,0.3,0.7,0.5,1.2,0.5l7.8,0v1.1c0,2.3-7.1,9.4-10,10c-0.1,0-0.4,0.1-0.4,0.1c-0.4,0.1-0.8,0.3-1,0.6c-0.2,0.4-0.3,0.8-0.2,1.3
		l0.3,1.6c0.1,0.5,0.3,0.9,0.7,1.1c0,0,0.3,0.2,0.4,0.2c0.3,0.1,0.9,0,0.9,0c4.6-0.8,9.4-6.2,9.4-6.2v8.4c0,0.5,0.1,0.9,0.4,1.2
		c0.3,0.3,0.7,0.5,1.2,0.5h1.6c0.5,0,0.9-0.2,1.2-0.5c0.3-0.3,0.5-0.7,0.5-1.2l0-18.2l8.7,0c0.5,0,0.9-0.2,1.2-0.5
		c0.3-0.3,0.5-0.7,0.5-1.2v-1.6C211.9,153.8,211.8,153.4,211.5,153.1z"/>
	<path style="fill:#EE4632;" d="M234.4,147.6c-0.4-1-1-1.9-1.8-2.7c-0.7-0.7-1.6-1.3-2.7-1.8c-1-0.4-2.2-0.6-3.3-0.6h-3.8
		c-1.2,0-2.3,0.2-3.3,0.6c-1,0.4-1.9,1-2.7,1.8c-0.7,0.8-1.3,1.7-1.8,2.7c-0.4,1.1-0.6,3.5-0.6,3.5v17.5c0,1.2,0.2,2.3,0.6,3.4
		c0.4,1,1,1.9,1.8,2.7c0.7,0.7,1.6,1.3,2.7,1.8c1,0.4,2.1,0.6,3.3,0.6h3.8c1.2,0,2.3-0.2,3.3-0.6c1-0.4,1.9-1,2.7-1.8
		c0.7-0.8,1.3-1.7,1.8-2.7c0.4-1.1,0.6-2.2,0.6-3.5V151C235,149.8,234.8,148.7,234.4,147.6z M230.2,168.5c0,1-0.3,1.8-1,2.5
		c-0.7,0.7-1.5,1-2.6,1h-3.8c-1.1,0-1.9-0.3-2.6-1c-0.7-0.7-1-1.5-1-2.6v-17.3c0-1,0.3-1.8,1-2.5c0.7-0.7,1.5-1,2.6-1h3.8
		c1.1,0,1.9,0.3,2.6,1c0.7,0.7,1,1.5,1,2.6V168.5z"/>
	<path style="fill:#EE4632;" d="M211,168.9L211,168.9c-2.5-1.8-5.6-4.7-7.1-8c-0.1-0.2-0.3-0.1-0.3,0.1v7.8c0,0,0,0.1,0,0.1
		c1.2,1.3,3.5,3.2,4.9,4.2l0.3,0.2l0-0.1c0.2,0.1,0.4,0.1,0.6,0.1c0.1,0,0.3,0,0.4-0.1c0.4-0.1,0.8-0.4,1-0.9l0.7-1.2
		c0.3-0.5,0.3-0.9,0.2-1.3C211.7,169.6,211.4,169.2,211,168.9z"/>
</g>
</svg>
