<?xml version="1.0" encoding="utf-8"?>
<svg version="1.1" xmlns="http://www.w3.org/2000/svg" xmlns:xlink="http://www.w3.org/1999/xlink" x="0" y="0"
	 viewBox="0 0 33 99" width="33" height="99" xml:space="preserve">
<linearGradient id="pt-1" gradientUnits="userSpaceOnUse" x1="0.2073" y1="49.5" x2="32.7926" y2="49.5">
	<stop  offset="0" style="stop-color:#EA2126"/>
	<stop  offset="0.9919" style="stop-color:#F4821F"/>
	<stop  offset="1" style="stop-color:#F4821F"/>
</linearGradient>
<path style="fill:url(#pt-1);" d="M18.7,0.1h-4.5h-3.9c-1.2,0-2.2,1-2.2,2.2v17.9c0,1.2-0.8,2.9-1.7,3.6l-1.1,0.9
	c-1,0.8-1.6,2.4-1.5,3.6l2.2,18.2c0.1,1.2,0.1,3.2-0.1,4.4L0.3,85.9c-0.2,1.2-0.1,3.2,0.2,4.4l1.8,6.4c0.3,1.2,1.6,2.2,2.8,2.2h22.7
	c1.2,0,2.5-1,2.8-2.2l1.8-6.4c0.3-1.2,0.4-3.1,0.2-4.4l-5.6-34.8c-0.2-1.2-0.2-3.2-0.1-4.4l2.2-18.2c0.1-1.2-0.5-2.9-1.5-3.6
	l-1.1-0.9c-1-0.8-1.7-2.4-1.7-3.6V2.4c0-1.2-1-2.2-2.2-2.2H18.7z"/>
</svg>
