<?xml version="1.0" encoding="utf-8"?>
<svg version="1.1" xmlns="http://www.w3.org/2000/svg" xmlns:xlink="http://www.w3.org/1999/xlink" x="0" y="0"
	 viewBox="0 0 105 57" width="105" height="57" xml:space="preserve">
<path fill="#FFF" d="M97.7,21.4H83c-2,0-3.6-1.6-3.6-3.6c0-2,1.6-3.6,3.6-3.6h2.7c3.9,0,7.1-3.2,7.1-7.1
	c0-3.9-3.2-7.1-7.1-7.1H29.5c-3.9,0-7.1,3.2-7.1,7.1c0,3.9,3.2,7.1,7.1,7.1h2.7c2,0,3.6,1.6,3.6,3.6c0,2-1.6,3.6-3.6,3.6H7.3
	c-3.9,0-7.1,3.2-7.1,7.1c0,3.9,3.2,7.1,7.1,7.1h50.3c2,0,3.6,1.6,3.6,3.6c0,2-1.6,3.6-3.6,3.6H44c-3.9,0-7.1,3.2-7.1,7.1
	c0,3.9,3.2,7.1,7.1,7.1h44c3.9,0,7.1-3.2,7.1-7.1c0-3.9-3.2-7.1-7.1-7.1h-4.1c-2,0-3.6-1.6-3.6-3.6c0-2,1.6-3.6,3.6-3.6h13.8
	c3.9,0,7.1-3.2,7.1-7.1C104.9,24.6,101.7,21.4,97.7,21.4z"/>
</svg>
