<?xml version="1.0" encoding="utf-8"?>
<!-- Generator: Adobe Illustrator 17.1.0, SVG Export Plug-In . SVG Version: 6.00 Build 0)  -->
<!DOCTYPE svg PUBLIC "-//W3C//DTD SVG 1.1//EN" "http://www.w3.org/Graphics/SVG/1.1/DTD/svg11.dtd">
<svg version="1.1" id="Layer_1" xmlns="http://www.w3.org/2000/svg" xmlns:xlink="http://www.w3.org/1999/xlink" x="0px" y="0px"
	 viewBox="0 0 300 300" enable-background="new 0 0 300 300" xml:space="preserve">
<g>
	<path fill-rule="evenodd" clip-rule="evenodd" fill="#404040" d="M235.7,54.9H78.3l7.2-11.5c0,0,0.1,0,0.3,0l0.5-0.7
		c0,0,117.5-17,126.3-19.2c8.9-2.2,11.1-7.4,11.1-7.4s2.1,7.6,1.6,20.6c3.1,1.7,5.9,4.3,8,7.7c0-9.9,0-19.6,0-23.9
		c0-10.3-11.1-10.3-11.1-10.3L75.9,36.1c0,0-3,0.6-4.4,2.6c-1.2,1.8-10.4,14.6-12.8,18c-1.7,1.3-3.2,3.4-3.2,7.1
		c0,9.3,0,217.2,0,217.2s-1.8,8.9,8.9,8.9c4.5,0,35.5,0,70,0c3-1.4,5.5-3,5.8-4.5c0.7-3.4,2-10.9,0-18c-2-5.3-7.2-9-13.1-11.5
		c-1.5,0.4-3.8,1.1-6,2.3c1.5,1.3,3,2.3,3.2,2.4c0,0-6.2,4.3-7.6,8c-0.9-1.2-4.4-4.7-5.8-5.2c0.7-1.4,4-6.3,7.7-7.9
		c0.4,0.6,1,1.2,1.7,1.9c1.1-1,2.5-2,4.3-2.6c-6.3-2.3-13.1-3.4-17.8-3.9c-0.1,1.6-0.1,3.5,0,5.9c-9.6-1.6-19.4,2.5-19.4,2.5
		c-0.1-0.5-2-10.3,0.2-15.9c4.1-1.5,14.9,0.2,20.3,1.4c-0.4,1.5-0.8,2.9-1,4.3c4.7-0.7,8.9-0.8,12.7-0.5c-1.4-2-4-4.7-8.6-6.8
		c-4.4-2-7.6-4.6-9.6-6.6c-2,0.8-3.8,1.8-5,2.7c-1-5.8-4.2-14.1-8.2-17.5c0,0,10.1-2.4,14.3-5.6c0.7,4.8,1.8,14.4,4.9,18.8
		c-1.5,0-3.5,0.6-5.5,1.4c2.5,1.9,6.4,4.2,11.3,5.5c-0.5-1.8-0.2-3.8,0.1-5c-0.8,0-1.5,0.1-2.3,0.2c-0.3-2.4-0.5-7.1,0.3-8.8
		c2.5-0.7,6.6,0.5,6.8,0.6c0,0-2.2,4.1-1.9,8.2c-1.1-0.2-1.9-0.3-2.6-0.3c-0.1,2,0.5,3.9,1.1,5.3c5.5,1.1,9,5.7,10.8,8.5
		c3.4,0.6,6.4,1.5,9,2.5c-0.1-1.1-0.3-3.2-1.1-4.7c-0.7,0.2-1.4,0.4-2.3,0.8c-0.7-4.1-3.8-7.6-3.8-7.6c0.2-0.1,3.9-2.3,6.5-2.2
		c1.2,1.5,2,6.1,2.4,8.5c-0.9,0.1-1.7,0.2-2.5,0.4c0.8,1.2,1.6,3.4,2.1,5.2c2.1,0.8,3.9,1.6,5.4,2.2c1.3-9.9-3.6-17.9-6.9-22.2
		c-2.3,1.7-4.4,3.5-5.3,4.4c-1.8-6.9-12-16-12-16c0.4-0.2,8.6-4.5,11.3-7.9c6.4,3.6,11.3,13.2,12.2,15.8c-1.1,0.3-3,1.4-5,2.8
		c1.5,1.1,3.3,2.7,5.2,4.8c0.9,1,1.7,2.2,2.4,3.5c1-0.8,2.3-2.2,3.2-4c-1.4-0.5-2.7-0.9-3.3-1c2.9-3.2,4.1-11.3,4.1-11.3
		c0.2,0.1,5.1,2.9,7.7,3.1c0.3,4.4-3,10-4,11.3c-0.5-0.5-1.8-1.1-3.3-1.7c-0.5,1.8-1.6,3.8-3.3,5.7c2,4.3,3.5,9.5,5.1,14.2
		c12.2-10.2,8.7-29.2,6.2-38c-1.7,1.1-3.4,2.5-5.6,4.4c-5.3-9.5-15.7-15.3-15.7-15.3c0.4-0.4,7.6-8.9,14-10.8
		c4.2,2.5,10.2,13.1,12.9,18.7c-1.7,0.7-3.1,1.4-4.5,2.2c3,4.2,5.1,9.5,6.3,14.9c1.6-1.5,3.5-3,5.3-4.2c-0.7-0.5-1.3-1-1.7-1.1
		c0.7-1.4,4-6.3,7.7-7.9c1.3,2.1,5.5,4.9,5.7,5.1c0,0-6.2,4.3-7.6,8c-0.5-0.6-1.7-1.9-3-3.1c-2.8,3.4-4.6,7.9-5.4,10.4
		c0.3,4.5,0,8.9-1,12.5c2.9-1.8,6.8-2.9,11.1-3.5c0.4-4.2,3.9-7.3,6.9-9.3c-1.2-1.5-2.4-2.6-4-3.9c3.9-4,11.8-11.5,16.1-12.5
		c5,3.4,8.9,12.6,9.1,13c0,0-10.5,2.1-17.5,8.8c-1.1-1.8-2-3.2-2.9-4.4c-2.7,3.2-3.5,6.5-3.7,7.9c5.2-0.4,10.7-0.1,15.5,0.5
		c0.4-2.4,0.7-4.7,0.4-5.8c2.8-0.3,13.5,0.1,19.5,4.4c-2,3.9-2.4,13.2-2.4,13.6c0,0-12.5-5.4-19.5-4.1c0.4-1.2,1.1-3.7,1.7-6.4
		c-9.9-0.2-16.1,1.2-21,3.7c3.3,0.3,5.4,0.7,6.8,1.2c0.5-1,0.8-2,0.9-2.5c1.5,0.2,7.2,2,9.7,5.2c-1.6,1.8-3.2,6.7-3.3,6.9
		c0,0-5.9-4.7-9.8-5c0.5-0.7,1.4-2.3,2.2-3.9c-2.8-0.4-6.3-0.4-9.1-0.3c-1.8,1.2-3.5,2.5-5.2,4c-2.1,1.8-3.6,4.2-4.7,6.9
		c0.8,1.2,1.3,2.9,1.3,4.8c0,3.1-1.3,5.6-3.1,6.3c0.2,4.2,1.5,8.1,3.8,10.3c0.8,0.7,2,1.5,3.6,2.1c37.3,0,70.6,0,70.6,0
		c4.9,0,8.9-4,8.9-8.9V63.8C244.6,58.9,240.6,54.9,235.7,54.9z M203.8,181c3.9,0.6,8.9,5,9.1,5.2c0,0-5.7,4.2-8,10.2
		c-3-2-4.7-2.7-7.2-3.4C198.9,189.5,201.6,182.8,203.8,181z M121.3,180.1c-2.7,1.6-6.5,7.1-6.7,7.4c0,0-5.6-8.1-10.4-10
		c1.5-1.2,6.2-5.7,6.8-7.6C112.8,170.8,119.2,175.2,121.3,180.1z M192.6,174.5c0,0-5.7,10.2-5.9,19c-4.5-2.1-11.4-4.7-13.5-4.2
		c2.1-4.1,6.4-15.5,5.9-19C181.5,171.8,189.2,174.5,192.6,174.5z M89.7,227.8c-1.3,1.7-1.7,9-1.5,14c-8.2-3.3-19.8-2.2-19.8-2.2
		c1.4-3.2,2-11.3,1.5-14C72.9,227.4,85.1,228.1,89.7,227.8z M89.9,212.2c-1.9-5.2-10.6-11.4-10.6-11.4c0.3-0.2,6.3-4.2,8.1-7.1
		c5.2,2.3,9.8,9.3,10.7,11.2C96.1,205.7,91.1,210.6,89.9,212.2z M107.4,215.8c-0.5-6.2-6.6-15.4-9.5-20.1c6-0.3,16.6-5.6,16.6-5.6
		c-1,6,2.3,15.6,5.8,21.4C116.9,211.7,110.2,213.6,107.4,215.8z M125.6,206.7c-1.5-4.1-4.9-9.6-8.2-11.6c0,0,7-3.1,9.6-5.9
		c1.1,3.4,3.2,10.2,6.1,12.9C130.8,202.5,127.1,205.1,125.6,206.7z M140.6,196.4c-0.1-1.9-0.7-3.7-1.3-5.3c-1.2,0.7-2.4,1.5-3.9,2.6
		c-3.8-9.1-12.7-15.3-12.7-15.3c0.4-0.3,7.7-7.2,13.7-8.4c3.6,2.7,7.9,12.9,9.8,18.2c-2.1,0.6-3.8,1.2-5.7,2.2
		C141.1,192.9,141.1,195.6,140.6,196.4z M143.6,176.4c-0.5-9.2-6.7-17.6-6.7-17.6c0.5-0.2,9.7-3.9,15.8-3c2.4,3.5,3,13.9,3,19.2
		C151.7,174.8,148.9,175,143.6,176.4z M151.4,196.5c0.4-6-2.7-13.4-2.7-13.4c2.4,0.3,7.7-1.1,9.4-1.9c-0.5,2.4,1.6,10.4,2.7,13.4
		C159.5,194.1,154.6,195.4,151.4,196.5z M160.5,182.3c-0.6-4.6-1.2-13.6,0.3-16.9c4.8-1.4,12.7,0.8,13.1,0.9c0,0-4.1,7.9-3.5,15.9
		C165.9,181.6,163.7,181.7,160.5,182.3z M172.4,211.6c-0.9-0.6-2.2-1.3-3.7-2c-1.1,4.4-3.6,9.8-5.8,12.4c2.4-4.6,3.2-9.8,3.5-13.3
		c-1.9-0.6-3.8-1.1-5.2-1.1c3-4.5,3.8-14.2,4.2-19c4.3,3,14.5,5.1,14.5,5.1C176.1,197.4,173.1,205.7,172.4,211.6z M190.7,219.9
		c-0.5-0.9-1.8-2.3-3.4-3.8c-2.3,2.5-5,6.3-5.8,10.1c0.8-4.3,2.6-8.2,4.6-11.2c-2.3-1.9-4.7-3.7-5.9-4.4
		c6.3-3.4,12.7-15.4,12.7-15.4c0.3,0.4,6.4,7.3,10.4,9.1C201.2,211.3,193,218.4,190.7,219.9z M199.9,216.3
		c5.6-3.6,12.6-10.5,14.4-16.2c0,0,7,9.3,12.1,12.2c-4.6,2.8-14,8.2-17.1,13.4C207.8,222.6,202.8,218,199.9,216.3z M210.3,244.9
		c0.6-2.4-2.4-10.3-4.9-15.4c10.2-0.3,21.8-7,21.8-7c0,4,3.2,12.7,4.9,15.4C228.1,237.5,215,242.5,210.3,244.9z"/>
	<path fill-rule="evenodd" clip-rule="evenodd" fill="#404040" d="M155.7,264.4c-2.2,0.4-3.4,3.5-2.8,7c0.3-3.7,0.9-5.2,2.5-6.1
		C156.6,264.7,155.7,264.4,155.7,264.4z"/>
	<path fill-rule="evenodd" clip-rule="evenodd" fill="#404040" d="M156.9,267.1c-0.9-0.1-1.8,1.3-2,3.1c-0.2,1.8,0.5,3.3,1.4,3.4
		c0.9,0.1,1.8-1.3,2-3.1C158.5,268.7,157.9,267.2,156.9,267.1z"/>
</g>
</svg>
