<?xml version="1.0" encoding="utf-8"?>
<!-- Generator: Adobe Illustrator 17.1.0, SVG Export Plug-In . SVG Version: 6.00 Build 0)  -->
<!DOCTYPE svg PUBLIC "-//W3C//DTD SVG 1.1//EN" "http://www.w3.org/Graphics/SVG/1.1/DTD/svg11.dtd">
<svg version="1.1" id="Layer_1" xmlns="http://www.w3.org/2000/svg" xmlns:xlink="http://www.w3.org/1999/xlink" x="0px" y="0px"
	 viewBox="0 0 100 100" enable-background="new 0 0 100 100" xml:space="preserve">
<g>
	<g>
		<g>
			<path fill-rule="evenodd" clip-rule="evenodd" fill="#DDDDDD" d="M4.7,50.2C4.7,25.1,25,4.8,50.1,4.8c25.1,0,45.4,20.3,45.4,45.4
				c0,25.1-20.3,45.4-45.4,45.4C25,95.6,4.7,75.3,4.7,50.2 M5.9,50.2c0,24.4,19.8,44.2,44.2,44.2c24.4,0,44.2-19.8,44.2-44.2
				S74.5,6,50.1,6C25.7,6,5.9,25.8,5.9,50.2z"/>
		</g>
		<g>
			<path fill="#DDDDDD" d="M14,50.7l-0.2,0c0-0.5-0.1-0.5-0.6-0.5l-2.4,0c-0.5,0-0.5,0-0.6,0.5l-0.2,0l0-1.6l0.2,0
				c0,0.5,0.1,0.5,0.6,0.5l2.4,0c0.5,0,0.5,0,0.6-0.5l0.2,0L14,50.7z"/>
			<path fill="#DDDDDD" d="M10.8,43.7c0,0.3,0,0.5,0.3,0.5c0.2,0,0.4,0.1,1,0.1l2.4,0.3l0,0.2L11,47l0,0l1.5,0.2
				c0.5,0.1,0.8,0.1,1,0.1c0.3,0,0.4-0.1,0.5-0.5l0.2,0L14,48.2l-0.2,0c0-0.3,0-0.5-0.3-0.6c-0.2,0-0.5-0.1-1-0.1l-1.3-0.1
				c-0.4,0-0.5,0-0.6,0.1c-0.2,0.1-0.2,0.2-0.3,0.5l-0.2,0l0.1-0.9l3.2-2.1l0,0L12,44.6c-0.5-0.1-0.8-0.1-1-0.1
				c-0.3,0-0.4,0.1-0.4,0.5l-0.2,0l0.2-1.4L10.8,43.7z"/>
			<path fill="#DDDDDD" d="M12.5,39.6c-0.3,0-0.5,0-0.6,0.1c-0.2,0.1-0.2,0.1-0.3,0.6l-0.1,0.4l2.8,0.7c0.5,0.1,0.5,0.1,0.7-0.5
				l0.2,0l-0.4,1.7l-0.2,0c0.1-0.5,0-0.6-0.4-0.7l-2.8-0.7l-0.1,0.4c-0.1,0.5-0.1,0.6,0,0.7c0.1,0.1,0.2,0.2,0.5,0.3l0,0.2
				c-0.3-0.1-0.7-0.2-1-0.3l0-0.1c0.2,0,0.2-0.1,0.2-0.3l0.5-2.3c0-0.2,0-0.2-0.1-0.3l0-0.1c0.3,0.1,0.7,0.1,1,0.2L12.5,39.6z"/>
			<path fill="#DDDDDD" d="M15.8,36.1c0.2,0.1,0.7,0.4,0.8,0.5l-1,2.7l-0.2-0.1c0.1-0.5,0.1-0.6-0.3-0.7l-2.2-0.8
				c-0.5-0.2-0.5-0.1-0.7,0.3L12,37.9l0.9-2.5c0.1,0.1,0.5,0.2,0.8,0.2l0,0.2c-0.3,0-0.4,0-0.5,0c-0.1,0-0.2,0.2-0.4,0.6l-0.2,0.4
				c-0.1,0.2-0.1,0.2,0.1,0.2l1.3,0.5l0.2-0.5c0.2-0.5,0.1-0.5-0.2-0.8l0.1-0.2l1.1,0.4l-0.1,0.2c-0.4-0.1-0.5,0-0.7,0.4l-0.2,0.5
				l1.1,0.4c0.3,0.1,0.4,0.1,0.5,0c0.1-0.1,0.2-0.3,0.3-0.6c0.2-0.4,0.2-0.6,0.1-0.8c-0.1-0.1-0.2-0.3-0.4-0.5L15.8,36.1z"/>
			<path fill="#DDDDDD" d="M18.6,32.5c0,0.1-0.1,0.1-0.1,0.2c-0.2,0.4-0.4,0.6-0.9,0.6c-0.4,0.1-0.8,0.1-1.1,0.1
				c-0.2,0-0.3,0.1-0.4,0.4L15.9,34l0.8,0.4c0.5,0.2,0.5,0.2,0.8-0.2l0.1,0.1L17,35.7l-0.1-0.1c0.2-0.5,0.2-0.5-0.3-0.7l-2.1-1.1
				c-0.5-0.2-0.5-0.2-0.7,0.2l-0.1-0.1l0.7-1.3c0.2-0.4,0.4-0.6,0.6-0.8c0.2-0.1,0.6-0.2,0.9,0c0.5,0.2,0.6,0.6,0.6,1.1
				c0.2,0,0.7-0.1,1-0.1c0.4-0.1,0.6-0.1,0.8-0.2c0.2-0.1,0.4-0.2,0.4-0.3L18.6,32.5z M15.9,33.6c0.1-0.3,0.2-0.5,0.1-0.7
				c-0.1-0.3-0.2-0.5-0.5-0.6c-0.6-0.3-1,0-1.2,0.4c-0.1,0.2-0.1,0.3-0.1,0.3c0,0.1,0.1,0.1,0.2,0.2l1.3,0.6L15.9,33.6z"/>
			<path fill="#DDDDDD" d="M20.2,30L20,29.9c0.2-0.3,0.2-0.4-0.1-0.5c-0.2-0.1-0.6-0.1-0.9-0.2l-0.7,1.1c0.2,0.2,0.3,0.4,0.5,0.6
				c0.2,0.3,0.3,0.3,0.6,0l0.1,0.1L18.8,32l-0.1-0.1c0.2-0.3,0.2-0.4-0.1-0.9l-1.9-2.7l0.1-0.2c1.1,0.3,2.2,0.5,3.3,0.8
				c0.5,0.1,0.6,0.1,0.9-0.2l0.1,0.1L20.2,30z M17.2,28.7L17.2,28.7c0.3,0.5,0.6,0.9,1,1.3l0.6-0.9L17.2,28.7z"/>
			<path fill="#DDDDDD" d="M22.9,24.9c0.2,0.2,0.4,0.6,0.5,0.8c-0.1,0.2-0.3,0.6-0.6,0.9c-1,1.1-2.2,1-2.9,0.4c-1-0.8-1-2.1-0.1-3.1
				c0.3-0.4,0.7-0.6,0.8-0.7c0.3,0.2,0.5,0.3,0.8,0.5l-0.1,0.2c-0.6-0.3-1-0.2-1.4,0.3c-0.6,0.8-0.3,1.7,0.3,2.3
				c0.9,0.7,1.9,0.7,2.4,0c0.4-0.5,0.3-0.9,0.1-1.5L22.9,24.9z"/>
			<path fill="#DDDDDD" d="M24.5,20.6c-0.2-0.2-0.4-0.2-0.5-0.3c-0.2,0-0.3,0-0.6,0.3L23.1,21l2,2.1c0.3,0.3,0.4,0.4,0.8,0l0.1,0.1
				l-1.2,1.2l-0.1-0.1c0.4-0.4,0.4-0.5,0-0.8l-2-2.1l-0.3,0.3c-0.4,0.3-0.4,0.5-0.4,0.6c0,0.1,0.1,0.3,0.2,0.5l-0.1,0.1
				c-0.2-0.3-0.5-0.6-0.7-0.8l0.1-0.1c0.2,0,0.2,0,0.3-0.1l1.7-1.6c0.1-0.1,0.1-0.2,0.1-0.3l0.1-0.1c0.2,0.2,0.5,0.5,0.8,0.7
				L24.5,20.6z"/>
			<path fill="#DDDDDD" d="M27.4,22.1L27.3,22c0.4-0.3,0.4-0.4,0.1-0.8l-1.5-1.9c-0.3-0.4-0.4-0.4-0.8-0.1L25,19.1l1.2-1l0.1,0.1
				C26,18.5,26,18.6,26.3,19l1.5,1.9c0.3,0.4,0.4,0.4,0.8,0.1l0.1,0.1L27.4,22.1z"/>
			<path fill="#DDDDDD" d="M31.6,16.8c0.7,1.1,0.3,2.2-0.6,2.8c-0.9,0.6-2.1,0.3-2.7-0.7c-0.6-0.9-0.5-2.1,0.6-2.8
				C29.8,15.6,31,15.8,31.6,16.8z M28.8,18.5c0.6,0.9,1.5,1.3,2.3,0.9c0.6-0.3,0.8-1.1,0.2-2.1c-0.7-1.1-1.6-1.3-2.2-0.9
				C28.4,16.8,28.2,17.6,28.8,18.5z"/>
			<path fill="#DDDDDD" d="M35.6,13c-0.3,0.2-0.4,0.3-0.3,0.5c0.1,0.2,0.2,0.4,0.4,0.9l1,2.2l-0.2,0.1L32.9,15l0,0l0.6,1.4
				c0.2,0.5,0.4,0.8,0.4,0.9c0.2,0.3,0.3,0.3,0.7,0.1l0.1,0.2l-1.3,0.6l-0.1-0.2c0.3-0.2,0.4-0.3,0.3-0.6c-0.1-0.2-0.2-0.4-0.4-0.9
				l-0.5-1.2c-0.2-0.4-0.2-0.4-0.4-0.5c-0.2-0.1-0.3-0.1-0.6,0l-0.1-0.2l0.8-0.4l3.5,1.7l0,0l-0.6-1.3c-0.2-0.5-0.4-0.7-0.4-0.9
				c-0.1-0.2-0.3-0.2-0.7-0.1l-0.1-0.2l1.3-0.6L35.6,13z"/>
			<path fill="#DDDDDD" d="M40.5,11.4c0.7-0.2,1.3-0.2,1.8,0.1c0.3,0.2,0.7,0.6,0.8,1.1c0.2,0.7,0,1.3-0.3,1.7
				c-0.4,0.4-0.9,0.7-1.6,0.9l-1.4,0.3l0-0.2c0.5-0.2,0.5-0.2,0.4-0.7l-0.6-2.3c-0.1-0.5-0.2-0.5-0.6-0.4l0-0.2L40.5,11.4z
				 M40.6,14.5c0.1,0.4,0.3,0.5,0.7,0.4c1.1-0.3,1.4-1.2,1.2-2.1c-0.1-0.6-0.5-1.1-1-1.2c-0.3-0.1-0.7-0.1-1,0
				c-0.2,0.1-0.4,0.1-0.4,0.2c0,0.1-0.1,0.1,0,0.3L40.6,14.5z"/>
			<path fill="#DDDDDD" d="M47.3,13.2c0,0.2-0.1,0.8-0.1,1l-2.8,0.3l0-0.2c0.5-0.1,0.6-0.2,0.5-0.6l-0.3-2.4
				c-0.1-0.5-0.1-0.5-0.6-0.5l0-0.2l2.6-0.3c0,0.1,0.1,0.5,0.1,0.8l-0.2,0c-0.1-0.2-0.2-0.4-0.2-0.5c-0.1-0.1-0.3-0.1-0.7-0.1
				l-0.4,0.1c-0.2,0-0.2,0-0.2,0.2l0.2,1.3l0.6-0.1c0.5-0.1,0.6-0.1,0.6-0.5l0.2,0l0.1,1.1l-0.2,0c-0.1-0.4-0.2-0.4-0.7-0.4
				l-0.6,0.1l0.1,1.1c0,0.3,0.1,0.4,0.2,0.5c0.1,0.1,0.3,0,0.6,0c0.4-0.1,0.6-0.1,0.7-0.3c0.1-0.1,0.2-0.3,0.2-0.6L47.3,13.2z"/>
			<path fill="#DDDDDD" d="M50.3,11.1c-0.1-0.4-0.3-0.8-0.8-0.8c-0.5,0-0.7,0.3-0.7,0.7c0,0.4,0.3,0.6,0.8,0.9c0.5,0.2,1,0.5,1,1.2
				c0,0.6-0.5,1.1-1.3,1.1c-0.2,0-0.4,0-0.6-0.1C48.6,14,48.5,14,48.5,14c0-0.1-0.1-0.6-0.2-0.9l0.2,0c0.1,0.4,0.4,1,1,1
				c0.4,0,0.7-0.3,0.7-0.7c0-0.4-0.3-0.6-0.8-0.9c-0.4-0.2-1-0.5-1-1.2c0-0.6,0.5-1.1,1.2-1.1c0.3,0,0.5,0.1,0.7,0.1
				c0,0.2,0.1,0.4,0.1,0.8L50.3,11.1z"/>
			<path fill="#DDDDDD" d="M51.6,14.1l0-0.2c0.5,0,0.5,0,0.6-0.5l0.1-2.4c0-0.5,0-0.5-0.5-0.6l0-0.2l1.6,0.1l0,0.2
				c-0.5,0-0.5,0-0.6,0.5l-0.1,2.4c0,0.5,0,0.5,0.5,0.6l0,0.2L51.6,14.1z"/>
			<path fill="#DDDDDD" d="M58.1,13.3c-0.4,0-0.4,0-0.4,0.4l-0.1,0.5c0,0.2-0.1,0.4,0,0.6c-0.4,0-0.9,0.1-1.4,0
				c-1.3-0.2-2-1.2-1.8-2.3c0.2-1.4,1.4-1.8,2.6-1.7c0.5,0.1,0.9,0.3,1.1,0.4c0,0.2,0,0.5-0.1,0.9l-0.2,0c0-0.7-0.4-1-1-1.1
				c-0.9-0.1-1.7,0.4-1.8,1.5c-0.1,0.8,0.2,1.9,1.3,2.1c0.2,0,0.4,0,0.5,0c0.1,0,0.2-0.1,0.2-0.4l0.1-0.5c0.1-0.4,0-0.5-0.5-0.6
				l0-0.2l1.5,0.2L58.1,13.3z"/>
			<path fill="#DDDDDD" d="M63.6,12.7c-0.3-0.1-0.5,0-0.6,0.2c-0.1,0.2-0.2,0.4-0.3,0.9L62,16.1l-0.2-0.1l-1.5-3.7l0,0l-0.4,1.4
				c-0.2,0.5-0.2,0.8-0.3,1c-0.1,0.3,0.1,0.4,0.4,0.5l0,0.2L58.6,15l0-0.2c0.3,0.1,0.5,0.1,0.6-0.2c0.1-0.2,0.2-0.4,0.3-1l0.4-1.3
				c0.1-0.4,0.1-0.4,0.1-0.6c-0.1-0.2-0.2-0.3-0.4-0.4l0-0.2l0.8,0.3l1.5,3.6l0,0l0.4-1.4c0.2-0.5,0.2-0.8,0.2-1
				c0-0.3-0.1-0.4-0.5-0.5l0-0.2l1.3,0.4L63.6,12.7z"/>
			<path fill="#DDDDDD" d="M68.7,15.8c0.1-0.2,0.1-0.4,0.1-0.5c0-0.2-0.1-0.3-0.5-0.5l-0.4-0.2c-0.2-0.1-0.2-0.1-0.3,0.1l-0.6,1.3
				l0.5,0.3c0.5,0.2,0.5,0.2,0.8-0.1l0.1,0.1l-0.5,1l-0.1-0.1c0.1-0.4,0.1-0.5-0.4-0.7l-0.5-0.3l-0.5,1c-0.2,0.5-0.2,0.5,0.3,0.8
				L66.5,18l-1.4-0.7l0.1-0.1c0.4,0.2,0.5,0.2,0.7-0.3l1.1-2.1c0.2-0.5,0.2-0.5-0.2-0.7l0.1-0.1l2.3,1.2c-0.1,0.2-0.2,0.5-0.3,0.8
				L68.7,15.8z"/>
			<path fill="#DDDDDD" d="M72.7,19.5c-0.7,1.1-1.9,1.2-2.8,0.6c-0.9-0.6-1.2-1.8-0.5-2.7c0.6-0.9,1.8-1.3,2.8-0.6
				C73,17.3,73.4,18.5,72.7,19.5z M70,17.6c-0.6,0.9-0.6,2,0.1,2.4c0.6,0.4,1.4,0.2,2-0.7c0.7-1,0.5-2-0.1-2.4
				C71.4,16.5,70.6,16.6,70,17.6z"/>
			<path fill="#DDDDDD" d="M77.8,21.5c-0.3-0.2-0.4-0.2-0.6-0.1c-0.1,0.1-0.3,0.3-0.7,0.7l-0.3,0.4c-0.5,0.5-0.9,0.8-1.4,0.9
				c-0.4,0-0.8-0.1-1.1-0.4c-0.3-0.2-0.5-0.5-0.5-0.8c-0.1-0.4,0.1-0.9,0.5-1.4l1-1.1c0.4-0.4,0.3-0.5,0-0.8l0.1-0.1l1.2,1l-0.1,0.1
				c-0.4-0.3-0.4-0.3-0.8,0.1l-0.9,1c-0.6,0.7-0.7,1.4-0.1,1.9c0.6,0.6,1.3,0.2,2-0.5l0.3-0.3c0.4-0.4,0.5-0.6,0.6-0.8
				c0.1-0.2,0.1-0.3-0.2-0.6l0.1-0.1l1.1,0.9L77.8,21.5z"/>
			<path fill="#DDDDDD" d="M81.4,25.5c-0.2-0.2-0.4-0.3-0.6-0.1c-0.1,0.1-0.4,0.3-0.8,0.6l-1.8,1.6l-0.1-0.1l0.7-4l0,0l-1.1,1
				c-0.4,0.4-0.6,0.6-0.7,0.7c-0.2,0.2-0.2,0.4,0.1,0.7l-0.1,0.1l-0.9-1.1l0.1-0.1c0.2,0.2,0.4,0.3,0.6,0.1c0.2-0.1,0.4-0.3,0.8-0.6
				l1-0.9c0.3-0.3,0.3-0.3,0.4-0.5c0-0.2,0-0.3-0.2-0.5l0.1-0.1l0.6,0.7l-0.6,3.8l0,0l1.1-1c0.4-0.4,0.6-0.6,0.7-0.7
				c0.2-0.2,0.1-0.4-0.1-0.7l0.1-0.1l0.9,1.1L81.4,25.5z"/>
			<path fill="#DDDDDD" d="M83.3,27.9c0.4,0.6,0.6,1.2,0.5,1.7c-0.1,0.4-0.3,0.8-0.8,1.1c-0.6,0.4-1.2,0.5-1.7,0.3
				c-0.5-0.2-1-0.6-1.4-1.2l-0.8-1.2l0.1-0.1c0.3,0.4,0.4,0.4,0.8,0.1l2-1.3c0.4-0.3,0.4-0.3,0.2-0.7l0.1-0.1L83.3,27.9z M80.3,29
				c-0.4,0.2-0.4,0.5-0.1,0.8c0.6,0.9,1.6,0.9,2.4,0.4c0.5-0.3,0.8-0.8,0.8-1.4c0-0.3-0.1-0.6-0.4-1c-0.1-0.2-0.2-0.3-0.3-0.3
				c-0.1,0-0.1,0-0.3,0.1L80.3,29z"/>
			<path fill="#DDDDDD" d="M82.7,34.6l0.1-0.1c0.2,0.3,0.3,0.3,0.4,0.2c0.2-0.2,0.4-0.4,0.7-0.7l-0.6-1.1c-0.3,0-0.5,0.1-0.8,0.1
				c-0.4,0-0.4,0.1-0.3,0.5l-0.1,0.1l-0.6-1.2l0.1-0.1c0.2,0.3,0.3,0.4,0.8,0.3l3.3-0.3l0.1,0.1c-0.8,0.8-1.6,1.6-2.3,2.4
				c-0.4,0.4-0.4,0.5-0.2,0.9l-0.1,0.1L82.7,34.6z M85.3,32.6L85.3,32.6c-0.5,0-1.1,0.1-1.6,0.2l0.5,1L85.3,32.6z"/>
			<path fill="#DDDDDD" d="M87.3,38.2c0.2-0.2,0.4-0.3,0.4-0.4c0.1-0.1,0.1-0.2,0-0.7l-0.1-0.4l-2.7,1c-0.4,0.2-0.5,0.2-0.3,0.8
				l-0.2,0.1L83.7,37l0.2-0.1c0.2,0.5,0.3,0.5,0.7,0.4l2.8-1l-0.1-0.3c-0.2-0.5-0.3-0.6-0.4-0.6c-0.1,0-0.3,0-0.6,0l-0.1-0.2
				c0.3-0.1,0.7-0.2,1-0.3l0,0.1c-0.1,0.1-0.1,0.2,0,0.4l0.8,2.2c0.1,0.2,0.1,0.2,0.2,0.2l0,0.1c-0.3,0.1-0.7,0.3-1,0.4L87.3,38.2z"
				/>
			<path fill="#DDDDDD" d="M84.8,40.2l0.2,0c0.2,0.5,0.2,0.5,0.7,0.4l2.3-0.6c0.5-0.1,0.5-0.2,0.4-0.7l0.2,0l0.4,1.5l-0.2,0
				c-0.2-0.5-0.2-0.5-0.7-0.4L85.8,41c-0.5,0.1-0.5,0.2-0.4,0.7l-0.2,0L84.8,40.2z"/>
			<path fill="#DDDDDD" d="M88,46.2c-1.3,0.2-2.2-0.6-2.4-1.6c-0.2-1.1,0.5-2,1.7-2.2c1.1-0.2,2.2,0.4,2.3,1.7
				C89.8,45,89.2,46,88,46.2z M87.6,42.9c-1.1,0.2-1.8,0.9-1.7,1.7c0.1,0.7,0.7,1.2,1.9,1c1.2-0.2,1.8-0.9,1.7-1.7
				C89.4,43.2,88.7,42.7,87.6,42.9z"/>
			<path fill="#DDDDDD" d="M90,51.3c0-0.3-0.1-0.5-0.4-0.5c-0.2,0-0.4,0-1,0l-2.4,0.1l0-0.2l3-2.6l0,0l-1.5,0.1c-0.5,0-0.8,0-1,0.1
				c-0.3,0-0.4,0.2-0.4,0.6l-0.2,0l0-1.4l0.2,0c0,0.3,0.1,0.5,0.4,0.5c0.2,0,0.5,0,1,0l1.3,0c0.4,0,0.5,0,0.6-0.1
				c0.1-0.1,0.2-0.3,0.2-0.5l0.2,0l0,0.9l-2.9,2.6l0,0l1.5-0.1c0.5,0,0.8-0.1,1-0.1c0.3,0,0.3-0.2,0.3-0.6l0.2,0l0,1.4L90,51.3z"/>
		</g>
		<g>
			<g>
				<path fill-rule="evenodd" clip-rule="evenodd" fill="#DDDDDD" d="M36.8,83l-0.1,1.9h-5.3v-0.3c0.1,0,0.2,0,0.4,0
					c0.1,0,0.2,0,0.3-0.1c0.1,0,0.2-0.1,0.2-0.2c0-0.1,0.1-0.2,0.1-0.3v-4.6c0-0.1,0-0.2,0-0.3c0-0.1-0.1-0.1-0.2-0.2
					c-0.1,0-0.2-0.1-0.3-0.1c-0.1,0-0.2,0-0.3-0.1v-0.3h5V80H36c-0.1-0.2-0.2-0.5-0.4-0.7c-0.2-0.3-0.4-0.4-0.6-0.4
					c-0.1,0-0.2,0-0.3,0c-0.1,0-0.3,0-0.4,0h-1v2.5H34c0.2,0,0.4,0,0.5-0.1c0.1,0,0.2-0.1,0.3-0.2c0.1-0.1,0.1-0.2,0.2-0.4
					c0-0.1,0.1-0.3,0.1-0.4h0.3v2.5h-0.3c0-0.1,0-0.3-0.1-0.5c0-0.2-0.1-0.3-0.2-0.3c-0.1-0.1-0.2-0.2-0.3-0.2
					c-0.1,0-0.3-0.1-0.5-0.1l-0.7,0v1.9c0,0.2,0,0.3,0,0.5c0,0.1,0.1,0.2,0.2,0.3c0.1,0.1,0.2,0.1,0.3,0.1c0.1,0,0.3,0,0.6,0
					c0.1,0,0.2,0,0.4,0c0.2,0,0.3,0,0.4,0c0.1,0,0.2,0,0.4-0.1c0.1,0,0.2-0.1,0.3-0.1c0.1-0.1,0.3-0.4,0.4-0.7
					c0.2-0.3,0.2-0.5,0.3-0.6H36.8z"/>
			</g>
			<g>
				<path fill-rule="evenodd" clip-rule="evenodd" fill="#DDDDDD" d="M40.3,82.7c0.1,0.1,0.2,0.2,0.3,0.4c0.1,0.1,0.1,0.3,0.1,0.5
					c0,0.4-0.2,0.7-0.5,1C40,84.9,39.6,85,39.1,85c-0.3,0-0.5,0-0.7-0.1c-0.2-0.1-0.4-0.2-0.5-0.3l-0.1,0.3h-0.3l0-1.5h0.3
					c0,0.1,0.1,0.3,0.2,0.4c0.1,0.2,0.2,0.3,0.3,0.4c0.1,0.1,0.3,0.2,0.4,0.3c0.2,0.1,0.3,0.1,0.5,0.1c0.3,0,0.5-0.1,0.7-0.2
					c0.2-0.1,0.2-0.3,0.2-0.6c0-0.1,0-0.2-0.1-0.3c0-0.1-0.1-0.2-0.2-0.2c-0.1-0.1-0.2-0.1-0.4-0.2c-0.1-0.1-0.3-0.1-0.5-0.2
					c-0.1,0-0.3-0.1-0.5-0.2c-0.2-0.1-0.3-0.2-0.4-0.3c-0.1-0.1-0.2-0.2-0.3-0.4c-0.1-0.2-0.1-0.3-0.1-0.5c0-0.4,0.1-0.7,0.4-0.9
					c0.3-0.3,0.6-0.4,1.1-0.4c0.2,0,0.3,0,0.5,0.1c0.2,0,0.3,0.1,0.4,0.2l0.1-0.2h0.3l0.1,1.4h-0.3c-0.1-0.3-0.2-0.6-0.4-0.8
					c-0.2-0.2-0.5-0.3-0.8-0.3c-0.2,0-0.4,0.1-0.6,0.2c-0.1,0.1-0.2,0.3-0.2,0.5c0,0.1,0,0.2,0.1,0.3c0,0.1,0.1,0.2,0.2,0.2
					c0.1,0.1,0.2,0.1,0.3,0.2c0.1,0.1,0.3,0.1,0.5,0.2c0.2,0.1,0.4,0.1,0.6,0.2C40.1,82.5,40.2,82.6,40.3,82.7"/>
			</g>
			<g>
				<path fill-rule="evenodd" clip-rule="evenodd" fill="#DDDDDD" d="M44.2,84.7c-0.2,0.1-0.4,0.1-0.6,0.2C43.4,85,43.2,85,43,85
					c-0.4,0-0.6-0.1-0.8-0.3c-0.1-0.2-0.2-0.5-0.2-0.8v-3h-0.8v-0.4H42v-1.4h0.8v1.4h1.3v0.4h-1.3v2.5c0,0.2,0,0.3,0,0.5
					c0,0.1,0,0.2,0.1,0.3c0,0.1,0.1,0.2,0.2,0.2c0.1,0,0.2,0.1,0.4,0.1c0.1,0,0.2,0,0.3,0c0.1,0,0.2,0,0.3-0.1V84.7z"/>
			</g>
			<g>
				<path fill-rule="evenodd" clip-rule="evenodd" fill="#DDDDDD" d="M46.2,84.4c0,0.2-0.1,0.3-0.2,0.4C45.9,85,45.7,85,45.5,85
					c-0.2,0-0.3-0.1-0.4-0.2c-0.1-0.1-0.2-0.3-0.2-0.4c0-0.2,0.1-0.3,0.2-0.4c0.1-0.1,0.3-0.2,0.4-0.2c0.2,0,0.3,0.1,0.4,0.2
					C46.1,84.1,46.2,84.2,46.2,84.4"/>
			</g>
			<g>
				<path fill-rule="evenodd" clip-rule="evenodd" fill="#DDDDDD" d="M53,84.9h-4.2v-0.6c0.1-0.1,0.2-0.2,0.3-0.3
					c0.1-0.1,0.3-0.2,0.5-0.4c0.1-0.1,0.3-0.2,0.4-0.3c0.2-0.1,0.4-0.2,0.6-0.3c0.2-0.1,0.4-0.2,0.6-0.3c0.1-0.1,0.2-0.2,0.3-0.4
					c0.1-0.1,0.1-0.2,0.2-0.4c0-0.1,0.1-0.3,0.1-0.6c0-0.4-0.1-0.7-0.3-0.8c-0.2-0.2-0.5-0.3-0.8-0.3c-0.2,0-0.4,0-0.6,0.1
					c-0.2,0.1-0.3,0.2-0.4,0.3c0,0.1,0,0.2,0.1,0.3c0,0.1,0,0.3,0,0.4c0,0.1,0,0.2-0.1,0.3c-0.1,0.1-0.2,0.1-0.4,0.1
					c-0.1,0-0.3-0.1-0.3-0.2c-0.1-0.1-0.1-0.2-0.1-0.4c0-0.2,0-0.3,0.1-0.5c0.1-0.2,0.2-0.3,0.4-0.5c0.2-0.1,0.4-0.2,0.6-0.3
					c0.2-0.1,0.5-0.1,0.8-0.1c0.6,0,1.1,0.1,1.5,0.4c0.4,0.3,0.5,0.6,0.5,1.1c0,0.2,0,0.4-0.1,0.6c-0.1,0.2-0.2,0.3-0.3,0.5
					c-0.2,0.2-0.3,0.3-0.6,0.4c-0.2,0.1-0.5,0.3-1,0.5c-0.3,0.1-0.5,0.2-0.7,0.4c-0.2,0.1-0.4,0.3-0.6,0.4H53V84.9z"/>
			</g>
			<g>
				<path fill-rule="evenodd" clip-rule="evenodd" fill="#DDDDDD" d="M57.5,82.5c0-0.7-0.1-1.3-0.4-1.7c-0.2-0.4-0.6-0.6-1-0.6
					c-0.4,0-0.8,0.2-1,0.6c-0.2,0.4-0.4,1-0.4,1.7c0,0.7,0.1,1.2,0.4,1.6c0.2,0.4,0.6,0.6,1,0.6c0.4,0,0.8-0.2,1-0.6
					C57.3,83.7,57.5,83.2,57.5,82.5 M57.9,80.7c0.2,0.2,0.3,0.5,0.4,0.8c0.1,0.3,0.1,0.6,0.1,1c0,0.4-0.1,0.8-0.2,1.1
					c-0.1,0.3-0.3,0.6-0.5,0.8c-0.2,0.2-0.5,0.4-0.8,0.5c-0.3,0.1-0.6,0.2-1,0.2c-0.4,0-0.7-0.1-1-0.2c-0.3-0.1-0.6-0.3-0.7-0.5
					c-0.2-0.2-0.3-0.5-0.4-0.8c-0.1-0.3-0.1-0.7-0.1-1c0-0.4,0-0.7,0.1-1c0.1-0.3,0.2-0.6,0.4-0.8c0.2-0.2,0.4-0.4,0.7-0.6
					c0.3-0.1,0.7-0.2,1-0.2c0.4,0,0.8,0.1,1.1,0.2C57.4,80.3,57.7,80.5,57.9,80.7z"/>
			</g>
			<g>
				<path fill-rule="evenodd" clip-rule="evenodd" fill="#DDDDDD" d="M62.9,82.5c0-0.7-0.1-1.3-0.4-1.7c-0.2-0.4-0.6-0.6-1-0.6
					c-0.4,0-0.8,0.2-1,0.6c-0.2,0.4-0.4,1-0.4,1.7c0,0.7,0.1,1.2,0.4,1.6c0.2,0.4,0.6,0.6,1,0.6c0.4,0,0.8-0.2,1-0.6
					C62.8,83.7,62.9,83.2,62.9,82.5 M63.3,80.7c0.2,0.2,0.3,0.5,0.4,0.8c0.1,0.3,0.1,0.6,0.1,1c0,0.4-0.1,0.8-0.2,1.1
					c-0.1,0.3-0.3,0.6-0.5,0.8c-0.2,0.2-0.5,0.4-0.7,0.5c-0.3,0.1-0.6,0.2-1,0.2c-0.4,0-0.7-0.1-1-0.2c-0.3-0.1-0.6-0.3-0.7-0.5
					c-0.2-0.2-0.3-0.5-0.4-0.8c-0.1-0.3-0.1-0.7-0.1-1c0-0.4,0-0.7,0.1-1c0.1-0.3,0.2-0.6,0.4-0.8c0.2-0.2,0.4-0.4,0.7-0.6
					c0.3-0.1,0.7-0.2,1-0.2c0.4,0,0.8,0.1,1.1,0.2C62.9,80.3,63.1,80.5,63.3,80.7z"/>
			</g>
			<g>
				<path fill-rule="evenodd" clip-rule="evenodd" fill="#DDDDDD" d="M68.8,84.9h-4.2v-0.6c0.1-0.1,0.2-0.2,0.3-0.3
					c0.1-0.1,0.3-0.2,0.5-0.4c0.1-0.1,0.3-0.2,0.4-0.3c0.2-0.1,0.4-0.2,0.6-0.3c0.2-0.1,0.4-0.2,0.6-0.3c0.1-0.1,0.2-0.2,0.3-0.4
					c0.1-0.1,0.1-0.2,0.2-0.4c0-0.1,0.1-0.3,0.1-0.6c0-0.4-0.1-0.7-0.3-0.8c-0.2-0.2-0.5-0.3-0.8-0.3c-0.2,0-0.4,0-0.6,0.1
					c-0.2,0.1-0.3,0.2-0.4,0.3c0,0.1,0,0.2,0.1,0.3c0,0.1,0,0.3,0,0.4c0,0.1,0,0.2-0.1,0.3c-0.1,0.1-0.2,0.1-0.4,0.1
					c-0.1,0-0.3-0.1-0.3-0.2c-0.1-0.1-0.1-0.2-0.1-0.4c0-0.2,0-0.3,0.1-0.5c0.1-0.2,0.2-0.3,0.4-0.5c0.2-0.1,0.4-0.2,0.6-0.3
					c0.2-0.1,0.5-0.1,0.8-0.1c0.6,0,1.1,0.1,1.5,0.4c0.4,0.3,0.5,0.6,0.5,1.1c0,0.2,0,0.4-0.1,0.6c-0.1,0.2-0.2,0.3-0.3,0.5
					c-0.2,0.2-0.3,0.3-0.6,0.4c-0.2,0.1-0.5,0.3-1,0.5c-0.3,0.1-0.5,0.2-0.7,0.4c-0.2,0.1-0.4,0.3-0.6,0.4h3.5V84.9z"/>
			</g>
		</g>
		<g>
			<g>
				<path fill-rule="evenodd" clip-rule="evenodd" fill="#DDDDDD" d="M36.9,36.2c0,0,2.8-1.2,3.8-2.4c0.4,1.4,1.3,4.1,2.4,5.2
					c-0.9,0.2-2.4,1.2-3,1.8C39.6,39.2,38.3,37,36.9,36.2 M52.3,28.1c-1.6-0.1-2.7,0-4.9,0.6c-0.2-3.7-2.7-7-2.7-7
					c0.2-0.1,3.9-1.6,6.3-1.2C52.1,21.9,52.3,26,52.3,28.1z M54.7,73.4c0.3,0.3,0.8,0.6,1.5,0.9l-12.5,0c1.2-0.6,2.3-1.2,2.4-1.8
					c0.3-1.4,0.8-4.4,0-7.2c-0.8-2.1-2.9-3.6-5.2-4.6c-0.6,0.1-1.5,0.4-2.4,0.9c0.6,0.5,1.2,0.9,1.3,1c0,0-2.5,1.7-3,3.2
					c-0.4-0.5-1.8-1.9-2.3-2.1c0.3-0.6,1.6-2.5,3.1-3.2c0.1,0.2,0.4,0.5,0.7,0.8c0.4-0.4,1-0.8,1.7-1c-2.5-0.9-5.2-1.4-7.1-1.6
					c0,0.7,0,1.4,0,2.4c-3.8-0.6-7.8,1-7.8,1c0-0.2-0.8-4.1,0.1-6.4c1.7-0.6,6,0.1,8.2,0.5c-0.2,0.6-0.3,1.2-0.4,1.7
					c1.9-0.3,3.6-0.3,5.1-0.2c-0.6-0.8-1.6-1.9-3.4-2.7c-1.8-0.8-3-1.8-3.9-2.6c-0.8,0.3-1.5,0.7-2,1.1c-0.4-2.3-1.7-5.6-3.3-7
					c0,0,4-1,5.7-2.2c0.3,1.9,0.7,5.8,2,7.5c-0.6,0-1.4,0.2-2.2,0.6c1,0.7,2.6,1.7,4.5,2.2c-0.2-0.7-0.1-1.5,0-2
					c-0.3,0-0.6,0-0.9,0.1c-0.1-1-0.2-2.8,0.1-3.5c1-0.3,2.7,0.2,2.7,0.2c0,0-0.9,1.6-0.8,3.3c-0.4-0.1-0.8-0.1-1.1-0.1
					c0,0.8,0.2,1.6,0.5,2.1c2.2,0.5,3.6,2.3,4.3,3.4c1.4,0.3,2.6,0.6,3.6,1c0-0.4-0.1-1.3-0.4-1.9c-0.3,0.1-0.6,0.2-0.9,0.3
					c-0.3-1.7-1.5-3-1.5-3c0.1,0,1.6-0.9,2.6-0.9c0.5,0.6,0.8,2.4,0.9,3.4c-0.4,0-0.7,0.1-1,0.1c0.3,0.5,0.6,1.4,0.8,2.1
					c0.8,0.3,1.6,0.6,2.2,0.9c0.5-4-1.4-7.2-2.8-8.9c-0.9,0.7-1.8,1.4-2.1,1.8c-0.7-2.8-4.8-6.4-4.8-6.4c0.2-0.1,3.4-1.8,4.5-3.2
					c2.6,1.4,4.5,5.3,4.9,6.3c-0.4,0.1-1.2,0.6-2,1.1c0.6,0.4,1.3,1.1,2.1,1.9c0.4,0.4,0.7,0.9,1,1.4c0.4-0.3,0.9-0.9,1.3-1.6
					c-0.6-0.2-1.1-0.4-1.3-0.4c1.2-1.3,1.7-4.5,1.7-4.5c0.1,0.1,2,1.2,3.1,1.2c0.1,1.8-1.2,4-1.6,4.6c-0.2-0.2-0.7-0.5-1.3-0.7
					c-0.2,0.7-0.6,1.5-1.3,2.3c0.8,1.7,1.4,3.8,2.1,5.7c4.9-4.1,3.5-11.7,2.5-15.2c-0.7,0.4-1.4,1-2.3,1.8c-2.1-3.8-6.3-6.1-6.3-6.1
					c0.1-0.2,3-3.6,5.6-4.3c1.7,1,4.1,5.3,5.2,7.5c-0.7,0.3-1.3,0.6-1.8,0.9c1.2,1.7,2,3.8,2.5,6c0.6-0.6,1.4-1.2,2.1-1.7
					c-0.3-0.2-0.5-0.4-0.7-0.4c0.3-0.6,1.6-2.5,3.1-3.2c0.5,0.8,2.2,2,2.3,2c0,0-2.5,1.7-3,3.2c-0.2-0.3-0.7-0.8-1.2-1.2
					c-1.1,1.4-1.8,3.2-2.2,4.2c0.1,1.8,0,3.6-0.4,5c1.1-0.7,2.7-1.2,4.5-1.4c0.2-1.7,1.6-2.9,2.8-3.7c-0.5-0.6-1-1.1-1.6-1.6
					c1.6-1.6,4.7-4.6,6.5-5c2,1.4,3.6,5,3.6,5.2c0,0-4.2,0.9-7,3.5c-0.4-0.7-0.8-1.3-1.2-1.8c-1.1,1.3-1.4,2.6-1.5,3.2
					c2.1-0.1,4.3-0.1,6.2,0.2c0.2-1,0.3-1.9,0.2-2.3c1.1-0.1,5.4,0,7.8,1.7c-0.8,1.6-1,5.3-1,5.5c0,0-5-2.2-7.8-1.6
					c0.2-0.5,0.5-1.5,0.7-2.6c-4-0.1-6.5,0.5-8.4,1.5c1.3,0.1,2.2,0.3,2.7,0.5c0.2-0.4,0.3-0.8,0.3-1c0.6,0.1,2.9,0.8,3.9,2.1
					c-0.7,0.7-1.3,2.7-1.3,2.8c0,0-2.4-1.9-3.9-2c0.2-0.3,0.6-0.9,0.9-1.5c-1.1-0.2-2.5-0.2-3.7-0.1c-0.7,0.5-1.4,1-2.1,1.6
					c-0.8,0.7-1.5,1.7-1.9,2.8c0.3,0.5,0.5,1.2,0.5,1.9c0,1.2-0.5,2.3-1.2,2.5C53.2,70.9,53.8,72.5,54.7,73.4z M53.4,66.4
					c0.1-0.7-0.2-1.3-0.6-1.4c-0.4,0-0.7,0.5-0.8,1.2c-0.1,0.7,0.2,1.3,0.6,1.4C52.9,67.7,53.3,67.2,53.4,66.4z M52.3,64
					c-0.9,0.2-1.4,1.4-1.1,2.8c0.1-1.5,0.4-2.1,1-2.5C52.6,64.1,52.3,64,52.3,64z M44.2,35.6c-1.5-3.6-5.1-6.2-5.1-6.2
					c0.1-0.1,3.1-2.9,5.5-3.4c1.4,1.1,3.2,5.2,3.9,7.3c-0.8,0.2-1.5,0.5-2.3,0.9c0.2,1,0.2,2.1,0,2.4c-0.1-0.8-0.3-1.5-0.5-2.1
					C45.3,34.9,44.8,35.2,44.2,35.6z M25.8,49.3C25.3,50,25.1,53,25.2,55c-3.3-1.3-8-0.9-8-0.9c0.6-1.3,0.8-4.5,0.6-5.6
					C19.1,49.2,24,49.4,25.8,49.3z M38.1,42.8c-1.3,0.1-4,0.8-5.1,1.7c-0.2-2.5-2.6-6.2-3.8-8.1c2.4-0.1,6.7-2.3,6.7-2.3
					C35.4,36.6,36.7,40.5,38.1,42.8z M58.2,31c-1.8-0.3-2.7-0.2-4,0c-0.2-1.8-0.5-5.4,0.1-6.8c1.9-0.6,5.1,0.3,5.3,0.4
					C59.6,24.7,58,27.8,58.2,31z M35.8,33.2c0,0-2.3-3.3-4.2-4c0.6-0.5,2.5-2.3,2.7-3c0.7,0.4,3.3,2.1,4.1,4.1
					C37.4,30.9,35.9,33.1,35.8,33.2z M62.1,42.4c2.5-1.3,5.1-6.2,5.1-6.2c0.1,0.1,2.6,2.9,4.2,3.7c-0.8,2.8-4.1,5.6-5,6.2
					c-0.2-0.4-0.7-0.9-1.4-1.5c-0.9,1-2,2.5-2.3,4.1c0.3-1.7,1-3.3,1.8-4.5C63.6,43.4,62.6,42.7,62.1,42.4z M74.2,56.2
					c0.2-1-1-4.1-2-6.2c4.1-0.1,8.7-2.8,8.7-2.8c0,1.6,1.3,5.1,2,6.2C81.3,53.2,76.1,55.2,74.2,56.2z M70,44.7
					c2.2-1.4,5.1-4.2,5.8-6.5c0,0,2.8,3.7,4.9,4.9c-1.9,1.1-5.6,3.3-6.9,5.4C73.2,47.2,71.2,45.4,70,44.7z M59.3,33.9
					c0.8-1.6,2.5-6.2,2.4-7.6c0.9,0.6,4,1.7,5.4,1.7c0,0-2.3,4.1-2.4,7.6C62.9,34.7,60.2,33.7,59.3,33.9z M57.5,42
					c-0.5,1.8-1.4,3.9-2.3,5c0.9-1.8,1.3-3.9,1.4-5.3c-0.8-0.3-1.5-0.4-2.1-0.4c1.2-1.8,1.5-5.7,1.7-7.6c1.7,1.2,5.8,2,5.8,2
					c-1.6,1.4-2.7,4.8-3,7.2C58.6,42.6,58.1,42.3,57.5,42z M49.5,31.4c1,0.1,3.1-0.4,3.8-0.8c-0.2,0.9,0.6,4.2,1.1,5.4
					c-0.5-0.2-2.5,0.3-3.8,0.8C50.8,34.4,49.5,31.4,49.5,31.4z M75.3,32.6c0,0-2.3,1.7-3.2,4.1c-1.2-0.8-1.9-1.1-2.9-1.4
					c0.5-1.4,1.5-4.1,2.4-4.8C73.2,30.8,75.2,32.5,75.3,32.6z M25.9,43.1c-0.8-2.1-4.2-4.6-4.2-4.6c0.1-0.1,2.5-1.7,3.3-2.8
					c2.1,0.9,3.9,3.7,4.3,4.5C28.4,40.5,26.4,42.4,25.9,43.1z"/>
			</g>
			<g>
				<rect x="26.9" y="73.8" fill-rule="evenodd" clip-rule="evenodd" fill="#DDDDDD" width="46.5" height="0.7"/>
			</g>
		</g>
		<g>
			<path fill="#DDDDDD" d="M24.2,78.4c-0.1,0-0.2,0-0.2-0.1c-6.8-6.3-11.1-14.9-12-24.1c0-0.2,0.1-0.4,0.3-0.4
				c0.2,0,0.4,0.1,0.4,0.3c0.9,9,5.1,17.5,11.8,23.7c0.1,0.1,0.1,0.4,0,0.5C24.4,78.3,24.3,78.4,24.2,78.4z"/>
		</g>
		<g>
			<path fill="#DDDDDD" d="M76,78.4c-0.1,0-0.2,0-0.3-0.1c-0.1-0.1-0.1-0.4,0-0.5c6.7-6.2,10.9-14.7,11.8-23.8
				c0-0.2,0.2-0.3,0.4-0.3c0.2,0,0.3,0.2,0.3,0.4c-0.9,9.2-5.2,17.8-12,24.2C76.2,78.3,76.1,78.4,76,78.4z"/>
		</g>
	</g>
</g>
</svg>
