<svg xmlns="http://www.w3.org/2000/svg" width="363" height="89" viewBox="0 0 363 89"><g fill="#FFF" fill-rule="evenodd"><path d="M18.252 61.598c-2.47 0-4.5-.724-6.204-2.215-1.67-1.462-2.483-3.156-2.483-5.18 0-2.105.74-3.82 2.263-5.25 1.554-1.462 3.453-2.26 5.804-2.44l11.844-.81v7.526c0 3.526-4.26 8.368-11.224 8.368m11.516 4.596v3.19h9.372V34.64c0-4.76-1.615-8.767-4.8-11.91C31.157 19.593 26.6 18 20.79 18c-4.674 0-8.85 1.44-12.41 4.28-3.587 2.863-5.852 6.76-6.205 11.366h9.45c.3-2.336 1.305-3.84 2.94-5.006 1.662-1.183 3.755-1.783 6.225-1.783 2.7 0 4.822.73 6.39 2.38 1.577 1.66 2.296 3.67 2.296 5.988v1.71l-12.555.823c-4.677.338-8.702 2.072-11.96 5.153C1.67 46.02 0 49.853 0 54.3c0 4.593 1.794 8.466 5.332 11.513 3.498 3.016 7.714 4.495 12.53 4.495 5.994 0 10.693-3.08 11.906-4.114m160.53-46.68c3.08-1.29 5.65-1.513 7.352-1.513 5.56 0 10.11 1.812 13.52 5.38 3.398 3.56 5.122 8.036 5.122 13.305v32.7h-9.565V36.392c0-2.77-.89-5.02-2.726-6.878-1.828-1.855-4.194-2.756-7.23-2.756-2.93 0-5.47.963-7.768 2.947-2.26 1.953-3.356 3.98-3.356 6.2v33.477h-9.566V.008h9.566v22.508s2.02-1.898 4.653-3M78.865 29.79c1.413-1.584 3.456-2.964 6.515-3.033 2.393-.055 3.77.947 4.79 2.05 1.262 1.37 1.878 2.96 1.904 4.836h9.474c-.025-4.166-1.355-7.838-3.962-10.907C94.92 19.596 91.067 18 86.132 18c-7.133 0-10.86 4.64-10.86 4.64l-.102-3.714h-8.752v42.05H56.93v8.408h40.056v-8.408H75.98V37.173c0-2.91 1.003-5.27 2.886-7.38M337.375 18.918l-18.99 18.967-18.988-18.967-6.32 6.303L312.1 44.155l-19.024 18.932 6.32 6.302 18.99-18.967 18.99 18.968 6.32-6.302-19.024-18.932 19.024-18.933M245.82 36.393c0-2.697.952-4.927 2.906-6.816 1.964-1.896 4.493-2.818 7.734-2.818 3.234 0 5.73.918 7.626 2.81 1.895 1.888 2.817 4.12 2.817 6.823v2.336H245.82v-2.337zm30.13 18.27h-9.78c-.246 1.81-1.073 3.342-2.662 4.654-1.938 1.6-4.5 2.344-7.048 2.344-3.24 0-5.767-.902-7.73-2.827-1.957-1.922-2.91-4.17-2.91-6.87v-4.476h30.4V36.685c0-5.08-1.657-9.507-5.223-13.163-3.57-3.665-8.462-5.522-14.537-5.522-6.07 0-11.022 1.855-14.724 5.51-3.7 3.658-5.577 8.09-5.577 13.175v14.793c0 5.148 1.875 9.63 5.574 13.32 3.7 3.688 8.656 5.524 14.726 5.524 3.233 0 6.565-.547 9.14-1.696 2.584-1.154 4.644-2.64 6.125-4.426 1.45-1.75 2.548-3.548 3.263-5.343.57-1.44.843-2.845.962-4.194zM362.67 6.306L356.344 0l-6.325 6.306 6.325 6.306M356.347 75.7l-6.324 6.305 6.324 6.307 6.324-6.307M274.102 6.312l6.325 6.306 6.326-6.306-6.326-6.306M274.082 82.02l6.325 6.307 6.325-6.306-6.325-6.305M145.64 58.815c-1.793 1.938-4.168 2.845-7.26 2.845-3.24 0-5.77-.887-7.732-2.782-1.955-1.89-2.904-4.15-2.904-6.914V36.49c0-2.7.95-4.947 2.908-6.87 1.963-1.924 4.46-2.86 7.632-2.86 1.754 0 3.292.285 4.574.85 1.246.548 2.217 1.358 2.81 2.14.698.918 1.16 1.806 1.46 2.58.17.44.302.88.415 1.317h9.87c-.166-1.173-.434-2.336-.828-3.476-.68-1.96-1.74-3.907-3.154-5.786-1.45-1.93-3.522-3.495-6.153-4.656-2.604-1.146-5.63-1.727-8.993-1.727-5.94 0-10.84 1.853-14.573 5.507-3.736 3.657-5.63 8.124-5.63 13.275v14.696c0 5.082 1.875 9.545 5.574 13.268 3.7 3.722 8.623 5.576 14.63 5.576 3.3 0 6.328-.582 9-1.794 2.69-1.224 4.82-2.816 6.33-4.734 1.48-1.88 2.61-3.823 3.352-5.778.435-1.145.732-2.263.916-3.352h-9.853c-.11.406-.215.803-.384 1.195-.444 1.03-1.13 2.01-2.005 2.955"/></g></svg>