<?xml version="1.0" encoding="iso-8859-1"?>
<!-- Generator: Adobe Illustrator 17.1.0, SVG Export Plug-In . SVG Version: 6.00 Build 0)  -->
<!DOCTYPE svg PUBLIC "-//W3C//DTD SVG 1.1//EN" "http://www.w3.org/Graphics/SVG/1.1/DTD/svg11.dtd">
<svg version="1.1" id="Layer_1" xmlns="http://www.w3.org/2000/svg" xmlns:xlink="http://www.w3.org/1999/xlink" x="0px" y="0px"
	 viewBox="0 0 841.9 595.3" style="enable-background:new 0 0 841.9 595.3;" xml:space="preserve">
<g>
	<path style="fill-rule:evenodd;clip-rule:evenodd;fill:#4A4A4A;" d="M149,412.8c-1.1,0.8-2.2,1.5-3.5,1.7c-2,0.3-4.8-0.4-6-2.5
		c-0.5-0.8-0.7-1.7-0.7-2.6c0-2.4,0-4.7,0-7.1c0.1-2.9,2-4.8,4.9-4.9c1.5-0.1,2.9,0.1,4.4,0.4c0.4,0.1,0.5,0,0.5-0.4c0-2,0-4,0-6
		c0-0.4,0.1-0.5,0.5-0.5c1-0.1,2.1-0.2,3.1-0.4c0.4-0.1,0.5,0,0.5,0.5c0,7.6,0,15.1,0,22.7c0,0.4-0.1,0.5-0.5,0.5
		c-0.8,0-1.6,0-2.4,0c-0.2,0-0.4-0.1-0.4-0.3C149.3,413.5,149.1,413.2,149,412.8z M148.6,405.5c0-1.2,0-2.5,0-3.8c0,0,0,0,0,0
		c0-0.3-0.1-0.4-0.4-0.5c-1-0.2-2-0.3-3-0.4c-1.4-0.1-2.2,0.5-2.3,1.9c-0.2,2.1-0.2,4.3-0.1,6.5c0,0.8,0.3,1.5,1.2,1.7
		c0.5,0.1,1,0.2,1.5,0.1c1-0.2,1.9-0.6,2.8-1.2c0.3-0.2,0.4-0.4,0.4-0.7C148.6,407.9,148.6,406.7,148.6,405.5z"/>
	<path style="fill-rule:evenodd;clip-rule:evenodd;fill:#AAAAAA;" d="M33.5,402.6c0-3.7,0-7.3,0-11c0-0.4,0.1-0.6,0.6-0.7
		c1.1-0.1,2.2-0.3,3.3-0.5c0.4-0.1,0.4,0.1,0.4,0.4c0,1.1,0,2.2,0,3.3c0,1.4,0,2.9,0,4.3c0,0.4,0,0.5,0.5,0.4
		c1.2-0.5,2.4-0.9,3.7-1.2c1.4-0.3,2.9-0.3,4.2,0.6c0.8,0.6,1.3,1.5,1.3,2.4c0,4.4,0,8.8,0,13.2c0,0.3-0.1,0.4-0.4,0.4
		c-1,0-2.1,0-3.1,0c-0.4,0-0.5-0.1-0.5-0.5c0-3.5,0-7,0-10.5c0-1.8-0.8-1.9-2.2-1.7c-1.2,0.2-2.2,0.8-3.2,1.3
		c-0.3,0.1-0.2,0.4-0.2,0.6c0,3.4,0,6.8,0,10.2c0,0.6,0,0.6-0.6,0.6c-1,0-2,0-3,0c-0.4,0-0.5-0.1-0.5-0.5
		C33.5,410,33.5,406.3,33.5,402.6z"/>
	<path style="fill-rule:evenodd;clip-rule:evenodd;fill:#AAAAAA;" d="M22.1,414.2c-2.3,0-4.6,0-7,0c-0.5,0-0.6-0.1-0.6-0.6
		c0-0.9,0-1.9,0-2.8c0-0.2,0.1-0.4,0.2-0.6c1.7-2.5,3.5-5.1,5.2-7.6c1.6-2.3,3.1-4.6,4.7-6.9c0.1-0.1,0.2-0.3,0.2-0.4
		c-0.1-0.2-0.3-0.1-0.4-0.1c-3,0-6.1,0-9.1,0c-0.2,0-0.2-0.1-0.2-0.3c0-1,0-2,0-3c0-0.4,0.2-0.3,0.5-0.3c2.1,0,4.1,0,6.2,0
		c2.5,0,5,0,7.6,0c0.4,0,0.6,0.1,0.5,0.5c0,0.9,0,1.8,0,2.7c0,0.3-0.1,0.5-0.2,0.7c-3.3,4.8-6.5,9.6-9.8,14.5c0,0,0,0-0.1,0.1
		c-0.1,0.1-0.3,0.3-0.2,0.4c0.1,0.2,0.3,0.1,0.4,0.1c3.1,0,6.2,0,9.3,0c0.4,0,0.5,0.1,0.5,0.5c0,0.8,0,1.7,0,2.5
		c0,0.5-0.1,0.5-0.6,0.5C26.8,414.2,24.5,414.2,22.1,414.2L22.1,414.2z"/>
	<path style="fill-rule:evenodd;clip-rule:evenodd;fill:#494949;" d="M86.6,403c0-3.6,0-7.2,0-10.8c0-0.4,0.1-0.5,0.5-0.5
		c4.3,0,8.5,0,12.8,0c0.4,0,0.5,0.1,0.5,0.5c0,0.9,0,1.9,0,2.8c0,0.4-0.1,0.4-0.4,0.4c-2.9,0-5.8,0-8.6,0c-0.4,0-0.5,0.1-0.5,0.5
		c0,1.7,0,3.4,0,5.1c0,0.5,0.2,0.5,0.5,0.5c2.6,0,5.2,0,7.8,0c0.4,0,0.6,0.1,0.5,0.5c0,0.9,0,1.7,0,2.6c0,0.4-0.1,0.5-0.5,0.5
		c-2.6,0-5.3,0-7.9,0c-0.5,0-0.6,0.1-0.6,0.6c0,2.7,0,5.4,0,8.1c0,0.4-0.1,0.5-0.5,0.4c-1.1,0-2.2,0-3.4,0c-0.4,0-0.4-0.1-0.4-0.4
		C86.6,410.2,86.6,406.6,86.6,403C86.6,403,86.6,403,86.6,403z"/>
	<path style="fill-rule:evenodd;clip-rule:evenodd;fill:#494949;" d="M135,407.5c0,2.1,0,4.1,0,6.2c0,0.4-0.1,0.5-0.5,0.5
		c-1,0-2.1,0-3.1,0c-0.4,0-0.5-0.1-0.5-0.5c0-3.4,0-6.8,0-10.2c0-0.2,0-0.4,0-0.6c0-1.3-0.6-1.8-1.9-1.5c-1.3,0.3-2.5,0.8-3.6,1.3
		c-0.3,0.1-0.2,0.3-0.2,0.5c0,2.4,0,4.7,0,7.1c0,1.2,0,2.3,0,3.5c0,0.3-0.1,0.5-0.4,0.5c-1.1,0-2.2,0-3.3,0c-0.3,0-0.4-0.1-0.4-0.4
		c0-5.2,0-10.4,0-15.6c0-0.3,0.1-0.4,0.4-0.4c0.8,0,1.6,0,2.4,0c0.3,0,0.5,0.1,0.5,0.4c0.3,1,0.3,1,1.3,0.6c1.4-0.5,2.7-1,4.1-1.2
		c0.8-0.1,1.5-0.1,2.3,0c1.5,0.3,2.5,1.3,2.8,2.9c0.1,0.4,0.1,0.9,0.1,1.4C135,403.8,135,405.7,135,407.5z"/>
	<path style="fill-rule:evenodd;clip-rule:evenodd;fill:#4A4A4A;" d="M117.1,406c0,2.6,0,5.1,0,7.7c0,0.4-0.1,0.5-0.5,0.5
		c-0.8,0-1.5,0-2.3,0c-0.3,0-0.4-0.1-0.5-0.3c-0.1-0.3,0-0.9-0.4-1c-0.3-0.1-0.7,0.2-1,0.3c-1.6,0.6-3.2,1.1-4.8,1.3
		c-0.6,0.1-1.2,0-1.8-0.1c-1.5-0.4-2.4-1.5-2.6-3.1c-0.1-0.6-0.1-1.2-0.1-1.8c0-3.7,0-7.5,0-11.2c0-0.4,0.1-0.5,0.5-0.5
		c1.1,0,2.1,0,3.2,0c0.3,0,0.4,0.1,0.4,0.4c0,3.6,0,7.2,0,10.8c0,0.2,0,0.3,0,0.5c0.1,0.8,0.6,1.2,1.4,1.2c1-0.1,1.9-0.5,2.7-0.8
		c0.5-0.2,1.3-0.3,1.5-0.8c0.3-0.4,0.1-1.1,0.1-1.7c0-3.1,0-6.1,0-9.2c0-0.4,0.1-0.5,0.5-0.5c1,0,2.1,0,3.1,0c0.3,0,0.4,0.1,0.4,0.4
		C117.1,400.8,117.1,403.4,117.1,406C117.1,406,117.1,406,117.1,406z"/>
	<path style="fill-rule:evenodd;clip-rule:evenodd;fill:#AAAAAA;" d="M68,406c0-2.6,0-5.1,0-7.7c0-0.5,0.2-0.6,0.6-0.6
		c0.8,0,1.6,0,2.3,0c0.3,0,0.4,0.2,0.4,0.4c0.3,1,0.3,1,1.3,0.6c1.4-0.6,2.7-1,4.2-1.2c0.8-0.1,1.6-0.2,2.5,0
		c1.5,0.4,2.2,1.4,2.5,2.8c0.1,0.5,0.1,1,0.1,1.5c0,3.9,0,7.9,0,11.8c0,0.4-0.1,0.5-0.5,0.5c-1,0-1.9,0-2.9,0
		c-0.5,0-0.6-0.1-0.6-0.6c0-3.6,0-7.2,0-10.7c0-1.3-0.7-1.6-1.4-1.6c-0.6,0-1.2,0.2-1.7,0.4c-0.7,0.3-1.4,0.6-2.1,0.8
		c-0.4,0.1-0.5,0.3-0.5,0.7c0,3.4,0,6.9,0,10.3c0,0.7,0,0.7-0.7,0.7c-1,0-1.9,0-2.9,0c-0.4,0-0.5-0.1-0.5-0.5
		C68,411.1,68,408.6,68,406C68,406,68,406,68,406z"/>
	<path style="fill-rule:evenodd;clip-rule:evenodd;fill:#AAAAAA;" d="M59.8,407.5c-1.6,0-2.9,0-4.2,0c-0.4,0-0.5,0.1-0.5,0.5
		c0,0.5,0,1,0,1.5c0.1,1.1,0.9,1.7,2.2,1.8c1.9,0.1,3.8-0.1,5.7-0.7c0.3-0.1,0.4,0,0.5,0.3c0.2,0.7,0.3,1.4,0.5,2.1
		c0.1,0.4,0.1,0.6-0.3,0.7c-2.5,0.9-5.1,1.1-7.6,0.7c-2.4-0.4-4.2-1.9-4.8-4.4c-0.1-0.4-0.1-0.7-0.1-1.1c0-1.7,0-3.4,0-5.1
		c0-1.8,0.5-3.4,1.8-4.7c1-1,2.3-1.5,3.7-1.5c1.1,0,2.3-0.1,3.4,0.1c1.8,0.3,3,1.3,3.7,2.9c0.4,0.8,0.5,1.7,0.5,2.6
		c0,1.3,0,2.6,0,3.9c0,0.3,0,0.4-0.4,0.5C62.5,407.6,61,407.4,59.8,407.5z M57.9,404.4c0.8,0,1.6,0,2.3,0c0.1,0,0.4,0.1,0.4-0.2
		c0-0.6,0.1-1.3-0.2-1.9c-0.5-1.1-1.8-1.7-3.1-1.5c-1.1,0.2-2.4,1.2-2.2,2.5c0,0.2,0,0.4,0,0.6c0,0.3,0.1,0.5,0.4,0.4
		C56.4,404.3,57.1,404.4,57.9,404.4z"/>
	<path style="fill-rule:evenodd;clip-rule:evenodd;fill:#6A6A6A;" d="M60.5,428.2c0.7,0.8,1.5,1.3,2.4,1.7c0.2,0.1,0.4,0.1,0.4,0.3
		c0,0.2,0.1,0.5-0.1,0.7c-0.2,0.1-0.4-0.1-0.5-0.1c-0.5-0.2-1.1-0.5-1.7-0.8c0.1,0.5-0.2,0.6-0.6,0.6c-0.6,0-1.2,0-1.9,0
		c-0.3,0-0.4,0.1-0.4,0.4c0,0.9,0,0.9,0.9,0.9c1.1,0,2.2,0,3.3,0c0.3,0,0.4,0.1,0.4,0.4c0,0.3-0.1,0.3-0.4,0.3c-3.1,0-6.3,0-9.4,0
		c-0.3,0-0.3-0.1-0.4-0.4c0-0.3,0.1-0.3,0.4-0.3c1.2,0,2.4,0,3.7,0c0.4,0,0.6-0.1,0.5-0.5c0-0.1,0-0.3,0-0.4c0-0.3-0.1-0.4-0.4-0.4
		c-0.6,0-1.3,0-1.9,0c-0.4,0-0.6-0.1-0.5-0.6c-0.6,0.3-1.2,0.6-1.8,0.9c-0.2,0.1-0.4,0.3-0.5,0c-0.1-0.3-0.2-0.7,0.2-0.8
		c0.6-0.3,1.3-0.6,1.8-1c0.2-0.2,0.5-0.4,0.7-0.7c-0.8,0-1.6,0-2.3,0c-0.2,0-0.4,0-0.4-0.3c0-0.4,0.2-0.4,0.5-0.4c0.5,0,0.9,0,1.4,0
		c0.3,0,0.4-0.1,0.4-0.4c0-0.9,0-1.8,0-2.7c0-0.3-0.1-0.3-0.3-0.3c-0.4,0-0.7,0-1.1,0c-0.3,0-0.4-0.1-0.4-0.4c0-0.3,0.1-0.4,0.4-0.4
		c0.3,0,0.7,0,1,0c0.3,0,0.4-0.1,0.4-0.4c0-0.1,0-0.2,0-0.3c0-0.1-0.1-0.4,0.1-0.4c0.3-0.1,0.6-0.1,0.8,0c0.2,0.1,0.1,0.4,0.1,0.5
		c0,0.4,0.1,0.5,0.5,0.5c1.3,0,2.5,0,3.8,0c0.4,0,0.5-0.1,0.5-0.5c0-0.6,0.2-0.8,0.9-0.6c0.2,0.1,0.2,0.2,0.2,0.4
		c0,0.7,0,0.7,0.8,0.7c0.2,0,0.4,0,0.5,0c0.3,0,0.5,0,0.5,0.4c0,0.4-0.2,0.4-0.5,0.4c-0.4,0-1-0.2-1.2,0.1c-0.3,0.3-0.1,0.8-0.1,1.3
		c0,0.6,0,1.1,0,1.7c0,0.3,0.1,0.4,0.4,0.4c0.5,0,1,0,1.5,0c0.3,0,0.3,0.1,0.4,0.4c0,0.3-0.1,0.3-0.3,0.3c-0.4,0-0.8,0-1.2,0
		C61.4,428.2,61,428.2,60.5,428.2z M57.6,424.7c0.7,0,1.4,0,2,0c0.3,0,0.4,0,0.4-0.4c0-0.3-0.2-0.3-0.4-0.3c-1.3,0-2.7,0-4,0
		c-0.2,0-0.4,0-0.4,0.3c0,0.3,0.1,0.4,0.4,0.4C56.3,424.7,57,424.7,57.6,424.7z M57.7,426.1c0.7,0,1.4,0,2.1,0
		c0.3,0,0.3-0.1,0.3-0.4c0-0.2-0.1-0.4-0.3-0.3c-1.4,0-2.8,0-4.1,0c-0.3,0-0.3,0.1-0.3,0.4c0,0.3,0.1,0.3,0.3,0.3
		C56.3,426.1,57,426.1,57.7,426.1z M57.7,427.5c0.7,0,1.4,0,2.1,0c0.3,0,0.3-0.1,0.3-0.4c0-0.2-0.1-0.3-0.3-0.3c-1.4,0-2.8,0-4.1,0
		c-0.3,0-0.3,0.1-0.3,0.4c0,0.3,0.1,0.3,0.4,0.3C56.3,427.5,57,427.5,57.7,427.5z M54.6,429.8c0.5,0,1,0,1.5,0c1.1,0,1.1,0,1.1-1.1
		c0-0.2,0.1-0.5-0.1-0.5c-0.3-0.1-0.6-0.2-0.8,0.1C55.7,428.8,55.2,429.3,54.6,429.8z M60.9,429.8c-0.7-0.5-1.2-0.9-1.6-1.4
		c-0.3-0.3-0.6-0.3-0.9-0.2c-0.3,0.1-0.1,0.4-0.1,0.6c0,0.2,0,0.5,0,0.7c0,0.2,0,0.3,0.3,0.3C59.2,429.8,60,429.8,60.9,429.8z"/>
	<path style="fill-rule:evenodd;clip-rule:evenodd;fill:#6A6A6A;" d="M23,430.5c0.5,0.5,0.9,0.8,1.4,1c0.5,0.2,0.6,0.5,0.4,1
		c-1.1-0.3-2.2-0.8-3-1.7c-0.2-0.2-0.4-0.3-0.7-0.3c-0.2,0-0.3,0-0.5,0c-1-0.1-2,0-2.8,0.9c-0.6,0.6-1.5,0.9-2.3,1.1
		c-0.2-0.5,0-0.8,0.5-1c0.5-0.2,0.9-0.5,1.3-0.9c-0.1-0.2-0.2-0.1-0.3-0.1c-0.6,0-1.3,0-2,0c-0.3,0-0.5,0-0.5-0.4
		c0-0.4,0.2-0.4,0.5-0.4c0.9,0,0.9,0,0.9-0.9c0-1.3,0-2.6,0-3.9c0-0.3,0.1-0.5,0.4-0.4c1,0,1.9,0,2.9,0c0.3,0,0.4-0.1,0.4-0.4
		c0-0.3-0.1-0.4-0.4-0.4c-1.2,0-2.5,0-3.7,0c-0.3,0-0.4,0-0.5-0.4c0-0.4,0.2-0.4,0.5-0.4c1.2,0,2.4,0,3.7,0c0.3,0,0.5-0.1,0.4-0.4
		c0-0.4,0.3-0.3,0.5-0.3c0.2,0,0.5-0.1,0.5,0.3c0,0.4,0.2,0.4,0.5,0.4c1.2,0,2.4,0,3.6,0c0.3,0,0.5,0,0.5,0.4c0,0.4-0.2,0.4-0.5,0.4
		c-1.2,0-2.4,0-3.7,0c-0.3,0-0.4,0-0.4,0.4c0,0.4,0.2,0.4,0.4,0.4c0.7,0,1.3,0,2,0c0.9,0,1.3,0.4,1.3,1.3c0,1.2,0,2.4,0,3.6
		c0,0.3,0.1,0.5,0.4,0.4c0.2,0,0.4,0,0.5,0c0.3,0,0.4,0.1,0.4,0.4c0,0.3-0.2,0.4-0.4,0.4C24.7,430.5,23.9,430.5,23,430.5z
		 M20.2,426.4c-0.9,0-1.9,0-2.8,0c-0.3,0-0.4,0-0.4,0.4c0,0.3,0.2,0.3,0.4,0.3c1.9,0,3.8,0,5.6,0c0.2,0,0.4,0,0.4-0.3
		c0-0.3-0.1-0.4-0.4-0.4C22.1,426.4,21.2,426.4,20.2,426.4z M20.2,428.4c1,0,1.9,0,2.9,0c0.2,0,0.4,0,0.4-0.3c0-0.3-0.1-0.3-0.4-0.3
		c-1.9,0-3.8,0-5.7,0c-0.2,0-0.4,0-0.4,0.3c0,0.3,0.2,0.4,0.4,0.4C18.4,428.4,19.3,428.4,20.2,428.4z M20.3,429.1c-1,0-1.9,0-2.9,0
		c-0.3,0-0.4,0.1-0.4,0.4c0,0.3,0.2,0.3,0.4,0.3c1.9,0,3.8,0,5.7,0c0.2,0,0.4,0,0.4-0.3c0-0.3-0.1-0.4-0.4-0.4
		C22.1,429.1,21.2,429.1,20.3,429.1z M20.2,425.8c1,0,1.9,0,2.9,0c0.1,0,0.4,0.1,0.4-0.2c0-0.2-0.1-0.4-0.3-0.4c-0.1,0-0.2,0-0.3,0
		c-1.8,0-3.6,0-5.5,0c-0.2,0-0.4,0-0.4,0.3c0,0.3,0.1,0.3,0.4,0.3C18.3,425.8,19.3,425.8,20.2,425.8z"/>
	<path style="fill-rule:evenodd;clip-rule:evenodd;fill:#6B6B6B;" d="M40,423.3c1.1,0,2,0,3,0c0.2,0,0.5-0.1,0.6,0.1
		c0.1,0.3,0.1,0.6-0.1,0.9c-0.5,0.7-1.1,1.4-1.7,2c-0.3,0.2-0.3,0.3,0,0.5c0.7,0.4,1.5,0.9,2.3,1.2c0.2,0.1,0.4,0.2,0.3,0.5
		c0,0.3-0.1,0.5-0.4,0.3c-0.1,0-0.2,0-0.3-0.1c0,0.9,0,1.7,0,2.6c0,0.9-0.3,1.2-1.2,1.2c-1.5,0-2.9,0-4.4,0c-0.3,0-0.4-0.1-0.4-0.4
		c0-1,0-2,0-3c0-0.2,0-0.4-0.3-0.3c-0.1,0-0.3,0.2-0.4-0.1c0-0.2-0.2-0.6,0.2-0.7c0.7-0.3,1.4-0.6,2-1c0.2-0.1,0.4-0.3,0.5-0.3
		c-0.4-0.4-0.7-0.8-1.1-1.2c-0.2-0.2-0.3-0.1-0.4,0.1c-0.3,0.3-0.6,0.5-0.9,0.8c-0.1-0.5,0-0.9,0.3-1.3c0.6-0.7,1.1-1.5,1.4-2.4
		c0.1-0.3,0.8-0.5,1-0.3c0.1,0.1,0.1,0.2,0,0.3C40.2,422.8,40.1,423,40,423.3z M40.8,429.2c-0.5,0-1.1,0-1.6,0
		c-0.3,0-0.4,0.1-0.4,0.4c0,0.6,0,1.3,0,1.9c0,0.3,0.1,0.4,0.4,0.4c1,0,2,0,3,0c0.4,0,0.6-0.2,0.6-0.6c0-0.6,0-1.1,0-1.7
		c0-0.3-0.1-0.4-0.4-0.4C41.9,429.2,41.4,429.2,40.8,429.2z M42.6,424.1c-1,0-1.9,0-2.8,0c-0.3,0-0.3,0.3-0.4,0.4
		c-0.1,0.1,0,0.2,0.1,0.3c0.4,0.4,0.8,0.8,1.2,1.1c0.1,0.1,0.2,0.2,0.3,0.1C41.5,425.4,42.1,424.8,42.6,424.1z M43.3,428.4
		c-0.9-0.4-1.6-0.8-2.3-1.2c-0.1-0.1-0.2-0.1-0.4,0c-0.7,0.5-1.4,0.8-2.2,1.2C40.1,428.4,41.6,428.4,43.3,428.4z"/>
	<path style="fill-rule:evenodd;clip-rule:evenodd;fill:#6A6A6A;" d="M79.9,425.8c0,0.1,0,0.3,0,0.4c0,0.3-0.1,0.4-0.4,0.4
		c-0.8,0-1.5,0-2.3,0c-0.3,0-0.4,0.1-0.4,0.4c0,1.1,0,1.1,1,1.1c0.9,0,1.9,0,2.8,0c0.3,0,0.4,0.1,0.4,0.4c0,0.3-0.1,0.4-0.4,0.4
		c-1.1,0-2.2,0-3.4,0c-0.3,0-0.5,0.1-0.4,0.4c0,0.7,0,1.5,0,2.2c0,0.2,0.1,0.3,0.3,0.4c0.6,0.1,1-0.1,1.2-0.6
		c0.2-0.4,0.5-0.9,0.7-1.3c0.1-0.3,1-0.5,1.2-0.3c0.1,0.1,0,0.2,0,0.3c-0.2,0.5-0.5,1-0.9,1.4c-0.1,0.1-0.2,0.3-0.3,0.5
		c0.7,0,1.3,0,1.9,0c0.2,0,0.4,0,0.4,0.3c0,0.3-0.1,0.4-0.4,0.4c-3.1,0-6.3,0-9.4,0c-0.3,0-0.4-0.1-0.4-0.3c0-0.3,0.1-0.4,0.4-0.4
		c0.6,0,1.2,0,1.9,0c-0.4-0.6-0.8-1.2-1.1-1.8c-0.2-0.4-0.1-0.5,0.3-0.5c0.5,0,0.8,0.1,1,0.6c0.2,0.5,0.5,0.9,0.8,1.3
		c0.2,0.3,0.9,0.5,1.2,0.4c0.1-0.1,0.1-0.2,0.1-0.3c0-0.8,0-1.6,0-2.4c0-0.3-0.2-0.3-0.4-0.3c-1.1,0-2.2,0-3.3,0
		c-0.2,0-0.5,0.1-0.5-0.4c0-0.4,0.2-0.4,0.5-0.4c1.1,0,2.1,0,3.2,0c0.3,0,0.5-0.1,0.5-0.4c0-1,0-1-1-1c-0.5,0-1,0-1.6,0
		c-0.4,0-0.6-0.1-0.5-0.5c0-0.1,0-0.2,0-0.2l0,0C75.2,425.8,77.6,425.8,79.9,425.8L79.9,425.8z"/>
	<path style="fill-rule:evenodd;clip-rule:evenodd;fill:#696969;" d="M37.3,427.5c-0.5-0.3-0.8-0.8-1.3-1.1c0,0.6,0,1.2,0,1.9
		c0,1.3,0,2.6,0,3.8c0,0.4-0.2,0.4-0.5,0.4c-0.3,0-0.5,0-0.5-0.4c0-1.4,0-2.8,0-4.3c-0.5,0.9-0.9,1.7-1.5,2.4
		c-0.1-0.5-0.1-0.9,0.1-1.4c0.6-1.1,0.9-2.2,1.1-3.5c0.1-0.4,0-0.6-0.5-0.5c-0.2,0-0.3,0-0.5,0c-0.4,0.1-0.3-0.2-0.4-0.4
		c0-0.3,0.2-0.3,0.4-0.3c0,0,0.1,0,0.1,0c1.1,0,1.1,0,1.1-1.2c0-0.3-0.2-0.7,0.4-0.7c0.7,0,0.7,0,0.6,0.7c0,0,0,0.1,0,0.1
		c-0.1,1-0.1,1,0.9,1c0.3,0,0.4,0,0.4,0.3c0,0.3-0.1,0.4-0.4,0.4c-0.8,0-0.8,0-0.4,0.7c0.2,0.3,0.3,0.6,0.5,0.9
		C37.3,426.7,37.4,427,37.3,427.5z"/>
	<path style="fill-rule:evenodd;clip-rule:evenodd;fill:#6B6B6B;" d="M72.8,425.8c-0.5,0.2-1,0.5-1.5,0.7c-0.2,0.1-0.4,0.3-0.5,0.1
		c-0.1-0.3-0.2-0.6,0.2-0.9c0.4-0.2,0.9-0.5,1.3-0.7c1.1-0.7,2.2-1.5,3.1-2.5c0.2-0.2,0.4-0.3,0.6-0.3c0.3,0,0.5,0,0.8,0
		c0.3,0,0.5,0.1,0.7,0.3c1.2,1.3,2.6,2.3,4.1,3.1c0.5,0.2,0.4,0.5,0.4,0.9c0,0.3-0.2,0.1-0.3,0.1c-0.5-0.2-1-0.4-1.5-0.7
		c-0.1,0-0.2-0.1-0.3-0.1l0,0c0,0,0-0.1,0-0.1c-1.2-0.7-2.4-1.5-3.4-2.5c-0.1-0.1-0.2-0.1-0.3,0C75.3,424.3,74,425.1,72.8,425.8
		L72.8,425.8z"/>
</g>
<g>
	<g>
		<path style="fill:#262626;" d="M142.2,180.8c1.1,0,2.1,0.9,2.1,2.1c0,1.2-1,2.1-2.1,2.1c-1.1,0-2.1-0.9-2.1-2.1
			C140.1,181.7,141.1,180.8,142.2,180.8z M142.2,184.7c1,0,1.7-0.8,1.7-1.8c0-1-0.8-1.8-1.7-1.8c-1,0-1.7,0.8-1.7,1.8
			C140.5,183.9,141.3,184.7,142.2,184.7z M141.4,181.7h0.9c0.6,0,0.9,0.2,0.9,0.7c0,0.4-0.3,0.6-0.6,0.7l0.7,1.1h-0.4l-0.7-1.1h-0.4
			v1.1h-0.4V181.7z M141.8,182.8h0.4c0.3,0,0.7,0,0.7-0.4c0-0.3-0.3-0.4-0.5-0.4h-0.5V182.8z"/>
	</g>
	<g>
		<path style="fill:#262626;" d="M142.2,180.8c1.1,0,2.1,0.9,2.1,2.1c0,1.2-1,2.1-2.1,2.1s-2.1-0.9-2.1-2.1
			C140.1,181.7,141.1,180.8,142.2,180.8z M142.2,184.7c1,0,1.7-0.8,1.7-1.8c0-1-0.8-1.8-1.7-1.8c-1,0-1.7,0.8-1.7,1.8
			C140.5,183.9,141.2,184.7,142.2,184.7z M141.4,181.7h0.9c0.6,0,0.9,0.2,0.9,0.7c0,0.4-0.3,0.6-0.6,0.7l0.7,1.1h-0.4l-0.7-1.1h-0.4
			v1.1h-0.4V181.7z M141.8,182.8h0.4c0.3,0,0.6,0,0.6-0.4c0-0.3-0.3-0.4-0.5-0.4h-0.5V182.8z"/>
	</g>
	<path style="fill:#262626;" d="M55.5,170.8c-0.6,0.1-3,0.6-3.8,0.8c-0.9,0.2-8.9,6.4-9.4,7.9c-0.1,0.5-0.2,1.3-0.2,2.1l-0.1,1.2
		c0,0.9,0.2,2.3,0.4,3c0.5,0.1,4.3,0,5,0.1l-0.1,1.6c-0.7,0-5.5,0-8.3,0c-1.4,0-5.9,0.2-7.3,0.1l0.3-1.5c0.8-0.1,3.9,0.1,4.6-0.6
		c0.3-0.4,0.2-0.7,0.2-2.8v-1c0-0.5,0-1.3-0.1-2.2c-0.3-0.9-7.3-9.7-9.1-11.1c-0.5-0.2-3.8-0.5-4.6-0.7l0-1.3c0.4-0.2,4.1,0,7.6-0.1
		c2.3-0.1,7.6,0,8.3,0.1l-0.2,1.2c-0.7,0.2-4.1,0.2-4.9,0.5c2.3,3.4,5.9,7.7,7,9.4c0.6-0.9,6.3-4.8,6.4-6.1
		c-0.9-0.2-3.8-0.6-4.2-0.6l-0.3-1.5c0.8-0.1,5,0,7,0c1.8,0,5.6,0,6.7,0.1L55.5,170.8z"/>
	<path style="fill:#262626;" d="M67.5,186.9c-0.3,0-3.2,0-4.2,0c-0.6,0-3.8,0-4.4,0l0.2-1.4c0.7,0,2.1-0.3,2.7-0.4
		c-0.4-0.9-1.7-3.8-2-4.4c-0.8,0-3.5,0.1-4.3,0.2c-0.1,0.3-1.2,1.3-1.4,2.7c0.5,0.1,1.5,0.3,2.1,0.4l-0.2,1.4c-0.6,0-3.1,0-3.7,0
		c-0.6,0-3.1,0-3.6,0.1l0.5-1.5c0.6-0.1,1.9-0.5,2.5-0.6c0.8-1.1,4.3-8.1,4.6-8.7c-0.5-0.1-1.3-0.5-1.8-0.6l-0.1-1
		c0.6,0,3.7,0.1,4.1,0.1c0.7,0,3.5,0,4.1-0.1l-0.2,1c-0.6,0-1.4,0.3-2,0.4c0.3,0.8,1.3,3.3,2.1,5.1c0.6,1.3,1.6,3.9,2.5,5.4
		c0.6,0.1,2.1,0.5,2.7,0.6l0,0.4L67.5,186.9z M57.9,175.2l0-0.2c-0.7,1.5-1.8,4-2,4.6l3.6,0C59.1,178.4,58.2,176.1,57.9,175.2z"/>
	<path style="fill:#262626;" d="M89,183.1c-0.5,0-2.9,0-4.2,0c-1,0-3.4-0.1-4.5,0l-0.1-1.4c0.4,0,2.8-0.2,3.3-0.3
		c0.2-0.7,0.1-1.8,0.1-2.7l-0.1-1.6c-1.2,0-9.5,0.4-9.8,0.5l-0.6,0.1c0,2.2,0.1,2.9,0.3,3.7c0.7,0.1,3,0.3,3.5,0.3l0,1.5
		c-0.6,0-4.2,0-5.4,0c-1.4,0-4.7,0-5.5,0l0.1-1.6c0.6,0,3-0.3,3.5-0.3c0.1-1,0.1-2.6,0.1-4.3v-2.1c0-0.7,0-2.7-0.1-3.4
		c-0.5-0.1-2.9-0.2-3.6-0.3l-0.1-1.2c0.5,0,3.7-0.1,5.4-0.1c1.6,0,5.2,0,5.6,0l-0.1,1.2c-0.7,0-3.2,0.2-3.6,0.3
		c-0.1,0.6-0.2,1.1-0.2,3l-0.1,1c0.7,0,9.4,0,10.5-0.2V174c0-1.7,0.3-3.6,0.1-4.1c-0.4-0.1-2.8-0.4-3.5-0.5l0.1-1.2
		c0.5,0,2.7,0,4.3,0.1c1.7,0,4.2,0.1,4.7,0l-0.1,1c-0.5,0-2.8,0.6-2.8,0.6s-0.2,1.1,0,2.6c0.1,1.3,0.1,3.8,0.1,3.8
		c0.1,2.8,0.2,5.1,0.1,5.2c-0.2,0.1,1.8,0.3,2.3,0.3l0.2,0.4L89,183.1z"/>
	<path style="fill:#262626;" d="M109.1,176.6c0.2,4.8-4.2,7.1-9.8,7.1c-2.4,0-5.2-0.4-7.7-1.9c-1.9-1.1-2.2-2.6-2.2-4.5
		c0-3.8,4.2-7,10.6-7c2.4,0,4.8,0.4,6.7,1.8c1.7,1.3,2,2,2.3,3.4L109.1,176.6z M106,176.9c0.1-3.9-2.9-5-6.8-4.7
		c-2,0.1-6.2,1.2-6.2,4.7c0,3.5,3.2,5.3,7.4,5c3.3-0.3,5-1.5,5.4-3.2L106,176.9z"/>
	<path style="fill:#262626;" d="M137.6,179.4l-2.5-0.2c0.3-1.3,0-11.1,0-12.1L135,165c0.7,0.1,0.6,0.1,3.6,0.4
		c1.8,0.2,2,0.3,2.6,0.3l-0.8,2.4C139.8,170.1,137.8,178.8,137.6,179.4z M135.9,184.6l-1.4-0.1l0-2.9l1.7,0.2l1.5,0.1l-0.4,2.9
		L135.9,184.6z"/>
	<path style="fill:#262626;" d="M132.8,174.6c0.3,4.5-4.8,8.2-11.3,8.2c-2.7,0-5-0.3-7.6-2.1c-2.2-1.4-3.2-2.7-3.5-5.1
		c-0.5-4.3,4.8-8,12.1-8c2.8,0,5.5,0.4,7.6,2.1c1.9,1.5,2.3,2.9,2.6,4.6L132.8,174.6z M129.5,175.3c0.3-4.3-3.9-5.8-8.3-5.5
		c-2.3,0.2-6.7,1.5-6.7,5.5c0,4,3.6,5.9,8.5,5.5c3.7-0.3,5.3-1.7,6.2-3.6C129.1,177.1,129.4,176.6,129.5,175.3z"/>
	<g>
		<path d="M131.8,188c0,0,0.7,0,0.7,0.7c0,0.6-0.2,2-0.8,3.6c-0.1,0.4-0.7-1-0.8-1.9C130.7,189.4,130.6,188,131.8,188z"/>
		<path d="M135.6,188.9c0.3-1.4,1.6-1.4,2.1-1c0.4,0.3,0.2,0.8,0,1.1c-0.1,0.3-1.9,4.3-2.7,4.8C134.2,194.1,135.3,190.1,135.6,188.9
			z"/>
		<path d="M136.9,195.2c-0.5-0.1,0.9-0.9,1.6-1.3c0.8-0.4,3.2-1.6,2.3,0.1C140.3,195.4,137.9,195.3,136.9,195.2z"/>
		<path d="M119.4,195c-0.7,1.7-0.4,4.8,2.3,6.9c2.9,2.2,6,2.9,9.4,3c1.4,0.1,5.8-0.3,7-2.6c0.4-0.8,1-3.4-2.3-6.3
			c-2.5-2.2-5.1-3.1-8.6-3.7C123.7,191.8,120.3,192.8,119.4,195z"/>
		<path style="fill:#C9C9C9;" d="M121.1,196c-0.4,0.9-0.3,3,1.7,4.5c2.1,1.7,4.3,2.7,8.7,2.7c4.4,0,6.8-2.1,4.1-5.2
			c-2.7-3-7-3.9-8.8-4.1C125.5,193.8,122,194,121.1,196z"/>
		<path d="M128.6,195.3c-0.1-0.2-0.6-0.2-1.1,0.1c-0.5,0.3-0.8,0.7-0.6,1c0.1,0.2,0.6,0.2,1.1-0.1
			C128.5,196,128.7,195.6,128.6,195.3z"/>
		<path d="M130.9,196.3c-0.2-0.3-0.7-0.2-1.3,0.1c-0.5,0.3-0.9,0.8-0.7,1.1c0.2,0.3,0.7,0.2,1.3-0.1
			C130.7,197.1,131,196.6,130.9,196.3z"/>
		<path d="M134.3,198.4c-0.3-0.4-1-0.6-1.4-0.7c-0.7-0.1-1.4,0-1,0.2c0.7,0.2,1.1,0.3,1,0.5c-0.1,0.2-2.9,1.8-5.1,1.1
			c-2.2-0.8-1.9-3.2-1.9-3.2c0-0.4-0.6-0.3-0.6,0c0,0-0.2,2.2,1.4,3.3c-0.4,0.3-1.3,1.2-0.8,2c0.7,1,2.5,0.5,3.6,0
			c1-0.4,2.1-1.4,2.8-2.2c0.5-0.2,0.8-0.5,1-0.6c0.2-0.1,0.2,0,0.6,0.3C134.3,199.2,134.5,198.8,134.3,198.4z M127,201.4
			c-0.8-0.2,0-1.2,0.4-1.6c1.2,0.4,2.4,0.4,3.3,0.1C129.6,201.3,127.9,201.7,127,201.4z"/>
		<path style="fill:#FFFFFF;" d="M127,201.4c-0.8-0.2,0-1.2,0.4-1.6c1.2,0.4,2.4,0.4,3.3,0.1C129.6,201.3,127.9,201.7,127,201.4z"/>
	</g>
	<path style="fill:#262626;" d="M113.1,191.6l5.6,0l0.2-1.6h-10.6c0-0.6,0.1-0.9,0.1-0.9s2.3-0.6,2.8-0.6l0.1-1c-0.5,0.1-3,0-4.7,0
		c-1.6,0-3.8,0-4.3-0.1l-0.1,1.3c0.7,0,3.1,0.4,3.5,0.5c0.1,0.2,0.1,0.4,0,0.9h-14c0,0,3.9,2.7,3.6,6.2l-20.1,0l3.6-4.8l2.3,2.9
		l-0.8,0.3l-0.1,0.8l5.3,0l0-0.5l-1.4-0.4l-2.8-3.1h3.7v-1.3L80,190l0.9-1.3l1.2-0.3l0-0.7l-4.9-0.1l0,0.8l0.6,0.1l-1.2,1.5l-5.3,0
		v1.3l4.1,0.1l-3.9,4.9l-7.8-0.1l-0.1,1.7l7.1,0c-2.5,0.8-3.9,2.5-3.9,4.4c0,1.3,0.2,2.4,1.6,3.2c1.7,1,3.7,1.4,5.4,1.4
		c4,0,7-1.7,6.9-5.1l-0.1-0.7c-0.2-1-0.4-1.5-1.6-2.4c-0.4-0.3-0.9-0.6-1.4-0.8l4.2,0c1,1,3.2,3.4,2.2,6.5c-1.4,4-6.2,4-6.2,4
		l1.2,3.1c0,0,6.6-0.2,8.2-6.2c0.9-3.4-0.8-6.2-1.8-7.5l9.5,0c-1.7,4.2-5,5-5,5l2.1,2.7c0,0,4.2-1.4,6.1-5.9
		c0.2-0.5,0.3-1.1,0.4-1.8l8,0.1c0.3,0.2,0.7,0.6,1.1,1l-8.6-0.1l-0.1,1.5l9.5,0c0.1,0.3,0.2,0.6,0.3,1c0,0.1,0,0.2,0.1,0.3l-10.5,0
		l-0.1,1.5l10.5,0c-0.6,1.8-2.8,2.2-2.8,2.2l1.8,2.1c2.8-1.3,3.6-2.8,3.9-4.3l6.7,0l-0.1-1.4l-6.5,0c0-0.4-0.1-0.9-0.3-1.3l5.2,0
		l0-1.4l-5.9,0c-0.2-0.4-0.4-0.7-0.6-1l6,0l0-1.5c0,0,0,0,0,0v-0.9c0,0-0.9-0.4-1.1-1.4l1.7,0l0.1-1.1l-3.7,0
		C113.1,192.5,113.1,192,113.1,191.6z M78.6,202.1l-0.1,1.3c-0.3,1.2-1.5,2.1-3.8,2.3c-3,0.3-5.2-1.1-5.2-3.5c0-2.5,2.9-3.3,4.3-3.4
		C76.5,198.5,78.7,199.3,78.6,202.1z M102.5,191.6c0,0.4,0,0.9,0,1.4l-4.6,0c-0.2-0.8-0.4-1.4-0.4-1.4L102.5,191.6z M111.5,194.3
		c0,0.2,0,0.4,0,0.7l0,1.4l-1.4,0c0.4-0.5,0.8-1.2,1.1-2L111.5,194.3z M109.3,194.3c0,0.5-0.1,1.3-1.2,2l-0.9,0
		c-0.6-0.4-1.3-1.1-1.4-2L109.3,194.3z M104.4,194.3c0.2,0.5,0.5,1.3,0.8,2l-1.1,0c0-0.5,0-1.3,0-2L104.4,194.3z M102.5,196.3
		l-1.4,0c0.4-0.5,0.8-1.2,1-1.9l0.3,0c0,0.2,0,0.4,0,0.6L102.5,196.3z M98.4,196.2c0-0.7-0.1-1.3-0.2-1.9l2.1,0
		c0,0.5-0.2,1.3-1.4,1.9L98.4,196.2z M115.2,196.3l-2.1,0c0-0.6,0-1.3,0-2l0.3,0C113.7,194.8,114.2,195.7,115.2,196.3z M104,193
		c0-0.6,0-1.1,0-1.4l7.5,0c0,0.4,0,0.9,0,1.5L104,193z"/>
</g>
<g>
	<g>
		<path style="fill:#1B1B1B;" d="M43.5,143.1c0.5,1-0.3,1.2-0.3,1.2l0,0l-0.1,0.1h3.9l-0.1-0.1l0,0c0,0-0.7,0-1.3-1.2l0,0l-4.1-8.6
			l-4.1,8.6l0,0c-0.6,1.2-1.3,1.2-1.3,1.2l0,0l-0.1,0.1h2.8l-0.1-0.1l0,0c0,0-0.8-0.2-0.3-1.2l0,0l0.7-1.5l3.5,0L43.5,143.1
			L43.5,143.1L43.5,143.1L43.5,143.1z M62.7,139.8c0,0,0,2.2,0,3.3c0,1.1-0.6,1.2-0.6,1.2l0,0l-0.1,0.1h3.4l-0.1-0.1l0,0
			c0,0-0.6-0.1-0.6-1.2c0-1.1,0-5.8,0-6.9c0-1.1,0.6-1.2,0.6-1.2l0,0l0.1-0.1H62l0.1,0.1l0,0c0,0,0.6,0.1,0.6,1.2c0,1.1,0,2.7,0,2.7
			l0,0h-4.6l0,0c0,0,0-1.6,0-2.7c0-1.1,0.6-1.2,0.6-1.2l0,0l0.1-0.1h-3.4l0.1,0.1l0,0c0,0,0.6,0.1,0.6,1.2c0,1.1,0,5.8,0,6.9
			c0,1.1-0.6,1.2-0.6,1.2l0,0l-0.1,0.1h3.4l-0.1-0.1l0,0c0,0-0.6-0.1-0.6-1.2c0-1.1,0-3.3,0-3.3l0,0H62.7L62.7,139.8L62.7,139.8
			L62.7,139.8z M78.6,140.2c-0.8-1.3-2.4-3.5-2.7-3.9c-0.7-1.1-1.3-1.2-1.3-1.2l0,0l-0.1-0.1h3.9l-0.1,0.1l0,0c0,0-0.8,0.2-0.2,1.2
			c0.3,0.5,1.2,1.8,2.1,3.1c0.8-1.3,1.8-2.6,2.1-3.1c0.6-1-0.2-1.2-0.2-1.2l0,0L82,135h3l-0.1,0.1l0,0c0,0-0.8,0.1-1.6,1.2
			c-0.3,0.5-1.9,2.7-2.7,3.9c0,1.3,0,2.5,0,2.9c0,1.1,0.6,1.2,0.6,1.2l0,0l0.1,0.1h-3.4l0.1-0.1l0,0c0,0,0.6-0.1,0.6-1.2
			C78.6,142.6,78.6,141.5,78.6,140.2L78.6,140.2L78.6,140.2L78.6,140.2L78.6,140.2z M35.5,135.4v-2.3l0,0c0,0-1.6-0.7-3.9-0.7
			c-4.3,0-6.8,2.9-6.8,6.1c0,3.3,2.8,6.1,6.8,6.1c1.7,0,3.8-0.8,3.8-0.8l0,0l0.8-3.3l-0.1,0l0,0c0,0-1.3,2.7-4.4,2.7
			c-2.5,0-4.3-1.9-4.3-4.9c0-3,1.9-5,4.5-5C34.6,133.4,35.4,135.3,35.5,135.4L35.5,135.4L35.5,135.4L35.5,135.4L35.5,135.4
			L35.5,135.4z M39.7,140.8l1.5-3.1l1.3,3.1H39.7L39.7,140.8L39.7,140.8L39.7,140.8z M51,135.9h1.5l0,0c1.1,0,1.6,0.8,1.6,0.8l0,0
			l0.1,0.1l0-1.9l0,0c0,0-0.2,0.1-1.3,0.1l0,0h-6l0,0c-1.1,0-1.3-0.1-1.3-0.1l0,0l0,1.9l0.1-0.1l0,0c0,0,0.5-0.8,1.6-0.8l0,0H49v7.2
			l0,0c0,1.1-0.6,1.2-0.6,1.2l0,0l-0.1,0.1h3.4l-0.1-0.1l0,0c0,0-0.6-0.1-0.6-1.2l0,0L51,135.9L51,135.9L51,135.9L51,135.9z
			 M142.1,137.5v-2l0,0c0,0-1.3-0.7-3.2-0.7c-3.4,0-5.6,2.1-5.6,4.9c0,2.3,1.8,4.8,5.4,4.8c1.4,0,3-0.5,3-0.5l0,0l0.7-2.5l-0.1,0.1
			l0,0c0,0-1.2,2-3.4,2c-2,0-3.4-1.3-3.4-3.7c0-2.4,1.4-4,3.5-4C141.3,135.7,142.1,137.5,142.1,137.5L142.1,137.5L142.1,137.5
			L142.1,137.5L142.1,137.5L142.1,137.5z M88.2,132.7H92l0,0c1,0,1.7,0,2.4,0.2c2.3,0.6,2.9,2.1,2.9,3.5c0,1.9-1.5,3.8-4,3.8
			c-1.6,0-2.4-0.5-2.4-0.5c0,1.4,0,3.1,0,3.6c0,1.1,0.6,1.2,0.6,1.2l0,0l0.1,0.1h-3.4l0.1-0.1l0,0c0,0,0.6-0.1,0.6-1.2
			c0-1.1,0-8,0-9.1C88.9,132.8,88.3,132.7,88.2,132.7L88.2,132.7L88.2,132.7L88.2,132.7L88.2,132.7L88.2,132.7z M118.8,136.2
			c0-1.1,0.6-1.2,0.6-1.2l0,0l0.1-0.1h-3.4l0.1,0.1l0,0c0,0,0.6,0.1,0.6,1.2c0,1.1,0,5.8,0,6.9c0,1.1-0.6,1.2-0.6,1.2l0,0l-0.1,0.1
			h3.4l-0.1-0.1l0,0c0,0-0.6-0.1-0.6-1.2C118.8,142,118.8,137.3,118.8,136.2L118.8,136.2L118.8,136.2L118.8,136.2L118.8,136.2z
			 M123.9,143.1v-3.3l0,0c0,0,1.7,0,2,0c1.1,0,1.2,0.5,1.2,0.5l0,0l0.1,0.1v-2l-0.1,0.1l0,0c0,0-0.1,0.5-1.2,0.5c-0.3,0-2,0-2,0l0,0
			v-3l0,0c0,0,2,0,2.4,0c1.1,0,1.6,0.6,1.6,0.6l0,0l0.1,0v-1.7l0,0c0,0-0.2,0.1-1.3,0.1c-0.4,0-5.4,0-5.4,0l0,0l0.1,0.1l0,0
			c0,0,0.6,0.1,0.6,1.2c0,1.1,0,5.8,0,6.9c0,1.1-0.6,1.2-0.6,1.2l0,0l-0.1,0.1h3.4l-0.1-0.1l0,0
			C124.5,144.3,123.9,144.2,123.9,143.1L123.9,143.1L123.9,143.1L123.9,143.1L123.9,143.1L123.9,143.1z M114.5,137.5v-2l0,0
			c0,0-1.3-0.7-3.2-0.7c-3.4,0-5.6,2.1-5.6,4.9c0,2.3,1.8,4.8,5.4,4.8c1.4,0,3-0.5,3-0.5l0,0l0.7-2.5l-0.1,0.1l0,0c0,0-1.2,2-3.4,2
			c-2,0-3.4-1.3-3.4-3.7c0-2.4,1.4-4,3.5-4C113.7,135.7,114.5,137.5,114.5,137.5L114.5,137.5L114.5,137.5L114.5,137.5L114.5,137.5
			L114.5,137.5z M90.9,133.6v5l0,0c0,0,0.8,0.4,1.6,0.4c1.9,0,2.7-1.6,2.7-2.8c0-1.4-0.6-2.2-1.7-2.6c-0.4-0.1-1.2-0.1-1.9-0.1l0,0
			L90.9,133.6L90.9,133.6L90.9,133.6L90.9,133.6z M131.7,136.2c0-1.1,0.6-1.2,0.6-1.2l0,0l0.1-0.1H129l0.1,0.1l0,0
			c0,0,0.6,0.1,0.6,1.2c0,1.1,0,5.8,0,6.9c0,1.1-0.6,1.2-0.6,1.2l0,0l-0.1,0.1h3.4l-0.1-0.1l0,0c0,0-0.6-0.1-0.6-1.2
			C131.7,142,131.7,137.3,131.7,136.2L131.7,136.2L131.7,136.2L131.7,136.2L131.7,136.2z M73.2,143.1c0.5,1-0.3,1.2-0.3,1.2l0,0
			l-0.1,0.1h3.9l-0.1-0.1l0,0c0,0-0.7,0-1.3-1.2l0,0l-4.1-8.6l-4.1,8.6l0,0c-0.6,1.2-1.3,1.2-1.3,1.2l0,0l-0.1,0.1h2.8l-0.1-0.1l0,0
			c0,0-0.8-0.2-0.3-1.2l0,0l0.7-1.5l3.5,0L73.2,143.1L73.2,143.1L73.2,143.1L73.2,143.1z M69.3,140.8l1.5-3.1l1.3,3.1H69.3
			L69.3,140.8L69.3,140.8L69.3,140.8z M102.7,143.1c0.5,1-0.3,1.2-0.3,1.2l0,0l-0.1,0.1h3.9l-0.1-0.1l0,0c0,0-0.7,0-1.3-1.2l0,0
			l-4.1-8.6l-4.1,8.6l0,0c-0.6,1.2-1.3,1.2-1.3,1.2l0,0l-0.1,0.1h2.8l-0.1-0.1l0,0c0,0-0.8-0.2-0.3-1.2l0,0l0.7-1.5l3.5,0
			L102.7,143.1L102.7,143.1L102.7,143.1L102.7,143.1z M98.8,140.8l1.5-3.1l1.3,3.1H98.8L98.8,140.8L98.8,140.8L98.8,140.8z"/>
		<g>
			<path style="fill:#1B1B1B;" d="M57.3,85.1l0.2,0.1l0,0c0,0-0.1,0-0.1,0c0.1,0.1,0.1,0.1,0.1,0.2c0.1,0.1,0.1,0.2,0.1,0.3
				c0,0.1,0.1,0.2,0.1,0.4c0.1,0.2,0.2,0.5,0.2,0.7c0.1,0.1,0.1,0.2,0.1,0.3c0.1,0.2,0.1,0.4,0.2,0.6c0,0.2,0.1,0.3,0.2,0.5
				c0.1,0.6,0.4,1.1,0.6,1.7c0.1,0.1,0,0.1,0.1,0.2c0.2,0.4,0.3,0.8,0.5,1.2c0.2,0.4,0.3,0.8,0.5,1.2l0,0l0,0l0,0c0,0,0,0.1,0.1,0.1
				c0,0.1,0,0.1,0,0.1c0.1,0.1,0.1,0.3,0.2,0.4c0,0.1,0.1,0.1,0.1,0.2c0.3,0.5,0.5,1.1,0.7,1.6c0.3,0.7,0.6,1.4,1.1,2.1
				c0.3,0.6,0.7,1.3,1,1.9c0.2,0.4,0.3,0.7,0.6,1c0,0.1,0.1,0.2,0.1,0.2l0,0l0.1,0.2l0,0c0,0.1,0.1,0.2,0,0.2c0,0,0,0.1,0,0.1
				c0,0.1,0,0.1-0.1,0.1c0,0,0,0-0.1,0c0,0.1,0,0.1-0.1,0.1c0,0,0,0-0.1,0c-0.1-0.1-0.1,0-0.2-0.1c0,0-0.1-0.1-0.2-0.1
				c-0.1,0-0.2-0.2-0.3-0.2c-0.3-0.2-0.4-0.6-0.6-0.9c-0.2-0.3-0.4-0.6-0.5-0.9c-0.2-0.3-0.4-0.6-0.5-0.9c-0.2-0.4-0.5-0.8-0.6-1.2
				c-0.1-0.1-0.1-0.3-0.2-0.4c-0.1-0.3-0.2-0.5-0.4-0.8c0-0.3-0.2-0.5-0.3-0.7c-0.2-0.2-0.2-0.6-0.4-0.8c-0.1-0.2-0.2-0.4-0.2-0.6
				c-0.3-0.4-0.3-0.8-0.5-1.2c-0.1-0.3-0.3-0.7-0.4-1c-0.1-0.2-0.1-0.4-0.2-0.6c0-0.1-0.1-0.2-0.1-0.3c-0.1-0.2-0.1-0.3-0.2-0.5
				c-0.1-0.3-0.2-0.5-0.2-0.8c-0.1-0.4-0.3-0.7-0.3-1c-0.1-0.4-0.2-0.8-0.4-1.2c0-0.2-0.2-0.5-0.2-0.7c0,0,0.1-0.3,0-0.3
				c0-0.1-0.1-0.2,0-0.3c0,0,0-0.1,0-0.1C57.2,85.4,57.2,85,57.3,85.1L57.3,85.1L57.3,85.1L57.3,85.1L57.3,85.1z"/>
			<path style="fill:#1B1B1B;" d="M58.2,94.8c0,0-0.1-0.2-0.1-0.2c0,0,0-0.1,0-0.1c0-0.2-0.1-0.3-0.2-0.5l0,0l-0.3-0.9l0,0
				c0,0,0-0.1,0,0c-0.1-0.3-0.2-0.7-0.3-1c-0.1-0.3-0.2-0.5-0.3-0.8c0-0.3-0.2-0.6-0.3-0.9c-0.1-0.2-0.1-0.5-0.2-0.7
				c-0.1-0.5-0.2-0.9-0.3-1.4c0-0.1,0-0.2,0.1-0.2c0.1-0.1,0-0.3,0.2-0.3c0.3,0.1,0.2,0.7,0.4,1c0.1,0.3,0.2,0.6,0.3,0.9
				c0,0.1,0.1,0.1,0.2,0.1c0.2,0.4,0.2,0.9,0.3,1.3c0.1,0.3,0.2,0.6,0.3,0.8c0.1,0.3,0.2,0.6,0.4,0.9c0,0,0,0.1,0,0.1
				c0,0.2,0.1,0.4,0.2,0.5c0,0.1,0.1,0.2,0.1,0.3c0,0.1,0,0.1,0.1,0.2l0,0l0,0.1l0,0l0,0c0.1,0.1,0.1,0.3,0.2,0.4c0,0,0,0.1,0,0.1
				c0,0,0,0.1,0,0.1c0,0,0,0.1,0.1,0.1c0.1,0.2,0.1,0.5,0.2,0.7c0,0.1,0.1,0.2,0.2,0.4c0.1,0.2,0.2,0.5,0.3,0.7
				c0.1,0.2,0.2,0.4,0.2,0.6c0,0,0.1,0.1,0.1,0.1c0.1,0.2,0.2,0.4,0.3,0.6c0,0,0,0.1,0.1,0.1c0.1,0.2,0.2,0.3,0.3,0.5
				c0,0,0,0.1,0.1,0.1c0.1,0.1,0.1,0.2,0.2,0.3c0.1,0.2,0.2,0.3,0.3,0.5c0.1,0.2,0.3,0.5,0.4,0.8c0.1,0.1,0.2,0.3,0.2,0.4
				c0.1,0.2,0.2,0.4,0.3,0.6c0.2,0.4,0.6,0.8,0.7,1.3c0.1,0.1,0.1,0.1,0.1,0.2c0.2,0.4,0.4,0.7,0.6,1.1c0.1,0.3,0.3,0.4,0.4,0.7
				c0.1,0.1,0.1,0.2,0.2,0.3c0.2,0.3,0.4,0.6,0.6,0.8c0.1,0.1,0.2,0.3,0.3,0.5c0,0,0,0.1,0,0.1c0,0.1-0.1,0.2-0.2,0.1l0,0l0,0l0,0
				c-0.1,0.1-0.3,0-0.4,0c0,0-0.1,0-0.1,0c-0.2,0-0.2-0.2-0.3-0.3c-0.2-0.2-0.4-0.3-0.5-0.6c-0.1-0.2-0.2-0.4-0.3-0.6
				c-0.2-0.2-0.3-0.5-0.5-0.7c0-0.1-0.2-0.2-0.2-0.4c0-0.1-0.1-0.1-0.1-0.2c-0.1-0.1-0.1-0.2-0.1-0.3c0-0.1-0.1-0.1-0.1-0.2
				c0-0.2-0.2-0.3-0.2-0.4c-0.1-0.1-0.1-0.3-0.2-0.4c0-0.1-0.1-0.2-0.1-0.2c-0.1-0.2-0.2-0.3-0.3-0.5c0,0,0,0,0-0.1
				c-0.1-0.1-0.1-0.4-0.3-0.5c-0.1-0.1-0.1-0.2-0.2-0.3c0-0.2-0.2-0.3-0.2-0.5c-0.1-0.2-0.3-0.5-0.4-0.7c-0.1-0.1-0.1-0.2-0.2-0.3
				c0-0.2-0.2-0.4-0.3-0.6c-0.1-0.3-0.2-0.6-0.4-0.9c-0.1-0.2-0.2-0.4-0.3-0.6c-0.1-0.1-0.1-0.3-0.2-0.4c-0.1-0.4-0.4-0.7-0.5-1.1
				c0-0.1-0.1-0.1-0.1-0.2C58.4,95.3,58.3,95.1,58.2,94.8L58.2,94.8L58.2,94.8L58.2,94.8L58.2,94.8z"/>
			<path style="fill:#1B1B1B;" d="M60.3,89c0,0.1,0.2,0.1,0.2,0.2c0.1,0,0.1,0.2,0.2,0.3c0.1,0.3,0.2,0.7,0.4,1l0,0l0.1,0.3l0,0
				c0,0,0,0.1,0.1,0.2c0.1,0.2,0.1,0.4,0.2,0.5c0,0.1,0.1,0.1,0.1,0.2c0,0.1,0,0.2,0.1,0.2c0.1,0.4,0.2,0.7,0.4,1
				c0.1,0.2,0.1,0.4,0.3,0.5c0.1,0.1,0.1,0.2,0.2,0.4c0.1,0,0,0.1,0.1,0.2c0.2,0.3,0.4,0.6,0.5,0.9c0.1,0.1,0.1,0.2,0.1,0.3
				c0.1,0.1,0.1,0.3,0.3,0.4c0.1,0.2,0.2,0.3,0.3,0.5c0.1,0,0.1,0.1,0.1,0.1c0.1,0.1,0.1,0.2,0.2,0.3c0,0,0,0.1,0,0.1
				c0,0.2,0.1,0.3,0.2,0.4c0.1,0.1,0.2,0.2,0.2,0.4c0.2,0.1,0.2,0.4,0.3,0.5c0.2,0.3,0.3,0.6,0.4,0.9c0.1,0.2,0.3,0.3,0.4,0.6
				c0.1,0.1,0.2,0.3,0.3,0.4c0.1,0.3,0.3,0.5,0.4,0.7c0.2,0.3,0.3,0.6,0.6,0.8c0.1,0.1,0.2,0.2,0.2,0.4c0.1,0.1,0.1,0.2,0.2,0.3
				c0.2,0.2,0.3,0.4,0.5,0.6c0.1,0.2,0.2,0.3,0.3,0.5l0,0l0.1,0.2l0,0c0,0.1,0,0.2,0,0.3c0,0-0.1,0-0.1,0c0,0,0,0,0,0
				c-0.1,0-0.1-0.1-0.1-0.1c-0.1,0,0-0.1-0.1-0.1c-0.1-0.1-0.3-0.2-0.4-0.3c-0.1-0.1-0.2-0.2-0.3-0.2c-0.2-0.2-0.3-0.5-0.5-0.7
				c-0.1-0.2-0.2-0.3-0.3-0.4c-0.2-0.3-0.4-0.6-0.6-0.9c-0.3-0.3-0.5-0.7-0.8-1.1c-0.1,0-0.1-0.1-0.1-0.2c-0.4-0.6-0.7-1.2-1.1-1.8
				c-0.3-0.4-0.5-0.8-0.7-1.2c0,0,0,0,0,0c-0.2-0.2-0.3-0.5-0.4-0.8c-0.2-0.3-0.3-0.5-0.4-0.8c-0.2-0.4-0.4-0.8-0.6-1.1
				c0-0.1-0.1-0.2-0.2-0.4c-0.2-0.3-0.4-0.7-0.5-1c0,0,0-0.1,0-0.1c-0.2-0.2-0.2-0.5-0.4-0.8c-0.2-0.4-0.3-0.7-0.4-1
				c0-0.2-0.3-0.4-0.2-0.7c-0.1-0.1,0-0.2,0-0.2c0-0.1,0-0.2,0-0.3c0-0.1,0-0.1,0.1-0.2C60.1,89,60.2,89,60.3,89L60.3,89L60.3,89
				L60.3,89L60.3,89z"/>
			<path style="fill:#1B1B1B;" d="M59.9,87.5c-0.1-0.1-0.1-0.2-0.2-0.3c0-0.1-0.1-0.1-0.2-0.2c-0.1,0-0.2,0-0.2,0.1
				c0,0-0.1,0.1-0.1,0.2c0,0.1,0,0.2,0,0.3c0,0.1,0,0.2,0.1,0.2c0.1,0.1,0.2,0.1,0.3,0.2c0.1,0,0.1,0.1,0.1,0.1c0,0,0,0.1,0.1,0.1
				c0,0,0,0,0,0c0,0,0.1,0,0.1,0C60,88.2,60,88,60,87.9l0,0L59.9,87.5L59.9,87.5L59.9,87.5L59.9,87.5z"/>
			<path style="fill:#1B1B1B;" d="M56.6,84.1c0.1,0.1-0.1,0.3,0.1,0.3c0,0.1,0.2,0.6,0.3,0.6c0.1,0,0.2-0.4,0.2-0.4
				c0.2-0.1,0-0.2,0-0.2c0-0.1,0.2-0.2,0.1-0.3c0-0.1-0.1-0.1-0.2-0.1c-0.1-0.1-0.2-0.4-0.3-0.5c-0.1,0,0-0.1-0.1-0.1
				c0,0,0-0.1-0.1-0.1c0,0,0,0,0,0c0,0-0.1,0-0.1,0c-0.1,0.1-0.1,0.2-0.1,0.3l0,0L56.6,84.1L56.6,84.1L56.6,84.1L56.6,84.1z"/>
			<path style="fill:#1B1B1B;" d="M66.3,108.4c-0.1,0.1,0.2,0.6,0.3,0.6c0.1,0.1,0.2,0,0.2,0c0.1-0.1,0.1-0.1,0.1-0.2
				c0-0.1,0-0.1,0-0.2c0-0.1-0.1-0.1-0.2-0.2c-0.1,0-0.1-0.1-0.2-0.1C66.5,108.2,66.4,108.2,66.3,108.4L66.3,108.4L66.3,108.4
				L66.3,108.4L66.3,108.4z"/>
			<path style="fill:#1B1B1B;" d="M68.7,104.6c0.1,0.1,0.1,0.2,0.2,0.3c0,0.1,0.1,0.1,0.2,0.2c0.1,0,0.2,0,0.2-0.1
				c0,0,0.1-0.1,0.1-0.2c0-0.1,0-0.2,0-0.3c0-0.1,0-0.2-0.1-0.2c-0.1-0.1-0.3-0.1-0.4-0.3c-0.1,0,0-0.1-0.1-0.1c0,0,0-0.1-0.1-0.1
				c0,0,0,0,0,0c0,0-0.1,0-0.1,0c-0.1,0.1-0.1,0.2-0.1,0.3l0,0L68.7,104.6L68.7,104.6L68.7,104.6L68.7,104.6z"/>
			<path style="fill:#1B1B1B;" d="M65.9,107.1c0.2,0.1,0.4,0.7,0.3,0.7c-0.1,0-0.5-0.1-0.6-0.1c-0.1,0-0.6-0.7-0.7-0.8
				c-0.1-0.3,0.3-0.3,0.5-0.3C65.5,106.7,65.6,107,65.9,107.1L65.9,107.1L65.9,107.1L65.9,107.1L65.9,107.1z"/>
			<path style="fill:#1B1B1B;" d="M58.6,97.9c0,0.1,0.1,0.1,0.1,0.3c0,0,0.1,0,0.1,0.1c0,0,0,0.1,0,0.1c0,0,0,0.1,0,0.1l0,0l0.1,0
				l0,0c0,0,0,0,0,0c0,0.1,0.1,0.2,0.1,0.3c0,0,0,0.2,0.2,0.4c3,6.4,6.9,14.7,15.5,18.2c0,0.1-10.6,6.7-10.6,6.7l0,0H52.5V93H57
				l-0.1,0.2l0,0c0,0.1,0.1,0.4,0.1,0.5l0,0l0.1,0.3l0,0c0,0.1,0.1,0.5,0.2,0.6c0,0.1,0.3,0.6,0.3,0.7c0,0,0.1,0.5,0.2,0.6
				c0,0,0.1,0.2,0.1,0.2c0,0.1,0.1,0.3,0.1,0.3c0,0.1,0,0.2,0,0.2c0,0,0,0.1,0,0.1c0.1,0.1,0.1,0.1,0.1,0.2c0,0.1,0.1,0.2,0.1,0.2
				c0,0.1,0.1,0.3,0.1,0.3c0.1,0.1,0.1,0.2,0.1,0.3l0,0L58.6,97.9L58.6,97.9L58.6,97.9L58.6,97.9z"/>
			<path style="fill:#1B1B1B;" d="M71.1,100.5c-0.1,0-0.1,0.2-0.1,0.2c0,0.1,0,0.2,0.1,0.4c0.1,0.2,0.1,0.4,0.3,0.5
				c0,0.1,0.1,0.2,0.2,0.3c0.1,0.2,0.2,0.4,0.4,0.6c0.1,0.1,0.1,0.2,0.2,0.2c0.2,0.2,0.3,0.4,0.5,0.6c0,0.1,0.1,0.1,0.2,0.2
				c0,0.2,0.2,0.2,0.3,0.4c0,0.1,0.2,0.1,0.2,0.3c0.1,0.1,0.1,0.2,0.3,0.3l0,0l0,0.1l0,0c0.1,0.1,0.2,0.2,0.3,0.3
				c0.1,0,0.1,0.1,0.1,0.1c0.2,0.3,0.5,0.5,0.8,0.8c0.1,0,0.1,0.1,0.1,0.1c0.1,0.2,0.3,0.3,0.4,0.4l0,0l0,0l0,0
				c0.1,0.1,0.2,0.2,0.3,0.3c0,0.1,0.1,0.1,0.1,0.2c0.1,0.1,0.3,0.3,0.5,0.4c0,0.1,0.2,0.1,0.1,0.2c0,0,0.1,0,0.1,0.1
				c-0.1,0.1-0.2,0-0.2,0c-0.1,0-0.2-0.1-0.3-0.1c-0.1,0-0.2,0-0.3-0.1c-0.3-0.1-0.5-0.2-0.8-0.4c-0.1-0.1-0.2-0.2-0.3-0.3
				c0,0,0,0,0,0c-0.1,0-0.1-0.1-0.2-0.1c0,0,0-0.1-0.1-0.1c-0.2-0.2-0.3-0.4-0.5-0.5c0,0,0,0,0,0c0,0,0-0.1-0.1-0.1l0,0v0l0,0
				c-0.1,0-0.1-0.1-0.1-0.1c0,0-0.1-0.1-0.2-0.2c-0.1,0,0-0.1-0.1-0.1c0,0,0-0.1-0.1-0.1c0,0,0,0-0.1-0.1c0-0.1-0.1-0.1-0.1-0.1
				c-0.4-0.5-0.8-0.9-1.2-1.4c-0.2-0.3-0.5-0.6-0.7-0.9c-0.1-0.1-0.2-0.3-0.3-0.4c0-0.1-0.1-0.1-0.1-0.2c-0.2-0.2-0.3-0.4-0.5-0.6
				c-0.2-0.3-0.5-0.5-0.6-0.8c-0.2-0.3-0.2-0.6-0.5-0.8c0,0-0.2-0.1-0.2-0.1c0,0,0,0.1,0,0.2c-0.1,0.2,0.1,0.4,0.2,0.6
				c0.1,0.1,0.1,0.3,0.2,0.4c0.2,0.2,0.3,0.5,0.5,0.7c0,0,0.1,0.1,0,0.1c0.2,0.3,0.4,0.5,0.5,0.8c0.2,0.2,0.3,0.5,0.5,0.7
				c0.1,0.2,0.3,0.4,0.5,0.6c0.2,0.3,1,1.1,1.1,1.3c0,0.1,0.2,0.2,0.2,0.3c-0.1,0,0,0-0.1,0c0,0-0.1-0.1-0.2-0.1
				c0,0-0.2-0.1-0.3-0.1c-0.1,0.1-0.4-0.2-0.4-0.2c-0.2,0-0.3-0.2-0.4-0.3c0-0.1-0.1-0.1-0.2-0.1c-0.3-0.4-0.9-1-1.2-1.4
				c-0.1-0.2-0.3-0.3-0.4-0.5c0-0.1-0.1-0.1-0.2-0.2c0-0.1-0.1-0.1-0.2-0.2c-0.1-0.1-0.2-0.3-0.3-0.5c-0.1,0,0-0.1-0.1-0.1
				c-0.2-0.2-0.4-0.5-0.5-0.7c-0.2-0.4-0.5-0.7-0.7-1c-0.1-0.2-0.2-0.3-0.3-0.5c-0.2-0.2-0.3-0.5-0.5-0.8c0-0.1-0.1-0.2-0.2-0.3
				c-0.2-0.3-0.3-0.6-0.5-0.8c0-0.1-0.1-0.2-0.1-0.3c-0.1-0.3-0.3-0.5-0.5-0.8c-0.4-0.6-0.7-1.2-1-1.8c0,0-0.1-0.1-0.1-0.1
				c-0.1-0.2-0.2-0.3-0.3-0.5l0,0l-0.2-0.4l0,0c-0.2-0.3-0.3-0.9-0.3-0.9l0,0l51.4,0l0,31.2H68.4l0,0c0,0,9.6-3.1,18.7-7.6
				c9.2-4.5,5.3-4.8,3.1-4.7c-5.4,0.1-11.6-2.8-15.1-6.7c0,0,0,0-0.2-0.1c-0.1,0-0.1-0.1-0.2-0.1c-0.1-0.1-0.2-0.1-0.4-0.3
				c-0.3-0.3-0.5-0.4-0.7-0.7c-0.2-0.1-0.2-0.4-0.4-0.5c-0.1-0.1-0.2-0.3-0.3-0.4c0-0.2-0.1-0.1-0.2-0.3c-0.2-0.3-0.3-0.4-0.3-0.4
				c-0.1-0.2-0.2-0.2-0.3-0.4c-0.1-0.1-0.3-0.3-0.3-0.4c-0.2-0.1-0.4-0.5-0.4-0.5c0-0.2-0.2-0.3-0.2-0.4
				C71.2,100.6,71.2,100.5,71.1,100.5L71.1,100.5L71.1,100.5L71.1,100.5z"/>
			<path style="fill:#FFFFFF;" d="M70.1,99.7c0.1,0.1,0.1,0.4,0.2,0.4c0,0.1,0.2,0.1,0.2,0.2c0.1,0,0.1,0,0.2-0.1
				c0,0,0.1-0.1,0.1-0.1c0-0.1,0-0.1,0-0.2c0,0-0.2-0.3-0.2-0.4c-0.1-0.1-0.3-0.2-0.4-0.2c0,0,0-0.1-0.1-0.1c0,0,0-0.1-0.1,0
				c0,0,0,0,0,0c0,0-0.1,0-0.1,0c-0.1,0.1-0.1,0.2,0,0.3l0,0L70.1,99.7L70.1,99.7L70.1,99.7L70.1,99.7z"/>
			<polygon style="fill:#525252;" points="69,121.1 64.1,124.2 52.5,124.2 52.5,121.1 			"/>
			<polygon style="fill:#525252;" points="76.9,121.1 114.7,121.1 114.7,124.2 68.4,124.2 			"/>
		</g>
	</g>
</g>
<g>
	<g>
		<path style="fill-rule:evenodd;clip-rule:evenodd;fill:#A9A9A9;" d="M140.6,34.9l0.2,0.5c4.8,0.7,8.1,2,8.1,3.6
			c0,1.2-2.1,2.3-5.4,3.1c-1,0.2-2.1,0.4-3.2,0.6c-2.2,0.3-4.8,0.5-7.5,0.5c-2.7,0-5.2-0.2-7.5-0.5c-1.2-0.2-2.2-0.3-3.2-0.6
			c-3.3-0.8-5.4-1.9-5.4-3.1c0-1.5,3.3-2.9,8.1-3.6l0.2-0.5c-7.6,0.8-12.9,2.6-12.9,4.8c0,1.8,3.7,3.4,9.3,4.3c1,0.2,2,0.3,3.2,0.4
			c2.5,0.3,5.4,0.4,8.3,0.4c3,0,5.8-0.2,8.4-0.4c1.1-0.1,2.2-0.3,3.1-0.4c5.6-0.9,9.2-2.5,9.2-4.3C153.5,37.5,148.2,35.7,140.6,34.9
			z"/>
		<path style="fill-rule:evenodd;clip-rule:evenodd;" d="M113.7,62.9l2,0l8.8-18.4c-1.1-0.1-2.2-0.3-3.2-0.4L113.7,62.9z"/>
		<path style="fill-rule:evenodd;clip-rule:evenodd;" d="M144.2,44c-1,0.2-2,0.3-3.1,0.4l8.8,18.4l1.9,0L144.2,44z"/>
		<path style="fill-rule:evenodd;clip-rule:evenodd;" d="M140.8,35.4l-0.2-0.5l-7.8-19.4l-7.8,19.4l-0.2,0.5l-2.7,6.7
			c1,0.2,2.1,0.4,3.2,0.6l3.7-7.7l0.2-0.4l3.7-7.6l3.7,7.6l0.2,0.4l3.7,7.6c1.2-0.2,2.2-0.3,3.2-0.6L140.8,35.4z"/>
	</g>
	<g>
		<g>
			<path d="M17.8,34.1h3.3L25,44.2h-3L21.3,42h-3.8l-0.8,2.2H14L17.8,34.1z M19.5,36.1L19.5,36.1l-1.3,4h2.5L19.5,36.1z"/>
			<path d="M27.7,42.1c0.6,0.3,1.5,0.5,2.4,0.5c0.5,0,1.1-0.1,1.1-0.6c0-1.3-3.7-0.4-3.7-3.1c0-1.7,1.7-2.4,3.2-2.4
				c0.9,0,1.8,0.1,2.7,0.4l-0.2,1.8c-0.6-0.3-1.4-0.5-2-0.5c-0.6,0-1.2,0.1-1.2,0.5c0,1.2,3.9,0.2,3.9,3.1c0,2-1.8,2.5-3.5,2.5
				c-1.2,0-2-0.1-2.7-0.4L27.7,42.1z"/>
			<path d="M39.9,35.4h-2.6v-1.9h2.6V35.4z M37.3,36.6h2.6v7.5h-2.6V36.6z"/>
			<path d="M48.6,44.2c0-0.4-0.1-0.8-0.1-1.2h0c-0.6,0.9-1.3,1.4-2.4,1.4c-1.5,0-2.8-0.7-2.8-2.4c0-2.3,2.5-2.6,3.9-2.6
				c0.4,0,0.9,0,1.2,0.1c0-1-0.8-1.3-1.7-1.3c-0.8,0-1.7,0.2-2.4,0.6l0-1.8c0.9-0.4,1.9-0.5,3-0.5c1.9,0,3.6,0.8,3.6,3.1v2.8
				c0,0.6,0,1.2,0.1,1.8H48.6z M46.8,42.6c1,0,1.6-0.9,1.6-1.8c-0.3,0-0.7,0-1.1,0c-0.9,0-1.6,0.3-1.6,1
				C45.7,42.3,46.2,42.6,46.8,42.6z"/>
			<path d="M60.8,34.1h2.4l3.2,8.4l3.1-8.4h2.4v10.1h-1.4v-8.7h0L67,44.2h-1.4l-3.3-8.7h0v8.7h-1.4V34.1z"/>
			<path d="M77.8,35.1h-1.5v-1.5h1.5V35.1z M76.4,36.8h1.4v7.4h-1.4V36.8z"/>
			<path d="M82.3,33.3h1.4v10.9h-1.4V33.3z"/>
			<path d="M93.7,43.9c-0.5,0.2-1.1,0.5-2.3,0.5c-2.6,0-3.8-1.6-3.8-4c0-2.2,1.4-3.7,3.5-3.7c2.5,0,3.3,1.8,3.3,4.2H89
				c0,1.5,1.1,2.5,2.4,2.5c0.9,0,1.9-0.5,2.3-0.7V43.9z M92.8,39.8c0-1.1-0.7-2.1-1.8-2.1c-1.3,0-1.9,1.1-2,2.1H92.8z"/>
			<path d="M97.4,42.7c0.5,0.3,1.3,0.5,1.7,0.5c0.6,0,1.4-0.3,1.4-1.1c0-1.3-3.2-1.2-3.2-3.3c0-1.5,1.1-2.3,2.6-2.3
				c0.6,0,1.2,0.1,1.7,0.3l-0.1,1.2c-0.3-0.2-1.1-0.4-1.4-0.4c-0.7,0-1.3,0.3-1.3,0.9c0,1.5,3.2,1.1,3.2,3.4c0,1.6-1.3,2.3-2.6,2.3
				c-0.7,0-1.4-0.1-2-0.4L97.4,42.7z"/>
		</g>
		<path style="fill-rule:evenodd;clip-rule:evenodd;" d="M34.5,63.1l-0.8-0.4c1.1-1.4,1.4-2.5,1.8-4l0.9,0.3
			C36.1,60.6,35.5,61.7,34.5,63.1z"/>
		<rect x="42.7" y="52.5" style="fill-rule:evenodd;clip-rule:evenodd;" width="0.9" height="10.9"/>
		<g>
			<path style="fill-rule:evenodd;clip-rule:evenodd;" d="M60.1,52.3v1.1h2.6v0.4h-2.6v0.8h-0.5v-0.8h-1.8l0.3-0.4h1.5v-1.1H60.1z
				 M55,54.7v-0.8h-2.6v-0.4H55v-1.1h0.5v1.1h1.8l-0.2,0.4h-1.5v0.8H55z M57.8,58.5v1h4.5v3.3c0,0.2-0.1,0.3-0.2,0.4
				c-0.1,0.1-0.3,0.2-0.6,0.2c-0.3,0-0.6,0-0.9,0L60.2,63c0.3,0,0.6,0,0.7,0c0.3,0,0.5,0,0.6-0.1c0.1-0.1,0.1-0.2,0.1-0.3V60h-4v1.4
				l1.8-0.2l-0.4-0.7l0.4-0.2l1,1.8c-0.2,0.1-0.3,0.2-0.4,0.2l-0.4-0.7l-5.2,0.5l-0.2-0.5c0.6,0,1.9-0.2,2.8-0.2V60h-3.9v3.6h-0.5
				V60v-0.4h0.5h3.9v-1h-3.4v-3.4h7.4v3.4H57.8z M54.3,55.6v1h2.9v-1H54.3z M57.8,56.5h3v-1h-3V56.5z M57.8,58h3V57h-3V58z M57.3,58
				V57h-2.9V58L57.3,58z"/>
			<path style="fill-rule:evenodd;clip-rule:evenodd;" d="M73.4,55.7h3v-1.9h-3V55.7z M72.9,58.6v-5.3h7.6v5.3H77v1.6h4.3v0.5H77v2
				h5.3v0.5H71.2v-0.5h5.3v-2h-4.2v-0.5h4.2v-1.6H72.9z M77,58.2v-2h2.1l0.3-0.5H77v-1.9h3v4.4H77z M73.4,58.2h3v-2h-3V58.2z"/>
			<path style="fill-rule:evenodd;clip-rule:evenodd;" d="M92.7,54.7l-0.4,0.3c-0.3-0.6-0.7-1.2-1.3-1.9l0.4-0.2
				C91.9,53.5,92.3,54.1,92.7,54.7z M95.8,54.1l0.4-0.3l1.1,0.8c0.4-0.3,0.9-0.6,1.5-1.1h-4.9v-0.5h5.7l0,0.4
				c-0.4,0.4-1,0.9-1.9,1.5l0.2,0.2h2.7v6.2c0,0.1,0,0.3-0.2,0.5c-0.1,0.2-0.5,0.3-1,0.3c-0.1,0-0.2,0-0.2,0l-0.4-0.5
				c0.2,0,0.4,0,0.6,0c0.5,0,0.7-0.1,0.7-0.4v-1.7h-2.4v2.2h-0.5v-2.2h-2.4v2.6h-0.5v-7H97C96.7,54.8,96.3,54.5,95.8,54.1z M97.1,57
				v-1.4h-2.4V57H97.1z M100,55.6h-2.4V57h2.4V55.6z M100,59.1v-1.6h-2.4v1.6H100z M97.1,59.1v-1.6h-2.4v1.6H97.1z M92.7,59.2h-2
				v-0.4c0.6-0.6,1.2-1.4,1.8-2.4h-1.9v-0.5h2.7c-0.7,1.3-1.3,2.3-1.8,2.8h1.9c-0.2,1-0.4,1.8-0.7,2.3c0.3,0.6,0.7,0.9,1.2,1.2
				c0.6,0.3,1.2,0.5,1.9,0.5h2.1l2.6,0l1.1-0.1l-0.3,0.6h-5.5c-1.5,0-2.8-0.7-3.3-1.6c-0.6,1-1.2,1.6-1.9,1.9l-0.3-0.4
				C91.4,62.6,92.2,61.3,92.7,59.2z"/>
			<path style="fill-rule:evenodd;clip-rule:evenodd;" d="M17.5,55.8v-1.9h-3.3V53h10.1v0.9h-3.3v1.9h2.6v4.1h-2.6v2.2h3.7V63h-11
				v-0.9h3.7v-2.2H15v-4.1H17.5z M22.7,59v-2.3h-2.6v-2.8h-1.7v2.8h-2.5V59h2.5v3.1h1.7V59H22.7z"/>
			<path style="fill-rule:evenodd;clip-rule:evenodd;" d="M41.1,56.1v6.7h-0.9v-4.5l-0.8,0.3c0-1-0.3-1.8-0.6-2.4h0v2.9
				c0,0.2,0,0.5-0.1,0.9c0,0.3-0.1,0.5-0.2,0.8c-0.1,0.2-0.2,0.5-0.3,0.7c-0.1,0.2-0.3,0.5-0.5,0.7c-0.2,0.2-0.4,0.5-0.7,0.7
				c-0.3,0.2-0.6,0.5-0.9,0.7l-0.7-0.7c0.8-0.5,1.5-1.1,1.8-1.7c0.4-0.6,0.6-1.5,0.6-2.7v-5.9h0.9v3.4l0.8-0.3
				c0.3,0.6,0.5,1.3,0.6,2.1h0v-4.6h0.9v2.7l0.7-0.2c0.5,0.7,0.8,1.6,0.9,2.7l-0.9,0.4C41.8,57.8,41.5,56.9,41.1,56.1L41.1,56.1z"/>
		</g>
		<path style="fill-rule:evenodd;clip-rule:evenodd;" d="M34,53.4l0.6-0.6c0.7,0.2,1.3,0.7,1.9,1.4l-0.7,0.7
			C35.3,54.2,34.7,53.7,34,53.4z"/>
		<path style="fill-rule:evenodd;clip-rule:evenodd;" d="M33.2,55.9l0.6-0.7c0.8,0.3,1.4,0.9,2,1.7l-0.7,0.6
			C34.5,56.7,33.9,56.2,33.2,55.9z"/>
		<path style="fill-rule:evenodd;clip-rule:evenodd;" d="M36.6,55.7l0.9,0.1c-0.2,1.1-0.3,1.6-0.9,2.6l-0.9-0.3
			C36.3,57.2,36.5,56.5,36.6,55.7z"/>
		<g>
			<polygon points="13.9,48.5 102.1,48.5 102.1,48.7 13.9,48.7 13.9,48.5 			"/>
			<path d="M58,48.6"/>
		</g>
	</g>
</g>
<g>
	<path style="fill:#2F2F2F;" d="M119.4,540.7c-8.4,0-15.8,3.8-18.5,12.2l-0.4,0l0-10.8l-12.8,0l0,19.7c0,4.8-1.3,7.1-5.1,7.1
		c-4,0-5.1-2.4-5.1-7.1l0-19.7H64.9l0,18.4c0,0.7,0.1,1.3,0.1,2l-0.3,0.1l-8.3-20.4l-12.7,0l-15.3,37.7h14.2l7.3-22.9H50l0,0l0.2,0
		l7.3,22.9l14.2,0l-2.7-6.6l0.2-0.1c2.9,2.5,7.4,3.5,13.5,3.5c10.6,0,16-3.1,17.4-11.3l0.4,0c2.2,9.5,10,13.8,18.9,13.8
		c10.5,0,19.6-5.8,19.6-19.2C138.9,546.5,129.9,540.7,119.4,540.7 M119.4,571.1c-5.4,0-6.5-6.1-6.5-11.3c0-5.1,1.1-11.3,6.5-11.3
		c5.3,0,6.5,6.1,6.5,11.2C125.9,565,124.7,571.2,119.4,571.1"/>
</g>
<g>
	<g>
		<polygon style="fill:#121212;" points="20.4,332.8 20.4,328 8.3,328 1.8,328 1.8,332.8 1.8,338 1.8,342.8 1.8,351.3 8.3,351.3
			8.3,342.8 20.4,342.8 20.4,338 8.3,338 8.3,332.8 		"/>
		<g>
			<g>
				<rect x="13.7" y="332.9" style="fill:#595959;" width="16.4" height="5.1"/>
				<rect x="13.7" y="322.9" style="fill:#595959;" width="16.4" height="5.1"/>
				<rect x="13.7" y="342.8" style="fill:#595959;" width="16.4" height="5.1"/>
			</g>
		</g>
	</g>
	<g>
		<path style="fill:#323232;" d="M36.9,326.3h3.2v0.8c-0.4,0.7-0.9,1.4-1.6,2.2h1.5v0.8c-0.2,0.8-0.4,1.5-0.6,2
			c0.5,0.6,0.9,0.9,1.2,1c0.3,0.2,0.7,0.3,1.2,0.4c0.6,0.1,1.8,0.1,3.7,0.2c1.3,0,2.3,0,3-0.1l-0.2,1.2c-3.5,0-5.7,0-6.5-0.1
			c-0.7-0.1-1.3-0.3-1.7-0.5c-0.4-0.2-0.8-0.5-1.3-1.1c-0.3,0.6-0.8,1.2-1.4,1.9l-0.8-0.9c0.7-0.7,1.1-1.2,1.4-1.7
			c0.2-0.3,0.5-0.9,0.8-1.8h-1.8v-0.9c0.5-0.5,1.1-1.3,1.6-2.1h-1.9V326.3z M38.1,323.4c0.6,0.6,1.1,1.2,1.5,1.8l-0.8,0.8
			c-0.3-0.6-0.9-1.2-1.5-1.9L38.1,323.4z M41,327.3h6.9v2.6h-3.4c-0.2,0.2-0.3,0.4-0.5,0.5v2.8h-1.1v-1.9c-0.5,0.3-1.2,0.7-2,1
			l-0.6-1c0.7-0.2,1.4-0.5,2-0.9c0.2-0.1,0.5-0.3,0.7-0.5H41V327.3z M40.9,324h2.9v-0.8H45v0.8H48v0.9H45v0.8h3.3v0.9h-7.9v-0.9h3.4
			V325h-2.9V324z M46.8,329v-0.8h-4.7v0.8H46.8z M44.8,330.7c0.4,0.1,0.7,0.3,1.1,0.4c0.4-0.4,0.8-0.7,1-1.1l0.9,0.5
			c-0.2,0.3-0.6,0.6-1,1c0.5,0.2,0.9,0.5,1.4,0.8l-0.6,1c-1.1-0.8-2.2-1.4-3.3-1.8L44.8,330.7z"/>
		<path style="fill:#323232;" d="M51.9,324.2h5v-1h1.2v1h5v1.1h-5v0.8h4.1v4.9h-2.9c0.5,0.6,1,1,1.4,1.2c0.6,0.4,1.5,0.8,2.7,1.2
			l-0.5,1.1c-1.4-0.6-2.4-1.2-3-1.7c-0.5-0.4-1.1-1-1.7-1.9h-0.1v3.9h-1.2v-3.9h-0.1c-0.4,0.6-0.8,1.2-1.3,1.6
			c-0.7,0.7-1.8,1.3-3.2,2l-0.6-1c1.4-0.6,2.4-1.1,3-1.6c0.3-0.3,0.7-0.6,1-1h-2.7v-4.9h3.9v-0.8h-5V324.2z M54.1,328.1h2.8v-0.8
			h-2.8V328.1z M56.9,330v-0.9h-2.8v0.9H56.9z M58.1,327.3v0.8h2.9v-0.8H58.1z M61.1,330v-0.9h-2.9v0.9H61.1z"/>
		<path style="fill:#323232;" d="M69.1,323.1l1.2,0.2c-0.2,0.4-0.4,0.8-0.5,1.1h2.8c-0.2-0.3-0.5-0.7-0.8-1l1.3-0.2
			c0.3,0.4,0.6,0.8,0.8,1.2h3.7v0.9h-4.1v0.7h3.6v0.9h-3.6v0.7h3.6v0.9h-3.6v0.7h4.2v1H73v0.7h5v1h-3.6c0.5,0.5,1,0.9,1.4,1
			c0.6,0.3,1.3,0.5,2.3,0.8l-0.7,1c-1.2-0.4-2.1-0.8-2.6-1.1c-0.6-0.4-1.2-1-1.7-1.7H73v3h-1.2v-3h-0.1c-0.4,0.5-0.8,0.9-1.2,1.2
			c-0.7,0.5-1.8,1-3.1,1.5l-0.7-1c1.4-0.4,2.4-0.8,2.9-1.1c0.3-0.2,0.6-0.3,0.8-0.6h-3.8v-1h5.1v-0.7H68v-3.1
			c-0.2,0.2-0.4,0.5-0.6,0.7l-0.9-1C67.7,325.7,68.5,324.5,69.1,323.1z M72.3,326.1v-0.7h-3.1c0,0,0,0.1-0.1,0.1v0.6H72.3z
			 M72.3,327.7V327h-3.1v0.7H72.3z M72.3,329.3v-0.7h-3.1v0.7H72.3z"/>
		<path style="fill:#323232;" d="M92.7,323.5v11.3h-1v-0.4h-8.9v0.4h-1v-11.3H92.7z M82.7,333.6h8.9v-9.1h-8.9V333.6z M83.2,325.1
			h3.4v-0.5h1v0.5h3.6v0.8h-3.6v0.4h3.1v3h-0.6c0.4,0.4,0.7,0.7,0.9,1l-0.8,0.5c-0.1-0.2-0.2-0.3-0.4-0.5c-0.1,0-0.2,0-0.2,0v0.6
			h1.6v0.8h-1.6v0.5c0,0.3-0.1,0.5-0.3,0.7c-0.2,0.1-0.4,0.2-0.8,0.2h-1.4l-0.2-0.9c0.5,0.1,1,0.1,1.3,0.1c0.3,0,0.4-0.1,0.4-0.2
			v-0.4h-3.1c0.3,0.3,0.5,0.7,0.7,1l-0.9,0.4c-0.3-0.5-0.5-0.9-0.8-1.3l0.5-0.2h-1.7v-0.8h5.4v-0.5c-1.5,0.1-3.3,0.2-5.2,0.3
			l-0.2-0.9c1.1,0,2.2-0.1,3.3-0.1v-0.4h-3v-3h3v-0.4h-3.4V325.1z M84.5,327.6h2v-0.4h-2V327.6z M86.6,328.7v-0.4h-2v0.4H86.6z
			 M87.6,327.1v0.4h2.2v-0.4H87.6z M89.8,328.7v-0.4h-2.2v0.4H89.8z M89.3,329.8c-0.1-0.1-0.2-0.2-0.3-0.3h-1.5v0.4
			C88.2,329.8,88.8,329.8,89.3,329.8z"/>
	</g>
	<g>
		<path style="fill:#323232;" d="M37.4,338.6h4.8v1.1h-3.5v2.7H42v1.1h-3.4v4.1h-1.3V338.6z"/>
		<path style="fill:#323232;" d="M46.4,338.6h1.4l3.8,9.1h-1.4l-0.9-2.3h-4.4l-0.9,2.3h-1.4L46.4,338.6z M47,339.9l-1.8,4.5h3.6
			L47,339.9z"/>
		<path style="fill:#323232;" d="M52.8,338.6H55c0.5,0,1,0,1.4,0.1c0.4,0.1,0.8,0.2,1.1,0.3c0.3,0.2,0.6,0.4,0.8,0.7
			c0.2,0.3,0.3,0.8,0.3,1.3c0,0.5-0.2,1-0.5,1.4c-0.4,0.4-0.8,0.6-1.3,0.7v0c0.2,0.1,0.4,0.2,0.5,0.3c0.1,0.1,0.3,0.3,0.4,0.6
			l1.7,3.6h-1.5l-1.4-3.1c-0.2-0.4-0.4-0.6-0.6-0.7c-0.2-0.1-0.5-0.1-0.9-0.1h-0.8v4h-1.3V338.6z M54.1,342.5h1.1
			c0.6,0,1.1-0.1,1.4-0.4c0.3-0.3,0.5-0.6,0.5-1c0-0.4-0.2-0.7-0.5-1c-0.3-0.2-0.8-0.4-1.4-0.4h-1.2V342.5z"/>
		<path style="fill:#323232;" d="M64.5,338.6h5.1v1.1h-3.8v2.7h3.4v1.1h-3.4v3h3.8v1.1h-5.1V338.6z"/>
		<path style="fill:#323232;" d="M74.5,338.6h1.4l3.8,9.1h-1.4l-0.9-2.3h-4.4l-0.9,2.3h-1.4L74.5,338.6z M75.2,339.9l-1.8,4.5H77
			L75.2,339.9z"/>
		<path style="fill:#323232;" d="M85.2,340c-0.4-0.1-0.7-0.2-0.9-0.3c-0.2-0.1-0.5-0.1-0.8-0.1c-0.2,0-0.4,0-0.6,0.1
			c-0.2,0-0.4,0.1-0.5,0.2c-0.2,0.1-0.3,0.2-0.4,0.4c-0.1,0.2-0.1,0.4-0.1,0.6c0,0.3,0.1,0.6,0.4,0.8c0.2,0.2,0.6,0.4,1.2,0.7
			c0.4,0.2,0.7,0.3,0.9,0.5c0.2,0.1,0.5,0.3,0.7,0.5c0.2,0.2,0.4,0.5,0.5,0.8c0.1,0.3,0.2,0.7,0.2,1.1c0,0.5-0.1,0.9-0.3,1.2
			c-0.2,0.3-0.4,0.6-0.7,0.8c-0.3,0.2-0.7,0.4-1,0.5c-0.4,0.1-0.8,0.2-1.3,0.2c-0.3,0-0.6,0-0.9-0.1c-0.3-0.1-0.6-0.2-1-0.3l0.1-1.2
			c0.3,0.1,0.6,0.2,0.9,0.3c0.3,0.1,0.7,0.1,1,0.1c0.2,0,0.4,0,0.6-0.1c0.2-0.1,0.4-0.1,0.6-0.3c0.2-0.1,0.3-0.3,0.4-0.5
			c0.1-0.2,0.2-0.4,0.2-0.7c0-0.2,0-0.4-0.1-0.6c-0.1-0.2-0.2-0.3-0.4-0.5c-0.2-0.2-0.6-0.4-1.2-0.7c-0.4-0.2-0.6-0.3-0.9-0.4
			c-0.2-0.1-0.4-0.3-0.6-0.5c-0.2-0.2-0.4-0.4-0.5-0.7c-0.1-0.3-0.2-0.6-0.2-0.9c0-0.8,0.3-1.4,0.8-1.8c0.5-0.4,1.2-0.6,2.1-0.6
			c0.3,0,0.6,0,1,0.1c0.3,0.1,0.7,0.1,1,0.2L85.2,340z"/>
		<path style="fill:#323232;" d="M89.4,339.8h-2.8v-1.1h6.9v1.1h-2.8v7.9h-1.3V339.8z"/>
		<path style="fill:#323232;" d="M94.8,338.6h5.1v1.1h-3.8v2.7h3.4v1.1h-3.4v3h3.8v1.1h-5.1V338.6z"/>
		<path style="fill:#323232;" d="M101.9,338.6h2.2c0.5,0,1,0,1.4,0.1c0.4,0.1,0.8,0.2,1.1,0.3c0.3,0.2,0.6,0.4,0.8,0.7
			c0.2,0.3,0.3,0.8,0.3,1.3c0,0.5-0.2,1-0.5,1.4c-0.4,0.4-0.8,0.6-1.3,0.7v0c0.2,0.1,0.4,0.2,0.5,0.3c0.1,0.1,0.3,0.3,0.4,0.6
			l1.7,3.6h-1.5l-1.4-3.1c-0.2-0.4-0.4-0.6-0.6-0.7c-0.2-0.1-0.5-0.1-0.9-0.1h-0.8v4h-1.3V338.6z M103.2,342.5h1.1
			c0.6,0,1.1-0.1,1.4-0.4c0.3-0.3,0.5-0.6,0.5-1c0-0.4-0.2-0.7-0.5-1c-0.3-0.2-0.8-0.4-1.4-0.4h-1.2V342.5z"/>
		<path style="fill:#323232;" d="M109.9,338.6h1.8l4,7.3h0v-7.3h1.3v9.1h-1.7l-4.1-7.5h0v7.5h-1.3V338.6z"/>
		<path style="fill:#323232;" d="M129.9,340.3c-0.3-0.2-0.7-0.4-1.1-0.5c-0.4-0.1-0.9-0.1-1.4-0.1c-0.5,0-1,0.1-1.4,0.3
			c-0.4,0.2-0.8,0.4-1.1,0.7c-0.3,0.3-0.5,0.7-0.7,1.1c-0.2,0.4-0.2,0.9-0.2,1.4c0,0.5,0.1,1,0.3,1.4c0.2,0.4,0.4,0.8,0.7,1.1
			c0.3,0.3,0.7,0.6,1.1,0.7c0.4,0.2,0.9,0.3,1.3,0.3c0.3,0,0.6,0,0.8,0c0.2,0,0.4-0.1,0.5-0.1c0.1,0,0.1,0,0.2,0v-2.8h-1.9v-1.1h3.2
			v4.7c-0.3,0.1-0.7,0.2-1.2,0.3c-0.4,0.1-1,0.1-1.6,0.1c-0.7,0-1.4-0.1-2-0.3c-0.6-0.2-1.1-0.5-1.5-1c-0.4-0.4-0.7-0.9-1-1.5
			c-0.2-0.6-0.3-1.2-0.3-1.9c0-0.7,0.1-1.3,0.4-1.9c0.2-0.6,0.6-1.1,1-1.5c0.4-0.4,0.9-0.7,1.5-0.9c0.6-0.2,1.2-0.3,1.9-0.3
			c0.6,0,1.1,0,1.4,0.1c0.4,0.1,0.8,0.2,1.2,0.4L129.9,340.3z"/>
		<path style="fill:#323232;" d="M132.3,338.6h2.2c0.5,0,1,0,1.4,0.1c0.4,0.1,0.8,0.2,1.1,0.3c0.3,0.2,0.6,0.4,0.8,0.7
			c0.2,0.3,0.3,0.8,0.3,1.3c0,0.5-0.2,1-0.5,1.4c-0.4,0.4-0.8,0.6-1.3,0.7v0c0.2,0.1,0.4,0.2,0.5,0.3c0.1,0.1,0.3,0.3,0.4,0.6
			l1.7,3.6h-1.5l-1.4-3.1c-0.2-0.4-0.4-0.6-0.6-0.7c-0.2-0.1-0.5-0.1-0.9-0.1h-0.8v4h-1.3V338.6z M133.6,342.5h1.1
			c0.6,0,1.1-0.1,1.4-0.4c0.3-0.3,0.5-0.6,0.5-1c0-0.4-0.2-0.7-0.5-1c-0.3-0.2-0.8-0.4-1.4-0.4h-1.2V342.5z"/>
		<path style="fill:#323232;" d="M140.1,341.3c0.2-0.6,0.5-1.1,0.9-1.5c0.4-0.4,0.8-0.7,1.4-1c0.5-0.2,1.2-0.4,1.8-0.4
			c0.7,0,1.3,0.1,1.8,0.4c0.5,0.2,1,0.6,1.4,1c0.4,0.4,0.7,0.9,0.9,1.5c0.2,0.6,0.3,1.2,0.3,1.9c0,0.7-0.1,1.3-0.3,1.9
			c-0.2,0.6-0.5,1.1-0.9,1.5c-0.4,0.4-0.8,0.7-1.4,1c-0.5,0.2-1.2,0.3-1.8,0.3c-0.7,0-1.3-0.1-1.8-0.3c-0.5-0.2-1-0.5-1.4-1
			c-0.4-0.4-0.7-0.9-0.9-1.5c-0.2-0.6-0.3-1.2-0.3-1.9C139.8,342.5,139.9,341.9,140.1,341.3z M141.4,344.5c0.1,0.4,0.3,0.8,0.5,1.1
			c0.2,0.3,0.6,0.6,0.9,0.8c0.4,0.2,0.8,0.3,1.3,0.3c0.5,0,0.9-0.1,1.3-0.3c0.4-0.2,0.7-0.5,0.9-0.8c0.2-0.3,0.4-0.7,0.5-1.1
			c0.1-0.4,0.2-0.9,0.2-1.3c0-0.5-0.1-0.9-0.2-1.3c-0.1-0.4-0.3-0.8-0.6-1.1c-0.3-0.3-0.6-0.6-0.9-0.8c-0.4-0.2-0.8-0.3-1.3-0.3
			c-0.5,0-0.9,0.1-1.3,0.3c-0.4,0.2-0.7,0.5-0.9,0.8c-0.3,0.3-0.4,0.7-0.6,1.1c-0.1,0.4-0.2,0.9-0.2,1.3
			C141.2,343.6,141.3,344.1,141.4,344.5z"/>
		<path style="fill:#323232;" d="M157.5,344c0,1.3-0.3,2.2-0.9,2.9c-0.6,0.7-1.5,1-2.6,1c-1.1,0-2-0.3-2.6-1
			c-0.6-0.7-0.9-1.6-0.9-2.9v-5.3h1.3v5.1c0,0.9,0.2,1.7,0.5,2.2c0.3,0.5,0.9,0.8,1.7,0.8c0.8,0,1.4-0.3,1.7-0.8
			c0.3-0.5,0.5-1.2,0.5-2.2v-5.1h1.3V344z"/>
		<path style="fill:#323232;" d="M159.7,338.6h2.4c0.5,0,0.9,0,1.3,0.1c0.4,0.1,0.8,0.2,1.1,0.5c0.3,0.2,0.6,0.5,0.7,0.8
			c0.2,0.4,0.3,0.8,0.3,1.3c0,0.5-0.1,0.9-0.3,1.3c-0.2,0.4-0.4,0.6-0.7,0.9c-0.3,0.2-0.6,0.4-1,0.5c-0.4,0.1-0.8,0.1-1.2,0.1H161
			v3.6h-1.3V338.6z M161,342.9h1.3c0.2,0,0.4,0,0.6-0.1c0.2-0.1,0.4-0.1,0.6-0.3c0.2-0.1,0.3-0.3,0.4-0.5c0.1-0.2,0.2-0.5,0.2-0.7
			c0-0.3-0.1-0.5-0.2-0.7c-0.1-0.2-0.3-0.4-0.5-0.5c-0.2-0.1-0.4-0.2-0.7-0.3c-0.2-0.1-0.5-0.1-0.7-0.1H161V342.9z"/>
	</g>
</g>
<g>
	<path style="fill:#555555;" d="M140,247.5c-1.3,1.7-3,3.5-4.8,4.7l-1.3-2.6c1.4-0.9,2.7-2.2,3.8-3.6
		C138.5,246.5,139.2,247,140,247.5z"/>
	<polygon style="fill:#555555;" points="97.9,260.1 101.9,260.1 101.9,248.7 104.7,248.7 104.7,263.9 101.9,263.9 101.9,262.9
		91.1,262.8 91.1,263.8 88.2,263.8 88.2,248.6 91.1,248.6 91.1,260.1 95,260.1 95,246.1 97.9,246.1 	"/>
	<polygon style="fill:#555555;" points="81.6,249.2 75.2,249.2 75.1,249.3 75.1,253.2 81.1,253.2 81.1,256 75.1,256 75.1,260.9
		82.3,260.9 82.3,263.7 64.9,263.7 64.9,260.9 72.2,260.9 72.2,256 66.2,256 66.2,253.2 72.2,253.2 72.2,249.2 65.8,249.2
		65.8,246.4 81.6,246.4 	"/>
	<rect x="140.9" y="246.4" style="fill:#555555;" width="9.9" height="2.7"/>
	<path style="fill:#555555;" d="M86,269.1c0.3,0.5,0.5,1.1,0.5,1.8h-2.2c-0.1-0.5-0.3-1-0.8-1.2c-0.7-0.4-1.8-0.4-2.6,0
		c-0.3,0.2-0.5,0.4-0.6,0.8c0,0.3,0,0.6,0.1,0.8c0.9,1,2.2,0.9,3.4,1.2c1.1,0.3,2.5,0.9,2.8,2.1c0.4,1.2,0.2,2.6-0.8,3.5
		c-1.4,1.4-3.6,1.4-5.4,1c-1.3-0.4-2.5-1.7-2.7-3l0-0.5h2.2c0,0.6,0.3,1.1,0.8,1.5c0.9,0.6,2.3,0.4,3.2-0.1c0.4-0.3,0.5-0.7,0.4-1.2
		c-0.2-0.8-1.1-1-1.8-1.3c-1.6-0.4-3.5-0.6-4.4-2.2c-0.5-1.2-0.3-2.8,0.7-3.7c1.5-1.4,4.1-1.5,5.8-0.6
		C85.3,268.2,85.7,268.6,86,269.1z"/>
	<path style="fill:#555555;" d="M90.5,275.8C90.5,275.8,90.6,275.8,90.5,275.8c0.1,0.3,0.2,0.5,0.3,0.7c0.2,0.1,0.1,0.3,0.3,0.3
		c0.1,0.1,0.1,0.1,0.2,0.2c0.2,0.1,0.4,0.2,0.7,0.2c0.1,0,0.1,0.1,0.3,0.1c0.5,0.1,0.8-0.1,1.2-0.2c0.1-0.1,0.2-0.1,0.3-0.2
		c0.2-0.2,0.4-0.3,0.5-0.5c0-0.1,0.1-0.2,0.2-0.2c0.1-0.2,0.1-0.4,0.1-0.7h0l0-8h2.4v7.7h0l0,0.8h0l0,0.3h0c0,0.2,0,0.3-0.1,0.4
		c0,0.1-0.1,0.3-0.1,0.4c-0.2,0-0.1,0.3-0.3,0.3c0,0.2-0.2,0.2-0.2,0.4c-0.1,0.1-0.1,0.2-0.2,0.2v0.1c0,0-0.1,0-0.1,0
		c0,0.1-0.1,0.1-0.2,0.2c-0.1,0-0.1,0.2-0.3,0.1v0.1c-0.1,0-0.2,0.1-0.2,0.1c-0.2,0.1-0.3,0.2-0.5,0.2c0,0.2-0.3,0-0.3,0.2
		c-0.2-0.1-0.3,0.2-0.5,0.1c-0.2,0.2-0.5,0-0.7,0.2c-0.5,0-1.1,0-1.6,0v0l-0.3,0c0-0.1-0.1,0-0.1,0c-0.4,0-0.6-0.2-1-0.3
		c0,0-0.1-0.1-0.2-0.1c0-0.1-0.1-0.1-0.2-0.2c-0.1,0-0.1-0.1-0.2-0.1c-0.1-0.1-0.2-0.1-0.2-0.2c0,0,0,0-0.1,0c0,0,0-0.1,0-0.1h-0.1
		c0-0.1-0.2-0.1-0.2-0.2c-0.1-0.1-0.2-0.2-0.3-0.3c-0.1,0-0.1-0.2-0.2-0.2c-0.1,0-0.1-0.2-0.1-0.2c0-0.1-0.1,0-0.1,0
		c0-0.2-0.1-0.3-0.1-0.4h0c0-0.2-0.1-0.4-0.1-0.6h0c0-0.2,0-0.5,0-0.7l0-7.9h2.4V275.8z"/>
	<polygon style="fill:#555555;" points="73.3,269.8 67.5,269.8 67.5,272.1 72.5,272.1 72.5,274.1 67.4,274.1 67.4,276.9 73.4,276.9
		73.4,278.9 64.9,278.9 64.9,267.8 73.3,267.8 	"/>
	<path style="fill:#555555;" d="M104.8,274.5c0,0,0.1,0,0.1,0l0-6.8h2.4v11.1h-2.4l-4.2-7.1l-0.1,0v7.1h-2.4v-11.1l2.6,0
		L104.8,274.5z"/>
	<path style="fill:#555555;" d="M138.2,274.5c0,0,0.1,0,0.1,0l0-6.8h2.4v11.1h-2.4l-4.2-7.1l-0.1,0v7.1h-2.4v-11.1l2.6,0
		L138.2,274.5z"/>
	<path style="fill:#555555;" d="M144.1,271.9c0.1,0,0.2,0,0.3,0l3.7-4h3l-4.1,4.3l0,0.3l4.4,6.4l-2.7,0c-1.2-1.6-2.2-3.3-3.4-4.9
		l-0.2,0l-0.9,0.9v4h-2.4v-11.1h2.4V271.9z"/>
	<path style="fill:#555555;" d="M151.6,252v2.6h-2.7l-0.1,7.4c-0.1,0.6-0.6,1.1-1.1,1.3c-1.2,0.5-2.8,0.3-4.1,0.3l-1.1-2.7l3.3-0.1
		c0.1-0.1,0.2-0.2,0.3-0.3l0-6l-6.2-0.1c0-0.7,0-1.3-0.1-1.9c-0.2,0.5-0.6,0.9-0.9,1.3v9.8h-2.7c0-2.1,0-4.3,0-6.4
		c-0.5,0.4-0.9,0.8-1.3,1.2l-1.2-2.9c1.8-1.4,3.2-3.2,4.3-5.1l1.9,1.4L151.6,252z"/>
	<path style="fill:#555555;" d="M126.9,267.7h-2.5l-3.8,11l0,0.2h2.5l0.6-1.9c0-0.1,0-0.3,0.2-0.4l3.9,0l0.7,2.3h2.5v0L126.9,267.7z
		 M124.4,274.7c0.4-1.4,0.8-2.8,1.3-4.1h0c0.4,1.4,0.9,2.8,1.3,4.1C126.9,274.8,125.3,274.7,124.4,274.7z"/>
	<g>
		<path style="fill:#555555;" d="M127.5,260.4c-0.2,0.1-0.1-0.2-0.3-0.2c-0.1-0.2-0.2-0.2-0.4-0.4c-0.1-0.2-0.3-0.2-0.2-0.5
			c0.1,0,0-0.3,0.2-0.2v-0.1c0.2-0.1,0.4-0.3,0.6-0.4c0.1-0.1,0.2-0.1,0.2-0.2c0,0,0.1,0,0.1,0v-0.1c0-0.1,0.1,0,0.1,0v-0.1
			c0-0.1,0.1,0,0.1,0v-0.1c0,0,0.1,0,0.1,0v-0.1c0.1-0.1,0.1,0,0.2,0v-0.1c0,0,0.1,0,0.1,0V258c0-0.1,0.1,0,0.1,0v-0.2
			c-0.2-0.1-0.1-0.4-0.4-0.4c-0.1,0,0-0.2-0.1-0.1c-0.1-0.1-0.1-0.3-0.2-0.3c-0.1-0.1-0.1-0.2-0.2-0.3c-0.1-0.1-0.1-0.3-0.2-0.3
			c0-0.3-0.2-0.4-0.4-0.6c-0.1,0.1-0.1,0.1-0.2,0.1c0,0,0,0.1,0,0.1c-0.3,0.1-0.5,0.5-0.9,0.7c-0.1,0.2-0.3,0.2-0.5,0.3
			c-0.2,0.1-0.2-0.1-0.3-0.2c-0.1-0.3-0.4-0.8,0-1.1h2.7v-9.2h-8.6l-0.1,2.8c-1.2-0.7-2.2-2-2.8-3.1h-2.4c-0.8,1.5-1.9,2.9-3.4,4
			c0.3,0.9,0.6,1.9,1,2.9l0.7-0.4c0.1,0.1,0.1,0.4,0.1,0.6l1.4,0c0,0.2,0,0.5,0,0.7H111v2.4l2.7,0.1l0,4.4l-0.5,0.2L111,261l0.1,2.7
			c2.3-0.3,4.6-0.8,6.9-1.2c0.4,0.2,0.2,0.8,0.3,1.2c0.2,0.1,0.6,0.1,0.8,0c0.4,0.1,0.5-0.2,0.9-0.1c0.1-0.2,0.5,0,0.6-0.2
			c0.5-0.1,1-0.2,1.5-0.3c0.3-0.1,0.7-0.1,0.9-0.2c0.3-0.1,0.7,0,0.9-0.2v-1.7l0.1-0.1c0.2,0.1,0.2,0.2,0.3,0.4
			c0.2,0.1,0.2,0.3,0.4,0.3c0.1,0,0,0.2,0.1,0.1c0,0.3,0.3,0.2,0.3,0.5c0.3,0.1,0.3,0.4,0.5,0.4c0.1,0.2,0.3,0.3,0.4,0.4
			c0,0.2,0.3,0.2,0.3,0.4c0.2,0.1,0.4,0.2,0.5,0.4c0.2,0,0.1,0.1,0.3,0c0.1-0.2,0.3-0.4,0.3-0.6c0.1-0.1,0.2-0.2,0.3-0.3
			c0.1-0.1,0.1-0.2,0.1-0.3c0.1,0,0.1-0.2,0.2-0.2c0.1-0.2,0.3-0.4,0.4-0.6c0.1,0,0.1-0.1,0.2-0.2v-0.2
			C128.2,261,127.8,260.8,127.5,260.4z M115.1,249.2c0.4,0.4,0.9,0.9,1.2,1.4l-2.1,0C114.5,250.2,114.8,249.7,115.1,249.2z
			 M119.2,260.9h-0.6c0-0.3,0-0.7,0-1c-0.1,0-0.1-0.1-0.2-0.2c0.3-0.9,0.4-1.8,0.6-2.7c-0.6-0.2-1.3-0.3-2-0.5l-0.6,2.8l0.1,0.1
			l1.5,0.4c-0.6,0.2-1.1,0.3-1.8,0.4v-3.9h2.5l0-2.4l-2.5-0.1v-0.6c0.6-0.1,1.2,0,1.8,0c0.1-0.3,0-0.7,0.1-1
			c0.1-0.1,0.3,0.1,0.4,0.1c0.3-0.4,0.4-0.9,0.7-1.2V260.9z M121.9,249.2l0.1-0.1h2.9c0.1,0.2,0.1,0.6,0.1,0.9L125,250h-2.9
			C121.8,249.9,122,249.5,121.9,249.2z M121.8,260.4v-4.7c0.2-0.1,0.7-0.2,0.7,0.2c0.2,1.4,0.5,2.8,1.1,4
			C123,260.2,122.4,260.4,121.8,260.4z M122,253.2c-0.1-0.2-0.1-0.7,0-0.9h3c0.2,0.2,0.1,0.6,0.1,0.8
			C124.1,253.3,123,253.2,122,253.2z"/>
		<path style="fill:#555555;" d="M111.6,260.5c0.4-0.1,0.9-0.2,1.3-0.3c0.2-0.1,0.4-0.1,0.5-0.2c0-1.1-0.2-2.2-0.3-3.2
			c-0.3-0.2-0.6,0-0.9,0c-0.4,0.1-0.7,0.2-1.1,0.3l0.2,3.4l0.1,0.1C111.5,260.5,111.6,260.6,111.6,260.5z"/>
	</g>
	<path style="fill:#555555;" d="M79.7,257.5c0.3,0.4,0.3,0.9,0.2,1.4c-0.1,0.5-0.6,1.1-1.1,1.2c-0.7,0.2-1.4,0-1.9-0.5
		c-0.3-0.3-0.4-0.8-0.4-1.3c0.1-0.6,0.6-1.3,1.2-1.5C78.4,256.6,79.2,256.9,79.7,257.5z"/>
	<path style="fill:#555555;" d="M118.7,273v-0.2c0.4-0.2,0.7-0.4,0.9-0.7c0.6-0.7,0.6-2,0.2-2.8c-0.5-1-1.5-1.4-2.5-1.5l-5.4,0v11.1
		h5.6c0.6-0.1,1.1-0.2,1.6-0.5c0.9-0.5,1.3-1.4,1.4-2.3C120.6,274.8,119.8,273.6,118.7,273z M114.3,269.6c1.3,0.1,3.1-0.3,3.5,0.9
		c0,0.5,0,1.1-0.4,1.4c-0.2,0.2-0.4,0.3-0.7,0.3h-2.4V269.6z M117.7,276.5c-0.9,0.8-2,0.5-3.4,0.5v-2.9l2.7,0
		c0.4,0.1,0.7,0.3,0.9,0.7C118,275.3,118.2,276.1,117.7,276.5z"/>
	<path style="fill:#555555;" d="M76.7,276.7c0.3,0.3,0.3,1,0.1,1.4c-0.2,0.3-0.5,0.6-0.8,0.7c-0.5,0.2-1.1,0.1-1.5-0.3
		c-0.4-0.4-0.5-0.9-0.4-1.4c0.1-0.5,0.6-0.9,1-1C75.8,276,76.4,276.2,76.7,276.7z"/>
	<path style="fill:#555555;" d="M57,254.8c3.2,8.2,0.9,17.9-5.5,23.7c-5.6,5.1-13.9,7-21.3,4.5c-8.3-2.8-14.1-10.4-14.5-19.2
		c-0.4-8.4,3.9-15.9,11.2-19.9c6.6-3.9,16.6-3.2,22.7,1.4C52.9,247.5,55.5,251.1,57,254.8z"/>
	<path style="fill:#FFFFFF;" d="M36.1,251.3c0.8-0.2,1.7-0.8,2.5-0.2c0.5,0.8,2,1.1,1.6,2.2c0.8,0.9,1.6,2,2.6,2.7
		c0.2,0,0.3-0.1,0.4-0.2l-0.3-0.1c0.3-0.3,1.1,0.2,1.6-0.1c0.3,0,0.8,0.1,1,0.4c0.2,0.4,0.3,0.8,0.6,1.2l0.2-0.1
		c0.2,0.4,0.3,0.8,0.6,1.1c1.6,0.5,2.4,2.5,3.8,3.3c1.7,1.3,3.5,2.6,5.6,3.4c-0.1,0.3,0.2,0.3,0.4,0.4v0c-0.3-0.1-0.6-0.3-0.9-0.2
		c0.3,0.4,0.9,0.2,1.1,0.7h-0.7c0,0.1,0.2,0.1,0.3,0.2c-0.3-0.1-0.7,0.1-0.9-0.3c-1.5-0.6-2.8-1.5-4.1-2.3l0,0c1,1,2.4,1.7,3.6,2.4
		c0.4,0.2,1,0.4,1.2,0.8c-0.1,0-0.4,0-0.4,0.2l-0.3-0.2c-0.1,0,0,0.1,0,0.2l0.2,0.2c-1.5-0.6-3.2-1.6-4.6-2.7
		c-0.7-0.5-1.3-0.8-2-1.3c-0.1,0-0.2,0-0.3,0.1c0.8,0.6,1.6,0.9,2.3,1.5c-1.4-0.7-3-1.7-4.1-3c-0.5-0.5-1.2-1.5-2-1.4
		c-0.3,0.2-0.8,0.1-1.1,0.3c-0.3,0-0.5-0.3-0.8-0.1c-0.2,0.5-0.9,0.1-1.1,0.6c-0.4,0.2-1.2,0-1.4,0.6l0,0.2
		c-0.9,0.4-2.1,0.3-2.7,1.1c-0.2,0.2-0.5,0-0.7,0.2c0-0.1,0-0.2-0.1-0.2c-0.2-0.1-0.4,0.1-0.5,0.2c-0.1-0.2,0.2-0.3,0.1-0.4
		c-0.4-0.2-0.6,0.4-0.9,0.5c0-0.4,0.4-0.4,0.6-0.7c-0.2-0.1-0.4,0.1-0.6,0.1c0.1,0,0.3-0.4,0-0.4c0.2-0.4,0.7-0.2,0.8-0.6H36
		c0.4-0.3,0.8-0.6,1.1-0.8c-0.1,0-0.4-0.4-0.6,0c0,0,0.1-0.1,0-0.1c-0.2-0.2-0.4,0.1-0.6,0.1c0,0,0-0.1-0.1-0.2h-0.1
		c0.1-0.1,0.3-0.3,0.5-0.5l-0.1-0.1c0.7-0.4,1.3-0.8,2-1.2l0.1-0.1c-0.2-0.2-0.5-0.2-0.7,0c0.6,0,0-0.7,0.6-0.8
		c0.1-0.5,0.5-0.8,0.9-1.1c-0.6-0.5-0.8-1.5-1.5-1.8c0-0.4-0.4,0-0.5-0.4c-0.8,0-1.7,0.4-2.3-0.4c-0.4-0.1-0.9-0.1-1.3-0.1
		c-0.4,0.3-0.5,0.8-0.7,1.1c-0.4,0.3-0.5,0.7-0.8,1.1c-0.4,0.5-0.9,1.2-1.6,1.4c0,0,0-0.1,0-0.1c-0.5,0.7-1.6,0.4-2.2,1.1l0-0.2
		c-0.2,0-0.4,0.1-0.4,0.3v0.1c-0.3-0.1-0.5,0.3-0.7,0.5c-0.8,0.8-2,0.8-2.8,1.5c-0.1,0,0,0,0,0c-1.5,0.3-2.2,1.4-3.1,2.5
		c-0.3,0.4-0.7,0.7-1.1,1.1c0.1,0.4-0.4,0.5-0.6,0.7c0.2-0.3,0.6-0.6,0.6-0.9c-0.4,0.2-0.4,0.6-0.8,0.8c-0.2-0.2,0.2-0.3,0.1-0.5
		l-0.5,0.4l0.5-0.7c-0.3,0-0.5,0.5-0.8,0.5c-0.1,0.1-0.2,0.1-0.4,0.1v0c0.2-0.1,0.5-0.5,0.8-0.7c-0.3-0.2-0.7,0.2-0.9,0.2
		c-0.1,0,0-0.3-0.3-0.2c0.2-0.2,0.4-0.3,0.5-0.6c-0.2,0-0.4,0.1-0.6,0.2c0-0.2,0.5-0.4,0.4-0.7c-0.6-0.1-0.5,0.5-1,0.6
		c0.5-0.7,1.2-1.1,1.7-1.8l0,0c0.9-1,2.1-1.7,3.2-2.3c0.9-0.5,2.2-0.8,2.8-1.7c0.3-0.4,0.5-0.7,0.7-1c0.1,0,0.2-0.1,0.2-0.2
		c0.7-0.4,1.4-0.7,2.2-0.7c0.4-0.4,1-0.1,1.3-0.6c0.9-1.1,1.3-2.5,2.1-3.6c0.3-0.4,0.6-1,1.1-1.1C33.5,250.7,34.8,250.9,36.1,251.3z
		"/>
	<polygon style="fill:#FFFFFF;" points="45.9,256.6 45.8,256 45.9,256.5 	"/>
	<path style="fill:#555555;" d="M46.2,257.5c-0.2,0-0.1-0.2-0.2-0.3C46.1,257.2,46.2,257.4,46.2,257.5z"/>
	<path style="fill:#555555;" d="M25.1,257.8c-0.1-0.3,0.2-0.4,0.4-0.6C25.4,257.4,25.3,257.7,25.1,257.8z"/>
	<polygon style="fill:#555555;" points="29.4,257.9 29.4,257.8 29.5,257.8 	"/>
	<path style="fill:#555555;" d="M28.4,258.2c-0.1,0.1-0.1,0.2-0.3,0.2C28.2,258.2,28.4,258.1,28.4,258.2z"/>
	<path style="fill:#FFFFFF;" d="M36.9,258.9c-0.2,0.2-0.7,0.3-0.7,0.6c-0.4,0-0.7,0.4-1,0.4c0-0.4,0.6-0.1,0.6-0.5l0.4-0.3l0,0.1
		c0.1-0.1,0.6,0,0.4-0.4L36.9,258.9z"/>
	<path style="fill:#FFFFFF;" d="M35.5,259.2c-0.1,0.2-0.3,0.3-0.5,0.4C35.1,259.3,35.3,259.3,35.5,259.2z"/>
	<path style="fill:#555555;" d="M26.4,259.7c0.1,0.1-0.1,0-0.1,0.1C26.3,259.8,26.4,259.7,26.4,259.7z"/>
	<rect x="36.4" y="260" style="fill:#555555;" width="0.1" height="0.1"/>
	<path style="fill:#555555;" d="M36.2,260.3c0,0.1-0.1,0.1-0.1,0.2h-0.1C35.9,260.3,36,260.3,36.2,260.3
		C36.1,260.2,36.1,260.3,36.2,260.3z"/>
	<path style="fill:#555555;" d="M37,261.1c0,0.2-0.3,0.2-0.3,0.2c-0.1,0,0-0.1,0-0.2C36.9,261.2,36.9,261.1,37,261.1z"/>
	<path style="fill:#555555;" d="M37.1,261.4c0,0.2-0.4,0.2-0.5,0.3c0-0.2,0.2-0.3,0.4-0.4C37,261.4,37.1,261.3,37.1,261.4z"/>
	<path style="fill:#555555;" d="M47.7,261.8c0.2,0.1,0.3,0.3,0.4,0.4l-0.1,0.1c-0.3-0.3-0.5-0.6-0.7-1
		C47.5,261.5,47.6,261.7,47.7,261.8z"/>
	<path style="fill:#FFFFFF;" d="M54.1,264.2c-0.1,0.1-0.3-0.1-0.4-0.1L54.1,264.2z"/>
	<path style="fill:#FFFFFF;" d="M55.4,264.9c-0.4-0.2-0.8-0.2-1.1-0.5C54.7,264.4,55,264.7,55.4,264.9z"/>
	<polygon style="fill:#FFFFFF;" points="51.5,264.8 50.9,264.4 51.3,264.6 	"/>
	<polygon style="fill:#FFFFFF;" points="55.2,266.2 55.3,266.1 55.4,266.2 	"/>
	<path style="fill:#FFFFFF;" d="M55,266.4h-0.2v-0.1C54.9,266.4,55,266.4,55,266.4z"/>
</g>
<g>
	<g>
		<path style="fill:#585858;" d="M34.4,489.1h-5c0,0,0,11.5,0,12.9c0,2.1,1.2,7.1,6.7,7.1c5.6,0,8.8,0,8.8,0v-3.5c0,0-6.4,0-7.3,0
			c-1.9,0-3.3-1.1-3.3-3.6C34.4,500.7,34.4,489.1,34.4,489.1z"/>
		<path style="fill:#585858;" d="M64,489.1c0,0-6.2,0-7.9,0c-1.7,0-10.2,0.3-10.2,8.4c0,0,0,2.1,0,4c0,1.9,1.1,7.6,10.1,7.6
			c2.5,0,8,0,8,0v-3.8c0,0-7.8,0-9.2,0c-1.4,0-3.6-1.2-3.6-3.5c0-2.3,0-3.7,0-4.8c0-1.1,0.9-4.1,3.6-4.1c2.7,0,9.2,0,9.2,0V489.1z"
			/>
		<polygon style="fill:#585858;" points="65.7,489.1 71.2,489.1 76.7,496.5 81.9,489.1 87.8,489.1 79.1,500.3 79.1,509.1 74,509.1
			74,500.3 		"/>
		<path style="fill:#969696;" d="M103.9,475.7c0,0-12.1,23.5-12.9,25.1c-0.7,1.6-0.8,8.2,7.1,8.2c0,0,28.9,0,31.1,0
			c2.3,0,8.8-3,5.8-9.1c-3-6.1-12.5-24.3-12.5-24.3l-4.5,7.8c0,0,7,13.4,7.5,14.4c0.4,1,2.1,4.6-1.4,4.6c-3.5,0-20.2,0-21.6,0
			c-1.5,0-2.9-1.6-1.8-3.9c1.1-2.3,7.8-15.2,7.8-15.2L103.9,475.7z"/>
		<path style="fill:#B6B6B6;" d="M113.3,480.8c0,0-5.1-9.1-5.7-10.7c-0.3-0.9-0.5-7.5,5.7-7.5c5.8,0,6.3,5.9,5.6,7.5
			C118.2,471.8,113.3,480.8,113.3,480.8z"/>
		<g>
			<path style="fill:#202020;" d="M131.1,480.1v-3.9h-1.4v-0.5h3.5v0.5h-1.4v3.9H131.1z"/>
			<path style="fill:#202020;" d="M133.7,480.1v-4.4h0.9l1,3.1c0.1,0.3,0.2,0.5,0.2,0.6c0-0.2,0.1-0.4,0.2-0.7l1-3.1h0.8v4.4h-0.6
				v-3.7l-1.3,3.7h-0.5l-1.3-3.7v3.7H133.7z"/>
		</g>
	</g>
</g>
</svg>
