<svg xmlns="http://www.w3.org/2000/svg" viewBox="0 0 841.9 595.3" enable-background="new 0 0 841.9 595.3"><g fill-rule="evenodd" clip-rule="evenodd"><path d="M149 412.8c-1.1.8-2.2 1.5-3.5 1.7-2 .3-4.8-.4-6-2.5-.5-.8-.7-1.7-.7-2.6v-7.1c.1-2.9 2-4.8 4.9-4.9 1.5-.1 2.9.1 4.4.4.4.1.5 0 .5-.4v-6c0-.4.1-.5.5-.5 1-.1 2.1-.2 3.1-.4.4-.1.5 0 .5.5v22.7c0 .4-.1.5-.5.5h-2.4c-.2 0-.4-.1-.4-.3-.1-.4-.3-.7-.4-1.1zm-.4-7.3v-3.8c0-.3-.1-.4-.4-.5-1-.2-2-.3-3-.4-1.4-.1-2.2.5-2.3 1.9-.2 2.1-.2 4.3-.1 6.5 0 .8.3 1.5 1.2 1.7.5.1 1 .2 1.5.1 1-.2 1.9-.6 2.8-1.2.3-.2.4-.4.4-.7-.1-1.2-.1-2.4-.1-3.6z" fill="#4A4A4A"/><path d="M33.5 402.6v-11c0-.4.1-.6.6-.7 1.1-.1 2.2-.3 3.3-.5.4-.1.4.1.4.4v7.6c0 .4 0 .5.5.4 1.2-.5 2.4-.9 3.7-1.2 1.4-.3 2.9-.3 4.2.6.8.6 1.3 1.5 1.3 2.4v13.2c0 .3-.1.4-.4.4H44c-.4 0-.5-.1-.5-.5v-10.5c0-1.8-.8-1.9-2.2-1.7-1.2.2-2.2.8-3.2 1.3-.3.1-.2.4-.2.6v10.2c0 .6 0 .6-.6.6h-3c-.4 0-.5-.1-.5-.5-.3-3.7-.3-7.4-.3-11.1zM22.1 414.2h-7c-.5 0-.6-.1-.6-.6v-2.8c0-.2.1-.4.2-.6 1.7-2.5 3.5-5.1 5.2-7.6 1.6-2.3 3.1-4.6 4.7-6.9.1-.1.2-.3.2-.4-.1-.2-.3-.1-.4-.1h-9.1c-.2 0-.2-.1-.2-.3v-3c0-.4.2-.3.5-.3h13.8c.4 0 .6.1.5.5v2.7c0 .3-.1.5-.2.7-3.3 4.8-6.5 9.6-9.8 14.5l-.1.1c-.1.1-.3.3-.2.4.1.2.3.1.4.1h9.3c.4 0 .5.1.5.5v2.5c0 .5-.1.5-.6.5-2.4.1-4.7.1-7.1.1z" fill="#aaa"/><path d="M86.6 403v-10.8c0-.4.1-.5.5-.5h12.8c.4 0 .5.1.5.5v2.8c0 .4-.1.4-.4.4h-8.6c-.4 0-.5.1-.5.5v5.1c0 .5.2.5.5.5h7.8c.4 0 .6.1.5.5v2.6c0 .4-.1.5-.5.5h-7.9c-.5 0-.6.1-.6.6v8.1c0 .4-.1.5-.5.4h-3.4c-.4 0-.4-.1-.4-.4.2-3.6.2-7.2.2-10.8zM135 407.5v6.2c0 .4-.1.5-.5.5h-3.1c-.4 0-.5-.1-.5-.5V402.9c0-1.3-.6-1.8-1.9-1.5-1.3.3-2.5.8-3.6 1.3-.3.1-.2.3-.2.5v10.6c0 .3-.1.5-.4.5h-3.3c-.3 0-.4-.1-.4-.4v-15.6c0-.3.1-.4.4-.4h2.4c.3 0 .5.1.5.4.3 1 .3 1 1.3.6 1.4-.5 2.7-1 4.1-1.2.8-.1 1.5-.1 2.3 0 1.5.3 2.5 1.3 2.8 2.9.1.4.1.9.1 1.4v5.5z" fill="#494949"/><path d="M117.1 406v7.7c0 .4-.1.5-.5.5h-2.3c-.3 0-.4-.1-.5-.3-.1-.3 0-.9-.4-1-.3-.1-.7.2-1 .3-1.6.6-3.2 1.1-4.8 1.3-.6.1-1.2 0-1.8-.1-1.5-.4-2.4-1.5-2.6-3.1-.1-.6-.1-1.2-.1-1.8v-11.2c0-.4.1-.5.5-.5h3.2c.3 0 .4.1.4.4v11.3c.1.8.6 1.2 1.4 1.2 1-.1 1.9-.5 2.7-.8.5-.2 1.3-.3 1.5-.8.3-.4.1-1.1.1-1.7v-9.2c0-.4.1-.5.5-.5h3.1c.3 0 .4.1.4.4.2 2.7.2 5.3.2 7.9z" fill="#4A4A4A"/><path d="M68 406v-7.7c0-.5.2-.6.6-.6h2.3c.3 0 .4.2.4.4.3 1 .3 1 1.3.6 1.4-.6 2.7-1 4.2-1.2.8-.1 1.6-.2 2.5 0 1.5.4 2.2 1.4 2.5 2.8.1.5.1 1 .1 1.5v11.8c0 .4-.1.5-.5.5h-2.9c-.5 0-.6-.1-.6-.6v-10.7c0-1.3-.7-1.6-1.4-1.6-.6 0-1.2.2-1.7.4-.7.3-1.4.6-2.1.8-.4.1-.5.3-.5.7v10.3c0 .7 0 .7-.7.7h-2.9c-.4 0-.5-.1-.5-.5-.1-2.5-.1-5-.1-7.6zM59.8 407.5h-4.2c-.4 0-.5.1-.5.5v1.5c.1 1.1.9 1.7 2.2 1.8 1.9.1 3.8-.1 5.7-.7.3-.1.4 0 .5.3.2.7.3 1.4.5 2.1.1.4.1.6-.3.7-2.5.9-5.1 1.1-7.6.7-2.4-.4-4.2-1.9-4.8-4.4-.1-.4-.1-.7-.1-1.1v-5.1c0-1.8.5-3.4 1.8-4.7 1-1 2.3-1.5 3.7-1.5 1.1 0 2.3-.1 3.4.1 1.8.3 3 1.3 3.7 2.9.4.8.5 1.7.5 2.6v3.9c0 .3 0 .4-.4.5-1.4 0-2.9-.2-4.1-.1zm-1.9-3.1h2.3c.1 0 .4.1.4-.2 0-.6.1-1.3-.2-1.9-.5-1.1-1.8-1.7-3.1-1.5-1.1.2-2.4 1.2-2.2 2.5v.6c0 .3.1.5.4.4.9 0 1.6.1 2.4.1z" fill="#aaa"/><path d="M60.5 428.2c.7.8 1.5 1.3 2.4 1.7.2.1.4.1.4.3 0 .2.1.5-.1.7-.2.1-.4-.1-.5-.1-.5-.2-1.1-.5-1.7-.8.1.5-.2.6-.6.6h-1.9c-.3 0-.4.1-.4.4 0 .9 0 .9.9.9h3.3c.3 0 .4.1.4.4 0 .3-.1.3-.4.3h-9.4c-.3 0-.3-.1-.4-.4 0-.3.1-.3.4-.3h3.7c.4 0 .6-.1.5-.5v-.4c0-.3-.1-.4-.4-.4h-1.9c-.4 0-.6-.1-.5-.6l-1.8.9c-.2.1-.4.3-.5 0-.1-.3-.2-.7.2-.8.6-.3 1.3-.6 1.8-1 .2-.2.5-.4.7-.7h-2.3c-.2 0-.4 0-.4-.3 0-.4.2-.4.5-.4h1.4c.3 0 .4-.1.4-.4v-2.7c0-.3-.1-.3-.3-.3h-1.1c-.3 0-.4-.1-.4-.4 0-.3.1-.4.4-.4h1c.3 0 .4-.1.4-.4v-.3c0-.1-.1-.4.1-.4.3-.1.6-.1.8 0 .2.1.1.4.1.5 0 .4.1.5.5.5h3.8c.4 0 .5-.1.5-.5 0-.6.2-.8.9-.6.2.1.2.2.2.4 0 .7 0 .7.8.7h.5c.3 0 .5 0 .5.4s-.2.4-.5.4c-.4 0-1-.2-1.2.1-.3.3-.1.8-.1 1.3v1.7c0 .3.1.4.4.4h1.5c.3 0 .3.1.4.4 0 .3-.1.3-.3.3H62c-.6-.2-1-.2-1.5-.2zm-2.9-3.5h2c.3 0 .4 0 .4-.4 0-.3-.2-.3-.4-.3h-4c-.2 0-.4 0-.4.3s.1.4.4.4h2zm.1 1.4h2.1c.3 0 .3-.1.3-.4 0-.2-.1-.4-.3-.3h-4.1c-.3 0-.3.1-.3.4 0 .3.1.3.3.3h2zm0 1.4h2.1c.3 0 .3-.1.3-.4 0-.2-.1-.3-.3-.3h-4.1c-.3 0-.3.1-.3.4 0 .3.1.3.4.3h1.9zm-3.1 2.3h1.5c1.1 0 1.1 0 1.1-1.1 0-.2.1-.5-.1-.5-.3-.1-.6-.2-.8.1-.6.5-1.1 1-1.7 1.5zm6.3 0c-.7-.5-1.2-.9-1.6-1.4-.3-.3-.6-.3-.9-.2-.3.1-.1.4-.1.6v.7c0 .2 0 .3.3.3h2.3zM23 430.5c.5.5.9.8 1.4 1 .5.2.6.5.4 1-1.1-.3-2.2-.8-3-1.7-.2-.2-.4-.3-.7-.3h-.5c-1-.1-2 0-2.8.9-.6.6-1.5.9-2.3 1.1-.2-.5 0-.8.5-1 .5-.2.9-.5 1.3-.9-.1-.2-.2-.1-.3-.1h-2c-.3 0-.5 0-.5-.4s.2-.4.5-.4c.9 0 .9 0 .9-.9v-3.9c0-.3.1-.5.4-.4h2.9c.3 0 .4-.1.4-.4 0-.3-.1-.4-.4-.4h-3.7c-.3 0-.4 0-.5-.4 0-.4.2-.4.5-.4h3.7c.3 0 .5-.1.4-.4 0-.4.3-.3.5-.3s.5-.1.5.3.2.4.5.4h3.6c.3 0 .5 0 .5.4s-.2.4-.5.4H21c-.3 0-.4 0-.4.4s.2.4.4.4h2c.9 0 1.3.4 1.3 1.3v3.6c0 .3.1.5.4.4h.5c.3 0 .4.1.4.4 0 .3-.2.4-.4.4-.5-.1-1.3-.1-2.2-.1zm-2.8-4.1h-2.8c-.3 0-.4 0-.4.4 0 .3.2.3.4.3H23c.2 0 .4 0 .4-.3s-.1-.4-.4-.4h-2.8zm0 2h2.9c.2 0 .4 0 .4-.3s-.1-.3-.4-.3h-5.7c-.2 0-.4 0-.4.3s.2.4.4.4c1-.1 1.9-.1 2.8-.1zm.1.7h-2.9c-.3 0-.4.1-.4.4 0 .3.2.3.4.3h5.7c.2 0 .4 0 .4-.3s-.1-.4-.4-.4h-2.8zm-.1-3.3h2.9c.1 0 .4.1.4-.2 0-.2-.1-.4-.3-.4h-5.8c-.2 0-.4 0-.4.3s.1.3.4.3h2.8z" fill="#6A6A6A"/><path d="M40 423.3h3c.2 0 .5-.1.6.1.1.3.1.6-.1.9-.5.7-1.1 1.4-1.7 2-.3.2-.3.3 0 .5.7.4 1.5.9 2.3 1.2.2.1.4.2.3.5 0 .3-.1.5-.4.3-.1 0-.2 0-.3-.1v2.6c0 .9-.3 1.2-1.2 1.2h-4.4c-.3 0-.4-.1-.4-.4v-3c0-.2 0-.4-.3-.3-.1 0-.3.2-.4-.1 0-.2-.2-.6.2-.7.7-.3 1.4-.6 2-1 .2-.1.4-.3.5-.3-.4-.4-.7-.8-1.1-1.2-.2-.2-.3-.1-.4.1-.3.3-.6.5-.9.8-.1-.5 0-.9.3-1.3.6-.7 1.1-1.5 1.4-2.4.1-.3.8-.5 1-.3.1.1.1.2 0 .3.2.1.1.3 0 .6zm.8 5.9h-1.6c-.3 0-.4.1-.4.4v1.9c0 .3.1.4.4.4h3c.4 0 .6-.2.6-.6v-1.7c0-.3-.1-.4-.4-.4h-1.6zm1.8-5.1h-2.8c-.3 0-.3.3-.4.4-.1.1 0 .2.1.3.4.4.8.8 1.2 1.1.1.1.2.2.3.1.5-.6 1.1-1.2 1.6-1.9zm.7 4.3c-.9-.4-1.6-.8-2.3-1.2-.1-.1-.2-.1-.4 0-.7.5-1.4.8-2.2 1.2h4.9z" fill="#6B6B6B"/><path d="M79.9 425.8v.4c0 .3-.1.4-.4.4h-2.3c-.3 0-.4.1-.4.4 0 1.1 0 1.1 1 1.1h2.8c.3 0 .4.1.4.4 0 .3-.1.4-.4.4h-3.4c-.3 0-.5.1-.4.4v2.2c0 .2.1.3.3.4.6.1 1-.1 1.2-.6.2-.4.5-.9.7-1.3.1-.3 1-.5 1.2-.3.1.1 0 .2 0 .3-.2.5-.5 1-.9 1.4-.1.1-.2.3-.3.5h1.9c.2 0 .4 0 .4.3s-.1.4-.4.4h-9.4c-.3 0-.4-.1-.4-.3 0-.3.1-.4.4-.4h1.9c-.4-.6-.8-1.2-1.1-1.8-.2-.4-.1-.5.3-.5.5 0 .8.1 1 .6.2.5.5.9.8 1.3.2.3.9.5 1.2.4.1-.1.1-.2.1-.3v-2.4c0-.3-.2-.3-.4-.3H72c-.2 0-.5.1-.5-.4 0-.4.2-.4.5-.4h3.2c.3 0 .5-.1.5-.4 0-1 0-1-1-1h-1.6c-.4 0-.6-.1-.5-.5v-.2c2.6-.2 5-.2 7.3-.2z" fill="#6A6A6A"/><path d="M37.3 427.5c-.5-.3-.8-.8-1.3-1.1V432.1c0 .4-.2.4-.5.4s-.5 0-.5-.4v-4.3c-.5.9-.9 1.7-1.5 2.4-.1-.5-.1-.9.1-1.4.6-1.1.9-2.2 1.1-3.5.1-.4 0-.6-.5-.5h-.5c-.4.1-.3-.2-.4-.4 0-.3.2-.3.4-.3h.1c1.1 0 1.1 0 1.1-1.2 0-.3-.2-.7.4-.7.7 0 .7 0 .6.7v.1c-.1 1-.1 1 .9 1 .3 0 .4 0 .4.3s-.1.4-.4.4c-.8 0-.8 0-.4.7.2.3.3.6.5.9.4.4.5.7.4 1.2z" fill="#696969"/><path d="M72.8 425.8c-.5.2-1 .5-1.5.7-.2.1-.4.3-.5.1-.1-.3-.2-.6.2-.9.4-.2.9-.5 1.3-.7 1.1-.7 2.2-1.5 3.1-2.5.2-.2.4-.3.6-.3h.8c.3 0 .5.1.7.3 1.2 1.3 2.6 2.3 4.1 3.1.5.2.4.5.4.9 0 .3-.2.1-.3.1-.5-.2-1-.4-1.5-.7-.1 0-.2-.1-.3-.1v-.1c-1.2-.7-2.4-1.5-3.4-2.5-.1-.1-.2-.1-.3 0-.9 1.1-2.2 1.9-3.4 2.6z" fill="#6B6B6B"/></g><path d="M142.2 180.8c1.1 0 2.1.9 2.1 2.1 0 1.2-1 2.1-2.1 2.1s-2.1-.9-2.1-2.1c0-1.2 1-2.1 2.1-2.1zm0 3.9c1 0 1.7-.8 1.7-1.8s-.8-1.8-1.7-1.8c-1 0-1.7.8-1.7 1.8s.8 1.8 1.7 1.8zm-.8-3h.9c.6 0 .9.2.9.7 0 .4-.3.6-.6.7l.7 1.1h-.4l-.7-1.1h-.4v1.1h-.4v-2.5zm.4 1.1h.4c.3 0 .7 0 .7-.4 0-.3-.3-.4-.5-.4h-.5v.8zM142.2 180.8c1.1 0 2.1.9 2.1 2.1 0 1.2-1 2.1-2.1 2.1s-2.1-.9-2.1-2.1c0-1.2 1-2.1 2.1-2.1zm0 3.9c1 0 1.7-.8 1.7-1.8s-.8-1.8-1.7-1.8c-1 0-1.7.8-1.7 1.8s.7 1.8 1.7 1.8zm-.8-3h.9c.6 0 .9.2.9.7 0 .4-.3.6-.6.7l.7 1.1h-.4l-.7-1.1h-.4v1.1h-.4v-2.5zm.4 1.1h.4c.3 0 .6 0 .6-.4 0-.3-.3-.4-.5-.4h-.5v.8zM55.5 170.8c-.6.1-3 .6-3.8.8-.9.2-8.9 6.4-9.4 7.9-.1.5-.2 1.3-.2 2.1l-.1 1.2c0 .9.2 2.3.4 3 .5.1 4.3 0 5 .1l-.1 1.6H39c-1.4 0-5.9.2-7.3.1l.3-1.5c.8-.1 3.9.1 4.6-.6.3-.4.2-.7.2-2.8v-1c0-.5 0-1.3-.1-2.2-.3-.9-7.3-9.7-9.1-11.1-.5-.2-3.8-.5-4.6-.7v-1.3c.4-.2 4.1 0 7.6-.1 2.3-.1 7.6 0 8.3.1l-.2 1.2c-.7.2-4.1.2-4.9.5 2.3 3.4 5.9 7.7 7 9.4.6-.9 6.3-4.8 6.4-6.1-.9-.2-3.8-.6-4.2-.6l-.3-1.5c.8-.1 5 0 7 0 1.8 0 5.6 0 6.7.1l-.9 1.4zM67.5 186.9H58.9l.2-1.4c.7 0 2.1-.3 2.7-.4-.4-.9-1.7-3.8-2-4.4-.8 0-3.5.1-4.3.2-.1.3-1.2 1.3-1.4 2.7.5.1 1.5.3 2.1.4l-.2 1.4h-3.7c-.6 0-3.1 0-3.6.1l.5-1.5c.6-.1 1.9-.5 2.5-.6.8-1.1 4.3-8.1 4.6-8.7-.5-.1-1.3-.5-1.8-.6l-.1-1c.6 0 3.7.1 4.1.1.7 0 3.5 0 4.1-.1l-.2 1c-.6 0-1.4.3-2 .4.3.8 1.3 3.3 2.1 5.1.6 1.3 1.6 3.9 2.5 5.4.6.1 2.1.5 2.7.6v.4l-.2.9zm-9.6-11.7v-.2c-.7 1.5-1.8 4-2 4.6h3.6c-.4-1.2-1.3-3.5-1.6-4.4zM89 183.1h-4.2c-1 0-3.4-.1-4.5 0l-.1-1.4c.4 0 2.8-.2 3.3-.3.2-.7.1-1.8.1-2.7l-.1-1.6c-1.2 0-9.5.4-9.8.5l-.6.1c0 2.2.1 2.9.3 3.7.7.1 3 .3 3.5.3v1.5H66l.1-1.6c.6 0 3-.3 3.5-.3.1-1 .1-2.6.1-4.3v-2.1c0-.7 0-2.7-.1-3.4-.5-.1-2.9-.2-3.6-.3l-.1-1.2c.5 0 3.7-.1 5.4-.1h5.6l-.1 1.2c-.7 0-3.2.2-3.6.3-.1.6-.2 1.1-.2 3l-.1 1c.7 0 9.4 0 10.5-.2V174c0-1.7.3-3.6.1-4.1-.4-.1-2.8-.4-3.5-.5l.1-1.2c.5 0 2.7 0 4.3.1 1.7 0 4.2.1 4.7 0l-.1 1c-.5 0-2.8.6-2.8.6s-.2 1.1 0 2.6c.1 1.3.1 3.8.1 3.8.1 2.8.2 5.1.1 5.2-.2.1 1.8.3 2.3.3l.2.4.1.9zM109.1 176.6c.2 4.8-4.2 7.1-9.8 7.1-2.4 0-5.2-.4-7.7-1.9-1.9-1.1-2.2-2.6-2.2-4.5 0-3.8 4.2-7 10.6-7 2.4 0 4.8.4 6.7 1.8 1.7 1.3 2 2 2.3 3.4l.1 1.1zm-3.1.3c.1-3.9-2.9-5-6.8-4.7-2 .1-6.2 1.2-6.2 4.7s3.2 5.3 7.4 5c3.3-.3 5-1.5 5.4-3.2l.2-1.8zM137.6 179.4l-2.5-.2c.3-1.3 0-11.1 0-12.1l-.1-2.1c.7.1.6.1 3.6.4 1.8.2 2 .3 2.6.3l-.8 2.4c-.6 2-2.6 10.7-2.8 11.3zm-1.7 5.2l-1.4-.1v-2.9l1.7.2 1.5.1-.4 2.9-1.4-.2zM132.8 174.6c.3 4.5-4.8 8.2-11.3 8.2-2.7 0-5-.3-7.6-2.1-2.2-1.4-3.2-2.7-3.5-5.1-.5-4.3 4.8-8 12.1-8 2.8 0 5.5.4 7.6 2.1 1.9 1.5 2.3 2.9 2.6 4.6l.1.3zm-3.3.7c.3-4.3-3.9-5.8-8.3-5.5-2.3.2-6.7 1.5-6.7 5.5s3.6 5.9 8.5 5.5c3.7-.3 5.3-1.7 6.2-3.6-.1-.1.2-.6.3-1.9z" fill="#262626"/><path d="M131.8 188s.7 0 .7.7c0 .6-.2 2-.8 3.6-.1.4-.7-1-.8-1.9-.2-1-.3-2.4.9-2.4zM135.6 188.9c.3-1.4 1.6-1.4 2.1-1 .4.3.2.8 0 1.1-.1.3-1.9 4.3-2.7 4.8-.8.3.3-3.7.6-4.9zM136.9 195.2c-.5-.1.9-.9 1.6-1.3.8-.4 3.2-1.6 2.3.1-.5 1.4-2.9 1.3-3.9 1.2zM119.4 195c-.7 1.7-.4 4.8 2.3 6.9 2.9 2.2 6 2.9 9.4 3 1.4.1 5.8-.3 7-2.6.4-.8 1-3.4-2.3-6.3-2.5-2.2-5.1-3.1-8.6-3.7-3.5-.5-6.9.5-7.8 2.7z"/><path d="M121.1 196c-.4.9-.3 3 1.7 4.5 2.1 1.7 4.3 2.7 8.7 2.7 4.4 0 6.8-2.1 4.1-5.2-2.7-3-7-3.9-8.8-4.1-1.3-.1-4.8.1-5.7 2.1z" fill="#C9C9C9"/><path d="M128.6 195.3c-.1-.2-.6-.2-1.1.1-.5.3-.8.7-.6 1 .1.2.6.2 1.1-.1.5-.3.7-.7.6-1zM130.9 196.3c-.2-.3-.7-.2-1.3.1-.5.3-.9.8-.7 1.1.2.3.7.2 1.3-.1.5-.3.8-.8.7-1.1zM134.3 198.4c-.3-.4-1-.6-1.4-.7-.7-.1-1.4 0-1 .2.7.2 1.1.3 1 .5-.1.2-2.9 1.8-5.1 1.1-2.2-.8-1.9-3.2-1.9-3.2 0-.4-.6-.3-.6 0 0 0-.2 2.2 1.4 3.3-.4.3-1.3 1.2-.8 2 .7 1 2.5.5 3.6 0 1-.4 2.1-1.4 2.8-2.2.5-.2.8-.5 1-.6.2-.1.2 0 .6.3.4.1.6-.3.4-.7zm-7.3 3c-.8-.2 0-1.2.4-1.6 1.2.4 2.4.4 3.3.1-1.1 1.4-2.8 1.8-3.7 1.5z"/><path d="M127 201.4c-.8-.2 0-1.2.4-1.6 1.2.4 2.4.4 3.3.1-1.1 1.4-2.8 1.8-3.7 1.5z" fill="#fff"/><path d="M113.1 191.6h5.6l.2-1.6h-10.6c0-.6.1-.9.1-.9s2.3-.6 2.8-.6l.1-1c-.5.1-3 0-4.7 0-1.6 0-3.8 0-4.3-.1l-.1 1.3c.7 0 3.1.4 3.5.5.1.2.1.4 0 .9h-14s3.9 2.7 3.6 6.2H75.2l3.6-4.8 2.3 2.9-.8.3-.1.8h5.3v-.5l-1.4-.4-2.8-3.1H85v-1.3l-5-.2.9-1.3 1.2-.3v-.7l-4.9-.1v.8l.6.1-1.2 1.5h-5.3v1.3l4.1.1-3.9 4.9-7.8-.1-.1 1.7h7.1c-2.5.8-3.9 2.5-3.9 4.4 0 1.3.2 2.4 1.6 3.2 1.7 1 3.7 1.4 5.4 1.4 4 0 7-1.7 6.9-5.1l-.1-.7c-.2-1-.4-1.5-1.6-2.4-.4-.3-.9-.6-1.4-.8h4.2c1 1 3.2 3.4 2.2 6.5-1.4 4-6.2 4-6.2 4l1.2 3.1s6.6-.2 8.2-6.2c.9-3.4-.8-6.2-1.8-7.5h9.5c-1.7 4.2-5 5-5 5l2.1 2.7s4.2-1.4 6.1-5.9c.2-.5.3-1.1.4-1.8l8 .1c.3.2.7.6 1.1 1l-8.6-.1-.1 1.5h9.5c.1.3.2.6.3 1 0 .1 0 .2.1.3H98.3l-.1 1.5h10.5c-.6 1.8-2.8 2.2-2.8 2.2l1.8 2.1c2.8-1.3 3.6-2.8 3.9-4.3h6.7l-.1-1.4h-6.5c0-.4-.1-.9-.3-1.3h5.2V199h-5.9c-.2-.4-.4-.7-.6-1h6v-2.4s-.9-.4-1.1-1.4h1.7l.1-1.1h-3.7v-1.5zm-34.5 10.5l-.1 1.3c-.3 1.2-1.5 2.1-3.8 2.3-3 .3-5.2-1.1-5.2-3.5 0-2.5 2.9-3.3 4.3-3.4 2.7-.3 4.9.5 4.8 3.3zm23.9-10.5v1.4h-4.6c-.2-.8-.4-1.4-.4-1.4h5zm9 2.7V196.4h-1.4c.4-.5.8-1.2 1.1-2l.3-.1zm-2.2 0c0 .5-.1 1.3-1.2 2h-.9c-.6-.4-1.3-1.1-1.4-2h3.5zm-4.9 0c.2.5.5 1.3.8 2h-1.1v-2h.3zm-1.9 2h-1.4c.4-.5.8-1.2 1-1.9h.3v.6l.1 1.3zm-4.1-.1c0-.7-.1-1.3-.2-1.9h2.1c0 .5-.2 1.3-1.4 1.9h-.5zm16.8.1h-2.1v-2h.3c.3.5.8 1.4 1.8 2zM104 193v-1.4h7.5v1.5l-7.5-.1z" fill="#262626"/><path d="M43.5 143.1c.5 1-.3 1.2-.3 1.2l-.1.1H47l-.1-.1s-.7 0-1.3-1.2l-4.1-8.6-4.1 8.6c-.6 1.2-1.3 1.2-1.3 1.2l-.1.1h2.8l-.1-.1s-.8-.2-.3-1.2l.7-1.5h3.5l.9 1.5zm19.2-3.3v3.3c0 1.1-.6 1.2-.6 1.2l-.1.1h3.4l-.1-.1s-.6-.1-.6-1.2v-6.9c0-1.1.6-1.2.6-1.2l.1-.1H62l.1.1s.6.1.6 1.2v2.7h-4.6v-2.7c0-1.1.6-1.2.6-1.2l.1-.1h-3.4l.1.1s.6.1.6 1.2v6.9c0 1.1-.6 1.2-.6 1.2l-.1.1h3.4l-.1-.1s-.6-.1-.6-1.2v-3.3h4.6zm15.9.4c-.8-1.3-2.4-3.5-2.7-3.9-.7-1.1-1.3-1.2-1.3-1.2l-.1-.1h3.9l-.1.1s-.8.2-.2 1.2c.3.5 1.2 1.8 2.1 3.1.8-1.3 1.8-2.6 2.1-3.1.6-1-.2-1.2-.2-1.2l-.1-.1h3l-.1.1s-.8.1-1.6 1.2c-.3.5-1.9 2.7-2.7 3.9v2.9c0 1.1.6 1.2.6 1.2l.1.1h-3.4l.1-.1s.6-.1.6-1.2v-2.9zm-43.1-4.8v-2.3s-1.6-.7-3.9-.7c-4.3 0-6.8 2.9-6.8 6.1 0 3.3 2.8 6.1 6.8 6.1 1.7 0 3.8-.8 3.8-.8l.8-3.3h-.1s-1.3 2.7-4.4 2.7c-2.5 0-4.3-1.9-4.3-4.9 0-3 1.9-5 4.5-5 2.7.1 3.5 2 3.6 2.1zm4.2 5.4l1.5-3.1 1.3 3.1h-2.8zm11.3-4.9h1.5c1.1 0 1.6.8 1.6.8l.1.1v-1.9s-.2.1-1.3.1h-6c-1.1 0-1.3-.1-1.3-.1v1.9l.1-.1s.5-.8 1.6-.8H49v7.2c0 1.1-.6 1.2-.6 1.2l-.1.1h3.4l-.1-.1s-.6-.1-.6-1.2v-7.2zm91.1 1.6v-2s-1.3-.7-3.2-.7c-3.4 0-5.6 2.1-5.6 4.9 0 2.3 1.8 4.8 5.4 4.8 1.4 0 3-.5 3-.5l.7-2.5-.1.1s-1.2 2-3.4 2c-2 0-3.4-1.3-3.4-3.7 0-2.4 1.4-4 3.5-4 2.3-.2 3.1 1.6 3.1 1.6zm-53.9-4.8H92c1 0 1.7 0 2.4.2 2.3.6 2.9 2.1 2.9 3.5 0 1.9-1.5 3.8-4 3.8-1.6 0-2.4-.5-2.4-.5v3.6c0 1.1.6 1.2.6 1.2l.1.1h-3.4l.1-.1s.6-.1.6-1.2v-9.1c0-1.4-.6-1.5-.7-1.5zm30.6 3.5c0-1.1.6-1.2.6-1.2l.1-.1h-3.4l.1.1s.6.1.6 1.2v6.9c0 1.1-.6 1.2-.6 1.2l-.1.1h3.4l-.1-.1s-.6-.1-.6-1.2v-6.9zm5.1 6.9v-3.3h2c1.1 0 1.2.5 1.2.5l.1.1v-2l-.1.1s-.1.5-1.2.5h-2v-3h2.4c1.1 0 1.6.6 1.6.6h.1v-1.7s-.2.1-1.3.1h-5.4l.1.1s.6.1.6 1.2v6.9c0 1.1-.6 1.2-.6 1.2l-.1.1h3.4l-.1-.1c-.1-.1-.7-.2-.7-1.3zm-9.4-5.6v-2s-1.3-.7-3.2-.7c-3.4 0-5.6 2.1-5.6 4.9 0 2.3 1.8 4.8 5.4 4.8 1.4 0 3-.5 3-.5l.7-2.5-.1.1s-1.2 2-3.4 2c-2 0-3.4-1.3-3.4-3.7 0-2.4 1.4-4 3.5-4 2.3-.2 3.1 1.6 3.1 1.6zm-23.6-3.9v5s.8.4 1.6.4c1.9 0 2.7-1.6 2.7-2.8 0-1.4-.6-2.2-1.7-2.6-.4-.1-1.2-.1-1.9-.1l-.7.1zm40.8 2.6c0-1.1.6-1.2.6-1.2l.1-.1H129l.1.1s.6.1.6 1.2v6.9c0 1.1-.6 1.2-.6 1.2l-.1.1h3.4l-.1-.1s-.6-.1-.6-1.2v-6.9zm-58.5 6.9c.5 1-.3 1.2-.3 1.2l-.1.1h3.9l-.1-.1s-.7 0-1.3-1.2l-4.1-8.6-4.1 8.6c-.6 1.2-1.3 1.2-1.3 1.2l-.1.1h2.8l-.1-.1s-.8-.2-.3-1.2l.7-1.5h3.5l.9 1.5zm-3.9-2.3l1.5-3.1 1.3 3.1h-2.8zm33.4 2.3c.5 1-.3 1.2-.3 1.2l-.1.1h3.9l-.1-.1s-.7 0-1.3-1.2l-4.1-8.6-4.1 8.6c-.6 1.2-1.3 1.2-1.3 1.2l-.1.1H98l-.1-.1s-.8-.2-.3-1.2l.7-1.5h3.5l.9 1.5zm-3.9-2.3l1.5-3.1 1.3 3.1h-2.8zM57.3 85.1l.2.1h-.1c.1.1.1.1.1.2.1.1.1.2.1.3 0 .1.1.2.1.4.1.2.2.5.2.7.1.1.1.2.1.3.1.2.1.4.2.6 0 .2.1.3.2.5.1.6.4 1.1.6 1.7.1.1 0 .1.1.2.2.4.3.8.5 1.2.2.4.3.8.5 1.2 0 0 0 .1.1.1v.1c.1.1.1.3.2.4 0 .1.1.1.1.2.3.5.5 1.1.7 1.6.3.7.6 1.4 1.1 2.1.3.6.7 1.3 1 1.9.2.4.3.7.6 1 0 .1.1.2.1.2l.1.2c0 .1.1.2 0 .2v.1c0 .1 0 .1-.1.1h-.1c0 .1 0 .1-.1.1h-.1c-.1-.1-.1 0-.2-.1 0 0-.1-.1-.2-.1s-.2-.2-.3-.2c-.3-.2-.4-.6-.6-.9-.2-.3-.4-.6-.5-.9-.2-.3-.4-.6-.5-.9-.2-.4-.5-.8-.6-1.2-.1-.1-.1-.3-.2-.4-.1-.3-.2-.5-.4-.8 0-.3-.2-.5-.3-.7-.2-.2-.2-.6-.4-.8-.1-.2-.2-.4-.2-.6-.3-.4-.3-.8-.5-1.2-.1-.3-.3-.7-.4-1-.1-.2-.1-.4-.2-.6 0-.1-.1-.2-.1-.3-.1-.2-.1-.3-.2-.5-.1-.3-.2-.5-.2-.8-.1-.4-.3-.7-.3-1-.1-.4-.2-.8-.4-1.2 0-.2-.2-.5-.2-.7 0 0 .1-.3 0-.3 0-.1-.1-.2 0-.3v-.1c.4.2.4-.2.5-.1zM58.2 94.8l-.1-.2v-.1c0-.2-.1-.3-.2-.5l-.3-.9s0-.1 0 0c-.1-.3-.2-.7-.3-1-.1-.3-.2-.5-.3-.8 0-.3-.2-.6-.3-.9-.1-.2-.1-.5-.2-.7-.1-.5-.2-.9-.3-1.4 0-.1 0-.2.1-.2.1-.1 0-.3.2-.3.3.1.2.7.4 1l.3.9c0 .1.1.1.2.1.2.4.2.9.3 1.3.1.3.2.6.3.8.1.3.2.6.4.9v.1c0 .2.1.4.2.5 0 .1.1.2.1.3 0 .1 0 .1.1.2v.1c.1.1.1.3.2.4v.2s0 .1.1.1c.1.2.1.5.2.7 0 .1.1.2.2.4s.2.5.3.7c.1.2.2.4.2.6l.1.1.3.6s0 .1.1.1c.1.2.2.3.3.5 0 0 0 .1.1.1.1.1.1.2.2.3.1.2.2.3.3.5.1.2.3.5.4.8.1.1.2.3.2.4l.3.6c.2.4.6.8.7 1.3.1.1.1.1.1.2.2.4.4.7.6 1.1.1.3.3.4.4.7.1.1.1.2.2.3.2.3.4.6.6.8.1.1.2.3.3.5v.1c0 .1-.1.2-.2.1-.1.1-.3 0-.4 0h-.1c-.2 0-.2-.2-.3-.3-.2-.2-.4-.3-.5-.6l-.3-.6c-.2-.2-.3-.5-.5-.7 0-.1-.2-.2-.2-.4 0-.1-.1-.1-.1-.2-.1-.1-.1-.2-.1-.3 0-.1-.1-.1-.1-.2 0-.2-.2-.3-.2-.4-.1-.1-.1-.3-.2-.4 0-.1-.1-.2-.1-.2-.1-.2-.2-.3-.3-.5v-.1c-.1-.1-.1-.4-.3-.5-.1-.1-.1-.2-.2-.3 0-.2-.2-.3-.2-.5-.1-.2-.3-.5-.4-.7-.1-.1-.1-.2-.2-.3 0-.2-.2-.4-.3-.6-.1-.3-.2-.6-.4-.9l-.3-.6c-.1-.1-.1-.3-.2-.4-.1-.4-.4-.7-.5-1.1 0-.1-.1-.1-.1-.2-.1.1-.2-.1-.3-.4zM60.3 89c0 .1.2.1.2.2.1 0 .1.2.2.3.1.3.2.7.4 1l.1.3s0 .1.1.2c.1.2.1.4.2.5 0 .1.1.1.1.2s0 .2.1.2c.1.4.2.7.4 1 .1.2.1.4.3.5.1.1.1.2.2.4.1 0 0 .1.1.2.2.3.4.6.5.9.1.1.1.2.1.3.1.1.1.3.3.4.1.2.2.3.3.5.1 0 .1.1.1.1.1.1.1.2.2.3v.1c0 .2.1.3.2.4.1.1.2.2.2.4.2.1.2.4.3.5.2.3.3.6.4.9.1.2.3.3.4.6.1.1.2.3.3.4.1.3.3.5.4.7.2.3.3.6.6.8.1.1.2.2.2.4.1.1.1.2.2.3.2.2.3.4.5.6.1.2.2.3.3.5l.1.2v.3h-.1c-.1 0-.1-.1-.1-.1-.1 0 0-.1-.1-.1-.1-.1-.3-.2-.4-.3-.1-.1-.2-.2-.3-.2-.2-.2-.3-.5-.5-.7-.1-.2-.2-.3-.3-.4l-.6-.9c-.3-.3-.5-.7-.8-1.1-.1 0-.1-.1-.1-.2-.4-.6-.7-1.2-1.1-1.8-.3-.4-.5-.8-.7-1.2-.2-.2-.3-.5-.4-.8-.2-.3-.3-.5-.4-.8-.2-.4-.4-.8-.6-1.1 0-.1-.1-.2-.2-.4-.2-.3-.4-.7-.5-1v-.1c-.2-.2-.2-.5-.4-.8-.2-.4-.3-.7-.4-1 0-.2-.3-.4-.2-.7-.1-.1 0-.2 0-.2v-.3c0-.1 0-.1.1-.2-.1-.2 0-.2.1-.2zM59.9 87.5c-.1-.1-.1-.2-.2-.3 0-.1-.1-.1-.2-.2-.1 0-.2 0-.2.1 0 0-.1.1-.1.2v.3c0 .1 0 .2.1.2.1.1.2.1.3.2.1 0 .1.1.1.1s0 .1.1.1h.1c.1 0 .1-.2.1-.3l-.1-.4zM56.6 84.1c.1.1-.1.3.1.3 0 .1.2.6.3.6.1 0 .2-.4.2-.4.2-.1 0-.2 0-.2 0-.1.2-.2.1-.3 0-.1-.1-.1-.2-.1-.1-.1-.2-.4-.3-.5-.1 0 0-.1-.1-.1 0 0 0-.1-.1-.1h-.1c-.1.1-.1.2-.1.3l.2.5zM66.3 108.4c-.1.1.2.6.3.6.1.1.2 0 .2 0 .1-.1.1-.1.1-.2v-.2c0-.1-.1-.1-.2-.2-.1 0-.1-.1-.2-.1 0-.1-.1-.1-.2.1zM68.7 104.6c.1.1.1.2.2.3 0 .1.1.1.2.2.1 0 .2 0 .2-.1 0 0 .1-.1.1-.2v-.3c0-.1 0-.2-.1-.2-.1-.1-.3-.1-.4-.3-.1 0 0-.1-.1-.1 0 0 0-.1-.1-.1h-.1c-.1.1-.1.2-.1.3l.2.5zM65.9 107.1c.2.1.4.7.3.7-.1 0-.5-.1-.6-.1-.1 0-.6-.7-.7-.8-.1-.3.3-.3.5-.3.1.1.2.4.5.5zM58.6 97.9c0 .1.1.1.1.3 0 0 .1 0 .1.1v.2h.1c0 .1.1.2.1.3 0 0 0 .2.2.4 3 6.4 6.9 14.7 15.5 18.2 0 .1-10.6 6.7-10.6 6.7H52.5V93H57l-.1.2c0 .1.1.4.1.5l.1.3c0 .1.1.5.2.6 0 .1.3.6.3.7 0 0 .1.5.2.6l.1.2c0 .1.1.3.1.3V96.7c.1.1.1.1.1.2s.1.2.1.2c0 .1.1.3.1.3.1.1.1.2.1.3l.2.2zM71.1 100.5c-.1 0-.1.2-.1.2 0 .1 0 .2.1.4s.1.4.3.5c0 .1.1.2.2.3.1.2.2.4.4.6.1.1.1.2.2.2.2.2.3.4.5.6 0 .1.1.1.2.2 0 .2.2.2.3.4 0 .1.2.1.2.3.1.1.1.2.3.3v.1l.3.3c.1 0 .1.1.1.1.2.3.5.5.8.8.1 0 .1.1.1.1.1.2.3.3.4.4l.3.3c0 .1.1.1.1.2.1.1.3.3.5.4 0 .1.2.1.1.2 0 0 .1 0 .1.1-.1.1-.2 0-.2 0-.1 0-.2-.1-.3-.1-.1 0-.2 0-.3-.1-.3-.1-.5-.2-.8-.4l-.3-.3c-.1 0-.1-.1-.2-.1 0 0 0-.1-.1-.1-.2-.2-.3-.4-.5-.5 0 0 0-.1-.1-.1s-.1-.1-.1-.1l-.2-.2c-.1 0 0-.1-.1-.1 0 0 0-.1-.1-.1l-.1-.1c0-.1-.1-.1-.1-.1-.4-.5-.8-.9-1.2-1.4-.2-.3-.5-.6-.7-.9-.1-.1-.2-.3-.3-.4 0-.1-.1-.1-.1-.2-.2-.2-.3-.4-.5-.6-.2-.3-.5-.5-.6-.8-.2-.3-.2-.6-.5-.8l-.2-.1v.2c-.1.2.1.4.2.6.1.1.1.3.2.4.2.2.3.5.5.7 0 0 .1.1 0 .1.2.3.4.5.5.8.2.2.3.5.5.7.1.2.3.4.5.6.2.3 1 1.1 1.1 1.3 0 .1.2.2.2.3h-.1s-.1-.1-.2-.1c0 0-.2-.1-.3-.1-.1.1-.4-.2-.4-.2-.2 0-.3-.2-.4-.3 0-.1-.1-.1-.2-.1-.3-.4-.9-1-1.2-1.4-.1-.2-.3-.3-.4-.5 0-.1-.1-.1-.2-.2 0-.1-.1-.1-.2-.2s-.2-.3-.3-.5c-.1 0 0-.1-.1-.1-.2-.2-.4-.5-.5-.7-.2-.4-.5-.7-.7-1-.1-.2-.2-.3-.3-.5-.2-.2-.3-.5-.5-.8 0-.1-.1-.2-.2-.3-.2-.3-.3-.6-.5-.8 0-.1-.1-.2-.1-.3-.1-.3-.3-.5-.5-.8-.4-.6-.7-1.2-1-1.8l-.1-.1c-.1-.2-.2-.3-.3-.5l-.2-.4c-.2-.3-.3-.9-.3-.9h51.4v31.2H68.4s9.6-3.1 18.7-7.6c9.2-4.5 5.3-4.8 3.1-4.7-5.4.1-11.6-2.8-15.1-6.7l-.2-.1c-.1 0-.1-.1-.2-.1-.1-.1-.2-.1-.4-.3-.3-.3-.5-.4-.7-.7-.2-.1-.2-.4-.4-.5-.1-.1-.2-.3-.3-.4 0-.2-.1-.1-.2-.3-.2-.3-.3-.4-.3-.4-.1-.2-.2-.2-.3-.4-.1-.1-.3-.3-.3-.4-.2-.1-.4-.5-.4-.5 0-.2-.2-.3-.2-.4 0-.1 0-.2-.1-.2z" fill="#1B1B1B"/><path d="M70.1 99.7c.1.1.1.4.2.4 0 .1.2.1.2.2.1 0 .1 0 .2-.1l.1-.1v-.2s-.2-.3-.2-.4c-.1-.1-.3-.2-.4-.2 0 0 0-.1-.1-.1 0 0 0-.1-.1 0h-.1c-.1.1-.1.2 0 .3l.2.2z" fill="#fff"/><path fill="#525252" d="M69 121.1l-4.9 3.1H52.5v-3.1zM76.9 121.1h37.8v3.1H68.4z"/><g fill-rule="evenodd" clip-rule="evenodd"><path d="M140.6 34.9l.2.5c4.8.7 8.1 2 8.1 3.6 0 1.2-2.1 2.3-5.4 3.1-1 .2-2.1.4-3.2.6-2.2.3-4.8.5-7.5.5s-5.2-.2-7.5-.5c-1.2-.2-2.2-.3-3.2-.6-3.3-.8-5.4-1.9-5.4-3.1 0-1.5 3.3-2.9 8.1-3.6l.2-.5c-7.6.8-12.9 2.6-12.9 4.8 0 1.8 3.7 3.4 9.3 4.3 1 .2 2 .3 3.2.4 2.5.3 5.4.4 8.3.4 3 0 5.8-.2 8.4-.4 1.1-.1 2.2-.3 3.1-.4 5.6-.9 9.2-2.5 9.2-4.3-.1-2.2-5.4-4-13-4.8z" fill="#A9A9A9"/><path d="M113.7 62.9h2l8.8-18.4c-1.1-.1-2.2-.3-3.2-.4l-7.6 18.8zM144.2 44c-1 .2-2 .3-3.1.4l8.8 18.4h1.9L144.2 44zM140.8 35.4l-.2-.5-7.8-19.4-7.8 19.4-.2.5-2.7 6.7c1 .2 2.1.4 3.2.6L129 35l.2-.4 3.7-7.6 3.7 7.6.2.4 3.7 7.6c1.2-.2 2.2-.3 3.2-.6l-2.9-6.6z"/></g><path d="M17.8 34.1h3.3L25 44.2h-3l-.7-2.2h-3.8l-.8 2.2H14l3.8-10.1zm1.7 2l-1.3 4h2.5l-1.2-4zM27.7 42.1c.6.3 1.5.5 2.4.5.5 0 1.1-.1 1.1-.6 0-1.3-3.7-.4-3.7-3.1 0-1.7 1.7-2.4 3.2-2.4.9 0 1.8.1 2.7.4l-.2 1.8c-.6-.3-1.4-.5-2-.5-.6 0-1.2.1-1.2.5 0 1.2 3.9.2 3.9 3.1 0 2-1.8 2.5-3.5 2.5-1.2 0-2-.1-2.7-.4v-1.8zM39.9 35.4h-2.6v-1.9h2.6v1.9zm-2.6 1.2h2.6v7.5h-2.6v-7.5zM48.6 44.2c0-.4-.1-.8-.1-1.2-.6.9-1.3 1.4-2.4 1.4-1.5 0-2.8-.7-2.8-2.4 0-2.3 2.5-2.6 3.9-2.6.4 0 .9 0 1.2.1 0-1-.8-1.3-1.7-1.3-.8 0-1.7.2-2.4.6V37c.9-.4 1.9-.5 3-.5 1.9 0 3.6.8 3.6 3.1v2.8c0 .6 0 1.2.1 1.8h-2.4zm-1.8-1.6c1 0 1.6-.9 1.6-1.8h-1.1c-.9 0-1.6.3-1.6 1 0 .5.5.8 1.1.8zM60.8 34.1h2.4l3.2 8.4 3.1-8.4h2.4v10.1h-1.4v-8.7L67 44.2h-1.4l-3.3-8.7v8.7h-1.4V34.1zM77.8 35.1h-1.5v-1.5h1.5v1.5zm-1.4 1.7h1.4v7.4h-1.4v-7.4zM82.3 33.3h1.4v10.9h-1.4V33.3zM93.7 43.9c-.5.2-1.1.5-2.3.5-2.6 0-3.8-1.6-3.8-4 0-2.2 1.4-3.7 3.5-3.7 2.5 0 3.3 1.8 3.3 4.2H89c0 1.5 1.1 2.5 2.4 2.5.9 0 1.9-.5 2.3-.7v1.2zm-.9-4.1c0-1.1-.7-2.1-1.8-2.1-1.3 0-1.9 1.1-2 2.1h3.8zM97.4 42.7c.5.3 1.3.5 1.7.5.6 0 1.4-.3 1.4-1.1 0-1.3-3.2-1.2-3.2-3.3 0-1.5 1.1-2.3 2.6-2.3.6 0 1.2.1 1.7.3l-.1 1.2c-.3-.2-1.1-.4-1.4-.4-.7 0-1.3.3-1.3.9 0 1.5 3.2 1.1 3.2 3.4 0 1.6-1.3 2.3-2.6 2.3-.7 0-1.4-.1-2-.4v-1.1z"/><path d="M34.5 63.1l-.8-.4c1.1-1.4 1.4-2.5 1.8-4l.9.3c-.3 1.6-.9 2.7-1.9 4.1zM42.7 52.5h.9v10.9h-.9z" fill-rule="evenodd" clip-rule="evenodd"/><g fill-rule="evenodd" clip-rule="evenodd"><path d="M60.1 52.3v1.1h2.6v.4h-2.6v.8h-.5v-.8h-1.8l.3-.4h1.5v-1.1h.5zM55 54.7v-.8h-2.6v-.4H55v-1.1h.5v1.1h1.8l-.2.4h-1.5v.8H55zm2.8 3.8v1h4.5v3.3c0 .2-.1.3-.2.4-.1.1-.3.2-.6.2h-.9l-.4-.4h.7c.3 0 .5 0 .6-.1.1-.1.1-.2.1-.3V60h-4v1.4l1.8-.2-.4-.7.4-.2 1 1.8c-.2.1-.3.2-.4.2l-.4-.7-5.2.5-.2-.5c.6 0 1.9-.2 2.8-.2V60h-3.9v3.6h-.5v-4H57v-1h-3.4v-3.4H61v3.4h-3.2zm-3.5-2.9v1h2.9v-1h-2.9zm3.5.9h3v-1h-3v1zm0 1.5h3v-1h-3v1zm-.5 0v-1h-2.9v1h2.9zM73.4 55.7h3v-1.9h-3v1.9zm-.5 2.9v-5.3h7.6v5.3H77v1.6h4.3v.5H77v2h5.3v.5H71.2v-.5h5.3v-2h-4.2v-.5h4.2v-1.6h-3.6zm4.1-.4v-2h2.1l.3-.5H77v-1.9h3v4.4h-3zm-3.6 0h3v-2h-3v2zM92.7 54.7l-.4.3c-.3-.6-.7-1.2-1.3-1.9l.4-.2c.5.6.9 1.2 1.3 1.8zm3.1-.6l.4-.3 1.1.8c.4-.3.9-.6 1.5-1.1h-4.9V53h5.7v.4c-.4.4-1 .9-1.9 1.5l.2.2h2.7v6.2c0 .1 0 .3-.2.5-.1.2-.5.3-1 .3h-.2l-.4-.5h.6c.5 0 .7-.1.7-.4v-1.7h-2.4v2.2h-.5v-2.2h-2.4v2.6h-.5v-7H97c-.3-.3-.7-.6-1.2-1zm1.3 2.9v-1.4h-2.4V57h2.4zm2.9-1.4h-2.4V57h2.4v-1.4zm0 3.5v-1.6h-2.4v1.6h2.4zm-2.9 0v-1.6h-2.4v1.6h2.4zm-4.4.1h-2v-.4c.6-.6 1.2-1.4 1.8-2.4h-1.9v-.5h2.7c-.7 1.3-1.3 2.3-1.8 2.8h1.9c-.2 1-.4 1.8-.7 2.3.3.6.7.9 1.2 1.2.6.3 1.2.5 1.9.5h4.7l1.1-.1-.3.6h-5.5c-1.5 0-2.8-.7-3.3-1.6-.6 1-1.2 1.6-1.9 1.9l-.3-.4c1.1-.5 1.9-1.8 2.4-3.9zM17.5 55.8v-1.9h-3.3V53h10.1v.9H21v1.9h2.6v4.1H21v2.2h3.7v.9h-11v-.9h3.7v-2.2H15v-4.1h2.5zm5.2 3.2v-2.3h-2.6v-2.8h-1.7v2.8h-2.5V59h2.5v3.1h1.7V59h2.6zM41.1 56.1v6.7h-.9v-4.5l-.8.3c0-1-.3-1.8-.6-2.4v2.9c0 .2 0 .5-.1.9 0 .3-.1.5-.2.8-.1.2-.2.5-.3.7-.1.2-.3.5-.5.7-.2.2-.4.5-.7.7-.3.2-.6.5-.9.7l-.7-.7c.8-.5 1.5-1.1 1.8-1.7.4-.6.6-1.5.6-2.7v-5.9h.9V56l.8-.3c.3.6.5 1.3.6 2.1v-4.6h.9v2.7l.7-.2c.5.7.8 1.6.9 2.7l-.9.4c.1-1-.2-1.9-.6-2.7z"/></g><path d="M34 53.4l.6-.6c.7.2 1.3.7 1.9 1.4l-.7.7c-.5-.7-1.1-1.2-1.8-1.5zM33.2 55.9l.6-.7c.8.3 1.4.9 2 1.7l-.7.6c-.6-.8-1.2-1.3-1.9-1.6zM36.6 55.7l.9.1c-.2 1.1-.3 1.6-.9 2.6l-.9-.3c.6-.9.8-1.6.9-2.4z" fill-rule="evenodd" clip-rule="evenodd"/><path d="M13.9 48.5h88.2v.2H13.9v-.2zM58 48.6"/><path d="M119.4 540.7c-8.4 0-15.8 3.8-18.5 12.2h-.4v-10.8H87.7v19.7c0 4.8-1.3 7.1-5.1 7.1-4 0-5.1-2.4-5.1-7.1v-19.7H64.9v18.4c0 .7.1 1.3.1 2l-.3.1-8.3-20.4H43.7l-15.3 37.7h14.2l7.3-22.9H50.2l7.3 22.9h14.2l-2.7-6.6.2-.1c2.9 2.5 7.4 3.5 13.5 3.5 10.6 0 16-3.1 17.4-11.3h.4c2.2 9.5 10 13.8 18.9 13.8 10.5 0 19.6-5.8 19.6-19.2-.1-13.5-9.1-19.3-19.6-19.3m0 30.4c-5.4 0-6.5-6.1-6.5-11.3 0-5.1 1.1-11.3 6.5-11.3 5.3 0 6.5 6.1 6.5 11.2 0 5.3-1.2 11.5-6.5 11.4" fill="#2F2F2F"/><path fill="#121212" d="M20.4 332.8V328H1.8v23.3h6.5v-8.5h12.1V338H8.3v-5.2z"/><g fill="#595959"><path d="M13.7 332.9h16.4v5.1H13.7zM13.7 322.9h16.4v5.1H13.7zM13.7 342.8h16.4v5.1H13.7z"/></g><g fill="#323232"><path d="M36.9 326.3h3.2v.8c-.4.7-.9 1.4-1.6 2.2H40v.8c-.2.8-.4 1.5-.6 2 .5.6.9.9 1.2 1 .3.2.7.3 1.2.4.6.1 1.8.1 3.7.2 1.3 0 2.3 0 3-.1l-.2 1.2c-3.5 0-5.7 0-6.5-.1-.7-.1-1.3-.3-1.7-.5-.4-.2-.8-.5-1.3-1.1-.3.6-.8 1.2-1.4 1.9l-.8-.9c.7-.7 1.1-1.2 1.4-1.7.2-.3.5-.9.8-1.8H37v-.9c.5-.5 1.1-1.3 1.6-2.1h-1.9v-1.3zm1.2-2.9c.6.6 1.1 1.2 1.5 1.8l-.8.8c-.3-.6-.9-1.2-1.5-1.9l.8-.7zm2.9 3.9h6.9v2.6h-3.4c-.2.2-.3.4-.5.5v2.8h-1.1v-1.9c-.5.3-1.2.7-2 1l-.6-1c.7-.2 1.4-.5 2-.9.2-.1.5-.3.7-.5h-2v-2.6zm-.1-3.3h2.9v-.8H45v.8h3v.9h-3v.8h3.3v.9h-7.9v-.9h3.4v-.7h-2.9v-1zm5.9 5v-.8h-4.7v.8h4.7zm-2 1.7c.4.1.7.3 1.1.4.4-.4.8-.7 1-1.1l.9.5c-.2.3-.6.6-1 1 .5.2.9.5 1.4.8l-.6 1c-1.1-.8-2.2-1.4-3.3-1.8l.5-.8zM51.9 324.2h5v-1h1.2v1h5v1.1h-5v.8h4.1v4.9h-2.9c.5.6 1 1 1.4 1.2.6.4 1.5.8 2.7 1.2l-.5 1.1c-1.4-.6-2.4-1.2-3-1.7-.5-.4-1.1-1-1.7-1.9h-.1v3.9h-1.2v-3.9h-.1c-.4.6-.8 1.2-1.3 1.6-.7.7-1.8 1.3-3.2 2l-.6-1c1.4-.6 2.4-1.1 3-1.6.3-.3.7-.6 1-1H53V326h3.9v-.8h-5v-1zm2.2 3.9h2.8v-.8h-2.8v.8zm2.8 1.9v-.9h-2.8v.9h2.8zm1.2-2.7v.8H61v-.8h-2.9zm3 2.7v-.9h-2.9v.9h2.9zM69.1 323.1l1.2.2c-.2.4-.4.8-.5 1.1h2.8c-.2-.3-.5-.7-.8-1l1.3-.2c.3.4.6.8.8 1.2h3.7v.9h-4.1v.7h3.6v.9h-3.6v.7h3.6v.9h-3.6v.7h4.2v1H73v.7h5v1h-3.6c.5.5 1 .9 1.4 1 .6.3 1.3.5 2.3.8l-.7 1c-1.2-.4-2.1-.8-2.6-1.1-.6-.4-1.2-1-1.7-1.7H73v3h-1.2v-3h-.1c-.4.5-.8.9-1.2 1.2-.7.5-1.8 1-3.1 1.5l-.7-1c1.4-.4 2.4-.8 2.9-1.1.3-.2.6-.3.8-.6h-3.8v-1h5.1v-.7H68v-3.1c-.2.2-.4.5-.6.7l-.9-1c1.2-1.1 2-2.3 2.6-3.7zm3.2 3v-.7h-3.1s0 .1-.1.1v.6h3.2zm0 1.6v-.7h-3.1v.7h3.1zm0 1.6v-.7h-3.1v.7h3.1zM92.7 323.5v11.3h-1v-.4h-8.9v.4h-1v-11.3h10.9zm-10 10.1h8.9v-9.1h-8.9v9.1zm.5-8.5h3.4v-.5h1v.5h3.6v.8h-3.6v.4h3.1v3h-.6c.4.4.7.7.9 1l-.8.5c-.1-.2-.2-.3-.4-.5h-.2v.6h1.6v.8h-1.6v.5c0 .3-.1.5-.3.7-.2.1-.4.2-.8.2h-1.4l-.2-.9c.5.1 1 .1 1.3.1.3 0 .4-.1.4-.2v-.4h-3.1c.3.3.5.7.7 1l-.9.4c-.3-.5-.5-.9-.8-1.3l.5-.2h-1.7v-.8h5.4v-.5c-1.5.1-3.3.2-5.2.3l-.2-.9c1.1 0 2.2-.1 3.3-.1v-.4h-3v-3h3v-.4h-3.4v-.7zm1.3 2.5h2v-.4h-2v.4zm2.1 1.1v-.4h-2v.4h2zm1-1.6v.4h2.2v-.4h-2.2zm2.2 1.6v-.4h-2.2v.4h2.2zm-.5 1.1l-.3-.3h-1.5v.4c.7-.1 1.3-.1 1.8-.1z"/></g><g fill="#323232"><path d="M37.4 338.6h4.8v1.1h-3.5v2.7H42v1.1h-3.4v4.1h-1.3v-9zM46.4 338.6h1.4l3.8 9.1h-1.4l-.9-2.3h-4.4l-.9 2.3h-1.4l3.8-9.1zm.6 1.3l-1.8 4.5h3.6l-1.8-4.5zM52.8 338.6H55c.5 0 1 0 1.4.1.4.1.8.2 1.1.3.3.2.6.4.8.7.2.3.3.8.3 1.3s-.2 1-.5 1.4c-.4.4-.8.6-1.3.7.2.1.4.2.5.3.1.1.3.3.4.6l1.7 3.6h-1.5l-1.4-3.1c-.2-.4-.4-.6-.6-.7-.2-.1-.5-.1-.9-.1h-.8v4h-1.3v-9.1zm1.3 3.9h1.1c.6 0 1.1-.1 1.4-.4.3-.3.5-.6.5-1s-.2-.7-.5-1c-.3-.2-.8-.4-1.4-.4H54v2.8zM64.5 338.6h5.1v1.1h-3.8v2.7h3.4v1.1h-3.4v3h3.8v1.1h-5.1v-9zM74.5 338.6h1.4l3.8 9.1h-1.4l-.9-2.3H73l-.9 2.3h-1.4l3.8-9.1zm.7 1.3l-1.8 4.5H77l-1.8-4.5zM85.2 340c-.4-.1-.7-.2-.9-.3-.2-.1-.5-.1-.8-.1-.2 0-.4 0-.6.1-.2 0-.4.1-.5.2-.2.1-.3.2-.4.4-.1.2-.1.4-.1.6 0 .3.1.6.4.8.2.2.6.4 1.2.7.4.2.7.3.9.5.2.1.5.3.7.5.2.2.4.5.5.8.1.3.2.7.2 1.1 0 .5-.1.9-.3 1.2-.2.3-.4.6-.7.8-.3.2-.7.4-1 .5-.4.1-.8.2-1.3.2-.3 0-.6 0-.9-.1-.3-.1-.6-.2-1-.3l.1-1.2.9.3c.3.1.7.1 1 .1.2 0 .4 0 .6-.1.2-.1.4-.1.6-.3.2-.1.3-.3.4-.5.1-.2.2-.4.2-.7 0-.2 0-.4-.1-.6-.1-.2-.2-.3-.4-.5s-.6-.4-1.2-.7c-.4-.2-.6-.3-.9-.4-.2-.1-.4-.3-.6-.5-.2-.2-.4-.4-.5-.7-.1-.3-.2-.6-.2-.9 0-.8.3-1.4.8-1.8.5-.4 1.2-.6 2.1-.6.3 0 .6 0 1 .1.3.1.7.1 1 .2l-.2 1.2zM89.4 339.8h-2.8v-1.1h6.9v1.1h-2.8v7.9h-1.3v-7.9zM94.8 338.6h5.1v1.1h-3.8v2.7h3.4v1.1h-3.4v3h3.8v1.1h-5.1v-9zM101.9 338.6h2.2c.5 0 1 0 1.4.1.4.1.8.2 1.1.3.3.2.6.4.8.7.2.3.3.8.3 1.3s-.2 1-.5 1.4c-.4.4-.8.6-1.3.7.2.1.4.2.5.3.1.1.3.3.4.6l1.7 3.6H107l-1.4-3.1c-.2-.4-.4-.6-.6-.7-.2-.1-.5-.1-.9-.1h-.8v4H102v-9.1zm1.3 3.9h1.1c.6 0 1.1-.1 1.4-.4.3-.3.5-.6.5-1s-.2-.7-.5-1c-.3-.2-.8-.4-1.4-.4h-1.2v2.8zM109.9 338.6h1.8l4 7.3v-7.3h1.3v9.1h-1.7l-4.1-7.5v7.5h-1.3v-9.1zM129.9 340.3c-.3-.2-.7-.4-1.1-.5-.4-.1-.9-.1-1.4-.1-.5 0-1 .1-1.4.3-.4.2-.8.4-1.1.7-.3.3-.5.7-.7 1.1-.2.4-.2.9-.2 1.4 0 .5.1 1 .3 1.4.2.4.4.8.7 1.1.3.3.7.6 1.1.7.4.2.9.3 1.3.3h.8c.2 0 .4-.1.5-.1h.2v-2.8H127v-1.1h3.2v4.7c-.3.1-.7.2-1.2.3-.4.1-1 .1-1.6.1-.7 0-1.4-.1-2-.3-.6-.2-1.1-.5-1.5-1-.4-.4-.7-.9-1-1.5-.2-.6-.3-1.2-.3-1.9s.1-1.3.4-1.9c.2-.6.6-1.1 1-1.5.4-.4.9-.7 1.5-.9.6-.2 1.2-.3 1.9-.3.6 0 1.1 0 1.4.1.4.1.8.2 1.2.4l-.1 1.3zM132.3 338.6h2.2c.5 0 1 0 1.4.1.4.1.8.2 1.1.3.3.2.6.4.8.7.2.3.3.8.3 1.3s-.2 1-.5 1.4c-.4.4-.8.6-1.3.7.2.1.4.2.5.3.1.1.3.3.4.6l1.7 3.6h-1.5l-1.4-3.1c-.2-.4-.4-.6-.6-.7-.2-.1-.5-.1-.9-.1h-.8v4h-1.3v-9.1zm1.3 3.9h1.1c.6 0 1.1-.1 1.4-.4.3-.3.5-.6.5-1s-.2-.7-.5-1c-.3-.2-.8-.4-1.4-.4h-1.2v2.8zM140.1 341.3c.2-.6.5-1.1.9-1.5.4-.4.8-.7 1.4-1 .5-.2 1.2-.4 1.8-.4.7 0 1.3.1 1.8.4.5.2 1 .6 1.4 1 .4.4.7.9.9 1.5.2.6.3 1.2.3 1.9s-.1 1.3-.3 1.9c-.2.6-.5 1.1-.9 1.5-.4.4-.8.7-1.4 1-.5.2-1.2.3-1.8.3-.7 0-1.3-.1-1.8-.3-.5-.2-1-.5-1.4-1-.4-.4-.7-.9-.9-1.5-.2-.6-.3-1.2-.3-1.9s.1-1.3.3-1.9zm1.3 3.2c.1.4.3.8.5 1.1.2.3.6.6.9.8.4.2.8.3 1.3.3s.9-.1 1.3-.3c.4-.2.7-.5.9-.8.2-.3.4-.7.5-1.1.1-.4.2-.9.2-1.3 0-.5-.1-.9-.2-1.3s-.3-.8-.6-1.1c-.3-.3-.6-.6-.9-.8-.4-.2-.8-.3-1.3-.3s-.9.1-1.3.3c-.4.2-.7.5-.9.8-.3.3-.4.7-.6 1.1-.1.4-.2.9-.2 1.3.2.4.3.9.4 1.3zM157.5 344c0 1.3-.3 2.2-.9 2.9-.6.7-1.5 1-2.6 1s-2-.3-2.6-1c-.6-.7-.9-1.6-.9-2.9v-5.3h1.3v5.1c0 .9.2 1.7.5 2.2.3.5.9.8 1.7.8.8 0 1.4-.3 1.7-.8.3-.5.5-1.2.5-2.2v-5.1h1.3v5.3zM159.7 338.6h2.4c.5 0 .9 0 1.3.1s.8.2 1.1.5c.3.2.6.5.7.8.2.4.3.8.3 1.3s-.1.9-.3 1.3c-.2.4-.4.6-.7.9-.3.2-.6.4-1 .5-.4.1-.8.1-1.2.1H161v3.6h-1.3v-9.1zm1.3 4.3h1.3c.2 0 .4 0 .6-.1.2-.1.4-.1.6-.3.2-.1.3-.3.4-.5.1-.2.2-.5.2-.7 0-.3-.1-.5-.2-.7-.1-.2-.3-.4-.5-.5-.2-.1-.4-.2-.7-.3-.2-.1-.5-.1-.7-.1h-1v3.2z"/></g><path d="M140 247.5c-1.3 1.7-3 3.5-4.8 4.7l-1.3-2.6c1.4-.9 2.7-2.2 3.8-3.6.8.5 1.5 1 2.3 1.5zM97.9 260.1h4v-11.4h2.8v15.2h-2.8v-1l-10.8-.1v1h-2.9v-15.2h2.9v11.5H95v-14h2.9zM81.6 249.2h-6.4l-.1.1v3.9h6v2.8h-6v4.9h7.2v2.8H64.9v-2.8h7.3V256h-6v-2.8h6v-4h-6.4v-2.8h15.8zM140.9 246.4h9.9v2.7h-9.9zM86 269.1c.3.5.5 1.1.5 1.8h-2.2c-.1-.5-.3-1-.8-1.2-.7-.4-1.8-.4-2.6 0-.3.2-.5.4-.6.8 0 .3 0 .6.1.8.9 1 2.2.9 3.4 1.2 1.1.3 2.5.9 2.8 2.1.4 1.2.2 2.6-.8 3.5-1.4 1.4-3.6 1.4-5.4 1-1.3-.4-2.5-1.7-2.7-3v-.5h2.2c0 .6.3 1.1.8 1.5.9.6 2.3.4 3.2-.1.4-.3.5-.7.4-1.2-.2-.8-1.1-1-1.8-1.3-1.6-.4-3.5-.6-4.4-2.2-.5-1.2-.3-2.8.7-3.7 1.5-1.4 4.1-1.5 5.8-.6.7.2 1.1.6 1.4 1.1zM90.5 275.8s.1 0 0 0c.1.3.2.5.3.7.2.1.1.3.3.3l.2.2c.2.1.4.2.7.2.1 0 .1.1.3.1.5.1.8-.1 1.2-.2.1-.1.2-.1.3-.2.2-.2.4-.3.5-.5 0-.1.1-.2.2-.2.1-.2.1-.4.1-.7v-8H97v8.8c0 .2 0 .3-.1.4 0 .1-.1.3-.1.4-.2 0-.1.3-.3.3 0 .2-.2.2-.2.4-.1.1-.1.2-.2.2v.1H96c0 .1-.1.1-.2.2-.1 0-.1.2-.3.1v.1c-.1 0-.2.1-.2.1-.2.1-.3.2-.5.2 0 .2-.3 0-.3.2-.2-.1-.3.2-.5.1-.2.2-.5 0-.7.2H91.4c0-.1-.1 0-.1 0-.4 0-.6-.2-1-.3 0 0-.1-.1-.2-.1 0-.1-.1-.1-.2-.2-.1 0-.1-.1-.2-.1-.1-.1-.2-.1-.2-.2h-.1v-.1h-.1c0-.1-.2-.1-.2-.2l-.3-.3c-.1 0-.1-.2-.2-.2s-.1-.2-.1-.2c0-.1-.1 0-.1 0 0-.2-.1-.3-.1-.4 0-.2-.1-.4-.1-.6v-8.6h2.4v8zM73.3 269.8h-5.8v2.3h5v2h-5.1v2.8h6v2h-8.5v-11.1h8.4zM104.8 274.5h.1v-6.8h2.4v11.1h-2.4l-4.2-7.1h-.1v7.1h-2.4v-11.1h2.6l4 6.8zM138.2 274.5h.1v-6.8h2.4v11.1h-2.4l-4.2-7.1h-.1v7.1h-2.4v-11.1h2.6l4 6.8zM144.1 271.9h.3l3.7-4h3l-4.1 4.3v.3l4.4 6.4h-2.7c-1.2-1.6-2.2-3.3-3.4-4.9h-.2l-.9.9v4h-2.4v-11.1h2.4v4.1zM151.6 252v2.6h-2.7l-.1 7.4c-.1.6-.6 1.1-1.1 1.3-1.2.5-2.8.3-4.1.3l-1.1-2.7 3.3-.1.3-.3v-6l-6.2-.1c0-.7 0-1.3-.1-1.9-.2.5-.6.9-.9 1.3v9.8h-2.7v-6.4c-.5.4-.9.8-1.3 1.2l-1.2-2.9c1.8-1.4 3.2-3.2 4.3-5.1l1.9 1.4 11.7.2zM126.9 267.7h-2.5l-3.8 11v.2h2.5l.6-1.9c0-.1 0-.3.2-.4h3.9l.7 2.3h2.5l-4.1-11.2zm-2.5 7c.4-1.4.8-2.8 1.3-4.1.4 1.4.9 2.8 1.3 4.1-.1.1-1.7 0-2.6 0z" fill="#555"/><g fill="#555"><path d="M127.5 260.4c-.2.1-.1-.2-.3-.2-.1-.2-.2-.2-.4-.4-.1-.2-.3-.2-.2-.5.1 0 0-.3.2-.2v-.1c.2-.1.4-.3.6-.4.1-.1.2-.1.2-.2h.1v-.1c0-.1.1 0 .1 0v-.1c0-.1.1 0 .1 0v-.1h.1v-.1c.1-.1.1 0 .2 0v-.1h.1v.1c0-.1.1 0 .1 0v-.2c-.2-.1-.1-.4-.4-.4-.1 0 0-.2-.1-.1-.1-.1-.1-.3-.2-.3-.1-.1-.1-.2-.2-.3-.1-.1-.1-.3-.2-.3 0-.3-.2-.4-.4-.6-.1.1-.1.1-.2.1v.1c-.3.1-.5.5-.9.7-.1.2-.3.2-.5.3-.2.1-.2-.1-.3-.2-.1-.3-.4-.8 0-1.1h2.7v-9.2h-8.6l-.1 2.8c-1.2-.7-2.2-2-2.8-3.1h-2.4c-.8 1.5-1.9 2.9-3.4 4 .3.9.6 1.9 1 2.9l.7-.4c.1.1.1.4.1.6h1.4v.7H111v2.4l2.7.1v4.4l-.5.2-2.2-.1.1 2.7c2.3-.3 4.6-.8 6.9-1.2.4.2.2.8.3 1.2.2.1.6.1.8 0 .4.1.5-.2.9-.1.1-.2.5 0 .6-.2l1.5-.3c.3-.1.7-.1.9-.2.3-.1.7 0 .9-.2V261l.1-.1c.2.1.2.2.3.4.2.1.2.3.4.3.1 0 0 .2.1.1 0 .3.3.2.3.5.3.1.3.4.5.4.1.2.3.3.4.4 0 .2.3.2.3.4.2.1.4.2.5.4.2 0 .1.1.3 0 .1-.2.3-.4.3-.6l.3-.3c.1-.1.1-.2.1-.3.1 0 .1-.2.2-.2.1-.2.3-.4.4-.6.1 0 .1-.1.2-.2v-.2c-.4-.4-.8-.6-1.1-1zm-12.4-11.2c.4.4.9.9 1.2 1.4h-2.1c.3-.4.6-.9.9-1.4zm4.1 11.7h-.6v-1c-.1 0-.1-.1-.2-.2.3-.9.4-1.8.6-2.7-.6-.2-1.3-.3-2-.5l-.6 2.8.1.1 1.5.4c-.6.2-1.1.3-1.8.4v-3.9h2.5v-2.4l-2.5-.1v-.6c.6-.1 1.2 0 1.8 0 .1-.3 0-.7.1-1 .1-.1.3.1.4.1.3-.4.4-.9.7-1.2v9.8zm2.7-11.7l.1-.1h2.9c.1.2.1.6.1.9h-2.9c-.3-.1-.1-.5-.2-.8zm-.1 11.2v-4.7c.2-.1.7-.2.7.2.2 1.4.5 2.8 1.1 4-.6.3-1.2.5-1.8.5zm.2-7.2c-.1-.2-.1-.7 0-.9h3c.2.2.1.6.1.8-1 .2-2.1.1-3.1.1zM111.6 260.5c.4-.1.9-.2 1.3-.3.2-.1.4-.1.5-.2 0-1.1-.2-2.2-.3-3.2-.3-.2-.6 0-.9 0-.4.1-.7.2-1.1.3l.2 3.4.1.1c.1-.1.2 0 .2-.1z"/></g><path d="M79.7 257.5c.3.4.3.9.2 1.4-.1.5-.6 1.1-1.1 1.2-.7.2-1.4 0-1.9-.5-.3-.3-.4-.8-.4-1.3.1-.6.6-1.3 1.2-1.5.7-.2 1.5.1 2 .7zM118.7 273v-.2c.4-.2.7-.4.9-.7.6-.7.6-2 .2-2.8-.5-1-1.5-1.4-2.5-1.5h-5.4v11.1h5.6c.6-.1 1.1-.2 1.6-.5.9-.5 1.3-1.4 1.4-2.3.1-1.3-.7-2.5-1.8-3.1zm-4.4-3.4c1.3.1 3.1-.3 3.5.9 0 .5 0 1.1-.4 1.4-.2.2-.4.3-.7.3h-2.4v-2.6zm3.4 6.9c-.9.8-2 .5-3.4.5v-2.9h2.7c.4.1.7.3.9.7.1.5.3 1.3-.2 1.7zM76.7 276.7c.3.3.3 1 .1 1.4-.2.3-.5.6-.8.7-.5.2-1.1.1-1.5-.3-.4-.4-.5-.9-.4-1.4.1-.5.6-.9 1-1 .7-.1 1.3.1 1.6.6zM57 254.8c3.2 8.2.9 17.9-5.5 23.7-5.6 5.1-13.9 7-21.3 4.5-8.3-2.8-14.1-10.4-14.5-19.2-.4-8.4 3.9-15.9 11.2-19.9 6.6-3.9 16.6-3.2 22.7 1.4 3.3 2.2 5.9 5.8 7.4 9.5z" fill="#555"/><path d="M36.1 251.3c.8-.2 1.7-.8 2.5-.2.5.8 2 1.1 1.6 2.2.8.9 1.6 2 2.6 2.7.2 0 .3-.1.4-.2l-.3-.1c.3-.3 1.1.2 1.6-.1.3 0 .8.1 1 .4.2.4.3.8.6 1.2l.2-.1c.2.4.3.8.6 1.1 1.6.5 2.4 2.5 3.8 3.3 1.7 1.3 3.5 2.6 5.6 3.4-.1.3.2.3.4.4-.3-.1-.6-.3-.9-.2.3.4.9.2 1.1.7h-.7c0 .1.2.1.3.2-.3-.1-.7.1-.9-.3-1.5-.6-2.8-1.5-4.1-2.3 1 1 2.4 1.7 3.6 2.4.4.2 1 .4 1.2.8-.1 0-.4 0-.4.2l-.3-.2c-.1 0 0 .1 0 .2l.2.2c-1.5-.6-3.2-1.6-4.6-2.7-.7-.5-1.3-.8-2-1.3-.1 0-.2 0-.3.1.8.6 1.6.9 2.3 1.5-1.4-.7-3-1.7-4.1-3-.5-.5-1.2-1.5-2-1.4-.3.2-.8.1-1.1.3-.3 0-.5-.3-.8-.1-.2.5-.9.1-1.1.6-.4.2-1.2 0-1.4.6v.2c-.9.4-2.1.3-2.7 1.1-.2.2-.5 0-.7.2 0-.1 0-.2-.1-.2-.2-.1-.4.1-.5.2-.1-.2.2-.3.1-.4-.4-.2-.6.4-.9.5 0-.4.4-.4.6-.7-.2-.1-.4.1-.6.1.1 0 .3-.4 0-.4.2-.4.7-.2.8-.6H36c.4-.3.8-.6 1.1-.8-.1 0-.4-.4-.6 0 0 0 .1-.1 0-.1-.2-.2-.4.1-.6.1 0 0 0-.1-.1-.2h-.1l.5-.5-.1-.1c.7-.4 1.3-.8 2-1.2l.1-.1c-.2-.2-.5-.2-.7 0 .6 0 0-.7.6-.8.1-.5.5-.8.9-1.1-.6-.5-.8-1.5-1.5-1.8 0-.4-.4 0-.5-.4-.8 0-1.7.4-2.3-.4-.4-.1-.9-.1-1.3-.1-.4.3-.5.8-.7 1.1-.4.3-.5.7-.8 1.1-.4.5-.9 1.2-1.6 1.4v-.1c-.5.7-1.6.4-2.2 1.1v-.2c-.2 0-.4.1-.4.3v.1c-.3-.1-.5.3-.7.5-.8.8-2 .8-2.8 1.5-.1 0 0 0 0 0-1.5.3-2.2 1.4-3.1 2.5-.3.4-.7.7-1.1 1.1.1.4-.4.5-.6.7.2-.3.6-.6.6-.9-.4.2-.4.6-.8.8-.2-.2.2-.3.1-.5l-.5.4.5-.7c-.3 0-.5.5-.8.5-.1.1-.2.1-.4.1.2-.1.5-.5.8-.7-.3-.2-.7.2-.9.2-.1 0 0-.3-.3-.2.2-.2.4-.3.5-.6-.2 0-.4.1-.6.2 0-.2.5-.4.4-.7-.6-.1-.5.5-1 .6.5-.7 1.2-1.1 1.7-1.8.9-1 2.1-1.7 3.2-2.3.9-.5 2.2-.8 2.8-1.7.3-.4.5-.7.7-1 .1 0 .2-.1.2-.2.7-.4 1.4-.7 2.2-.7.4-.4 1-.1 1.3-.6.9-1.1 1.3-2.5 2.1-3.6.3-.4.6-1 1.1-1.1 1.2 0 2.5.2 3.8.6zM45.9 256.6l-.1-.6.1.5z" fill="#fff"/><path d="M46.2 257.5c-.2 0-.1-.2-.2-.3.1 0 .2.2.2.3zM25.1 257.8c-.1-.3.2-.4.4-.6-.1.2-.2.5-.4.6zM29.4 257.9v-.1h.1zM28.4 258.2c-.1.1-.1.2-.3.2.1-.2.3-.3.3-.2z" fill="#555"/><path d="M36.9 258.9c-.2.2-.7.3-.7.6-.4 0-.7.4-1 .4 0-.4.6-.1.6-.5l.4-.3v.1c.1-.1.6 0 .4-.4l.3.1zM35.5 259.2c-.1.2-.3.3-.5.4.1-.3.3-.3.5-.4z" fill="#fff"/><path d="M26.4 259.7c.1.1-.1 0-.1.1l.1-.1zM36.4 260h.1v.1h-.1zM36.2 260.3c0 .1-.1.1-.1.2H36c-.1-.2 0-.2.2-.2-.1-.1-.1 0 0 0zM37 261.1c0 .2-.3.2-.3.2-.1 0 0-.1 0-.2.2.1.2 0 .3 0zM37.1 261.4c0 .2-.4.2-.5.3 0-.2.2-.3.4-.4 0 .1.1 0 .1.1zM47.7 261.8c.2.1.3.3.4.4l-.1.1c-.3-.3-.5-.6-.7-1 .2.2.3.4.4.5z" fill="#555"/><path d="M54.1 264.2c-.1.1-.3-.1-.4-.1l.4.1zM55.4 264.9c-.4-.2-.8-.2-1.1-.5.4 0 .7.3 1.1.5zM51.5 264.8l-.6-.4.4.2zM55.2 266.2l.1-.1.1.1zM55 266.4h-.2v-.1c.1.1.2.1.2.1z" fill="#fff"/><path d="M34.4 489.1h-5V502c0 2.1 1.2 7.1 6.7 7.1h8.8v-3.5h-7.3c-1.9 0-3.3-1.1-3.3-3.6.1-1.3.1-12.9.1-12.9zM64 489.1h-7.9c-1.7 0-10.2.3-10.2 8.4v4c0 1.9 1.1 7.6 10.1 7.6h8v-3.8h-9.2c-1.4 0-3.6-1.2-3.6-3.5V497c0-1.1.9-4.1 3.6-4.1H64v-3.8zM65.7 489.1h5.5l5.5 7.4 5.2-7.4h5.9l-8.7 11.2v8.8H74v-8.8z" fill="#585858"/><path d="M103.9 475.7S91.8 499.2 91 500.8c-.7 1.6-.8 8.2 7.1 8.2h31.1c2.3 0 8.8-3 5.8-9.1-3-6.1-12.5-24.3-12.5-24.3l-4.5 7.8s7 13.4 7.5 14.4c.4 1 2.1 4.6-1.4 4.6h-21.6c-1.5 0-2.9-1.6-1.8-3.9 1.1-2.3 7.8-15.2 7.8-15.2l-4.6-7.6z" fill="#969696"/><path d="M113.3 480.8s-5.1-9.1-5.7-10.7c-.3-.9-.5-7.5 5.7-7.5 5.8 0 6.3 5.9 5.6 7.5-.7 1.7-5.6 10.7-5.6 10.7z" fill="#B6B6B6"/><g fill="#202020"><path d="M131.1 480.1v-3.9h-1.4v-.5h3.5v.5h-1.4v3.9h-.7zM133.7 480.1v-4.4h.9l1 3.1c.1.3.2.5.2.6 0-.2.1-.4.2-.7l1-3.1h.8v4.4h-.6v-3.7l-1.3 3.7h-.5l-1.3-3.7v3.7h-.4z"/></g></svg>
