<svg xmlns="http://www.w3.org/2000/svg" viewBox="0 0 80 60"><defs><style>.cls-1{isolation:isolate;}.cls-2{fill:#231f20;opacity:0.14;mix-blend-mode:multiply;}.cls-3{fill:#865827;}.cls-4,.cls-7{fill:none;}.cls-5{fill:#85632b;}.cls-6{fill:#d19b49;}.cls-7{stroke:#865827;stroke-linecap:round;stroke-miterlimit:10;stroke-width:2px;}</style></defs><title>Artboard 1</title><g class="cls-1"><g id="Layer_1" data-name="Layer 1"><path class="cls-2" d="M73.11,35.76l.85-2A15,15,0,0,0,68.1,26.8l.57-1.35a16.5,16.5,0,0,0-7.48-3.78L59.73,18l1,.22,1.18-2.8c0-.06-.46-1.14-4-2.52,1.41-4-1.22-10.68-1.36-11a26.6,26.6,0,0,0-4.74.25c-6.39,1-8.51,4.33-9.14,5.84h0l-.12.3c-1,.07-2,.19-3.11.36-.8.12-1.66.27-2.55.46l.66-1.58a13.2,13.2,0,0,0-3.33.14,13.62,13.62,0,0,0-7.91,4c-.46-.22-9.27-4.51-17.81-3.21a16.61,16.61,0,0,0-3.11.76l-1.18,2.8c0,.22.12,4.23,8.27,14A16.92,16.92,0,0,0,8.7,31.31l.06-.18-1.18,2.8a8.71,8.71,0,0,0-.65,2.4,25.82,25.82,0,0,1,3.87-5c-.14.3-.28.61-.42.94l0-.06L9.23,35c-1.35,3.2-2.2,7.61.82,11.26l.75-1.78c.92,3.4,2.87,8.46,6.77,11.28L18.31,54c2.55,2.26,6.79,4.76,13.64,5.92L32.74,58a39,39,0,0,0,15.51,1.25,19.75,19.75,0,0,0,7-2.33l.28-.16a12.63,12.63,0,0,0,4.88-5.45,21.36,21.36,0,0,1-.43,3.23l-.29.69a13.33,13.33,0,0,0,4.4-5.07L64.53,49a20.08,20.08,0,0,1-.24,3.45,18.94,18.94,0,0,0,4.28-6.14l1.18-2.8a3.76,3.76,0,0,1,0,1.34h0A4.83,4.83,0,0,0,72,42.56l1.18-2.8v0A5.41,5.41,0,0,0,73.11,35.76ZM71,41.7v0ZM71,42a.36.36,0,0,0,0-.1A.36.36,0,0,1,71,42Zm0-.64a.76.76,0,0,1,0-.15A.76.76,0,0,0,71,41.34ZM71,41c0-.06,0-.11,0-.17S71,40.89,71,41Zm0-.41a.68.68,0,0,0,0-.14A.68.68,0,0,1,70.9,40.54Zm-.05-.38,0-.1S70.84,40.13,70.85,40.16Zm1.33-7.59a3.83,3.83,0,0,0-.93-.23h0A3.83,3.83,0,0,1,72.18,32.57Zm-3,12.15a2.29,2.29,0,0,1-.14.27A2.29,2.29,0,0,0,69.19,44.72Zm-.69,1.22,0,.08Zm-.66,1-.15.21Zm-.71.94,0,0Zm-.57.68a1.79,1.79,0,0,1-.13.14Zm-.55.6h0ZM59.07,31.61c1.16-.17,1.91,0,1.82,1a11.53,11.53,0,0,1-1.76,4.31c-.44-.11-8.74-2.2-5.31-3.55A28.47,28.47,0,0,1,59.07,31.61ZM55.36,45.74a.21.21,0,0,0,0-.2A.21.21,0,0,1,55.36,45.74ZM53.21,4.62q.49-.08,1-.12c.13.33,2.65,6.58.39,9.14-.3-.18-6-3.68-8.28-4.35C45.45,9,48,5.41,53.21,4.62ZM50.85,26.87c1.56,4.84-.73,9.26-5.12,9.92l-.08,0c-4.44.62-9.32-2.83-10.89-7.69s-.26-12.36,4.19-13S49.27,22,50.85,26.87ZM21.52,29.1a1.15,1.15,0,0,1,.35-.1A1.15,1.15,0,0,0,21.52,29.1Zm-10.82-18c4.65-.7,10.72,2.53,11,2.7A19.59,19.59,0,0,0,16.15,20c-3.94-2.51-6.58-8.23-6.72-8.53A6.56,6.56,0,0,1,10.7,11.11Zm-2.28,21c0,.11-.07.22-.09.32C8.35,32.32,8.39,32.21,8.42,32.1Zm2.84,6.22-.13.33h0l.13-.33v0h0Zm-1.11-5.51a1.54,1.54,0,0,1,.08-.19A1.54,1.54,0,0,0,10.15,32.81Zm-.22.61,0,0ZM9.74,34l-.06.21Zm-.18.64a2.21,2.21,0,0,0-.05.25A2.21,2.21,0,0,1,9.56,34.68Zm-.14.66a2.56,2.56,0,0,0-.05.27A2.56,2.56,0,0,1,9.42,35.34ZM9.3,36l0,.27Zm-.11,1.43a1.55,1.55,0,0,0,0,.22A1.55,1.55,0,0,1,9.19,37.45Zm0-.74a2.45,2.45,0,0,1,0,.27A2.45,2.45,0,0,0,9.22,36.71ZM10,41.43l-.12-.28Zm-.28-.7-.09-.28ZM9.48,40c0-.09-.05-.18-.07-.27C9.43,39.85,9.46,39.94,9.48,40Zm-.16-.74c0-.08,0-.15,0-.23C9.29,39.14,9.31,39.21,9.32,39.29Zm-.11-.9v0Zm1,3.46,0,.07h0Zm1.13-3.25h0c0,.15,0,.33.09.55C11.36,38.93,11.33,38.75,11.31,38.6Zm1.21,4.85c-.24-.71-.44-1.39-.6-2s-.29-1.18-.39-1.65c.1.47.23,1,.39,1.65s.36,1.3.6,2,.52,1.46.84,2.22C13,44.91,12.76,44.16,12.52,43.45Zm48.54,8.84-.11.08Zm-.15.1,0,0h0Zm.64-3.75v0Zm0,3.27-.18.14Zm-.28.22-.14.1Zm-.27,0,0-.09Zm.07-.22,0-.1Zm.07-.25,0-.11Zm.06-.28,0-.12Zm.06-.3a.5.5,0,0,0,0-.12A.5.5,0,0,1,61.26,51.11Zm.06-.34s0-.06,0-.1Zm.06-.41v-.09A.28.28,0,0,0,61.38,50.36Zm0-.32v0Zm0-.31v0Zm0-.28v0Zm0-.27v0Zm0-.23v0Zm0-.18v0Zm.11,3.06.29-.24Zm.33-.27.35-.32Zm.46-.42.27-.26Zm.41-.4.25-.26ZM64,49.39c.13-.17.25-.34.37-.52C64.29,49.05,64.17,49.22,64,49.39Zm-.79.93.27-.29Zm.4-.45.33-.4Zm.86-1.15,0,0h0Zm1.1.85.06-.07Zm4.13-6v0h0Zm1.31-1.53h0Zm.2-.12h0Zm.28-.18h0Zm.32-.24,0,0Zm.34-.32,0,0Zm.38-.43,0,0Zm.3-.43,0,0Z"/><path class="cls-3" d="M44.49,9.52c.17-.41,5.18-8.52,12-6.85,0,0,2.67,11.87.67,13.37Z"/><path class="cls-3" d="M8.71,9.64c-.22.11,7.15,10.91,7.15,10.91s5.49.92,5.45.61-3.38,5.54-3.07,5.61,3.31,11.6,4.15,12.91,22,13.06,22.59,13S59.77,47.36,59.81,47s5.64-9.6,5.68-10.76.73-5.34-.15-6.83-6.23-6.69-6.23-6.69-9.56-7.11-11.06-8.07-9-2.76-9-2.76L21.78,10.49,13.56,8.41S9,9.49,8.71,9.64Z"/><path class="cls-3" d="M43.71,6.93l-1.18,2.8a3.11,3.11,0,0,0-.12.3l1.18-2.8A3.11,3.11,0,0,1,43.71,6.93Z"/><path class="cls-3" d="M37.4,9.27l1.19-2.8a8.67,8.67,0,0,0-4.3,2.43l-1.18,2.8A8.67,8.67,0,0,1,37.4,9.27Z"/><path class="cls-3" d="M68.49,27.25l1.18-2.8a9.91,9.91,0,0,0-3.35-.27h-.06L65.08,27h.06A9.91,9.91,0,0,1,68.49,27.25Z"/><path class="cls-3" d="M75,32.74a4.47,4.47,0,0,0-2.71-1.4l-1.18,2.8a4.47,4.47,0,0,1,2.71,1.4Z"/><path class="cls-3" d="M72,41.1h0a9.36,9.36,0,0,0-.18-2.39l-1.19,2.8s.1.53.16,1a4,4,0,0,1,0,1.33v0A4.78,4.78,0,0,0,73,41.55l1.18-2.8A4.78,4.78,0,0,1,72,41.1Z"/><path class="cls-3" d="M66.48,48.69a27.92,27.92,0,0,0,.23-4.12l-1.18,2.8v.31A14.34,14.34,0,0,1,61.9,51.4l.09-.21a17.52,17.52,0,0,0,.57-3.67A12.67,12.67,0,0,1,57.67,53l-.28.15a19.77,19.77,0,0,1-7,2.34c-.87.13-1.74.22-2.62.27-10,.57-19.88-3.9-20.45-4.16l-.95,2.28C19.12,50.68,17.13,46,17,45.66l-.94,2.22a29,29,0,0,1-3.75-10.29l.18-.43c0-.11,0-.16,0-.17l-.19.45a.59.59,0,0,1,0-.13l-.08.17L11,40.28a1.3,1.3,0,0,1,.08-.17c0,.16.06.44.13.81-1.77-3.3-1-7,.19-9.76L10.23,34c-1.35,3.21-2.2,7.62.82,11.27l.75-1.78c.92,3.4,2.87,8.45,6.78,11.27L19.32,53c2.54,2.26,6.78,4.76,13.63,5.92L33.74,57a41.86,41.86,0,0,0,12.89,1.53c.88,0,1.75-.14,2.62-.27a19.77,19.77,0,0,0,7-2.34l.28-.15a12.67,12.67,0,0,0,4.89-5.46,21.72,21.72,0,0,1-.44,3.24l-.28.68a13.33,13.33,0,0,0,4.39-5.07L65.53,48a20.23,20.23,0,0,1-.23,3.45,19,19,0,0,0,4.27-6.14l1.18-2.8A19,19,0,0,1,66.48,48.69Z"/><path class="cls-3" d="M15.54,23.11c-9-10.51-9.12-14.77-9.12-15l-1.18,2.8c0,.22.11,4.48,9.12,15Z"/><path class="cls-3" d="M12.69,29.64l1.18-2.8c-2,1.1-4.62,5.46-4.76,5.69a9.15,9.15,0,0,1,.65-2.41l-1.18,2.8a9.15,9.15,0,0,0-.65,2.41C8.07,35.1,10.67,30.74,12.69,29.64Z"/><path class="cls-3" d="M56.47,29.29c.76-.31.93-1.67.37-3.05S55.22,24,54.47,24.29s-.93,1.67-.37,3.05S55.72,29.59,56.47,29.29Z"/><g class="cls-1"><polygon class="cls-3" points="62.95 14.39 61.77 17.19 58.24 16.46 59.43 13.66 62.95 14.39"/><path class="cls-4" d="M42.53,9.73l1.18-2.8a3.11,3.11,0,0,0-.12.3L42.41,10A3.11,3.11,0,0,1,42.53,9.73Z"/><path class="cls-4" d="M38.59,6.47,37.4,9.27a8.67,8.67,0,0,0-4.29,2.43l1.18-2.8A8.67,8.67,0,0,1,38.59,6.47Z"/><path class="cls-4" d="M69.67,24.45l-1.18,2.8A9.94,9.94,0,0,0,65.08,27l1.18-2.8A9.94,9.94,0,0,1,69.67,24.45Z"/><path class="cls-4" d="M75,32.74l-1.18,2.8a4.47,4.47,0,0,0-2.71-1.4l1.18-2.8A4.47,4.47,0,0,1,75,32.74Z"/><path class="cls-4" d="M72,41.09l-1.19,2.8a8.53,8.53,0,0,0-.18-2.39l1.19-2.8A9.36,9.36,0,0,1,72,41.09Z"/><path class="cls-4" d="M74.17,38.75,73,41.55a4.78,4.78,0,0,1-2.22,2.35L72,41.1A4.78,4.78,0,0,0,74.17,38.75Z"/><path class="cls-4" d="M15.54,23.11l-1.18,2.8c-9-10.51-9.12-14.77-9.12-15l1.18-2.8C6.42,8.34,6.53,12.6,15.54,23.11Z"/><path class="cls-4" d="M22.37,32.83,23.55,30a.24.24,0,0,1,.2-.14l-1.18,2.8A.24.24,0,0,0,22.37,32.83Z"/><path class="cls-4" d="M70.75,42.55l-1.18,2.8a19,19,0,0,1-4.27,6.14l1.18-2.8A19,19,0,0,0,70.75,42.55Z"/><path class="cls-4" d="M66.48,48.69l-1.18,2.8a27.92,27.92,0,0,0,.23-4.12l1.18-2.8A27.92,27.92,0,0,1,66.48,48.69Z"/><path class="cls-4" d="M56.36,44.54l-1.19,2.8a.36.36,0,0,0-.36-.18L56,44.36A.38.38,0,0,1,56.36,44.54Z"/><path class="cls-4" d="M56.36,44.74l-1.18,2.8a.21.21,0,0,0,0-.2l1.19-2.8A.23.23,0,0,1,56.36,44.74Z"/><path class="cls-4" d="M62,51.19,60.81,54a17.52,17.52,0,0,0,.57-3.67l1.18-2.8A17.52,17.52,0,0,1,62,51.19Z"/><path class="cls-4" d="M66.23,46.37l-1.18,2.8a13.33,13.33,0,0,1-4.39,5.07l1.18-2.8A13.33,13.33,0,0,0,66.23,46.37Z"/><path class="cls-4" d="M13.87,26.84l-1.18,2.8c-2,1.1-4.62,5.46-4.76,5.69l1.18-2.8C9.25,32.3,11.85,27.94,13.87,26.84Z"/><path class="cls-4" d="M8.58,32.92l1.18-2.8a9.15,9.15,0,0,0-.65,2.41l-1.18,2.8A9.15,9.15,0,0,1,8.58,32.92Z"/><path class="cls-4" d="M62.56,47.52l-1.18,2.8a12.67,12.67,0,0,1-4.89,5.46l-.28.15,1.18-2.8.28-.15A12.67,12.67,0,0,0,62.56,47.52Z"/><path class="cls-4" d="M56,44.36l-1.18,2.8a37.23,37.23,0,0,1-5.88,1.41,23.31,23.31,0,0,1-14.16-1.89C26,42.34,23,33,23,32.91a.35.35,0,0,0-.38-.22l1.18-2.8a.35.35,0,0,1,.38.22c0,.1,3.09,9.43,11.82,13.77a23.31,23.31,0,0,0,14.16,1.89A37.23,37.23,0,0,0,56,44.36Z"/><path class="cls-4" d="M12.49,37.16,11.31,40c0-.1,0-.16,0-.17L12.48,37S12.48,37.05,12.49,37.16Z"/><polygon class="cls-5" points="12.48 36.99 11.3 39.79 11.19 39.95 12.37 37.15 12.48 36.99"/><path class="cls-4" d="M11,40.28l1.18-2.8.08-.17-1.18,2.8A1.3,1.3,0,0,0,11,40.28Z"/><path class="cls-4" d="M57.39,53.13l-1.18,2.8a19.77,19.77,0,0,1-7,2.34l1.18-2.8A19.77,19.77,0,0,0,57.39,53.13Z"/><path class="cls-4" d="M50.43,55.47l-1.18,2.8c-10.88,1.65-22.46-3.61-23.07-3.89l1.18-2.8C28,51.86,39.56,57.12,50.43,55.47Z"/><path class="cls-4" d="M34.13,56.09,33,58.89c-13.72-2.32-17-10-17.13-10.43L17,45.66C17.17,46.06,20.41,53.77,34.13,56.09Z"/><path class="cls-4" d="M19.76,51.92l-1.18,2.8c-5.8-4.18-7.3-13.3-7.49-14.61l1.18-2.8C12.46,38.62,14,47.74,19.76,51.92Z"/><path class="cls-4" d="M10.23,34l1.18-2.8c-1.35,3.21-2.2,7.62.82,11.27l-1.18,2.8C8,41.58,8.88,37.17,10.23,34Z"/><path class="cls-6" d="M75,32.74a4.47,4.47,0,0,0-2.71-1.4c5.15,7.11,0,9.63-.3,9.76a8.75,8.75,0,0,0-.17-2.4c-.62,5.67-5.07,9.77-5.3,10a27.92,27.92,0,0,0,.23-4.12c-.43,3.84-4.65,6.72-4.87,6.87.49-.53.71-3.75.72-3.92A12.67,12.67,0,0,1,57.67,53l-.28.15a19.77,19.77,0,0,1-7,2.34C39.56,57.12,28,51.86,27.36,51.58a19.08,19.08,0,0,0,6.77,4.51c-13.72-2.32-17-10-17.13-10.43.36,2,2.64,6.05,2.76,6.26-5.8-4.18-7.3-13.3-7.49-14.61-.8,1.55-.08,4.94,0,5.12C6.94,36,13.52,27.3,13.87,26.84c-2,1.1-4.62,5.46-4.76,5.69.55-4.94,6.14-9.2,6.43-9.42-9-10.51-9.12-14.77-9.12-15a16.83,16.83,0,0,1,3.11-.77c8.54-1.29,17.35,3,17.82,3.22a13.56,13.56,0,0,1,7.9-4,13.28,13.28,0,0,1,3.34-.14,8.67,8.67,0,0,0-4.3,2.43,56.27,56.27,0,0,1,6.19-1.32c1.12-.17,2.15-.28,3.11-.35C44.07,5.9,46,2.13,52.84,1.1A25.74,25.74,0,0,1,57.58.85c.14.35,2.77,7,1.36,11,3.54,1.39,4,2.47,4,2.52l-3.52-.73,2.76,7a16.39,16.39,0,0,1,7.48,3.78,9.94,9.94,0,0,0-3.41-.26C73.15,27.42,74.87,32.47,75,32.74ZM56.22,44.87a.23.23,0,0,0,.14-.33.38.38,0,0,0-.37-.18,37.23,37.23,0,0,1-5.88,1.41A23.31,23.31,0,0,1,36,43.88c-8.73-4.34-11.79-13.67-11.82-13.77a.35.35,0,0,0-.38-.22.22.22,0,0,0-.2.3c0,.1,3.16,9.68,12.16,14.15a24,24,0,0,0,14.57,2,38.09,38.09,0,0,0,5.94-1.43M38.57,26.94c1.58,4.86,6.45,8.31,10.89,7.69h.09c4.39-.67,6.68-5.08,5.12-9.92s-7.46-11.4-11.9-10.79-5.76,8.18-4.2,13M10.43,10.43c.14.3,2.78,6,6.72,8.53a19.69,19.69,0,0,1,5.6-6.15c-.32-.17-6.4-3.4-11-2.7a6.56,6.56,0,0,0-1.27.32m45.2,2.21c2.26-2.56-.27-8.81-.4-9.14q-.52,0-1,.12C49,4.41,46.45,8,47.35,8.29c2.23.67,8,4.16,8.28,4.35m6.26,18.92c.09-.92-.65-1.13-1.81-.95a28.88,28.88,0,0,0-5.25,1.7c-3.44,1.35,4.86,3.44,5.3,3.55a11.2,11.2,0,0,0,1.76-4.3m-49.4,5.6c0-.11,0-.16,0-.17l-.11.16h.12"/></g><ellipse class="cls-6" cx="51.47" cy="27.06" rx="1.85" ry="3.27" transform="translate(-3.5 8.09) rotate(-8.69)"/><path class="cls-3" d="M60.19,28.14c.76-.3.92-1.67.37-3.05s-1.62-2.25-2.38-1.94-.92,1.67-.37,3.05S59.43,28.45,60.19,28.14Z"/><circle class="cls-2" cx="27.79" cy="19.38" r="3.79"/><circle class="cls-2" cx="22.43" cy="42.39" r="3.41"/><circle class="cls-3" cx="28.8" cy="18.37" r="3.79"/><path class="cls-2" d="M28.8,14.59a3.81,3.81,0,0,0-1.75.44,3.35,3.35,0,0,1,.71-.07,3.42,3.42,0,1,1,0,6.83,4.17,4.17,0,0,1-.71-.07,3.78,3.78,0,1,0,1.75-7.13Z"/><circle class="cls-3" cx="48.03" cy="53.55" r="3.56"/><path class="cls-2" d="M48,50a3.5,3.5,0,0,0-1.64.42,3,3,0,0,1,.67-.07,3.22,3.22,0,1,1,0,6.43,3,3,0,0,1-.67-.07,3.5,3.5,0,0,0,1.64.42A3.57,3.57,0,1,0,48,50Z"/><circle class="cls-3" cx="23.37" cy="41.83" r="3.41"/><path class="cls-2" d="M23.37,38.42a3.33,3.33,0,0,0-1.57.4,2.73,2.73,0,0,1,.64-.07,3.08,3.08,0,1,1,0,6.15,2.73,2.73,0,0,1-.64-.07,3.33,3.33,0,0,0,1.57.4,3.41,3.41,0,1,0,0-6.81Z"/><circle class="cls-3" cx="45.65" cy="11.43" r="1.97"/><path class="cls-2" d="M45.65,9.46a1.83,1.83,0,0,0-.9.24,1.5,1.5,0,0,1,.37,0,1.78,1.78,0,0,1,0,3.55,1.5,1.5,0,0,1-.37,0,1.94,1.94,0,0,0,.9.23,2,2,0,0,0,0-3.94Z"/><circle class="cls-3" cx="67.51" cy="37.69" r="2.59"/><path class="cls-2" d="M67.51,35.1a2.53,2.53,0,0,0-1.19.3,2.63,2.63,0,0,1,.49,0,2.34,2.34,0,1,1,0,4.68,2,2,0,0,1-.49-.06,2.54,2.54,0,0,0,1.19.31,2.59,2.59,0,0,0,0-5.18Z"/><circle class="cls-6" cx="40.11" cy="55.46" r="2.05"/><path class="cls-2" d="M74.11,34.74l.85-2a14.91,14.91,0,0,0-5.85-6.92l.57-1.35a16.47,16.47,0,0,0-7.46-3.77L60.77,17l1,.21L63,14.44c0-.06-.46-1.14-4-2.51,1.41-4-1.21-10.65-1.35-11a26.48,26.48,0,0,0-4.73.25c-6.37,1-8.48,4.32-9.11,5.83V7l-.12.3c-1,.07-2,.19-3.1.36-.72.11-1.48.24-2.27.4,11.35,6.29,28.45,15.12,14.87,49.2a17.82,17.82,0,0,0,3.09-1.39l.28-.16a12.54,12.54,0,0,0,4.87-5.43A22.54,22.54,0,0,1,61,53.49l-.29.69a13.28,13.28,0,0,0,4.38-5.06L65.55,48a20.15,20.15,0,0,1-.23,3.45,18.94,18.94,0,0,0,4.26-6.12l1.18-2.8a3.76,3.76,0,0,1,0,1.34h0A4.79,4.79,0,0,0,73,41.52l1.18-2.79,0,0A5.38,5.38,0,0,0,74.11,34.74Z"/><path class="cls-2" d="M61.93,51.34Z"/><path class="cls-2" d="M65.56,47.63l0,0,0,0Z"/><path class="cls-2" d="M70.75,42.54v0h0Z"/><path class="cls-2" d="M72.25,31.33h0a4.35,4.35,0,0,1,.94.23A4.35,4.35,0,0,0,72.25,31.33Z"/><polygon class="cls-6" points="6.06 23.02 1.84 26.81 4.33 30.27 6.38 26.81 8.65 28.1 10.06 25.51 6.06 23.02"/><polygon class="cls-6" points="2.16 19.23 4.76 20.75 5.95 18.26 4.65 16.74 2.16 19.23"/><path class="cls-6" d="M67.73,53.21C68,53.38,74.11,49,74.11,49l4.11,5.73s-4.06.49-4.11.76-.11-2.6-.11-2.6l-2.38,2.6S67.29,52.88,67.73,53.21Z"/><polygon class="cls-6" points="64.05 56.78 67.94 55.69 68.7 58.51 66.1 58.18 64.7 59.8 64.05 56.78"/><path class="cls-6" d="M74.22,46.06a16.09,16.09,0,0,0-3-1.29l-1.08,3.46Z"/><path class="cls-3" d="M3.44,22.24c-.19,0-2.11.75-2.11.75l.38,1.28,1.81-.45L5,22.46,3.52,21.18Z"/><polygon class="cls-3" points="2.08 34.22 4.95 38.07 6.83 31.81 3.67 32.04 4.04 34.3 2.08 34.22"/><path class="cls-7" d="M23.68,29.35s8.26,24.46,32.68,15.19"/><path class="cls-3" d="M18.7,28.71s1.53-9.18,9.11-1.59C27.81,27.12,22.46,22.93,18.7,28.71Z"/></g></g></svg>